<?xml version="1.0" encoding="UTF-8"?>
<!DOCTYPE svg PUBLIC "-//W3C//DTD SVG 1.1//EN" "http://www.w3.org/Graphics/SVG/1.1/DTD/svg11.dtd">
<svg xmlns="http://www.w3.org/2000/svg" version="1.1" width="512px" height="512px" style="shape-rendering:geometricPrecision; text-rendering:geometricPrecision; image-rendering:optimizeQuality; fill-rule:evenodd; clip-rule:evenodd" xmlns:xlink="http://www.w3.org/1999/xlink">
<g><path style="opacity:0.94" fill="#000000" d="M 131.5,-0.5 C 134.5,-0.5 137.5,-0.5 140.5,-0.5C 143.049,1.55577 144.549,4.22244 145,7.5C 145.667,36.5 145.667,65.5 145,94.5C 142.627,101.855 137.794,104.022 130.5,101C 129.299,100.097 128.465,98.9308 128,97.5C 127.333,66.1667 127.333,34.8333 128,3.5C 129.376,2.29493 130.542,0.961599 131.5,-0.5 Z"/></g>
<g><path style="opacity:0.94" fill="#000000" d="M 216.5,-0.5 C 219.5,-0.5 222.5,-0.5 225.5,-0.5C 230.391,3.09274 231.557,7.7594 229,13.5C 217.888,22.3105 207.055,31.4771 196.5,41C 278.5,41.6667 360.5,41.6667 442.5,41C 431.945,31.4771 421.112,22.3105 410,13.5C 407.436,7.7987 408.603,3.13203 413.5,-0.5C 416.167,-0.5 418.833,-0.5 421.5,-0.5C 439.311,14.4691 457.311,29.3024 475.5,44C 478.816,50.141 477.816,55.4743 472.5,60C 456.5,73.3333 440.5,86.6667 424.5,100C 416.259,104.708 410.926,102.541 408.5,93.5C 408.577,91.701 409.077,90.0344 410,88.5C 420.873,78.625 432.039,69.125 443.5,60C 360.833,59.3333 278.167,59.3333 195.5,60C 204.316,67.5727 213.316,74.9061 222.5,82C 225.372,84.5366 227.872,87.3699 230,90.5C 229.888,101.646 224.721,104.812 214.5,100C 197.333,85.5 180.167,71 163,56.5C 160.891,52.2191 161.058,48.0524 163.5,44C 181.65,29.6782 199.317,14.8449 216.5,-0.5 Z"/></g>
<g><path style="opacity:0.94" fill="#000000" d="M 498.5,-0.5 C 501.5,-0.5 504.5,-0.5 507.5,-0.5C 508.5,1.16667 509.833,2.5 511.5,3.5C 511.5,34.8333 511.5,66.1667 511.5,97.5C 507.907,102.391 503.241,103.557 497.5,101C 495.683,99.2002 494.516,97.0336 494,94.5C 493.333,65.5 493.333,36.5 494,7.5C 494.451,4.22244 495.951,1.55577 498.5,-0.5 Z"/></g>
<g><path style="opacity:0.94" fill="#000000" d="M -0.5,140.5 C -0.5,137.5 -0.5,134.5 -0.5,131.5C 0.961599,130.542 2.29493,129.376 3.5,128C 34.8333,127.333 66.1667,127.333 97.5,128C 102.452,131.4 103.618,135.9 101,141.5C 99.2002,143.317 97.0336,144.484 94.5,145C 65.5,145.667 36.5,145.667 7.5,145C 4.22244,144.549 1.55577,143.049 -0.5,140.5 Z"/></g>
<g><path style="opacity:0.932" fill="#000000" d="M 511.5,153.5 C 511.5,264.167 511.5,374.833 511.5,485.5C 507.167,498.5 498.5,507.167 485.5,511.5C 374.833,511.5 264.167,511.5 153.5,511.5C 140.517,507.349 132.017,498.682 128,485.5C 127.333,374.833 127.333,264.167 128,153.5C 131.833,140.333 140.333,131.833 153.5,128C 264.167,127.333 374.833,127.333 485.5,128C 498.682,132.017 507.349,140.517 511.5,153.5 Z M 159.5,146.5 C 265.999,145.334 372.666,145.167 479.5,146C 426.32,199.347 372.986,252.514 319.5,305.5C 266.146,252.479 212.812,199.479 159.5,146.5 Z M 145.5,159.5 C 199.02,212.853 252.687,266.02 306.5,319C 253,372.5 199.5,426 146,479.5C 145.5,372.834 145.333,266.167 145.5,159.5 Z M 492.5,159.5 C 493.666,265.999 493.833,372.666 493,479.5C 439.653,426.32 386.486,372.986 333.5,319.5C 386.521,266.146 439.521,212.812 492.5,159.5 Z M 319.5,332.5 C 373.407,385.907 427.073,439.407 480.5,493C 373.5,493.667 266.5,493.667 159.5,493C 213.035,439.632 266.368,386.132 319.5,332.5 Z"/></g>
<g><path style="opacity:0.94" fill="#000000" d="M -0.5,422.5 C -0.5,419.5 -0.5,416.5 -0.5,413.5C 3.09274,408.609 7.7594,407.443 13.5,410C 22.3105,421.112 31.4771,431.945 41,442.5C 41.6667,360.5 41.6667,278.5 41,196.5C 31.4771,207.055 22.3105,217.888 13.5,229C 7.7594,231.557 3.09274,230.391 -0.5,225.5C -0.5,222.5 -0.5,219.5 -0.5,216.5C 14.4898,199.504 29.1564,182.171 43.5,164.5C 49.5323,160.108 55.0323,160.775 60,166.5C 73.3333,182.5 86.6667,198.5 100,214.5C 104.708,222.741 102.541,228.074 93.5,230.5C 91.701,230.423 90.0344,229.923 88.5,229C 78.625,218.127 69.125,206.961 60,195.5C 59.3333,278.167 59.3333,360.833 60,443.5C 67.5727,434.684 74.9061,425.684 82,416.5C 84.5366,413.628 87.3699,411.128 90.5,409C 101.646,409.112 104.812,414.279 100,424.5C 85.5,441.667 71,458.833 56.5,476C 52.2191,478.109 48.0524,477.942 44,475.5C 29.6782,457.35 14.8449,439.683 -0.5,422.5 Z"/></g>
<g><path style="opacity:0.94" fill="#000000" d="M 97.5,511.5 C 66.1667,511.5 34.8333,511.5 3.5,511.5C 2.5,509.833 1.16667,508.5 -0.5,507.5C -0.5,504.5 -0.5,501.5 -0.5,498.5C 1.55577,495.951 4.22244,494.451 7.5,494C 36.5,493.333 65.5,493.333 94.5,494C 101.855,496.373 104.022,501.206 101,508.5C 99.8549,509.636 98.6883,510.636 97.5,511.5 Z"/></g>
</svg>
