<?xml version="1.0" encoding="UTF-8"?>
<!DOCTYPE svg PUBLIC "-//W3C//DTD SVG 1.1//EN" "http://www.w3.org/Graphics/SVG/1.1/DTD/svg11.dtd">
<svg xmlns="http://www.w3.org/2000/svg" version="1.1" width="512px" height="512px" style="shape-rendering:geometricPrecision; text-rendering:geometricPrecision; image-rendering:optimizeQuality; fill-rule:evenodd; clip-rule:evenodd" xmlns:xlink="http://www.w3.org/1999/xlink">
<g><path style="opacity:0.938" fill="#000000" d="M 22.5,36.5 C 92.8333,36.5 163.167,36.5 233.5,36.5C 233.5,101.833 233.5,167.167 233.5,232.5C 163.167,232.5 92.8333,232.5 22.5,232.5C 22.5,187.167 22.5,141.833 22.5,96.5C 27.8333,96.5 33.1667,96.5 38.5,96.5C 38.5,126.5 38.5,156.5 38.5,186.5C 53.837,186.667 69.1703,186.5 84.5,186C 77.8272,178.987 73.8272,170.653 72.5,161C 75.7049,146.222 84.7049,140.889 99.5,145C 102.196,145.765 104.696,146.932 107,148.5C 108.823,141.352 112.323,135.185 117.5,130C 126.614,124.531 134.78,125.698 142,133.5C 145.137,138.108 147.47,143.108 149,148.5C 159.97,141.173 170.304,141.84 180,150.5C 183.541,156.199 184.208,162.199 182,168.5C 179.897,175.213 176.397,181.046 171.5,186C 186.83,186.5 202.163,186.667 217.5,186.5C 217.5,141.833 217.5,97.1667 217.5,52.5C 157.833,52.5 98.1667,52.5 38.5,52.5C 38.5,62.5 38.5,72.5 38.5,82.5C 33.1667,82.5 27.8333,82.5 22.5,82.5C 22.5,67.1667 22.5,51.8333 22.5,36.5 Z M 127.5,142.5 C 130.937,145.701 133.104,149.701 134,154.5C 134.667,161.167 134.667,167.833 134,174.5C 133.054,179.058 131.054,183.058 128,186.5C 122.916,180.077 120.749,172.744 121.5,164.5C 120.706,156.335 122.706,149.002 127.5,142.5 Z M 89.5,159.5 C 94.9769,160.325 99.9769,162.325 104.5,165.5C 105.22,172.346 106.387,179.012 108,185.5C 98.8327,179.346 92.3327,171.179 88.5,161C 89.056,160.617 89.3893,160.117 89.5,159.5 Z M 164.5,159.5 C 165.756,159.461 166.756,159.961 167.5,161C 163.667,171.179 157.167,179.346 148,185.5C 149.613,179.012 150.78,172.346 151.5,165.5C 155.574,162.708 159.908,160.708 164.5,159.5 Z M 38.5,202.5 C 98.1667,202.5 157.833,202.5 217.5,202.5C 217.5,207.167 217.5,211.833 217.5,216.5C 157.833,216.5 98.1667,216.5 38.5,216.5C 38.5,211.833 38.5,207.167 38.5,202.5 Z"/></g>
<g><path style="opacity:0.944" fill="#000000" d="M 511.5,398.5 C 511.5,413.833 511.5,429.167 511.5,444.5C 501.5,444.5 491.5,444.5 481.5,444.5C 481.5,454.5 481.5,464.5 481.5,474.5C 466.5,474.5 451.5,474.5 436.5,474.5C 436.5,469.167 436.5,463.833 436.5,458.5C 446.5,458.5 456.5,458.5 466.5,458.5C 466.5,453.833 466.5,449.167 466.5,444.5C 325.833,444.5 185.167,444.5 44.5,444.5C 44.5,449.167 44.5,453.833 44.5,458.5C 170.167,458.5 295.833,458.5 421.5,458.5C 421.5,463.833 421.5,469.167 421.5,474.5C 290.833,474.5 160.167,474.5 29.5,474.5C 29.5,464.5 29.5,454.5 29.5,444.5C 19.5,444.5 9.5,444.5 -0.5,444.5C -0.5,429.167 -0.5,413.833 -0.5,398.5C 7.16667,398.5 14.8333,398.5 22.5,398.5C 22.5,358.833 22.5,319.167 22.5,279.5C 17.5,279.5 12.5,279.5 7.5,279.5C 7.5,274.167 7.5,268.833 7.5,263.5C 87.5,263.5 167.5,263.5 247.5,263.5C 247.5,187.833 247.5,112.167 247.5,36.5C 327.833,36.5 408.167,36.5 488.5,36.5C 488.5,112.167 488.5,187.833 488.5,263.5C 493.5,263.5 498.5,263.5 503.5,263.5C 503.5,268.833 503.5,274.167 503.5,279.5C 498.5,279.5 493.5,279.5 488.5,279.5C 488.5,319.167 488.5,358.833 488.5,398.5C 496.167,398.5 503.833,398.5 511.5,398.5 Z M 263.5,52.5 C 333.167,52.5 402.833,52.5 472.5,52.5C 472.5,122.833 472.5,193.167 472.5,263.5C 467.833,263.5 463.167,263.5 458.5,263.5C 458.5,197.833 458.5,132.167 458.5,66.5C 398.167,66.5 337.833,66.5 277.5,66.5C 277.5,132.167 277.5,197.833 277.5,263.5C 272.833,263.5 268.167,263.5 263.5,263.5C 263.5,193.167 263.5,122.833 263.5,52.5 Z M 293.5,82.5 C 343.167,82.5 392.833,82.5 442.5,82.5C 442.5,142.833 442.5,203.167 442.5,263.5C 392.833,263.5 343.167,263.5 293.5,263.5C 293.5,203.167 293.5,142.833 293.5,82.5 Z M 38.5,279.5 C 108.167,279.5 177.833,279.5 247.5,279.5C 247.5,284.167 247.5,288.833 247.5,293.5C 177.833,293.5 108.167,293.5 38.5,293.5C 38.5,288.833 38.5,284.167 38.5,279.5 Z M 263.5,279.5 C 268.167,279.5 272.833,279.5 277.5,279.5C 277.5,284.167 277.5,288.833 277.5,293.5C 272.833,293.5 268.167,293.5 263.5,293.5C 263.5,288.833 263.5,284.167 263.5,279.5 Z M 293.5,279.5 C 343.167,279.5 392.833,279.5 442.5,279.5C 442.5,284.167 442.5,288.833 442.5,293.5C 392.833,293.5 343.167,293.5 293.5,293.5C 293.5,288.833 293.5,284.167 293.5,279.5 Z M 458.5,279.5 C 463.167,279.5 467.833,279.5 472.5,279.5C 472.5,284.167 472.5,288.833 472.5,293.5C 467.833,293.5 463.167,293.5 458.5,293.5C 458.5,288.833 458.5,284.167 458.5,279.5 Z M 38.5,309.5 C 43.1667,309.5 47.8333,309.5 52.5,309.5C 52.5,339.167 52.5,368.833 52.5,398.5C 47.8333,398.5 43.1667,398.5 38.5,398.5C 38.5,368.833 38.5,339.167 38.5,309.5 Z M 68.5,309.5 C 83.1667,309.5 97.8333,309.5 112.5,309.5C 112.5,314.5 112.5,319.5 112.5,324.5C 96.3665,328.801 86.5332,339.134 83,355.5C 82.5001,369.829 82.3334,384.163 82.5,398.5C 77.8333,398.5 73.1667,398.5 68.5,398.5C 68.5,368.833 68.5,339.167 68.5,309.5 Z M 128.5,309.5 C 145.833,309.5 163.167,309.5 180.5,309.5C 180.5,339.167 180.5,368.833 180.5,398.5C 173.167,398.5 165.833,398.5 158.5,398.5C 158.667,384.163 158.5,369.829 158,355.5C 154.467,339.134 144.634,328.801 128.5,324.5C 128.5,319.5 128.5,314.5 128.5,309.5 Z M 195.5,309.5 C 212.833,309.5 230.167,309.5 247.5,309.5C 247.5,314.5 247.5,319.5 247.5,324.5C 231.366,328.801 221.533,339.134 218,355.5C 217.5,369.829 217.333,384.163 217.5,398.5C 210.167,398.5 202.833,398.5 195.5,398.5C 195.5,368.833 195.5,339.167 195.5,309.5 Z M 263.5,309.5 C 268.167,309.5 272.833,309.5 277.5,309.5C 277.666,316.508 277.5,323.508 277,330.5C 273.044,327.272 268.544,325.272 263.5,324.5C 263.5,319.5 263.5,314.5 263.5,309.5 Z M 293.5,309.5 C 300.833,309.5 308.167,309.5 315.5,309.5C 315.5,339.167 315.5,368.833 315.5,398.5C 308.167,398.5 300.833,398.5 293.5,398.5C 293.5,368.833 293.5,339.167 293.5,309.5 Z M 330.5,309.5 C 347.833,309.5 365.167,309.5 382.5,309.5C 382.5,314.5 382.5,319.5 382.5,324.5C 366.366,328.801 356.533,339.134 353,355.5C 352.5,369.829 352.333,384.163 352.5,398.5C 345.167,398.5 337.833,398.5 330.5,398.5C 330.5,368.833 330.5,339.167 330.5,309.5 Z M 398.5,309.5 C 413.167,309.5 427.833,309.5 442.5,309.5C 442.5,339.167 442.5,368.833 442.5,398.5C 437.833,398.5 433.167,398.5 428.5,398.5C 428.667,384.163 428.5,369.829 428,355.5C 424.467,339.134 414.634,328.801 398.5,324.5C 398.5,319.5 398.5,314.5 398.5,309.5 Z M 458.5,309.5 C 463.167,309.5 467.833,309.5 472.5,309.5C 472.5,339.167 472.5,368.833 472.5,398.5C 467.833,398.5 463.167,398.5 458.5,398.5C 458.5,368.833 458.5,339.167 458.5,309.5 Z M 116.5,339.5 C 127.879,338.605 136.046,343.272 141,353.5C 142.434,368.442 142.934,383.442 142.5,398.5C 127.833,398.5 113.167,398.5 98.5,398.5C 98.0662,383.442 98.5662,368.442 100,353.5C 103.593,346.394 109.093,341.727 116.5,339.5 Z M 386.5,339.5 C 397.879,338.605 406.046,343.272 411,353.5C 412.434,368.442 412.934,383.442 412.5,398.5C 397.833,398.5 383.167,398.5 368.5,398.5C 368.066,383.442 368.566,368.442 370,353.5C 373.593,346.394 379.093,341.727 386.5,339.5 Z M 245.5,341.5 C 247.487,360.137 248.154,379.137 247.5,398.5C 242.833,398.5 238.167,398.5 233.5,398.5C 233.333,384.829 233.5,371.163 234,357.5C 235.723,350.616 239.556,345.283 245.5,341.5 Z M 263.5,341.5 C 270.686,344.523 275.186,349.856 277,357.5C 277.5,371.163 277.667,384.829 277.5,398.5C 272.833,398.5 268.167,398.5 263.5,398.5C 263.5,379.5 263.5,360.5 263.5,341.5 Z M 14.5,414.5 C 175.167,414.5 335.833,414.5 496.5,414.5C 496.5,419.167 496.5,423.833 496.5,428.5C 335.833,428.5 175.167,428.5 14.5,428.5C 14.5,423.833 14.5,419.167 14.5,414.5 Z"/></g>
<g><path style="opacity:0.879" fill="#000000" d="M 187.5,66.5 C 192.833,66.5 198.167,66.5 203.5,66.5C 203.5,71.8333 203.5,77.1667 203.5,82.5C 198.167,82.5 192.833,82.5 187.5,82.5C 187.5,77.1667 187.5,71.8333 187.5,66.5 Z"/></g>
<g><path style="opacity:0.879" fill="#000000" d="M 187.5,96.5 C 192.833,96.5 198.167,96.5 203.5,96.5C 203.5,101.833 203.5,107.167 203.5,112.5C 198.167,112.5 192.833,112.5 187.5,112.5C 187.5,107.167 187.5,101.833 187.5,96.5 Z"/></g>
<g><path style="opacity:0.879" fill="#000000" d="M 412.5,96.5 C 417.833,96.5 423.167,96.5 428.5,96.5C 428.5,101.833 428.5,107.167 428.5,112.5C 423.167,112.5 417.833,112.5 412.5,112.5C 412.5,107.167 412.5,101.833 412.5,96.5 Z"/></g>
<g><path style="opacity:0.879" fill="#000000" d="M 412.5,126.5 C 417.833,126.5 423.167,126.5 428.5,126.5C 428.5,131.833 428.5,137.167 428.5,142.5C 423.167,142.5 417.833,142.5 412.5,142.5C 412.5,137.167 412.5,131.833 412.5,126.5 Z"/></g>
</svg>
