<?xml version="1.0" encoding="UTF-8"?>
<!DOCTYPE svg PUBLIC "-//W3C//DTD SVG 1.1//EN" "http://www.w3.org/Graphics/SVG/1.1/DTD/svg11.dtd">
<svg xmlns="http://www.w3.org/2000/svg" version="1.1" width="512px" height="512px" style="shape-rendering:geometricPrecision; text-rendering:geometricPrecision; image-rendering:optimizeQuality; fill-rule:evenodd; clip-rule:evenodd" xmlns:xlink="http://www.w3.org/1999/xlink">
<g><path style="opacity:0.936" fill="#000000" d="M 511.5,151.5 C 511.5,156.833 511.5,162.167 511.5,167.5C 505.792,182.026 495.125,188.359 479.5,186.5C 478.5,213.492 478.167,240.492 478.5,267.5C 485.841,267.334 493.174,267.5 500.5,268C 505.418,268.764 509.084,271.264 511.5,275.5C 511.5,288.167 511.5,300.833 511.5,313.5C 509.628,316.529 506.961,318.695 503.5,320C 497.175,320.5 490.842,320.666 484.5,320.5C 484.666,327.841 484.5,335.174 484,342.5C 483.687,346.965 481.521,350.132 477.5,352C 472.915,353.225 468.248,353.725 463.5,353.5C 463.5,377.5 463.5,401.5 463.5,425.5C 467.514,425.334 471.514,425.501 475.5,426C 480.071,427.573 482.904,430.74 484,435.5C 484.5,443.159 484.666,450.826 484.5,458.5C 491.175,458.334 497.842,458.5 504.5,459C 507.358,460.694 509.691,462.861 511.5,465.5C 511.5,478.167 511.5,490.833 511.5,503.5C 509.628,506.529 506.961,508.695 503.5,510C 425.833,510.667 348.167,510.667 270.5,510C 266.387,506.491 265.554,502.324 268,497.5C 269.171,496.107 270.671,495.273 272.5,495C 347.166,494.5 421.833,494.333 496.5,494.5C 496.5,487.833 496.5,481.167 496.5,474.5C 336.167,474.5 175.833,474.5 15.5,474.5C 15.5,481.167 15.5,487.833 15.5,494.5C 91.1674,494.333 166.834,494.5 242.5,495C 247.48,497.851 248.813,502.018 246.5,507.5C 245.5,508.333 244.5,509.167 243.5,510C 164.833,510.667 86.1667,510.667 7.5,510C 4.03864,508.695 1.37197,506.529 -0.5,503.5C -0.5,490.833 -0.5,478.167 -0.5,465.5C 1.30904,462.861 3.64238,460.694 6.5,459C 13.1583,458.5 19.825,458.334 26.5,458.5C 26.3336,450.826 26.5003,443.159 27,435.5C 28.0957,430.74 30.9291,427.573 35.5,426C 39.4862,425.501 43.4862,425.334 47.5,425.5C 47.5,401.5 47.5,377.5 47.5,353.5C 42.752,353.725 38.0853,353.225 33.5,352C 29.4794,350.132 27.3128,346.965 27,342.5C 26.5003,335.174 26.3337,327.841 26.5,320.5C 20.1579,320.666 13.8246,320.5 7.5,320C 4.03864,318.695 1.37197,316.529 -0.5,313.5C -0.5,300.833 -0.5,288.167 -0.5,275.5C 1.91572,271.264 5.58239,268.764 10.5,268C 17.8258,267.5 25.1591,267.334 32.5,267.5C 32.8331,240.492 32.4998,213.492 31.5,186.5C 15.8745,188.359 5.20786,182.026 -0.5,167.5C -0.5,162.167 -0.5,156.833 -0.5,151.5C 2.13982,145.351 6.13982,140.184 11.5,136C 87.3301,92.586 162.997,48.9193 238.5,5C 249.833,-1 261.167,-1 272.5,5C 350.41,49.5357 427.91,94.7024 505,140.5C 507.711,143.933 509.877,147.6 511.5,151.5 Z M 251.5,16.5 C 255.273,16.2633 258.94,16.7633 262.5,18C 338.003,61.9193 413.67,105.586 489.5,149C 495.996,154.126 497.163,160.292 493,167.5C 487.376,172.65 481.543,172.816 475.5,168C 404.167,126.667 332.833,85.3333 261.5,44C 257.5,42 253.5,42 249.5,44C 178.167,85.3333 106.833,126.667 35.5,168C 24.8916,173.973 18.2249,171.139 15.5,159.5C 15.5969,154.905 17.5969,151.405 21.5,149C 98.3551,104.937 175.022,60.7707 251.5,16.5 Z M 254.5,59.5 C 323.608,98.8903 392.608,138.557 461.5,178.5C 462.5,208.159 462.833,237.826 462.5,267.5C 398.832,267.333 335.166,267.5 271.5,268C 267.334,268.985 265.334,271.652 265.5,276C 265.301,279.274 266.634,281.607 269.5,283C 345.166,283.5 420.833,283.667 496.5,283.5C 496.5,290.5 496.5,297.5 496.5,304.5C 336.167,304.5 175.833,304.5 15.5,304.5C 15.5,297.5 15.5,290.5 15.5,283.5C 91.5007,283.667 167.501,283.5 243.5,283C 246.366,281.607 247.699,279.274 247.5,276C 247.666,271.652 245.666,268.985 241.5,268C 177.168,267.5 112.834,267.333 48.5,267.5C 48.1668,237.826 48.5002,208.159 49.5,178.5C 118.06,139.059 186.393,99.3924 254.5,59.5 Z M 252.5,102.5 C 268.145,102.639 274.312,110.305 271,125.5C 264.622,135.071 256.455,136.905 246.5,131C 239.721,124.159 238.888,116.659 244,108.5C 246.637,106.109 249.47,104.109 252.5,102.5 Z M 138.5,188.5 C 142.182,188.335 145.848,188.501 149.5,189C 152.966,191.661 153.299,194.661 150.5,198C 146.605,199.266 142.605,199.766 138.5,199.5C 138.5,195.833 138.5,192.167 138.5,188.5 Z M 216.5,201.5 C 219.291,205.997 221.624,210.83 223.5,216C 219.459,216.827 215.459,216.66 211.5,215.5C 213.572,210.95 215.238,206.283 216.5,201.5 Z M 138.5,214.5 C 144.68,213.829 150.514,214.829 156,217.5C 158.856,222.92 157.689,227.087 152.5,230C 147.845,230.499 143.179,230.666 138.5,230.5C 138.5,225.167 138.5,219.833 138.5,214.5 Z M 42.5,320.5 C 73.1667,320.5 103.833,320.5 134.5,320.5C 134.5,326.167 134.5,331.833 134.5,337.5C 103.833,337.5 73.1667,337.5 42.5,337.5C 42.5,331.833 42.5,326.167 42.5,320.5 Z M 150.5,320.5 C 164.833,320.5 179.167,320.5 193.5,320.5C 193.334,328.507 193.5,336.507 194,344.5C 195.598,349.099 198.765,351.932 203.5,353C 207.152,353.499 210.818,353.665 214.5,353.5C 214.5,377.5 214.5,401.5 214.5,425.5C 210.154,425.334 205.821,425.501 201.5,426C 198.829,427.25 196.663,429.083 195,431.5C 193.586,440.418 193.086,449.418 193.5,458.5C 179.167,458.5 164.833,458.5 150.5,458.5C 150.666,450.16 150.5,441.827 150,433.5C 148.833,429.667 146.333,427.167 142.5,426C 138.179,425.501 133.846,425.334 129.5,425.5C 129.5,401.5 129.5,377.5 129.5,353.5C 137.142,354.898 143.642,352.898 149,347.5C 150.443,338.608 150.943,329.608 150.5,320.5 Z M 209.5,320.5 C 240.167,320.5 270.833,320.5 301.5,320.5C 301.5,326.167 301.5,331.833 301.5,337.5C 270.833,337.5 240.167,337.5 209.5,337.5C 209.5,331.833 209.5,326.167 209.5,320.5 Z M 317.5,320.5 C 331.833,320.5 346.167,320.5 360.5,320.5C 360.057,329.608 360.557,338.608 362,347.5C 367.358,352.898 373.858,354.898 381.5,353.5C 381.5,377.5 381.5,401.5 381.5,425.5C 377.154,425.334 372.821,425.501 368.5,426C 364.667,427.167 362.167,429.667 361,433.5C 360.5,441.827 360.334,450.16 360.5,458.5C 346.167,458.5 331.833,458.5 317.5,458.5C 317.914,449.418 317.414,440.418 316,431.5C 314.337,429.083 312.171,427.25 309.5,426C 305.179,425.501 300.846,425.334 296.5,425.5C 296.5,401.5 296.5,377.5 296.5,353.5C 300.182,353.665 303.848,353.499 307.5,353C 312.235,351.932 315.402,349.099 317,344.5C 317.5,336.507 317.666,328.507 317.5,320.5 Z M 376.5,320.5 C 407.167,320.5 437.833,320.5 468.5,320.5C 468.5,326.167 468.5,331.833 468.5,337.5C 437.833,337.5 407.167,337.5 376.5,337.5C 376.5,331.833 376.5,326.167 376.5,320.5 Z M 63.5,353.5 C 80.1667,353.5 96.8333,353.5 113.5,353.5C 113.5,377.5 113.5,401.5 113.5,425.5C 96.8333,425.5 80.1667,425.5 63.5,425.5C 63.5,401.5 63.5,377.5 63.5,353.5 Z M 230.5,353.5 C 247.167,353.5 263.833,353.5 280.5,353.5C 280.5,377.5 280.5,401.5 280.5,425.5C 263.833,425.5 247.167,425.5 230.5,425.5C 230.5,401.5 230.5,377.5 230.5,353.5 Z M 397.5,353.5 C 414.167,353.5 430.833,353.5 447.5,353.5C 447.5,377.5 447.5,401.5 447.5,425.5C 430.833,425.5 414.167,425.5 397.5,425.5C 397.5,401.5 397.5,377.5 397.5,353.5 Z M 42.5,441.5 C 73.1667,441.5 103.833,441.5 134.5,441.5C 134.5,447.167 134.5,452.833 134.5,458.5C 103.833,458.5 73.1667,458.5 42.5,458.5C 42.5,452.833 42.5,447.167 42.5,441.5 Z M 209.5,441.5 C 240.167,441.5 270.833,441.5 301.5,441.5C 301.5,447.167 301.5,452.833 301.5,458.5C 270.833,458.5 240.167,458.5 209.5,458.5C 209.5,452.833 209.5,447.167 209.5,441.5 Z M 376.5,441.5 C 407.167,441.5 437.833,441.5 468.5,441.5C 468.5,447.167 468.5,452.833 468.5,458.5C 437.833,458.5 407.167,458.5 376.5,458.5C 376.5,452.833 376.5,447.167 376.5,441.5 Z"/></g>
<g><path style="opacity:0.925" fill="#000000" d="M 250.5,86.5 C 276.308,86.1412 288.808,98.8078 288,124.5C 281.787,145.362 267.954,153.529 246.5,149C 228.477,141.308 221.643,127.808 226,108.5C 230.286,96.7076 238.453,89.3743 250.5,86.5 Z M 252.5,102.5 C 249.47,104.109 246.637,106.109 244,108.5C 238.888,116.659 239.721,124.159 246.5,131C 256.455,136.905 264.622,135.071 271,125.5C 274.312,110.305 268.145,102.639 252.5,102.5 Z"/></g>
<g><path style="opacity:0.924" fill="#000000" d="M 345.5,171.5 C 349.192,170.971 352.358,171.971 355,174.5C 356.232,179.721 356.899,185.054 357,190.5C 363.135,185.366 368.969,179.866 374.5,174C 384.946,170.458 389.113,173.958 387,184.5C 378.929,192.449 370.763,200.282 362.5,208C 371.03,216.864 379.863,225.364 389,233.5C 391.69,243.979 387.856,247.812 377.5,245C 370.364,238.865 363.531,232.365 357,225.5C 356.912,231.61 356.245,237.61 355,243.5C 350.667,247.5 346.333,247.5 342,243.5C 340.355,221.255 340.022,198.922 341,176.5C 342.025,174.313 343.525,172.646 345.5,171.5 Z"/></g>
<g><path style="opacity:0.941" fill="#000000" d="M 126.5,172.5 C 135.506,172.334 144.506,172.5 153.5,173C 167.53,179.057 171.863,189.39 166.5,204C 177.248,217.208 176.582,229.874 164.5,242C 162.5,243 160.5,244 158.5,245C 148.227,246.566 137.893,246.899 127.5,246C 125.333,245.167 123.833,243.667 123,241.5C 122.333,220.167 122.333,198.833 123,177.5C 123.997,175.677 125.164,174.01 126.5,172.5 Z M 138.5,188.5 C 138.5,192.167 138.5,195.833 138.5,199.5C 142.605,199.766 146.605,199.266 150.5,198C 153.299,194.661 152.966,191.661 149.5,189C 145.848,188.501 142.182,188.335 138.5,188.5 Z M 138.5,214.5 C 138.5,219.833 138.5,225.167 138.5,230.5C 143.179,230.666 147.845,230.499 152.5,230C 157.689,227.087 158.856,222.92 156,217.5C 150.514,214.829 144.68,213.829 138.5,214.5 Z"/></g>
<g><path style="opacity:0.929" fill="#000000" d="M 213.5,172.5 C 217.839,171.846 221.673,172.846 225,175.5C 233.326,196.312 241.16,217.312 248.5,238.5C 245.341,247.445 240.175,248.778 233,242.5C 232.127,239.382 230.961,236.382 229.5,233.5C 221.193,232.502 212.86,232.169 204.5,232.5C 203.854,236.797 202.354,240.797 200,244.5C 190.152,248.318 185.818,244.984 187,234.5C 194,216.167 201,197.833 208,179.5C 208.967,176.379 210.8,174.046 213.5,172.5 Z M 216.5,201.5 C 215.238,206.283 213.572,210.95 211.5,215.5C 215.459,216.66 219.459,216.827 223.5,216C 221.624,210.83 219.291,205.997 216.5,201.5 Z"/></g>
<g><path style="opacity:0.929" fill="#000000" d="M 267.5,172.5 C 270.93,172.107 274.096,172.773 277,174.5C 285.667,187.167 294.333,199.833 303,212.5C 303.333,200.5 303.667,188.5 304,176.5C 305.393,173.634 307.726,172.301 311,172.5C 313.814,172.408 316.147,173.408 318,175.5C 319.633,197.103 319.967,218.769 319,240.5C 315.634,245.609 311.134,246.776 305.5,244C 296.298,231.763 287.465,219.263 279,206.5C 278.667,218.5 278.333,230.5 278,242.5C 272.138,248.194 267.138,247.527 263,240.5C 262.333,219.833 262.333,199.167 263,178.5C 263.599,175.746 265.099,173.746 267.5,172.5 Z"/></g>
</svg>
