<?xml version="1.0" standalone="no"?>
<!DOCTYPE svg PUBLIC "-//W3C//DTD SVG 20010904//EN"
 "http://www.w3.org/TR/2001/REC-SVG-20010904/DTD/svg10.dtd">
<svg version="1.0" xmlns="http://www.w3.org/2000/svg"
 width="512.000000pt" height="512.000000pt" viewBox="0 0 512.000000 512.000000"
 preserveAspectRatio="xMidYMid meet">

<g transform="translate(0.000000,512.000000) scale(0.100000,-0.100000)"
fill="#000000" stroke="none">
<path d="M910 5084 c-141 -38 -247 -146 -284 -289 -14 -52 -16 -195 -16 -1137
l0 -1078 -286 0 -286 0 4 -382 c4 -347 7 -393 27 -493 77 -378 234 -662 512
-929 l129 -123 -165 -273 c-91 -150 -165 -274 -165 -275 0 -2 21 -16 48 -31
26 -15 56 -33 68 -41 20 -13 28 -2 184 257 90 148 167 270 171 270 5 0 31 -14
57 -30 119 -73 332 -154 510 -193 95 -20 123 -21 1101 -24 984 -4 1006 -3
1130 17 167 29 342 86 498 165 70 36 128 65 129 65 2 0 75 -121 165 -270 l162
-270 48 28 c105 58 113 22 -75 333 l-167 274 63 55 c346 302 548 685 598 1135
5 50 10 235 10 413 l0 322 -2155 0 -2155 0 0 1068 c0 1206 -4 1138 75 1217 62
63 122 78 279 73 140 -4 180 -19 240 -90 49 -56 56 -89 56 -255 l0 -143 -200
0 -200 0 0 -80 0 -80 485 0 485 0 0 80 0 80 -200 0 -200 0 0 118 c0 64 -4 145
-9 179 -25 167 -150 305 -312 342 -67 16 -294 12 -359 -5z m4005 -2829 l0
-160 -2355 0 -2355 0 -3 150 c-1 82 0 155 2 162 4 11 439 13 2358 11 l2353 -3
0 -160z m-5 -349 c0 -106 -58 -351 -115 -487 -196 -469 -601 -803 -1117 -922
-91 -21 -115 -21 -1068 -24 -848 -3 -989 -2 -1083 12 -333 49 -638 203 -877
446 -241 244 -406 594 -436 922 l-7 77 2352 0 2351 0 0 -24z"/>
<path d="M1020 4045 l0 -85 80 0 81 0 -3 83 -3 82 -77 3 -78 3 0 -86z"/>
<path d="M1427 4124 c-4 -4 -7 -43 -7 -86 l0 -79 83 3 82 3 0 80 0 80 -75 3
c-42 1 -79 0 -83 -4z"/>
<path d="M1830 4045 l0 -85 80 0 80 0 0 85 0 85 -80 0 -80 0 0 -85z"/>
<path d="M1180 3800 l0 -80 80 0 80 0 0 80 0 80 -80 0 -80 0 0 -80z"/>
<path d="M1670 3800 l0 -80 80 0 80 0 0 80 0 80 -80 0 -80 0 0 -80z"/>
<path d="M1420 3640 l0 -80 85 0 86 0 -3 78 -3 77 -82 3 -83 3 0 -81z"/>
</g>
</svg>
