<?xml version="1.0" standalone="no"?>
<!DOCTYPE svg PUBLIC "-//W3C//DTD SVG 20010904//EN"
 "http://www.w3.org/TR/2001/REC-SVG-20010904/DTD/svg10.dtd">
<svg version="1.0" xmlns="http://www.w3.org/2000/svg"
 width="512.000000pt" height="512.000000pt" viewBox="0 0 512.000000 512.000000"
 preserveAspectRatio="xMidYMid meet">

<g transform="translate(0.000000,512.000000) scale(0.100000,-0.100000)"
fill="#000000" stroke="none">
<path d="M1415 5108 c-11 -6 -26 -18 -32 -26 -17 -20 -19 -4502 -3 -4532 5
-10 25 -24 44 -30 46 -15 89 7 105 51 8 23 11 641 11 2205 l0 2174 1020 0
1020 0 0 -2174 c0 -1564 3 -2182 11 -2205 16 -44 59 -66 105 -51 19 6 39 20
44 30 11 21 15 4496 4 4525 -18 46 9 45 -1186 45 -794 -1 -1129 -4 -1143 -12z"/>
<path d="M1940 4603 c-8 -3 -25 -15 -37 -26 -23 -20 -23 -23 -23 -309 l0 -289
25 -24 c24 -25 25 -25 230 -25 191 0 206 1 225 20 11 11 22 30 25 42 3 13 5
146 3 295 -4 349 20 317 -241 320 -105 1 -199 -1 -207 -4z m280 -333 l0 -170
-85 0 -85 0 0 170 0 170 85 0 85 0 0 -170z"/>
<path d="M2780 4597 c-47 -24 -50 -43 -50 -330 0 -280 5 -315 45 -331 9 -3
106 -6 216 -6 199 0 200 0 224 25 l25 24 0 289 0 289 -26 24 c-25 23 -30 24
-217 27 -142 2 -199 -1 -217 -11z m290 -327 l0 -170 -85 0 -85 0 0 170 0 170
85 0 85 0 0 -170z"/>
<path d="M53 4086 c-17 -8 -36 -23 -42 -35 -16 -29 -15 -1754 1 -1784 26 -50
87 -63 126 -27 12 12 23 22 24 23 2 1 5 376 8 832 l5 830 484 3 c482 2 485 2
508 24 33 31 31 87 -3 119 l-26 24 -526 2 c-433 2 -533 0 -559 -11z"/>
<path d="M3995 4093 c-63 -15 -88 -98 -42 -141 23 -22 26 -22 508 -24 l484 -3
3 -1712 2 -1711 -62 5 c-61 6 -65 8 -111 59 -120 133 -325 152 -463 43 -21
-17 -49 -46 -63 -65 -22 -31 -29 -34 -75 -34 -137 -1 -246 -113 -246 -256 0
-110 68 -205 171 -239 40 -14 106 -15 440 -13 362 3 397 5 429 22 49 26 98 74
123 121 l22 40 3 1923 c1 1374 -1 1929 -9 1943 -25 48 -44 49 -586 48 -279 -1
-517 -3 -528 -6z m610 -3606 c28 -16 49 -39 70 -78 17 -31 36 -63 43 -72 18
-22 55 -26 92 -10 49 20 79 16 111 -16 38 -38 38 -74 0 -112 l-29 -29 -362 0
c-426 0 -430 1 -430 91 0 37 39 79 73 79 14 0 40 -6 58 -14 58 -23 94 -6 128
62 31 62 62 95 101 111 43 17 102 12 145 -12z"/>
<path d="M542 3560 c-11 -11 -24 -35 -27 -52 -3 -18 -5 -151 -3 -295 4 -337
-19 -307 235 -311 206 -4 223 -2 253 30 19 21 20 34 20 313 l0 292 -23 21
c-22 21 -32 22 -228 22 -191 0 -207 -1 -227 -20z m308 -320 l0 -170 -85 0 -85
0 0 170 0 170 85 0 85 0 0 -170z"/>
<path d="M1905 3555 l-25 -24 0 -289 c0 -375 -24 -345 273 -340 254 4 231 -27
235 321 2 149 0 282 -3 295 -3 12 -14 31 -25 42 -19 19 -34 20 -225 20 -205 0
-206 0 -230 -25z m315 -315 l0 -170 -85 0 -85 0 0 170 0 170 85 0 85 0 0 -170z"/>
<path d="M2760 3560 c-11 -11 -22 -30 -25 -42 -3 -13 -5 -146 -3 -295 4 -348
-19 -317 235 -321 206 -4 223 -2 253 30 19 21 20 34 20 310 l0 289 -25 24
c-24 25 -25 25 -230 25 -191 0 -206 -1 -225 -20z m310 -320 l0 -170 -85 0 -85
0 0 170 0 170 85 0 85 0 0 -170z"/>
<path d="M4122 3557 c-22 -23 -22 -29 -22 -313 0 -377 -24 -347 273 -342 254
4 231 -26 235 311 2 144 0 277 -3 295 -3 17 -16 41 -27 52 -20 19 -36 20 -228
20 -203 0 -207 0 -228 -23z m318 -317 l0 -170 -85 0 -85 0 0 170 0 170 85 0
85 0 0 -170z"/>
<path d="M543 2536 c-28 -24 -28 -25 -28 -146 0 -121 0 -122 28 -146 36 -31
77 -31 111 1 23 21 26 32 26 85 l0 60 84 0 85 0 3 -229 c3 -227 3 -230 27
-255 33 -35 83 -35 116 -1 l25 24 0 285 c0 156 -3 292 -6 301 -15 38 -55 45
-253 45 -186 0 -190 0 -218 -24z"/>
<path d="M1925 2548 c-44 -25 -44 -31 -45 -331 l0 -288 25 -24 c24 -25 25 -25
227 -25 144 1 208 4 219 13 36 28 39 51 39 332 l0 277 -29 29 -29 29 -194 0
c-126 -1 -200 -5 -213 -12z m295 -328 l0 -170 -85 0 -85 0 0 170 0 170 85 0
85 0 0 -170z"/>
<path d="M2759 2531 l-29 -29 0 -277 c0 -281 3 -304 39 -332 11 -9 75 -12 219
-13 202 0 203 0 227 25 l25 24 0 288 c-1 211 -4 292 -13 304 -27 35 -54 39
-247 39 l-192 0 -29 -29z m311 -311 l0 -170 -85 0 -85 0 0 170 0 170 85 0 85
0 0 -170z"/>
<path d="M4145 2548 c-44 -24 -45 -28 -45 -330 l0 -289 25 -24 c24 -25 25 -25
228 -25 l204 0 24 26 24 26 0 290 0 290 -28 24 c-28 24 -31 24 -220 24 -120 0
-200 -5 -212 -12z m295 -328 l0 -170 -85 0 -85 0 0 170 0 170 85 0 85 0 0
-170z"/>
<path d="M370 2041 c-127 -39 -229 -192 -290 -435 -54 -215 -94 -630 -72 -741
31 -154 137 -279 275 -326 l52 -18 5 -236 5 -237 28 -24 c31 -26 57 -30 90
-12 45 23 46 32 47 275 l0 231 46 16 c117 40 224 141 266 249 55 146 12 653
-78 923 -41 123 -81 193 -148 259 -75 76 -147 100 -226 76z m95 -180 c101 -61
197 -426 212 -803 5 -137 4 -163 -12 -204 -70 -183 -305 -227 -430 -81 -55 64
-69 127 -61 272 23 428 122 781 230 825 29 12 27 12 61 -9z"/>
<path d="M1775 1533 c-61 -15 -84 -86 -44 -136 20 -26 22 -27 167 -29 l147 -3
3 -401 2 -401 25 -23 c34 -32 87 -32 118 -2 22 22 22 24 25 427 l3 405 339 0
339 0 3 -405 c3 -403 3 -405 25 -427 31 -30 84 -30 118 2 l25 23 2 401 3 401
147 3 c145 2 147 3 167 29 29 36 27 84 -5 114 l-26 24 -781 1 c-430 1 -791 0
-802 -3z"/>
<path d="M4165 1533 c-11 -3 -30 -14 -42 -26 -23 -20 -23 -23 -23 -312 l0
-292 26 -24 c25 -23 31 -24 202 -27 111 -2 191 1 214 8 65 19 68 33 68 335 0
295 -3 314 -61 334 -31 11 -342 14 -384 4z m270 -338 l0 -170 -82 -3 -83 -3 0
176 0 176 83 -3 82 -3 0 -170z"/>
<path d="M2502 997 c-23 -25 -29 -75 -12 -107 14 -27 64 -41 100 -28 36 12 50
35 50 81 0 69 -90 105 -138 54z"/>
<path d="M1237 329 c-31 -18 -47 -73 -47 -161 0 -97 19 -147 63 -162 62 -22
117 34 117 122 l0 42 1155 0 c1230 0 1201 -1 1219 45 13 35 6 76 -19 100 l-24
25 -1223 0 c-851 -1 -1229 -4 -1241 -11z"/>
</g>
</svg>
