<?xml version="1.0" encoding="UTF-8"?>
<!DOCTYPE svg PUBLIC "-//W3C//DTD SVG 1.1//EN" "http://www.w3.org/Graphics/SVG/1.1/DTD/svg11.dtd">
<svg xmlns="http://www.w3.org/2000/svg" version="1.1" width="512px" height="512px" style="shape-rendering:geometricPrecision; text-rendering:geometricPrecision; image-rendering:optimizeQuality; fill-rule:evenodd; clip-rule:evenodd" xmlns:xlink="http://www.w3.org/1999/xlink">
<g><path style="opacity:0.939" fill="#000000" d="M 511.5,187.5 C 511.5,190.833 511.5,194.167 511.5,197.5C 507.821,205.018 503.487,212.185 498.5,219C 493.739,221.72 488.739,222.22 483.5,220.5C 483.5,225.167 483.5,229.833 483.5,234.5C 490.508,234.334 497.508,234.5 504.5,235C 507.358,236.694 509.691,238.861 511.5,241.5C 511.5,250.833 511.5,260.167 511.5,269.5C 509.734,271.771 507.734,273.937 505.5,276C 502.607,277.149 499.607,277.649 496.5,277.5C 496.5,320.5 496.5,363.5 496.5,406.5C 502.236,405.555 507.236,406.889 511.5,410.5C 511.5,413.167 511.5,415.833 511.5,418.5C 510.684,420.144 509.35,421.31 507.5,422C 339.5,422.667 171.5,422.667 3.5,422C 1.64977,421.31 0.316435,420.144 -0.5,418.5C -0.5,415.833 -0.5,413.167 -0.5,410.5C 1.01027,409.164 2.67694,407.997 4.5,407C 12.1594,406.5 19.8261,406.334 27.5,406.5C 27.3334,380.498 27.5,354.498 28,328.5C 29.3929,325.634 31.7262,324.301 35,324.5C 37.8139,324.408 40.1473,325.408 42,327.5C 43.4057,335.749 43.9057,344.083 43.5,352.5C 57.8333,352.5 72.1667,352.5 86.5,352.5C 86.0229,331.408 86.5229,310.408 88,289.5C 88.9025,288.299 90.0692,287.465 91.5,287C 113.5,286.333 135.5,286.333 157.5,287C 158.931,287.465 160.097,288.299 161,289.5C 162.477,310.408 162.977,331.408 162.5,352.5C 177.167,352.5 191.833,352.5 206.5,352.5C 206.023,331.408 206.523,310.408 208,289.5C 208.903,288.299 210.069,287.465 211.5,287C 233.5,286.333 255.5,286.333 277.5,287C 278.931,287.465 280.097,288.299 281,289.5C 282.477,310.408 282.977,331.408 282.5,352.5C 296.833,352.5 311.167,352.5 325.5,352.5C 325.833,326.158 325.5,299.825 324.5,273.5C 322.167,272 319.833,270.5 317.5,269C 226.167,268.5 134.834,268.333 43.5,268.5C 43.6665,278.506 43.4998,288.506 43,298.5C 39.3952,306.421 34.3952,307.421 28,301.5C 27.5002,292.506 27.3336,283.506 27.5,274.5C 22.2614,276.22 17.2614,275.72 12.5,273C 7.51258,266.185 3.17925,259.018 -0.5,251.5C -0.5,248.167 -0.5,244.833 -0.5,241.5C 1.26589,239.229 3.26589,237.063 5.5,235C 13.0806,230.96 20.5806,226.793 28,222.5C 37.3839,188.96 47.3839,155.627 58,122.5C 59.9384,119.894 62.4384,118.061 65.5,117C 89.4369,115.363 113.437,115.03 137.5,116C 143.123,118.525 144.623,122.692 142,128.5C 141.097,129.701 139.931,130.535 138.5,131C 116.167,131.333 93.8333,131.667 71.5,132C 63.641,157.914 55.9743,183.914 48.5,210C 48.8333,210.5 49.1667,211 49.5,211.5C 91.8333,189 134.167,166.5 176.5,144C 180.741,142.543 185.074,142.209 189.5,143C 194.396,145.365 199.229,147.865 204,150.5C 215.896,144.468 227.73,138.302 239.5,132C 215.167,131.667 190.833,131.333 166.5,131C 162.247,127.58 161.413,123.413 164,118.5C 164.903,117.299 166.069,116.465 167.5,116C 202.167,115.667 236.833,115.333 271.5,115C 287.884,105.808 304.55,97.1414 321.5,89C 325.926,88.2093 330.259,88.5427 334.5,90C 350.325,98.0787 365.992,106.412 381.5,115C 401.833,115.333 422.167,115.667 442.5,116C 448.501,117.336 452.668,120.836 455,126.5C 458.18,137.557 461.514,148.557 465,159.5C 478.421,166.794 491.921,173.961 505.5,181C 507.734,183.063 509.734,185.229 511.5,187.5 Z M 324.5,104.5 C 326.655,104.372 328.655,104.872 330.5,106C 385.361,135.262 440.028,164.762 494.5,194.5C 492.413,197.673 490.579,201.006 489,204.5C 435.039,175.436 380.873,146.77 326.5,118.5C 295.478,134.029 264.812,150.195 234.5,167C 229.756,165.962 225.423,163.795 221.5,160.5C 256.055,142.059 290.388,123.392 324.5,104.5 Z M 413.5,132.5 C 421.99,131.343 430.657,131.176 439.5,132C 441.637,137.399 443.137,142.899 444,148.5C 434.016,142.759 423.85,137.425 413.5,132.5 Z M 324.5,136.5 C 326.655,136.372 328.655,136.872 330.5,138C 376.08,162.373 421.58,186.873 467,211.5C 467.5,219.159 467.666,226.826 467.5,234.5C 426.832,234.667 386.165,234.5 345.5,234C 313.5,215 281.5,196 249.5,177C 274.881,163.98 299.881,150.48 324.5,136.5 Z M 182.5,158.5 C 185.016,158.755 187.35,159.589 189.5,161C 239.5,190.333 289.5,219.667 339.5,249C 391.499,249.5 443.499,249.667 495.5,249.5C 495.5,253.5 495.5,257.5 495.5,261.5C 467.831,261.333 440.165,261.5 412.5,262C 406.858,265.914 406.191,270.58 410.5,276C 423.76,277.444 437.093,277.944 450.5,277.5C 450.5,302.5 450.5,327.5 450.5,352.5C 445.167,352.5 439.833,352.5 434.5,352.5C 434.971,335.405 434.471,318.405 433,301.5C 431.681,299.513 429.848,298.346 427.5,298C 406.5,297.333 385.5,297.333 364.5,298C 362.671,298.273 361.171,299.107 360,300.5C 358.528,317.739 358.028,335.072 358.5,352.5C 352.833,352.5 347.167,352.5 341.5,352.5C 341.5,327.5 341.5,302.5 341.5,277.5C 355.504,277.667 369.504,277.5 383.5,277C 388.069,274.459 389.569,270.625 388,265.5C 386.833,264.333 385.667,263.167 384.5,262C 368.167,261.667 351.833,261.333 335.5,261C 285.463,230.982 235.13,201.482 184.5,172.5C 164.648,181.674 145.481,192.008 127,203.5C 124.71,212.789 128.21,216.622 137.5,215C 153.095,206.953 168.595,198.787 184,190.5C 219.064,210.615 253.897,231.115 288.5,252C 215.167,252.667 141.833,252.667 68.5,252C 82.4875,245.008 96.1542,237.508 109.5,229.5C 113.16,222.488 111.16,218.155 103.5,216.5C 99.8857,216.804 96.5524,217.971 93.5,220C 69.7463,232.961 45.913,245.794 22,258.5C 20.4205,255.006 18.5872,251.673 16.5,248.5C 16.7093,247.914 17.0426,247.414 17.5,247C 72.8798,217.98 127.88,188.48 182.5,158.5 Z M 319.5,172.5 C 324.167,172.5 328.833,172.5 333.5,172.5C 333.5,177.167 333.5,181.833 333.5,186.5C 328.833,186.5 324.167,186.5 319.5,186.5C 319.5,181.833 319.5,177.167 319.5,172.5 Z M 466.5,277.5 C 471.167,277.5 475.833,277.5 480.5,277.5C 480.5,320.5 480.5,363.5 480.5,406.5C 475.833,406.5 471.167,406.5 466.5,406.5C 466.5,363.5 466.5,320.5 466.5,277.5 Z M 102.5,302.5 C 107.167,302.5 111.833,302.5 116.5,302.5C 116.5,310.5 116.5,318.5 116.5,326.5C 111.833,326.5 107.167,326.5 102.5,326.5C 102.5,318.5 102.5,310.5 102.5,302.5 Z M 132.5,302.5 C 137.167,302.5 141.833,302.5 146.5,302.5C 146.5,310.5 146.5,318.5 146.5,326.5C 141.833,326.5 137.167,326.5 132.5,326.5C 132.5,318.5 132.5,310.5 132.5,302.5 Z M 222.5,302.5 C 227.167,302.5 231.833,302.5 236.5,302.5C 236.5,310.5 236.5,318.5 236.5,326.5C 231.833,326.5 227.167,326.5 222.5,326.5C 222.5,318.5 222.5,310.5 222.5,302.5 Z M 252.5,302.5 C 257.167,302.5 261.833,302.5 266.5,302.5C 266.5,310.5 266.5,318.5 266.5,326.5C 261.833,326.5 257.167,326.5 252.5,326.5C 252.5,318.5 252.5,310.5 252.5,302.5 Z M 374.5,313.5 C 389.167,313.5 403.833,313.5 418.5,313.5C 418.5,344.5 418.5,375.5 418.5,406.5C 403.833,406.5 389.167,406.5 374.5,406.5C 374.5,375.5 374.5,344.5 374.5,313.5 Z M 102.5,342.5 C 107.167,342.5 111.833,342.5 116.5,342.5C 116.5,350.5 116.5,358.5 116.5,366.5C 111.833,366.5 107.167,366.5 102.5,366.5C 102.5,358.5 102.5,350.5 102.5,342.5 Z M 132.5,342.5 C 137.167,342.5 141.833,342.5 146.5,342.5C 146.5,350.5 146.5,358.5 146.5,366.5C 141.833,366.5 137.167,366.5 132.5,366.5C 132.5,358.5 132.5,350.5 132.5,342.5 Z M 222.5,342.5 C 227.167,342.5 231.833,342.5 236.5,342.5C 236.5,350.5 236.5,358.5 236.5,366.5C 231.833,366.5 227.167,366.5 222.5,366.5C 222.5,358.5 222.5,350.5 222.5,342.5 Z M 252.5,342.5 C 257.167,342.5 261.833,342.5 266.5,342.5C 266.5,350.5 266.5,358.5 266.5,366.5C 261.833,366.5 257.167,366.5 252.5,366.5C 252.5,358.5 252.5,350.5 252.5,342.5 Z M 43.5,368.5 C 57.8333,368.5 72.1667,368.5 86.5,368.5C 86.3354,371.518 86.502,374.518 87,377.5C 87.4652,378.931 88.2986,380.097 89.5,381C 101.099,382.135 112.766,382.635 124.5,382.5C 136.234,382.635 147.901,382.135 159.5,381C 160.701,380.097 161.535,378.931 162,377.5C 162.498,374.518 162.665,371.518 162.5,368.5C 177.167,368.5 191.833,368.5 206.5,368.5C 206.335,371.518 206.502,374.518 207,377.5C 207.465,378.931 208.299,380.097 209.5,381C 221.099,382.135 232.766,382.635 244.5,382.5C 256.234,382.635 267.901,382.135 279.5,381C 280.701,380.097 281.535,378.931 282,377.5C 282.498,374.518 282.665,371.518 282.5,368.5C 296.833,368.5 311.167,368.5 325.5,368.5C 325.5,381.167 325.5,393.833 325.5,406.5C 231.5,406.5 137.5,406.5 43.5,406.5C 43.5,393.833 43.5,381.167 43.5,368.5 Z M 341.5,368.5 C 347.167,368.5 352.833,368.5 358.5,368.5C 358.5,381.167 358.5,393.833 358.5,406.5C 352.833,406.5 347.167,406.5 341.5,406.5C 341.5,393.833 341.5,381.167 341.5,368.5 Z M 434.5,368.5 C 439.833,368.5 445.167,368.5 450.5,368.5C 450.5,381.167 450.5,393.833 450.5,406.5C 445.167,406.5 439.833,406.5 434.5,406.5C 434.5,393.833 434.5,381.167 434.5,368.5 Z"/></g>
<g><path style="opacity:0.936" fill="#000000" d="M 309.5,156.5 C 320.838,156.333 332.172,156.5 343.5,157C 345.081,157.707 346.581,158.54 348,159.5C 349.627,172.071 349.96,184.738 349,197.5C 348.215,199.286 347.049,200.786 345.5,202C 332.833,202.667 320.167,202.667 307.5,202C 306.667,201.167 305.833,200.333 305,199.5C 303.373,186.929 303.04,174.262 304,161.5C 305.352,159.251 307.185,157.584 309.5,156.5 Z M 319.5,172.5 C 319.5,177.167 319.5,181.833 319.5,186.5C 324.167,186.5 328.833,186.5 333.5,186.5C 333.5,181.833 333.5,177.167 333.5,172.5C 328.833,172.5 324.167,172.5 319.5,172.5 Z"/></g>
<g><path style="opacity:0.898" fill="#000000" d="M 181.5,208.5 C 186.28,207.641 189.78,209.308 192,213.5C 192.667,220.5 192.667,227.5 192,234.5C 188.929,239.299 184.762,240.465 179.5,238C 178.299,237.097 177.465,235.931 177,234.5C 176.333,227.5 176.333,220.5 177,213.5C 178.025,211.313 179.525,209.646 181.5,208.5 Z"/></g>
<g><path style="opacity:0.892" fill="#000000" d="M 388.5,347.5 C 392.954,346.617 396.454,347.95 399,351.5C 399.667,357.5 399.667,363.5 399,369.5C 392.605,375.421 387.605,374.421 384,366.5C 383.333,362.167 383.333,357.833 384,353.5C 384.599,350.746 386.099,348.746 388.5,347.5 Z"/></g>
</svg>
