<?xml version="1.0" encoding="UTF-8"?>
<!DOCTYPE svg PUBLIC "-//W3C//DTD SVG 1.1//EN" "http://www.w3.org/Graphics/SVG/1.1/DTD/svg11.dtd">
<svg xmlns="http://www.w3.org/2000/svg" version="1.1" width="512px" height="512px" style="shape-rendering:geometricPrecision; text-rendering:geometricPrecision; image-rendering:optimizeQuality; fill-rule:evenodd; clip-rule:evenodd" xmlns:xlink="http://www.w3.org/1999/xlink">
<g><path style="opacity:0.944" fill="#000000" d="M 511.5,61.5 C 511.5,128.5 511.5,195.5 511.5,262.5C 502.568,291.165 482.901,304.831 452.5,303.5C 452.667,332.502 452.5,361.502 452,390.5C 449.17,396.443 444.67,398.276 438.5,396C 423.333,379.5 408.167,363 393,346.5C 390.403,371.417 377.237,387.584 353.5,395C 302.193,396.089 250.86,397.089 199.5,398C 171.478,429.019 143.145,459.686 114.5,490C 109.063,491.655 104.897,490.155 102,485.5C 101.5,456.169 101.333,426.835 101.5,397.5C 83.8302,397.667 66.1635,397.5 48.5,397C 31.8226,395.745 18.3226,388.579 8,375.5C 4.1092,369.537 1.27587,363.204 -0.5,356.5C -0.5,289.5 -0.5,222.5 -0.5,155.5C 5.62833,132.877 20.295,119.377 43.5,115C 68.4978,114.5 93.4978,114.333 118.5,114.5C 118.333,97.4967 118.5,80.4967 119,63.5C 123.64,40.8605 137.14,26.6939 159.5,21C 261.833,20.3333 364.167,20.3333 466.5,21C 490.256,24.9292 505.256,38.4292 511.5,61.5 Z M 162.5,38.5 C 262.834,38.3333 363.167,38.5 463.5,39C 478.9,41.0669 488.733,49.5669 493,64.5C 493.667,129.5 493.667,194.5 493,259.5C 488.457,274.693 478.29,283.193 462.5,285C 454.833,285.333 447.167,285.667 439.5,286C 438.069,286.465 436.903,287.299 436,288.5C 434.685,313.746 434.018,339.079 434,364.5C 420.333,349.5 406.667,334.5 393,319.5C 392.667,265.5 392.333,211.5 392,157.5C 386.242,131.409 370.075,116.909 343.5,114C 274.504,114.299 205.504,114.465 136.5,114.5C 136.333,98.4965 136.5,82.4965 137,66.5C 140.141,52.196 148.641,42.8627 162.5,38.5 Z M 324.5,131.5 C 337.172,130.284 349.172,132.451 360.5,138C 367.933,143.761 372.433,151.261 374,160.5C 374.667,223.5 374.667,286.5 374,349.5C 371.167,365.667 361.667,375.167 345.5,378C 294.15,378.062 242.817,378.728 191.5,380C 167.723,405.781 143.89,431.615 120,457.5C 119.667,433.5 119.333,409.5 119,385.5C 118.315,382.943 116.815,381.109 114.5,380C 90.4715,379.916 66.4715,379.25 42.5,378C 29.6667,374.5 21.5,366.333 18,353.5C 17.3333,288.5 17.3333,223.5 18,158.5C 22.1406,144.027 31.6406,135.527 46.5,133C 139.334,132.833 232.001,132.333 324.5,131.5 Z"/></g>
<g><path style="opacity:0.94" fill="#000000" d="M 80.5,199.5 C 120.168,199.333 159.835,199.5 199.5,200C 204.155,202.897 205.655,207.063 204,212.5C 202.363,214.81 200.196,216.31 197.5,217C 159.5,217.667 121.5,217.667 83.5,217C 76.7439,214.738 74.5772,210.238 77,203.5C 78.3756,202.295 79.5423,200.962 80.5,199.5 Z"/></g>
<g><path style="opacity:0.943" fill="#000000" d="M 81.5,250.5 C 157.501,250.333 233.501,250.5 309.5,251C 315.092,253.402 316.925,257.569 315,263.5C 313.773,265.726 311.939,267.226 309.5,268C 233.5,268.667 157.5,268.667 81.5,268C 73.6905,262.135 73.6905,256.302 81.5,250.5 Z"/></g>
<g><path style="opacity:0.944" fill="#000000" d="M 82.5,301.5 C 157.834,301.333 233.167,301.5 308.5,302C 314.995,303.846 317.162,308.012 315,314.5C 313.833,316.333 312.333,317.833 310.5,319C 234.167,319.667 157.833,319.667 81.5,319C 75.6979,315.291 74.5312,310.458 78,304.5C 79.6516,303.601 81.1516,302.601 82.5,301.5 Z"/></g>
</svg>
