<?xml version="1.0" encoding="UTF-8"?>
<!DOCTYPE svg PUBLIC "-//W3C//DTD SVG 1.1//EN" "http://www.w3.org/Graphics/SVG/1.1/DTD/svg11.dtd">
<svg xmlns="http://www.w3.org/2000/svg" version="1.1" width="512px" height="512px" style="shape-rendering:geometricPrecision; text-rendering:geometricPrecision; image-rendering:optimizeQuality; fill-rule:evenodd; clip-rule:evenodd" xmlns:xlink="http://www.w3.org/1999/xlink">
<g><path style="opacity:0.967" fill="#000000" d="M 31.5,-0.5 C 181.167,-0.5 330.833,-0.5 480.5,-0.5C 482.144,0.316435 483.31,1.64977 484,3.5C 484.667,152.833 484.667,302.167 484,451.5C 479.333,456.833 474.667,456.833 470,451.5C 469.667,379.167 469.333,306.833 469,234.5C 464.7,239.801 460.034,244.801 455,249.5C 454.667,287.833 454.333,326.167 454,364.5C 453.5,366.333 452.333,367.5 450.5,368C 368.126,368.83 285.793,368.664 203.5,367.5C 202.667,366.5 201.833,365.5 201,364.5C 200.667,326.167 200.333,287.833 200,249.5C 196.034,244.533 191.701,239.866 187,235.5C 186.989,278.917 186.323,322.25 185,365.5C 184.167,366.333 183.333,367.167 182.5,368C 142.167,368.667 101.833,368.667 61.5,368C 60.5838,367.626 59.7504,367.126 59,366.5C 57.8372,310.748 57.3372,254.915 57.5,199C 57.6667,143.833 57.8333,88.6667 58,33.5C 58.3742,32.5838 58.8742,31.7504 59.5,31C 100.416,29.3451 141.416,29.0117 182.5,30C 183.333,30.8333 184.167,31.6667 185,32.5C 186.325,85.4172 186.991,138.417 187,191.5C 191.333,187.5 195.667,183.5 200,179.5C 200.333,130.833 200.667,82.1667 201,33.5C 201.833,32.5 202.667,31.5 203.5,30.5C 264.793,29.3373 326.126,29.1706 387.5,30C 391.212,32.513 392.378,36.013 391,40.5C 390.5,42.3333 389.333,43.5 387.5,44C 330.501,44.5 273.501,44.6667 216.5,44.5C 216.5,70.8333 216.5,97.1667 216.5,123.5C 231.5,123.5 246.5,123.5 261.5,123.5C 260.239,115.736 261.572,108.403 265.5,101.5C 258.665,89.9923 259.665,79.159 268.5,69C 271.554,66.8061 274.888,65.1395 278.5,64C 309.833,63.3333 341.167,63.3333 372.5,64C 386.574,68.2984 392.408,77.7984 390,92.5C 389.027,95.7789 387.527,98.7789 385.5,101.5C 390.307,108.036 391.641,115.202 389.5,123C 406.163,123.5 422.83,123.667 439.5,123.5C 439.5,97.1667 439.5,70.8333 439.5,44.5C 430.494,44.6664 421.494,44.4998 412.5,44C 408.788,41.487 407.622,37.987 409,33.5C 409.5,31.6667 410.667,30.5 412.5,30C 425.167,29.3333 437.833,29.3333 450.5,30C 452.333,30.5 453.5,31.6667 454,33.5C 454.333,82.1667 454.667,130.833 455,179.5C 459.967,183.466 464.634,187.799 469,192.5C 469.5,133.168 469.667,73.8343 469.5,14.5C 327.167,14.5 184.833,14.5 42.5,14.5C 42.6666,32.1698 42.4999,49.8365 42,67.5C 37.3333,72.8333 32.6667,72.8333 28,67.5C 27.3333,46.1667 27.3333,24.8333 28,3.5C 28.6897,1.64977 29.8564,0.316435 31.5,-0.5 Z M 72.5,44.5 C 105.167,44.5 137.833,44.5 170.5,44.5C 170.5,147.5 170.5,250.5 170.5,353.5C 137.833,353.5 105.167,353.5 72.5,353.5C 72.5,250.5 72.5,147.5 72.5,44.5 Z M 281.5,79.5 C 311.169,79.3334 340.835,79.5 370.5,80C 375.833,84.3333 375.833,88.6667 370.5,93C 340.833,93.6667 311.167,93.6667 281.5,93C 276.221,88.5028 276.221,84.0028 281.5,79.5 Z M 281.5,109.5 C 311.169,109.333 340.835,109.5 370.5,110C 375.833,114.333 375.833,118.667 370.5,123C 340.833,123.667 311.167,123.667 281.5,123C 276.221,118.503 276.221,114.003 281.5,109.5 Z M 216.5,139.5 C 237.833,139.5 259.167,139.5 280.5,139.5C 280.5,143.5 280.5,147.5 280.5,151.5C 263.83,151.333 247.163,151.5 230.5,152C 226,155.833 221.5,159.667 217,163.5C 216.5,155.507 216.334,147.507 216.5,139.5 Z M 296.5,139.5 C 304.833,139.5 313.167,139.5 321.5,139.5C 321.5,143.5 321.5,147.5 321.5,151.5C 313.167,151.5 304.833,151.5 296.5,151.5C 296.5,147.5 296.5,143.5 296.5,139.5 Z M 337.5,139.5 C 345.167,139.5 352.833,139.5 360.5,139.5C 360.5,143.5 360.5,147.5 360.5,151.5C 352.833,151.5 345.167,151.5 337.5,151.5C 337.5,147.5 337.5,143.5 337.5,139.5 Z M 375.5,139.5 C 396.833,139.5 418.167,139.5 439.5,139.5C 439.666,147.84 439.5,156.173 439,164.5C 434.756,159.585 429.923,155.419 424.5,152C 408.17,151.5 391.837,151.333 375.5,151.5C 375.5,147.5 375.5,143.5 375.5,139.5 Z M 236.5,167.5 C 240.833,167.5 245.167,167.5 249.5,167.5C 252.308,180.479 259.975,189.313 272.5,194C 292.107,200.032 308.607,195.532 322,180.5C 324.107,176.619 325.941,172.619 327.5,168.5C 331.795,167.339 336.129,167.172 340.5,168C 356.802,182.634 372.802,197.634 388.5,213C 381.35,220.984 374.017,228.817 366.5,236.5C 362.682,233.182 359.015,229.682 355.5,226C 348.926,221.112 342.759,221.612 337,227.5C 335.956,229.715 335.29,232.048 335,234.5C 334.5,258.831 334.333,283.164 334.5,307.5C 303.5,307.5 272.5,307.5 241.5,307.5C 241.982,281.078 241.482,254.744 240,228.5C 235.171,222.502 229.338,221.336 222.5,225C 218.633,229.202 214.467,233.035 210,236.5C 202.648,228.649 195.481,220.649 188.5,212.5C 204.52,197.478 220.52,182.478 236.5,167.5 Z M 266.5,168.5 C 280.994,167.339 295.661,167.172 310.5,168C 300.271,181.371 287.604,184.038 272.5,176C 269.879,173.886 267.879,171.386 266.5,168.5 Z M 364.5,168.5 C 367.146,167.836 369.979,167.502 373,167.5C 376.62,167.416 380.12,167.916 383.5,169C 398.365,183.533 413.532,197.7 429,211.5C 428.253,213.976 426.919,216.309 425,218.5C 418.968,224.198 413.301,230.198 408,236.5C 404.595,233.216 401.095,230.05 397.5,227C 404.715,221.762 407.215,214.928 405,206.5C 391.683,193.684 378.183,181.018 364.5,168.5 Z M 405.5,168.5 C 409.981,167.352 414.648,167.185 419.5,168C 434.699,182.867 450.199,197.367 466,211.5C 465.956,213.279 465.289,214.945 464,216.5C 457.301,222.864 450.968,229.531 445,236.5C 442.317,233.984 439.817,231.317 437.5,228.5C 441.238,224.931 444.404,220.931 447,216.5C 447.965,212.218 447.298,208.218 445,204.5C 432.262,191.924 419.096,179.924 405.5,168.5 Z M 350.5,244.5 C 354.114,248.608 358.447,251.775 363.5,254C 368.239,254.865 372.406,253.698 376,250.5C 376.5,269.497 376.667,288.497 376.5,307.5C 367.833,307.5 359.167,307.5 350.5,307.5C 350.5,286.5 350.5,265.5 350.5,244.5 Z M 392.5,244.5 C 395.667,247.498 399,250.331 402.5,253C 405.793,254.608 409.127,254.775 412.5,253.5C 413.5,271.488 413.833,289.488 413.5,307.5C 406.5,307.5 399.5,307.5 392.5,307.5C 392.5,286.5 392.5,265.5 392.5,244.5 Z M 429.5,244.5 C 432.48,247.144 435.48,249.811 438.5,252.5C 439.5,286.16 439.833,319.827 439.5,353.5C 365.167,353.5 290.833,353.5 216.5,353.5C 216.333,319.832 216.5,286.165 217,252.5C 219.371,249.794 222.037,247.461 225,245.5C 225.333,267.833 225.667,290.167 226,312.5C 226.833,318.667 230.333,322.167 236.5,323C 297.167,323.667 357.833,323.667 418.5,323C 423.783,322.385 427.283,319.551 429,314.5C 429.5,291.169 429.667,267.836 429.5,244.5 Z"/></g>
<g><path style="opacity:0.997" fill="#000000" d="M 480.5,511.5 C 330.833,511.5 181.167,511.5 31.5,511.5C 29.8564,510.684 28.6897,509.35 28,507.5C 27.0034,368.086 27.3367,228.753 29,89.5C 31.9172,87.6067 35.0838,87.1067 38.5,88C 40.3333,88.5 41.5,89.6667 42,91.5C 42.5,226.5 42.6667,361.5 42.5,496.5C 184.833,496.5 327.167,496.5 469.5,496.5C 469.068,488.721 469.568,481.054 471,473.5C 475,470.833 479,470.833 483,473.5C 484.622,484.736 484.955,496.069 484,507.5C 483.31,509.35 482.144,510.684 480.5,511.5 Z"/></g>
<g><path style="opacity:0.997" fill="#000000" d="M 61.5,393.5 C 122.501,393.333 183.501,393.5 244.5,394C 246.333,394.5 247.5,395.667 248,397.5C 248.667,423.167 248.667,448.833 248,474.5C 247.5,476.333 246.333,477.5 244.5,478C 183.5,478.667 122.5,478.667 61.5,478C 59.6667,477.5 58.5,476.333 58,474.5C 57.3333,448.833 57.3333,423.167 58,397.5C 58.6897,395.65 59.8564,394.316 61.5,393.5 Z M 72.5,408.5 C 126.167,408.5 179.833,408.5 233.5,408.5C 233.5,426.833 233.5,445.167 233.5,463.5C 179.833,463.5 126.167,463.5 72.5,463.5C 72.5,445.167 72.5,426.833 72.5,408.5 Z"/></g>
<g><path style="opacity:0.997" fill="#000000" d="M 267.5,393.5 C 328.501,393.333 389.501,393.5 450.5,394C 452.333,394.5 453.5,395.667 454,397.5C 454.667,423.167 454.667,448.833 454,474.5C 453.5,476.333 452.333,477.5 450.5,478C 389.5,478.667 328.5,478.667 267.5,478C 265.667,477.5 264.5,476.333 264,474.5C 263.333,448.833 263.333,423.167 264,397.5C 264.69,395.65 265.856,394.316 267.5,393.5 Z M 278.5,408.5 C 332.167,408.5 385.833,408.5 439.5,408.5C 439.5,426.833 439.5,445.167 439.5,463.5C 385.833,463.5 332.167,463.5 278.5,463.5C 278.5,445.167 278.5,426.833 278.5,408.5 Z"/></g>
<g><path style="opacity:0.939" fill="#000000" d="M 143.5,428.5 C 149.952,428.084 156.285,428.584 162.5,430C 166.863,440.412 163.363,444.912 152,443.5C 142.523,445.464 138.523,441.797 140,432.5C 140.69,430.65 141.856,429.316 143.5,428.5 Z"/></g>
<g><path style="opacity:0.94" fill="#000000" d="M 350.5,428.5 C 356.952,428.084 363.285,428.584 369.5,430C 373.863,440.412 370.363,444.912 359,443.5C 349.523,445.464 345.523,441.797 347,432.5C 347.69,430.65 348.856,429.316 350.5,428.5 Z"/></g>
</svg>
