<?xml version="1.0" encoding="UTF-8"?>
<!DOCTYPE svg PUBLIC "-//W3C//DTD SVG 1.1//EN" "http://www.w3.org/Graphics/SVG/1.1/DTD/svg11.dtd">
<svg xmlns="http://www.w3.org/2000/svg" version="1.1" width="512px" height="512px" style="shape-rendering:geometricPrecision; text-rendering:geometricPrecision; image-rendering:optimizeQuality; fill-rule:evenodd; clip-rule:evenodd" xmlns:xlink="http://www.w3.org/1999/xlink">
<g><path style="opacity:0.923" fill="#000000" d="M 54.5,35.5 C 188.5,35.3333 322.5,35.5 456.5,36C 485.457,42.2913 501.957,60.1246 506,89.5C 510.747,115.726 503.581,137.893 484.5,156C 475.543,162.599 465.543,166.765 454.5,168.5C 453.167,254.833 453.167,341.167 454.5,427.5C 462.129,429.296 466.962,433.963 469,441.5C 469.667,448.5 469.667,455.5 469,462.5C 467.167,469 463,473.167 456.5,475C 323.833,475.667 191.167,475.667 58.5,475C 51.8938,472.728 47.7271,468.228 46,461.5C 45.3333,454.833 45.3333,448.167 46,441.5C 47.5053,435.329 51.172,430.995 57,428.5C 57.8333,341.831 57.6667,255.165 56.5,168.5C 31.5626,164.393 15.0626,150.393 7,126.5C 3.66667,110.167 3.66667,93.8333 7,77.5C 14.9442,54.3792 30.7775,40.3792 54.5,35.5 Z M 58.5,47.5 C 190.167,47.3333 321.834,47.5 453.5,48C 474.473,52.3072 487.64,64.8072 493,85.5C 493.667,96.5 493.667,107.5 493,118.5C 487.27,140.563 473.104,153.063 450.5,156C 318.141,156.988 185.808,156.655 53.5,155C 34.5661,149.733 22.7328,137.566 18,118.5C 17.3333,107.5 17.3333,96.5 18,85.5C 23.6571,64.3393 37.1571,51.6727 58.5,47.5 Z M 341.5,80.5 C 348.896,80.1997 356.229,80.6997 363.5,82C 368.342,85.6942 368.675,89.6942 364.5,94C 356.841,94.4997 349.174,94.6664 341.5,94.5C 341.5,89.8333 341.5,85.1667 341.5,80.5 Z M 341.5,106.5 C 349.84,106.334 358.173,106.5 366.5,107C 370.577,110.139 371.41,113.972 369,118.5C 367.681,120.487 365.848,121.654 363.5,122C 356.174,122.5 348.841,122.666 341.5,122.5C 341.5,117.167 341.5,111.833 341.5,106.5 Z M 69.5,168.5 C 193.5,168.5 317.5,168.5 441.5,168.5C 441.5,254.833 441.5,341.167 441.5,427.5C 399.833,427.5 358.167,427.5 316.5,427.5C 316.667,392.165 316.5,356.832 316,321.5C 313.67,299.168 301.503,285.668 279.5,281C 263.5,280.333 247.5,280.333 231.5,281C 210.418,285.415 198.251,298.248 195,319.5C 194.5,355.498 194.333,391.498 194.5,427.5C 152.833,427.5 111.167,427.5 69.5,427.5C 69.5,341.167 69.5,254.833 69.5,168.5 Z M 99.5,219.5 C 107.833,219.5 116.167,219.5 124.5,219.5C 124.5,271.833 124.5,324.167 124.5,376.5C 115.827,376.666 107.16,376.5 98.5,376C 98,375.5 97.5,375 97,374.5C 96.3333,323.833 96.3333,273.167 97,222.5C 97.6979,221.309 98.5313,220.309 99.5,219.5 Z M 137.5,219.5 C 145.84,219.334 154.173,219.5 162.5,220C 163.428,220.388 164.095,221.055 164.5,222C 165.16,247.304 165.493,272.637 165.5,298C 165.653,323.894 165.153,349.727 164,375.5C 155.251,376.484 146.418,376.817 137.5,376.5C 137.5,324.167 137.5,271.833 137.5,219.5 Z M 348.5,219.5 C 356.833,219.5 365.167,219.5 373.5,219.5C 373.5,271.833 373.5,324.167 373.5,376.5C 364.827,376.666 356.16,376.5 347.5,376C 346.809,374.933 346.309,373.766 346,372.5C 345.333,322.833 345.333,273.167 346,223.5C 346.48,221.867 347.313,220.534 348.5,219.5 Z M 386.5,219.5 C 394.84,219.334 403.173,219.5 411.5,220C 412.667,220.5 413.5,221.333 414,222.5C 414.667,273.167 414.667,323.833 414,374.5C 413.5,375 413,375.5 412.5,376C 403.84,376.5 395.173,376.666 386.5,376.5C 386.5,324.167 386.5,271.833 386.5,219.5 Z M 236.5,292.5 C 251.207,292.127 265.873,292.627 280.5,294C 290.815,296.98 297.982,303.48 302,313.5C 303.475,351.452 303.975,389.452 303.5,427.5C 271.5,427.5 239.5,427.5 207.5,427.5C 207.333,390.498 207.5,353.498 208,316.5C 212.539,302.451 222.039,294.451 236.5,292.5 Z M 60.5,440.5 C 191.834,440.333 323.167,440.5 454.5,441C 456.913,444.213 457.913,447.88 457.5,452C 458.219,456.464 456.886,460.131 453.5,463C 322.833,463.667 192.167,463.667 61.5,463C 60.6667,462.167 59.8333,461.333 59,460.5C 58.3333,454.5 58.3333,448.5 59,442.5C 59.7172,441.956 60.2172,441.289 60.5,440.5 Z"/></g>
<g><path style="opacity:0.901" fill="#000000" d="M 154.5,67.5 C 166.744,65.8802 176.577,69.8802 184,79.5C 185.881,82.424 187.048,85.5906 187.5,89C 187.106,94.7062 184.106,96.7062 178.5,95C 176.093,90.8615 173.427,86.8615 170.5,83C 161.194,77.9472 152.694,79.1138 145,86.5C 138.565,98.2423 139.398,109.409 147.5,120C 156.684,125.287 165.184,124.454 173,117.5C 174.801,113.391 176.968,109.558 179.5,106C 186.384,104.884 189.218,107.717 188,114.5C 181.471,132.809 168.638,139.642 149.5,135C 137.58,130.692 130.747,122.192 129,109.5C 126.347,95.7154 129.847,83.8821 139.5,74C 144.142,70.7399 149.142,68.5732 154.5,67.5 Z"/></g>
<g><path style="opacity:0.869" fill="#000000" d="M 205.5,68.5 C 209.886,67.7691 212.72,69.4358 214,73.5C 214.5,89.8299 214.667,106.163 214.5,122.5C 224.172,122.334 233.839,122.5 243.5,123C 249.661,126.491 249.994,130.491 244.5,135C 231.5,135.667 218.5,135.667 205.5,135C 204.584,134.626 203.75,134.126 203,133.5C 201.357,113.256 201.024,92.9227 202,72.5C 202.69,70.6498 203.856,69.3164 205.5,68.5 Z"/></g>
<g><path style="opacity:0.901" fill="#000000" d="M 262.5,68.5 C 265.97,67.8748 268.804,68.8748 271,71.5C 271.066,86.554 271.732,101.554 273,116.5C 275.811,121.946 280.311,124.279 286.5,123.5C 292.233,124.095 296.733,122.095 300,117.5C 301.284,102.901 301.95,88.2345 302,73.5C 304.349,68.2235 308.016,67.2235 313,70.5C 314.631,84.4059 314.964,98.4059 314,112.5C 311.631,127.865 302.631,135.865 287,136.5C 272.468,136.934 263.468,130.268 260,116.5C 259.333,101.5 259.333,86.5 260,71.5C 261.045,70.6266 261.878,69.6266 262.5,68.5 Z"/></g>
<g><path style="opacity:0.925" fill="#000000" d="M 332.5,68.5 C 342.506,68.3335 352.506,68.5002 362.5,69C 378.423,73.5129 383.423,83.5129 377.5,99C 383.55,107.787 384.05,116.954 379,126.5C 374.427,131.869 368.594,134.703 361.5,135C 352.167,135.667 342.833,135.667 333.5,135C 332.069,134.535 330.903,133.701 330,132.5C 329.333,112.167 329.333,91.8333 330,71.5C 331.045,70.6266 331.878,69.6266 332.5,68.5 Z M 341.5,80.5 C 341.5,85.1667 341.5,89.8333 341.5,94.5C 349.174,94.6664 356.841,94.4997 364.5,94C 368.675,89.6942 368.342,85.6942 363.5,82C 356.229,80.6997 348.896,80.1997 341.5,80.5 Z M 341.5,106.5 C 341.5,111.833 341.5,117.167 341.5,122.5C 348.841,122.666 356.174,122.5 363.5,122C 365.848,121.654 367.681,120.487 369,118.5C 371.41,113.972 370.577,110.139 366.5,107C 358.173,106.5 349.84,106.334 341.5,106.5 Z"/></g>
<g><path style="opacity:0.927" fill="#000000" d="M 94.5,207.5 C 118.502,207.333 142.502,207.5 166.5,208C 171.206,209.105 174.373,211.938 176,216.5C 177.654,269.775 177.987,323.108 177,376.5C 176.004,382.159 172.838,385.993 167.5,388C 143.167,388.667 118.833,388.667 94.5,388C 90,386.167 86.8333,383 85,378.5C 84.3333,325.167 84.3333,271.833 85,218.5C 86.5992,213.406 89.7658,209.739 94.5,207.5 Z M 99.5,219.5 C 98.5313,220.309 97.6979,221.309 97,222.5C 96.3333,273.167 96.3333,323.833 97,374.5C 97.5,375 98,375.5 98.5,376C 107.16,376.5 115.827,376.666 124.5,376.5C 124.5,324.167 124.5,271.833 124.5,219.5C 116.167,219.5 107.833,219.5 99.5,219.5 Z M 137.5,219.5 C 137.5,271.833 137.5,324.167 137.5,376.5C 146.418,376.817 155.251,376.484 164,375.5C 165.153,349.727 165.653,323.894 165.5,298C 165.493,272.637 165.16,247.304 164.5,222C 164.095,221.055 163.428,220.388 162.5,220C 154.173,219.5 145.84,219.334 137.5,219.5 Z"/></g>
<g><path style="opacity:0.927" fill="#000000" d="M 344.5,207.5 C 368.502,207.333 392.502,207.5 416.5,208C 420.275,209.442 423.108,211.942 425,215.5C 426.654,269.775 426.987,324.109 426,378.5C 424.167,383 421,386.167 416.5,388C 392.167,388.667 367.833,388.667 343.5,388C 339.333,386.5 336.5,383.667 335,379.5C 333.346,326.225 333.013,272.892 334,219.5C 335.451,213.533 338.951,209.533 344.5,207.5 Z M 348.5,219.5 C 347.313,220.534 346.48,221.867 346,223.5C 345.333,273.167 345.333,322.833 346,372.5C 346.309,373.766 346.809,374.933 347.5,376C 356.16,376.5 364.827,376.666 373.5,376.5C 373.5,324.167 373.5,271.833 373.5,219.5C 365.167,219.5 356.833,219.5 348.5,219.5 Z M 386.5,219.5 C 386.5,271.833 386.5,324.167 386.5,376.5C 395.173,376.666 403.84,376.5 412.5,376C 413,375.5 413.5,375 414,374.5C 414.667,323.833 414.667,273.167 414,222.5C 413.5,221.333 412.667,220.5 411.5,220C 403.173,219.5 394.84,219.334 386.5,219.5 Z"/></g>
</svg>
