<?xml version="1.0" encoding="UTF-8"?>
<!DOCTYPE svg PUBLIC "-//W3C//DTD SVG 1.1//EN" "http://www.w3.org/Graphics/SVG/1.1/DTD/svg11.dtd">
<svg xmlns="http://www.w3.org/2000/svg" version="1.1" width="512px" height="512px" style="shape-rendering:geometricPrecision; text-rendering:geometricPrecision; image-rendering:optimizeQuality; fill-rule:evenodd; clip-rule:evenodd" xmlns:xlink="http://www.w3.org/1999/xlink">
<g><path style="opacity:0.979" fill="#000000" d="M 96.5,84.5 C 152.501,84.3333 208.501,84.5 264.5,85C 294.437,90.2704 312.604,107.77 319,137.5C 319.5,148.495 319.667,159.495 319.5,170.5C 305.167,170.5 290.833,170.5 276.5,170.5C 276.5,156.167 276.5,141.833 276.5,127.5C 212.833,127.5 149.167,127.5 85.5,127.5C 85.5,177.167 85.5,226.833 85.5,276.5C 120.833,276.5 156.167,276.5 191.5,276.5C 191.5,312.167 191.5,347.833 191.5,383.5C 177.163,383.333 162.829,383.5 148.5,384C 134.471,397.695 120.804,411.695 107.5,426C 99.8406,426.5 92.1739,426.666 84.5,426.5C 84.3336,418.826 84.5003,411.159 85,403.5C 91.5,397 98,390.5 104.5,384C 76.8021,382.297 57.3021,368.797 46,343.5C 44.0307,337.987 42.6973,332.321 42,326.5C 41.3333,264.833 41.3333,203.167 42,141.5C 47.4512,110.218 65.6179,91.2177 96.5,84.5 Z M 102.5,298.5 C 119.826,299.322 127.659,308.322 126,325.5C 120.081,338.876 110.247,343.043 96.5,338C 84.9883,330.105 82.4883,319.939 89,307.5C 92.8597,303.335 97.3597,300.335 102.5,298.5 Z"/></g>
<g><path style="opacity:0.979" fill="#000000" d="M 256.5,191.5 C 312.501,191.333 368.501,191.5 424.5,192C 429.239,193.119 433.072,195.619 436,199.5C 447.557,229.951 458.557,260.618 469,291.5C 469.667,331.833 469.667,372.167 469,412.5C 468.116,419.049 464.616,423.549 458.5,426C 451.167,426.667 443.833,426.667 436.5,426C 430.836,423.668 427.336,419.501 426,413.5C 425.5,403.506 425.334,393.506 425.5,383.5C 368.833,383.5 312.167,383.5 255.5,383.5C 255.667,394.172 255.5,404.839 255,415.5C 253.594,420.573 250.428,424.073 245.5,426C 237.089,426.905 228.755,426.572 220.5,425C 216.839,422.337 214.339,418.837 213,414.5C 212.333,373.167 212.333,331.833 213,290.5C 223,261.833 233,233.167 243,204.5C 246.076,198.589 250.576,194.255 256.5,191.5 Z M 264.5,213.5 C 315.504,213.167 366.504,213.5 417.5,214.5C 424.907,235.053 431.907,255.72 438.5,276.5C 373.5,276.5 308.5,276.5 243.5,276.5C 250.298,255.438 257.298,234.438 264.5,213.5 Z M 252.5,298.5 C 270.249,299.685 277.749,309.018 275,326.5C 266.834,341 255.667,343.833 241.5,335C 232.9,325.569 232.4,315.736 240,305.5C 243.739,302.219 247.905,299.885 252.5,298.5 Z M 422.5,298.5 C 439.826,299.322 447.659,308.322 446,325.5C 440.081,338.876 430.247,343.043 416.5,338C 404.988,330.105 402.488,319.939 409,307.5C 412.86,303.335 417.36,300.335 422.5,298.5 Z"/></g>
</svg>
