<?xml version="1.0" encoding="UTF-8"?>
<!DOCTYPE svg PUBLIC "-//W3C//DTD SVG 1.1//EN" "http://www.w3.org/Graphics/SVG/1.1/DTD/svg11.dtd">
<svg xmlns="http://www.w3.org/2000/svg" version="1.1" width="512px" height="512px" style="shape-rendering:geometricPrecision; text-rendering:geometricPrecision; image-rendering:optimizeQuality; fill-rule:evenodd; clip-rule:evenodd" xmlns:xlink="http://www.w3.org/1999/xlink">
<g><path style="opacity:0.995" fill="#000000" d="M 34.5,-0.5 C 112.833,-0.5 191.167,-0.5 269.5,-0.5C 269.333,34.5016 269.5,69.5016 270,104.5C 270.833,113.333 275.667,118.167 284.5,119C 319.498,119.5 354.498,119.667 389.5,119.5C 389.667,141.503 389.5,163.503 389,185.5C 354,220.5 319,255.5 284,290.5C 280.493,295.51 277.493,300.843 275,306.5C 268.147,325.39 262.313,344.557 257.5,364C 261.242,390.041 276.242,402.041 302.5,400C 322.47,393.788 342.137,386.788 361.5,379C 370.964,371.204 380.131,363.038 389,354.5C 389.667,394.833 389.667,435.167 389,475.5C 384.319,494.681 372.485,506.681 353.5,511.5C 247.167,511.5 140.833,511.5 34.5,511.5C 16.5,506.167 4.83333,494.5 -0.5,476.5C -0.5,329.167 -0.5,181.833 -0.5,34.5C 4.83333,16.5 16.5,4.83333 34.5,-0.5 Z M 74.5,149.5 C 144.167,149.333 213.834,149.5 283.5,150C 296.689,152.547 300.855,160.047 296,172.5C 292.736,176.382 288.57,178.549 283.5,179C 213.833,179.667 144.167,179.667 74.5,179C 60.4716,175.437 56.9716,167.271 64,154.5C 67.1466,151.841 70.6466,150.174 74.5,149.5 Z M 74.5,209.5 C 124.168,209.333 173.834,209.5 223.5,210C 236.689,212.547 240.855,220.047 236,232.5C 232.736,236.382 228.57,238.549 223.5,239C 173.833,239.667 124.167,239.667 74.5,239C 60.4716,235.437 56.9716,227.271 64,214.5C 67.1466,211.841 70.6466,210.174 74.5,209.5 Z M 74.5,269.5 C 124.168,269.333 173.834,269.5 223.5,270C 236.689,272.547 240.855,280.047 236,292.5C 232.736,296.382 228.57,298.549 223.5,299C 173.833,299.667 124.167,299.667 74.5,299C 60.4716,295.437 56.9716,287.271 64,274.5C 67.1466,271.841 70.6466,270.174 74.5,269.5 Z M 74.5,329.5 C 124.168,329.333 173.834,329.5 223.5,330C 236.689,332.547 240.855,340.047 236,352.5C 232.736,356.382 228.57,358.549 223.5,359C 173.833,359.667 124.167,359.667 74.5,359C 60.4716,355.437 56.9716,347.271 64,334.5C 67.1466,331.841 70.6466,330.174 74.5,329.5 Z M 194.5,419.5 C 224.169,419.333 253.835,419.5 283.5,420C 296.689,422.547 300.855,430.047 296,442.5C 292.736,446.382 288.57,448.549 283.5,449C 253.833,449.667 224.167,449.667 194.5,449C 181.311,446.453 177.145,438.953 182,426.5C 185.464,422.69 189.631,420.356 194.5,419.5 Z"/></g>
<g><path style="opacity:0.984" fill="#000000" d="M 298.5,-0.5 C 302.5,-0.5 306.5,-0.5 310.5,-0.5C 317.988,1.77184 324.988,5.27184 331.5,10C 347.333,25.8333 363.167,41.6667 379,57.5C 386.197,66.9246 389.697,77.5912 389.5,89.5C 359.167,89.5 328.833,89.5 298.5,89.5C 298.5,59.5 298.5,29.5 298.5,-0.5 Z"/></g>
<g><path style="opacity:0.956" fill="#000000" d="M 511.5,169.5 C 511.5,174.5 511.5,179.5 511.5,184.5C 509.74,190.011 506.906,195.011 503,199.5C 495.958,206.877 488.624,213.877 481,220.5C 466.027,206.694 451.527,192.361 437.5,177.5C 446.292,169.208 454.959,160.708 463.5,152C 479.254,143.822 493.42,145.989 506,158.5C 508.326,162.017 510.16,165.683 511.5,169.5 Z"/></g>
<g><path style="opacity:0.957" fill="#000000" d="M 415.5,198.5 C 416.552,198.351 417.552,198.517 418.5,199C 432.681,213.014 446.681,227.181 460.5,241.5C 428.014,274.486 395.347,307.32 362.5,340C 361.5,340.667 360.5,340.667 359.5,340C 345.319,325.986 331.319,311.819 317.5,297.5C 350.188,264.479 382.854,231.479 415.5,198.5 Z"/></g>
<g><path style="opacity:0.926" fill="#000000" d="M 300.5,321.5 C 312.465,332.965 324.298,344.631 336,356.5C 336.688,357.332 336.521,357.998 335.5,358.5C 323.204,362.765 310.87,366.932 298.5,371C 290.381,372.875 286.548,369.708 287,361.5C 291.411,348.101 295.911,334.768 300.5,321.5 Z"/></g>
</svg>
