<?xml version="1.0" encoding="UTF-8"?>
<!DOCTYPE svg PUBLIC "-//W3C//DTD SVG 1.1//EN" "http://www.w3.org/Graphics/SVG/1.1/DTD/svg11.dtd">
<svg xmlns="http://www.w3.org/2000/svg" version="1.1" width="512px" height="512px" style="shape-rendering:geometricPrecision; text-rendering:geometricPrecision; image-rendering:optimizeQuality; fill-rule:evenodd; clip-rule:evenodd" xmlns:xlink="http://www.w3.org/1999/xlink">
<g><path style="opacity:0.975" fill="#000000" d="M 34.5,-0.5 C 126.833,-0.5 219.167,-0.5 311.5,-0.5C 319.958,2.06475 327.624,6.23142 334.5,12C 350.696,27.8619 366.529,44.0285 382,60.5C 387.087,68.4265 389.753,77.0932 390,86.5C 390.333,125.5 390.667,164.5 391,203.5C 407.893,185.938 425.393,169.105 443.5,153C 467.185,141.815 487.352,146.315 504,166.5C 507.191,171.603 509.691,176.936 511.5,182.5C 511.5,188.833 511.5,195.167 511.5,201.5C 509.036,209.423 505.203,216.756 500,223.5C 463.667,259.833 427.333,296.167 391,332.5C 390.955,380.523 390.289,428.523 389,476.5C 383.984,494.682 372.484,506.348 354.5,511.5C 247.833,511.5 141.167,511.5 34.5,511.5C 16.5,506.167 4.83333,494.5 -0.5,476.5C -0.5,329.167 -0.5,181.833 -0.5,34.5C 4.83333,16.5 16.5,4.83333 34.5,-0.5 Z M 44.5,29.5 C 119.5,29.5 194.5,29.5 269.5,29.5C 269.333,56.5021 269.5,83.5021 270,110.5C 271.833,114.333 274.667,117.167 278.5,119C 305.498,119.5 332.498,119.667 359.5,119.5C 359.667,158.168 359.5,196.835 359,235.5C 336.667,257.833 314.333,280.167 292,302.5C 283.227,326.487 275.06,350.654 267.5,375C 268.333,385.167 273.833,390.667 284,391.5C 306.864,384.212 329.697,376.712 352.5,369C 355.102,368.117 357.269,366.617 359,364.5C 359.667,398.5 359.667,432.5 359,466.5C 358.167,475.333 353.333,480.167 344.5,481C 242.798,481.989 141.132,481.655 39.5,480C 35.3333,478.5 32.5,475.667 31,471.5C 30.3333,327.5 30.3333,183.5 31,39.5C 33.9825,34.0048 38.4825,30.6715 44.5,29.5 Z M 300.5,29.5 C 303.48,30.2655 306.48,31.0989 309.5,32C 325.333,47.8333 341.167,63.6667 357,79.5C 357.897,82.4899 358.731,85.4899 359.5,88.5C 339.845,89.4996 320.178,89.833 300.5,89.5C 300.5,69.5 300.5,49.5 300.5,29.5 Z M 461.5,178.5 C 475.652,177.151 481.819,183.485 480,197.5C 474.74,204.763 468.74,211.43 462,217.5C 455.167,210.667 448.333,203.833 441.5,197C 447.762,190.232 454.429,184.065 461.5,178.5 Z M 418.5,219.5 C 425.632,226.131 432.632,232.964 439.5,240C 416.167,263.333 392.833,286.667 369.5,310C 368.833,310.667 368.167,310.667 367.5,310C 361.333,303.833 355.167,297.667 349,291.5C 348.333,290.833 348.333,290.167 349,289.5C 372.368,266.299 395.535,242.965 418.5,219.5 Z M 325.5,312.5 C 332.632,319.131 339.632,325.964 346.5,333C 343.797,336.038 340.797,338.705 337.5,341C 328.13,344.068 318.796,347.235 309.5,350.5C 309.167,350.167 308.833,349.833 308.5,349.5C 311.765,340.204 314.932,330.87 318,321.5C 320.335,318.335 322.835,315.335 325.5,312.5 Z"/></g>
<g><path style="opacity:0.992" fill="#000000" d="M 68.5,149.5 C 142.501,149.333 216.501,149.5 290.5,150C 296.35,153.03 299.684,157.863 300.5,164.5C 299.684,171.137 296.35,175.97 290.5,179C 216.5,179.667 142.5,179.667 68.5,179C 59.529,173.802 57.029,166.302 61,156.5C 63.069,153.594 65.569,151.261 68.5,149.5 Z"/></g>
<g><path style="opacity:0.99" fill="#000000" d="M 68.5,209.5 C 122.501,209.333 176.501,209.5 230.5,210C 236.35,213.03 239.684,217.863 240.5,224.5C 239.684,231.137 236.35,235.97 230.5,239C 176.5,239.667 122.5,239.667 68.5,239C 59.529,233.802 57.029,226.302 61,216.5C 63.069,213.594 65.569,211.261 68.5,209.5 Z"/></g>
<g><path style="opacity:0.99" fill="#000000" d="M 68.5,269.5 C 122.501,269.333 176.501,269.5 230.5,270C 236.35,273.03 239.684,277.863 240.5,284.5C 239.684,291.137 236.35,295.97 230.5,299C 176.5,299.667 122.5,299.667 68.5,299C 59.529,293.802 57.029,286.302 61,276.5C 63.069,273.594 65.569,271.261 68.5,269.5 Z"/></g>
<g><path style="opacity:0.99" fill="#000000" d="M 68.5,329.5 C 122.501,329.333 176.501,329.5 230.5,330C 236.35,333.03 239.684,337.863 240.5,344.5C 239.684,351.137 236.35,355.97 230.5,359C 176.5,359.667 122.5,359.667 68.5,359C 59.529,353.802 57.029,346.302 61,336.5C 63.069,333.594 65.569,331.261 68.5,329.5 Z"/></g>
<g><path style="opacity:0.984" fill="#000000" d="M 188.5,421.5 C 222.502,421.333 256.502,421.5 290.5,422C 296.35,425.03 299.684,429.863 300.5,436.5C 299.684,443.137 296.35,447.97 290.5,451C 256.5,451.667 222.5,451.667 188.5,451C 179.529,445.802 177.029,438.302 181,428.5C 183.069,425.594 185.569,423.261 188.5,421.5 Z"/></g>
</svg>
