<?xml version="1.0" encoding="UTF-8"?>
<!DOCTYPE svg PUBLIC "-//W3C//DTD SVG 1.1//EN" "http://www.w3.org/Graphics/SVG/1.1/DTD/svg11.dtd">
<svg xmlns="http://www.w3.org/2000/svg" version="1.1" width="512px" height="512px" style="shape-rendering:geometricPrecision; text-rendering:geometricPrecision; image-rendering:optimizeQuality; fill-rule:evenodd; clip-rule:evenodd" xmlns:xlink="http://www.w3.org/1999/xlink">
<g><path style="opacity:0.949" fill="#000000" d="M 121.5,-0.5 C 210.833,-0.5 300.167,-0.5 389.5,-0.5C 396.196,2.70725 400.03,8.04058 401,15.5C 401.667,61.8333 401.667,108.167 401,154.5C 397.888,167.99 389.388,173.323 375.5,170.5C 375.5,178.833 375.5,187.167 375.5,195.5C 416.835,195.333 458.168,195.5 499.5,196C 504.932,197.936 508.932,201.436 511.5,206.5C 511.5,233.5 511.5,260.5 511.5,287.5C 507.985,294.428 502.318,298.095 494.5,298.5C 494.667,365.834 494.5,433.167 494,500.5C 491.643,505.355 488.143,509.021 483.5,511.5C 331.5,511.5 179.5,511.5 27.5,511.5C 22.8566,509.021 19.3566,505.355 17,500.5C 16.5,433.167 16.3333,365.834 16.5,298.5C 8.68182,298.095 3.01515,294.428 -0.5,287.5C -0.5,260.5 -0.5,233.5 -0.5,206.5C 2.0678,201.436 6.0678,197.936 11.5,196C 52.832,195.5 94.1653,195.333 135.5,195.5C 135.5,187.167 135.5,178.833 135.5,170.5C 121.612,173.323 113.112,167.99 110,154.5C 109.333,108.167 109.333,61.8333 110,15.5C 110.94,8.06383 114.773,2.7305 121.5,-0.5 Z M 127.5,17.5 C 212.833,17.5 298.167,17.5 383.5,17.5C 383.5,62.5 383.5,107.5 383.5,152.5C 298.167,152.5 212.833,152.5 127.5,152.5C 127.5,107.5 127.5,62.5 127.5,17.5 Z M 153.5,170.5 C 161.833,170.5 170.167,170.5 178.5,170.5C 178.5,178.833 178.5,187.167 178.5,195.5C 170.167,195.5 161.833,195.5 153.5,195.5C 153.5,187.167 153.5,178.833 153.5,170.5 Z M 196.5,170.5 C 235.833,170.5 275.167,170.5 314.5,170.5C 314.5,178.833 314.5,187.167 314.5,195.5C 275.167,195.5 235.833,195.5 196.5,195.5C 196.5,187.167 196.5,178.833 196.5,170.5 Z M 332.5,170.5 C 340.833,170.5 349.167,170.5 357.5,170.5C 357.5,178.833 357.5,187.167 357.5,195.5C 349.167,195.5 340.833,195.5 332.5,195.5C 332.5,187.167 332.5,178.833 332.5,170.5 Z M 17.5,213.5 C 176.167,213.5 334.833,213.5 493.5,213.5C 493.5,221.5 493.5,229.5 493.5,237.5C 334.833,237.5 176.167,237.5 17.5,237.5C 17.5,229.5 17.5,221.5 17.5,213.5 Z M 17.5,255.5 C 176.167,255.5 334.833,255.5 493.5,255.5C 493.5,263.833 493.5,272.167 493.5,280.5C 334.833,280.5 176.167,280.5 17.5,280.5C 17.5,272.167 17.5,263.833 17.5,255.5 Z M 34.5,298.5 C 181.833,298.5 329.167,298.5 476.5,298.5C 476.5,363.5 476.5,428.5 476.5,493.5C 374.5,493.5 272.5,493.5 170.5,493.5C 170.667,446.499 170.5,399.499 170,352.5C 168.167,346.667 164.333,342.833 158.5,341C 132.167,340.333 105.833,340.333 79.5,341C 73.6667,342.833 69.8333,346.667 68,352.5C 67.5,399.499 67.3333,446.499 67.5,493.5C 56.5,493.5 45.5,493.5 34.5,493.5C 34.5,428.5 34.5,363.5 34.5,298.5 Z M 85.5,358.5 C 107.833,358.5 130.167,358.5 152.5,358.5C 152.5,403.5 152.5,448.5 152.5,493.5C 130.167,493.5 107.833,493.5 85.5,493.5C 85.5,448.5 85.5,403.5 85.5,358.5 Z M 213.5,358.5 C 241.5,358.5 269.5,358.5 297.5,358.5C 297.5,378.167 297.5,397.833 297.5,417.5C 269.5,417.5 241.5,417.5 213.5,417.5C 213.5,397.833 213.5,378.167 213.5,358.5 Z M 349.5,358.5 C 377.833,358.5 406.167,358.5 434.5,358.5C 434.5,378.167 434.5,397.833 434.5,417.5C 406.167,417.5 377.833,417.5 349.5,417.5C 349.5,397.833 349.5,378.167 349.5,358.5 Z"/></g>
<g><path style="opacity:0.934" fill="#000000" d="M 204.5,33.5 C 224.352,30.6691 238.185,38.3358 246,56.5C 249.887,72.8376 245.053,86.0043 231.5,96C 222.833,101.333 214.167,106.667 205.5,112C 203.5,114 201.5,116 199.5,118C 213.5,118.333 227.5,118.667 241.5,119C 247.368,122.04 248.868,126.54 246,132.5C 244.786,134.049 243.286,135.215 241.5,136C 222.167,136.667 202.833,136.667 183.5,136C 181.333,135.167 179.833,133.667 179,131.5C 177.37,117.589 182.203,106.422 193.5,98C 202.167,92.6667 210.833,87.3333 219.5,82C 223.847,78.663 227.014,74.4963 229,69.5C 230.016,61.0408 226.516,55.2075 218.5,52C 206.732,49.7173 198.399,54.0507 193.5,65C 183.168,69.3492 178.334,65.8492 179,54.5C 184.418,43.5666 192.918,36.5666 204.5,33.5 Z"/></g>
<g><path style="opacity:0.937" fill="#000000" d="M 285.5,33.5 C 293.279,31.8691 297.612,34.8691 298.5,42.5C 294.53,59.2136 289.864,75.7136 284.5,92C 288.821,92.499 293.154,92.6657 297.5,92.5C 297.21,88.0638 297.71,83.7305 299,79.5C 304.625,74.0646 309.958,74.398 315,80.5C 315.499,84.4862 315.666,88.4862 315.5,92.5C 321.971,91.3446 327.471,93.0112 332,97.5C 333.151,101.829 332.318,105.662 329.5,109C 324.964,110.379 320.297,110.879 315.5,110.5C 315.666,117.508 315.5,124.508 315,131.5C 311.534,136.442 307.034,137.609 301.5,135C 299.951,133.786 298.785,132.286 298,130.5C 297.5,123.842 297.334,117.175 297.5,110.5C 287.828,110.666 278.161,110.5 268.5,110C 265.08,108.281 263.414,105.448 263.5,101.5C 269.297,79.2764 275.797,57.2764 283,35.5C 283.995,34.9341 284.828,34.2674 285.5,33.5 Z"/></g>
<g><path style="opacity:0.947" fill="#000000" d="M 207.5,340.5 C 239.502,340.333 271.502,340.5 303.5,341C 309.333,342.833 313.167,346.667 315,352.5C 315.667,375.833 315.667,399.167 315,422.5C 312.648,429.517 307.815,433.684 300.5,435C 270.5,435.667 240.5,435.667 210.5,435C 203.185,433.684 198.352,429.517 196,422.5C 195.333,399.167 195.333,375.833 196,352.5C 198.019,346.65 201.852,342.65 207.5,340.5 Z M 213.5,358.5 C 213.5,378.167 213.5,397.833 213.5,417.5C 241.5,417.5 269.5,417.5 297.5,417.5C 297.5,397.833 297.5,378.167 297.5,358.5C 269.5,358.5 241.5,358.5 213.5,358.5 Z"/></g>
<g><path style="opacity:0.945" fill="#000000" d="M 344.5,340.5 C 376.168,340.333 407.835,340.5 439.5,341C 446.07,343.238 450.237,347.738 452,354.5C 452.667,376.5 452.667,398.5 452,420.5C 450.5,428.667 445.667,433.5 437.5,435C 407.167,435.667 376.833,435.667 346.5,435C 338.333,433.5 333.5,428.667 332,420.5C 331.333,398.833 331.333,377.167 332,355.5C 333.51,348.166 337.677,343.166 344.5,340.5 Z M 349.5,358.5 C 349.5,378.167 349.5,397.833 349.5,417.5C 377.833,417.5 406.167,417.5 434.5,417.5C 434.5,397.833 434.5,378.167 434.5,358.5C 406.167,358.5 377.833,358.5 349.5,358.5 Z"/></g>
</svg>
