<?xml version="1.0" encoding="UTF-8"?>
<!DOCTYPE svg PUBLIC "-//W3C//DTD SVG 1.1//EN" "http://www.w3.org/Graphics/SVG/1.1/DTD/svg11.dtd">
<svg xmlns="http://www.w3.org/2000/svg" version="1.1" width="512px" height="512px" style="shape-rendering:geometricPrecision; text-rendering:geometricPrecision; image-rendering:optimizeQuality; fill-rule:evenodd; clip-rule:evenodd" xmlns:xlink="http://www.w3.org/1999/xlink">
<g><path style="opacity:0.976" fill="#0c0c0c" d="M -0.5,74.5 C 170.167,74.5 340.833,74.5 511.5,74.5C 511.5,195.167 511.5,315.833 511.5,436.5C 340.833,436.5 170.167,436.5 -0.5,436.5C -0.5,315.833 -0.5,195.167 -0.5,74.5 Z M 9.5,84.5 C 89.8333,84.5 170.167,84.5 250.5,84.5C 250.5,123.5 250.5,162.5 250.5,201.5C 218.955,205.712 202.288,223.712 200.5,255.5C 202.283,287.283 218.95,305.283 250.5,309.5C 250.5,348.5 250.5,387.5 250.5,426.5C 170.167,426.5 89.8333,426.5 9.5,426.5C 9.5,418.5 9.5,410.5 9.5,402.5C 55.048,408.033 96.048,397.199 132.5,370C 179.601,328.02 195.768,276.187 181,214.5C 160.273,153.113 117.773,117.946 53.5,109C 38.8371,108.5 24.1705,108.333 9.5,108.5C 9.5,100.5 9.5,92.5 9.5,84.5 Z M 260.5,84.5 C 340.833,84.5 421.167,84.5 501.5,84.5C 501.5,92.5 501.5,100.5 501.5,108.5C 469.27,105.069 438.27,109.569 408.5,122C 354.566,150.008 326.566,194.508 324.5,255.5C 326.062,313.817 352.062,357.317 402.5,386C 433.847,400.84 466.847,406.34 501.5,402.5C 501.5,410.5 501.5,418.5 501.5,426.5C 421.167,426.5 340.833,426.5 260.5,426.5C 260.5,387.5 260.5,348.5 260.5,309.5C 290.807,304.221 306.807,286.221 308.5,255.5C 306.974,224.641 290.974,206.641 260.5,201.5C 260.5,162.5 260.5,123.5 260.5,84.5 Z M 9.5,119.5 C 51.9297,114.189 90.2631,124.023 124.5,149C 165.595,184.272 181.761,228.772 173,282.5C 156.813,344.682 116.979,380.848 53.5,391C 38.8371,391.5 24.1705,391.667 9.5,391.5C 9.5,369.5 9.5,347.5 9.5,325.5C 39.1685,325.667 68.8352,325.5 98.5,325C 129.445,318.722 148.611,300.222 156,269.5C 160.707,240.772 151.873,217.272 129.5,199C 120.228,192.199 109.895,187.866 98.5,186C 68.8352,185.5 39.1685,185.333 9.5,185.5C 9.5,163.5 9.5,141.5 9.5,119.5 Z M 457.5,119.5 C 472.167,119.5 486.833,119.5 501.5,119.5C 501.5,141.5 501.5,163.5 501.5,185.5C 471.498,185.333 441.498,185.5 411.5,186C 374.91,194.758 355.576,217.924 353.5,255.5C 355.576,293.076 374.91,316.242 411.5,325C 441.498,325.5 471.498,325.667 501.5,325.5C 501.5,347.5 501.5,369.5 501.5,391.5C 448.864,398.126 404.364,382.459 368,344.5C 337.026,306.25 328.026,263.25 341,215.5C 361.056,160.602 399.89,128.602 457.5,119.5 Z M 9.5,195.5 C 33.5,195.5 57.5,195.5 81.5,195.5C 81.5,235.5 81.5,275.5 81.5,315.5C 57.5,315.5 33.5,315.5 9.5,315.5C 9.5,275.5 9.5,235.5 9.5,195.5 Z M 429.5,195.5 C 453.5,195.5 477.5,195.5 501.5,195.5C 501.5,235.5 501.5,275.5 501.5,315.5C 477.5,315.5 453.5,315.5 429.5,315.5C 429.5,275.5 429.5,235.5 429.5,195.5 Z M 91.5,196.5 C 125.03,201.835 143.364,221.502 146.5,255.5C 143.364,289.498 125.03,309.165 91.5,314.5C 91.5,275.167 91.5,235.833 91.5,196.5 Z M 413.5,196.5 C 415.5,196.5 417.5,196.5 419.5,196.5C 419.5,235.833 419.5,275.167 419.5,314.5C 385.417,309.25 367.084,289.416 364.5,255C 366.917,223.756 383.251,204.256 413.5,196.5 Z M 245.5,212.5 C 247.167,212.5 248.833,212.5 250.5,212.5C 250.5,241.167 250.5,269.833 250.5,298.5C 230.041,295.847 217.208,284.514 212,264.5C 209.366,238.07 220.532,220.737 245.5,212.5 Z M 260.5,212.5 C 283.789,217.415 296.123,231.749 297.5,255.5C 296.123,279.251 283.789,293.585 260.5,298.5C 260.5,269.833 260.5,241.167 260.5,212.5 Z"/></g>
</svg>
