<?xml version="1.0" encoding="UTF-8"?>
<!DOCTYPE svg PUBLIC "-//W3C//DTD SVG 1.1//EN" "http://www.w3.org/Graphics/SVG/1.1/DTD/svg11.dtd">
<svg xmlns="http://www.w3.org/2000/svg" version="1.1" width="512px" height="512px" style="shape-rendering:geometricPrecision; text-rendering:geometricPrecision; image-rendering:optimizeQuality; fill-rule:evenodd; clip-rule:evenodd" xmlns:xlink="http://www.w3.org/1999/xlink">
<g><path style="opacity:0.98" fill="#000000" d="M 28.5,-0.5 C 87.5,-0.5 146.5,-0.5 205.5,-0.5C 220.582,4.08491 230.082,14.0849 234,29.5C 234.667,66.5 234.667,103.5 234,140.5C 230.05,156.784 219.883,166.617 203.5,170C 145.5,170.667 87.5,170.667 29.5,170C 14.0849,166.082 4.08491,156.582 -0.5,141.5C -0.5,103.5 -0.5,65.5 -0.5,27.5C 4.2711,13.0617 13.9378,3.72837 28.5,-0.5 Z M 36.5,31.5 C 90.8925,31.0127 145.226,31.5127 199.5,33C 200,33.5 200.5,34 201,34.5C 201.826,68.2085 201.659,101.875 200.5,135.5C 199.975,136.192 199.308,136.692 198.5,137C 143.833,137.667 89.1667,137.667 34.5,137C 33.1068,135.829 32.2735,134.329 32,132.5C 31.3333,100.833 31.3333,69.1667 32,37.5C 32.5985,34.7458 34.0985,32.7458 36.5,31.5 Z"/></g>
<g><path style="opacity:0.982" fill="#000000" d="M 305.5,-0.5 C 364.5,-0.5 423.5,-0.5 482.5,-0.5C 497.5,3.83333 507.167,13.5 511.5,28.5C 511.5,108.833 511.5,189.167 511.5,269.5C 506.915,284.582 496.915,294.082 481.5,298C 423.5,298.667 365.5,298.667 307.5,298C 291.117,294.617 280.95,284.784 277,268.5C 276.333,188.833 276.333,109.167 277,29.5C 280.918,14.0849 290.418,4.08491 305.5,-0.5 Z M 314.5,31.5 C 367.834,31.3333 421.168,31.5 474.5,32C 475.931,32.4652 477.097,33.2986 478,34.5C 479.657,109.776 479.991,185.11 479,260.5C 478.727,262.329 477.893,263.829 476.5,265C 421.833,265.667 367.167,265.667 312.5,265C 311.692,264.692 311.025,264.192 310.5,263.5C 309.337,187.207 309.17,110.874 310,34.5C 311.409,33.2189 312.909,32.2189 314.5,31.5 Z"/></g>
<g><path style="opacity:0.982" fill="#000000" d="M 205.5,511.5 C 146.5,511.5 87.5,511.5 28.5,511.5C 13.5,507.167 3.83333,497.5 -0.5,482.5C -0.5,402.167 -0.5,321.833 -0.5,241.5C 4.08491,226.418 14.0849,216.918 29.5,213C 87.8333,212.333 146.167,212.333 204.5,213C 220.333,216.833 230.167,226.667 234,242.5C 234.667,322.167 234.667,401.833 234,481.5C 230.082,496.915 220.582,506.915 205.5,511.5 Z M 34.5,245.5 C 89.1677,245.333 143.834,245.5 198.5,246C 199.308,246.308 199.975,246.808 200.5,247.5C 201.663,323.793 201.83,400.126 201,476.5C 200.5,477 200,477.5 199.5,478C 145.225,479.654 90.8915,479.987 36.5,479C 35.0692,478.535 33.9025,477.701 33,476.5C 31.3426,401.224 31.0092,325.89 32,250.5C 32.3661,248.548 33.1995,246.882 34.5,245.5 Z"/></g>
<g><path style="opacity:0.98" fill="#000000" d="M 511.5,369.5 C 511.5,407.167 511.5,444.833 511.5,482.5C 507.167,497.5 497.5,507.167 482.5,511.5C 423.5,511.5 364.5,511.5 305.5,511.5C 290.418,506.915 280.918,496.915 277,481.5C 276.333,444.5 276.333,407.5 277,370.5C 280.833,354.667 290.667,344.833 306.5,341C 364.833,340.333 423.167,340.333 481.5,341C 496.915,344.918 506.915,354.418 511.5,369.5 Z M 312.5,373.5 C 367.168,373.333 421.834,373.5 476.5,374C 477.893,375.171 478.727,376.671 479,378.5C 479.978,411.227 479.645,443.894 478,476.5C 477.097,477.701 475.931,478.535 474.5,479C 420.109,479.987 365.775,479.654 311.5,478C 311,477.5 310.5,477 310,476.5C 309.333,443.167 309.333,409.833 310,376.5C 310.698,375.309 311.531,374.309 312.5,373.5 Z"/></g>
</svg>
