<?xml version="1.0" encoding="UTF-8"?>
<!DOCTYPE svg PUBLIC "-//W3C//DTD SVG 1.1//EN" "http://www.w3.org/Graphics/SVG/1.1/DTD/svg11.dtd">
<svg xmlns="http://www.w3.org/2000/svg" version="1.1" width="512px" height="512px" style="shape-rendering:geometricPrecision; text-rendering:geometricPrecision; image-rendering:optimizeQuality; fill-rule:evenodd; clip-rule:evenodd" xmlns:xlink="http://www.w3.org/1999/xlink">
<g><path style="opacity:0.942" fill="#000000" d="M 73.5,127.5 C 92.5906,125.291 106.424,132.625 115,149.5C 116.3,177.785 116.967,206.118 117,234.5C 117.806,238.617 119.973,241.784 123.5,244C 142.866,244.092 162.2,244.759 181.5,246C 201.551,254.265 209.384,269.098 205,290.5C 204.167,291.333 203.333,292.167 202.5,293C 195.174,293.5 187.841,293.666 180.5,293.5C 182.389,319.504 184.389,345.504 186.5,371.5C 188.237,378.246 185.737,382.246 179,383.5C 175.32,382.487 172.987,380.153 172,376.5C 169.557,348.85 167.39,321.183 165.5,293.5C 144.924,293.173 124.424,293.507 104,294.5C 100.742,322.895 97.0756,351.228 93,379.5C 86.2865,385.405 81.4532,384.072 78.5,375.5C 82.0469,347.956 85.7136,320.456 89.5,293C 78.6401,290.14 71.8068,283.307 69,272.5C 68.3333,225.5 68.3333,178.5 69,131.5C 70.2499,129.807 71.7499,128.473 73.5,127.5 Z M 82.5,142.5 C 91.2757,143.108 97.4424,147.441 101,155.5C 101.333,182.167 101.667,208.833 102,235.5C 103.411,247.576 109.911,255.409 121.5,259C 140.552,259.051 159.552,259.717 178.5,261C 185.885,264.379 190.218,270.045 191.5,278C 158.5,278.667 125.5,278.667 92.5,278C 86.5129,275.538 83.3463,271.038 83,264.5C 82.5,223.835 82.3333,183.168 82.5,142.5 Z"/></g>
<g><path style="opacity:0.931" fill="#000000" d="M 424.5,127.5 C 428.846,127.334 433.179,127.501 437.5,128C 439.492,128.574 440.992,129.741 442,131.5C 442.667,178.5 442.667,225.5 442,272.5C 439.193,283.307 432.36,290.14 421.5,293C 425.286,320.456 428.953,347.956 432.5,375.5C 429.547,384.072 424.714,385.405 418,379.5C 413.924,351.228 410.258,322.895 407,294.5C 386.576,293.507 366.076,293.173 345.5,293.5C 343.61,321.183 341.443,348.85 339,376.5C 335.629,383.962 330.963,384.962 325,379.5C 324.833,376.833 324.667,374.167 324.5,371.5C 326.611,345.504 328.611,319.504 330.5,293.5C 323.159,293.666 315.826,293.5 308.5,293C 301.683,276.852 305.016,262.852 318.5,251C 322.048,249.059 325.714,247.393 329.5,246C 348.8,244.759 368.134,244.092 387.5,244C 391.027,241.784 393.194,238.617 394,234.5C 394.033,206.118 394.7,177.785 396,149.5C 401.606,136.965 411.106,129.632 424.5,127.5 Z M 425.5,142.5 C 427.216,180.327 428.216,218.494 428.5,257C 428.736,262.821 427.569,268.321 425,273.5C 423.269,275.617 421.102,277.117 418.5,278C 385.5,278.667 352.5,278.667 319.5,278C 320.782,270.045 325.115,264.379 332.5,261C 351.448,259.717 370.448,259.051 389.5,259C 401.089,255.409 407.589,247.576 409,235.5C 409.333,208.833 409.667,182.167 410,155.5C 413.266,148.721 418.433,144.388 425.5,142.5 Z"/></g>
<g><path style="opacity:0.932" fill="#000000" d="M 159.5,180.5 C 223.501,180.333 287.501,180.5 351.5,181C 353.667,181.833 355.167,183.333 356,185.5C 356.727,204.443 347.894,216.276 329.5,221C 311.836,221.5 294.17,221.667 276.5,221.5C 276.167,261.506 276.5,301.506 277.5,341.5C 293.835,347.513 301.668,359.18 301,376.5C 300.167,378.667 298.667,380.167 296.5,381C 269.167,381.667 241.833,381.667 214.5,381C 212.333,380.167 210.833,378.667 210,376.5C 209.332,359.18 217.165,347.513 233.5,341.5C 234.5,301.506 234.833,261.506 234.5,221.5C 216.83,221.667 199.164,221.5 181.5,221C 163.106,216.276 154.273,204.443 155,185.5C 156.025,183.313 157.525,181.646 159.5,180.5 Z M 171.5,196.5 C 227.332,195.335 283.332,195.168 339.5,196C 336.695,200.808 332.695,204.142 327.5,206C 279.5,206.667 231.5,206.667 183.5,206C 178.447,204.108 174.447,200.942 171.5,196.5 Z M 249.5,221.5 C 253.5,221.5 257.5,221.5 261.5,221.5C 261.5,261.167 261.5,300.833 261.5,340.5C 257.5,340.5 253.5,340.5 249.5,340.5C 249.5,300.833 249.5,261.167 249.5,221.5 Z M 238.5,355.5 C 249.838,355.333 261.172,355.5 272.5,356C 277.856,357.505 281.856,360.671 284.5,365.5C 265.167,366.833 245.833,366.833 226.5,365.5C 229.38,360.739 233.38,357.406 238.5,355.5 Z"/></g>
</svg>
