<?xml version="1.0" encoding="UTF-8"?>
<!DOCTYPE svg PUBLIC "-//W3C//DTD SVG 1.1//EN" "http://www.w3.org/Graphics/SVG/1.1/DTD/svg11.dtd">
<svg xmlns="http://www.w3.org/2000/svg" version="1.1" width="512px" height="512px" style="shape-rendering:geometricPrecision; text-rendering:geometricPrecision; image-rendering:optimizeQuality; fill-rule:evenodd; clip-rule:evenodd" xmlns:xlink="http://www.w3.org/1999/xlink">
<g><path style="opacity:0.982" fill="#000000" d="M 511.5,227.5 C 511.5,246.167 511.5,264.833 511.5,283.5C 504.174,301.173 490.84,308.506 471.5,305.5C 471.667,323.503 471.5,341.503 471,359.5C 463.327,382.931 447.16,393.097 422.5,390C 418.494,388.913 414.661,387.413 411,385.5C 402.773,408.203 386.607,418.037 362.5,415C 346.307,410.807 336.14,400.64 332,384.5C 331.5,358.169 331.333,331.835 331.5,305.5C 280.833,305.5 230.167,305.5 179.5,305.5C 179.667,331.835 179.5,358.169 179,384.5C 173.111,404.036 159.944,414.369 139.5,415.5C 119.294,414.81 106.127,404.81 100,385.5C 81.1595,394.363 64.1595,391.697 49,377.5C 44.9456,372.058 41.9456,366.058 40,359.5C 39.5001,341.503 39.3334,323.503 39.5,305.5C 20.1595,308.506 6.82618,301.173 -0.5,283.5C -0.5,264.833 -0.5,246.167 -0.5,227.5C 6.82618,209.827 20.1595,202.494 39.5,205.5C 39.3334,187.497 39.5001,169.497 40,151.5C 47.6732,128.069 63.8398,117.903 88.5,121C 92.5059,122.087 96.3392,123.587 100,125.5C 108.227,102.797 124.393,92.9633 148.5,96C 164.693,100.193 174.86,110.36 179,126.5C 179.5,152.831 179.667,179.165 179.5,205.5C 230.167,205.5 280.833,205.5 331.5,205.5C 331.333,179.165 331.5,152.831 332,126.5C 337.889,106.964 351.056,96.631 371.5,95.5C 391.706,96.1905 404.873,106.19 411,125.5C 429.841,116.637 446.841,119.303 462,133.5C 466.054,138.942 469.054,144.942 471,151.5C 471.5,169.497 471.667,187.497 471.5,205.5C 490.84,202.494 504.174,209.827 511.5,227.5 Z M 133.5,116.5 C 145.046,114.687 153.212,119.021 158,129.5C 158.333,131.5 158.667,133.5 159,135.5C 159.667,215.5 159.667,295.5 159,375.5C 157.891,387.443 151.391,393.777 139.5,394.5C 127.609,393.777 121.109,387.443 120,375.5C 119.333,295.5 119.333,215.5 120,135.5C 121.088,126.629 125.588,120.296 133.5,116.5 Z M 365.5,116.5 C 379.994,114.981 388.494,121.314 391,135.5C 391.667,215.5 391.667,295.5 391,375.5C 388.509,389.837 380.009,396.004 365.5,394C 356.981,390.804 352.481,384.637 352,375.5C 351.333,295.5 351.333,215.5 352,135.5C 352.598,126.276 357.098,119.943 365.5,116.5 Z M 73.5,141.5 C 87.9936,139.981 96.4936,146.314 99,160.5C 99.6667,223.833 99.6667,287.167 99,350.5C 96.5088,364.837 88.0088,371.004 73.5,369C 65.4695,365.449 60.9695,359.282 60,350.5C 59.3333,287.167 59.3333,223.833 60,160.5C 61.0881,151.629 65.5881,145.296 73.5,141.5 Z M 425.5,141.5 C 439.994,139.981 448.494,146.314 451,160.5C 451.667,223.833 451.667,287.167 451,350.5C 448.509,364.837 440.009,371.004 425.5,369C 417.469,365.449 412.969,359.282 412,350.5C 411.333,287.167 411.333,223.833 412,160.5C 413.088,151.629 417.588,145.296 425.5,141.5 Z M 29.5,225.5 C 32.8333,225.5 36.1667,225.5 39.5,225.5C 39.5,245.5 39.5,265.5 39.5,285.5C 34.752,285.725 30.0853,285.225 25.5,284C 22.4469,281.949 20.6135,279.115 20,275.5C 19.3333,262.167 19.3333,248.833 20,235.5C 21.0143,229.988 24.1809,226.655 29.5,225.5 Z M 179.5,225.5 C 229.833,225.5 280.167,225.5 330.5,225.5C 330.5,232.167 330.5,238.833 330.5,245.5C 305.831,245.333 281.164,245.5 256.5,246C 251.725,249.655 250.225,254.488 252,260.5C 253.167,262.333 254.667,263.833 256.5,265C 281.164,265.5 305.831,265.667 330.5,265.5C 330.5,272.167 330.5,278.833 330.5,285.5C 280.167,285.5 229.833,285.5 179.5,285.5C 179.5,265.5 179.5,245.5 179.5,225.5 Z M 471.5,225.5 C 476.248,225.275 480.915,225.775 485.5,227C 487.333,228.167 488.833,229.667 490,231.5C 491.099,239.441 491.599,247.441 491.5,255.5C 491.599,263.559 491.099,271.559 490,279.5C 488.833,281.333 487.333,282.833 485.5,284C 480.915,285.225 476.248,285.725 471.5,285.5C 471.5,265.5 471.5,245.5 471.5,225.5 Z"/></g>
<g><path style="opacity:0.89" fill="#000000" d="M 216.5,245.5 C 228.324,243.824 233.158,248.824 231,260.5C 227.345,265.275 222.512,266.775 216.5,265C 211.725,261.345 210.225,256.512 212,250.5C 213.366,248.638 214.866,246.972 216.5,245.5 Z"/></g>
</svg>
