<?xml version="1.0" encoding="UTF-8"?>
<!DOCTYPE svg PUBLIC "-//W3C//DTD SVG 1.1//EN" "http://www.w3.org/Graphics/SVG/1.1/DTD/svg11.dtd">
<svg xmlns="http://www.w3.org/2000/svg" version="1.1" width="512px" height="512px" style="shape-rendering:geometricPrecision; text-rendering:geometricPrecision; image-rendering:optimizeQuality; fill-rule:evenodd; clip-rule:evenodd" xmlns:xlink="http://www.w3.org/1999/xlink">
<g><path style="opacity:0.993" fill="#000000" d="M 242.5,7.5 C 257.923,6.16719 272.923,8.00052 287.5,13C 359.085,43.8614 430.751,74.5281 502.5,105C 503.491,120.422 503.824,135.922 503.5,151.5C 487.5,151.5 471.5,151.5 455.5,151.5C 455.5,183.5 455.5,215.5 455.5,247.5C 466.167,247.5 476.833,247.5 487.5,247.5C 487.5,252.833 487.5,258.167 487.5,263.5C 482.167,263.5 476.833,263.5 471.5,263.5C 471.5,274.167 471.5,284.833 471.5,295.5C 482.167,295.5 492.833,295.5 503.5,295.5C 503.5,364.833 503.5,434.167 503.5,503.5C 338.167,503.5 172.833,503.5 7.5,503.5C 7.5,434.167 7.5,364.833 7.5,295.5C 18.1667,295.5 28.8333,295.5 39.5,295.5C 39.5,284.833 39.5,274.167 39.5,263.5C 34.1667,263.5 28.8333,263.5 23.5,263.5C 23.5,258.167 23.5,252.833 23.5,247.5C 34.1667,247.5 44.8333,247.5 55.5,247.5C 55.5,215.5 55.5,183.5 55.5,151.5C 39.5,151.5 23.5,151.5 7.5,151.5C 7.17562,135.922 7.50895,120.422 8.5,105C 78.5,75 148.5,45 218.5,15C 226.401,11.7526 234.401,9.25258 242.5,7.5 Z M 247.5,24.5 C 252.833,24.5 258.167,24.5 263.5,24.5C 263.5,178.833 263.5,333.167 263.5,487.5C 258.167,487.5 252.833,487.5 247.5,487.5C 247.5,333.167 247.5,178.833 247.5,24.5 Z M 230.5,28.5 C 231.498,53.3278 231.831,78.3278 231.5,103.5C 173.499,103.667 115.499,103.5 57.5,103C 115.256,78.1154 172.923,53.282 230.5,28.5 Z M 279.5,28.5 C 337.59,53.043 395.59,77.8763 453.5,103C 395.501,103.5 337.501,103.667 279.5,103.5C 279.5,78.5 279.5,53.5 279.5,28.5 Z M 23.5,119.5 C 92.8333,119.5 162.167,119.5 231.5,119.5C 231.5,124.833 231.5,130.167 231.5,135.5C 162.167,135.5 92.8333,135.5 23.5,135.5C 23.5,130.167 23.5,124.833 23.5,119.5 Z M 279.5,119.5 C 348.833,119.5 418.167,119.5 487.5,119.5C 487.5,124.833 487.5,130.167 487.5,135.5C 418.167,135.5 348.833,135.5 279.5,135.5C 279.5,130.167 279.5,124.833 279.5,119.5 Z M 71.5,151.5 C 124.833,151.5 178.167,151.5 231.5,151.5C 231.5,183.5 231.5,215.5 231.5,247.5C 178.167,247.5 124.833,247.5 71.5,247.5C 71.5,215.5 71.5,183.5 71.5,151.5 Z M 279.5,151.5 C 332.833,151.5 386.167,151.5 439.5,151.5C 439.5,183.5 439.5,215.5 439.5,247.5C 386.167,247.5 332.833,247.5 279.5,247.5C 279.5,215.5 279.5,183.5 279.5,151.5 Z M 119.5,183.5 C 140.833,183.5 162.167,183.5 183.5,183.5C 183.5,194.167 183.5,204.833 183.5,215.5C 162.167,215.5 140.833,215.5 119.5,215.5C 119.5,204.833 119.5,194.167 119.5,183.5 Z M 327.5,183.5 C 348.833,183.5 370.167,183.5 391.5,183.5C 391.5,194.167 391.5,204.833 391.5,215.5C 370.167,215.5 348.833,215.5 327.5,215.5C 327.5,204.833 327.5,194.167 327.5,183.5 Z M 55.5,263.5 C 66.1667,263.5 76.8333,263.5 87.5,263.5C 87.5,274.167 87.5,284.833 87.5,295.5C 76.8333,295.5 66.1667,295.5 55.5,295.5C 55.5,284.833 55.5,274.167 55.5,263.5 Z M 103.5,263.5 C 114.167,263.5 124.833,263.5 135.5,263.5C 135.5,274.167 135.5,284.833 135.5,295.5C 124.833,295.5 114.167,295.5 103.5,295.5C 103.5,284.833 103.5,274.167 103.5,263.5 Z M 151.5,263.5 C 162.167,263.5 172.833,263.5 183.5,263.5C 183.5,274.167 183.5,284.833 183.5,295.5C 172.833,295.5 162.167,295.5 151.5,295.5C 151.5,284.833 151.5,274.167 151.5,263.5 Z M 199.5,263.5 C 210.167,263.5 220.833,263.5 231.5,263.5C 231.5,274.167 231.5,284.833 231.5,295.5C 220.833,295.5 210.167,295.5 199.5,295.5C 199.5,284.833 199.5,274.167 199.5,263.5 Z M 279.5,263.5 C 290.167,263.5 300.833,263.5 311.5,263.5C 311.5,274.167 311.5,284.833 311.5,295.5C 300.833,295.5 290.167,295.5 279.5,295.5C 279.5,284.833 279.5,274.167 279.5,263.5 Z M 327.5,263.5 C 338.167,263.5 348.833,263.5 359.5,263.5C 359.5,274.167 359.5,284.833 359.5,295.5C 348.833,295.5 338.167,295.5 327.5,295.5C 327.5,284.833 327.5,274.167 327.5,263.5 Z M 375.5,263.5 C 386.167,263.5 396.833,263.5 407.5,263.5C 407.5,274.167 407.5,284.833 407.5,295.5C 396.833,295.5 386.167,295.5 375.5,295.5C 375.5,284.833 375.5,274.167 375.5,263.5 Z M 423.5,263.5 C 434.167,263.5 444.833,263.5 455.5,263.5C 455.5,274.167 455.5,284.833 455.5,295.5C 444.833,295.5 434.167,295.5 423.5,295.5C 423.5,284.833 423.5,274.167 423.5,263.5 Z M 23.5,311.5 C 92.8333,311.5 162.167,311.5 231.5,311.5C 231.5,370.167 231.5,428.833 231.5,487.5C 210.167,487.5 188.833,487.5 167.5,487.5C 167.5,460.833 167.5,434.167 167.5,407.5C 140.833,407.5 114.167,407.5 87.5,407.5C 87.5,434.167 87.5,460.833 87.5,487.5C 66.1667,487.5 44.8333,487.5 23.5,487.5C 23.5,428.833 23.5,370.167 23.5,311.5 Z M 279.5,311.5 C 348.833,311.5 418.167,311.5 487.5,311.5C 487.5,370.167 487.5,428.833 487.5,487.5C 466.167,487.5 444.833,487.5 423.5,487.5C 423.5,460.833 423.5,434.167 423.5,407.5C 396.833,407.5 370.167,407.5 343.5,407.5C 343.5,434.167 343.5,460.833 343.5,487.5C 322.167,487.5 300.833,487.5 279.5,487.5C 279.5,428.833 279.5,370.167 279.5,311.5 Z M 55.5,343.5 C 71.5,343.5 87.5,343.5 103.5,343.5C 103.5,354.167 103.5,364.833 103.5,375.5C 87.5,375.5 71.5,375.5 55.5,375.5C 55.5,364.833 55.5,354.167 55.5,343.5 Z M 151.5,343.5 C 167.5,343.5 183.5,343.5 199.5,343.5C 199.5,354.167 199.5,364.833 199.5,375.5C 183.5,375.5 167.5,375.5 151.5,375.5C 151.5,364.833 151.5,354.167 151.5,343.5 Z M 311.5,343.5 C 327.5,343.5 343.5,343.5 359.5,343.5C 359.5,354.167 359.5,364.833 359.5,375.5C 343.5,375.5 327.5,375.5 311.5,375.5C 311.5,364.833 311.5,354.167 311.5,343.5 Z M 407.5,343.5 C 423.5,343.5 439.5,343.5 455.5,343.5C 455.5,354.167 455.5,364.833 455.5,375.5C 439.5,375.5 423.5,375.5 407.5,375.5C 407.5,364.833 407.5,354.167 407.5,343.5 Z M 103.5,423.5 C 119.5,423.5 135.5,423.5 151.5,423.5C 151.5,444.833 151.5,466.167 151.5,487.5C 135.5,487.5 119.5,487.5 103.5,487.5C 103.5,466.167 103.5,444.833 103.5,423.5 Z M 359.5,423.5 C 375.5,423.5 391.5,423.5 407.5,423.5C 407.5,444.833 407.5,466.167 407.5,487.5C 391.5,487.5 375.5,487.5 359.5,487.5C 359.5,466.167 359.5,444.833 359.5,423.5 Z"/></g>
<g><path style="opacity:1" fill="#000000" d="M 103.5,167.5 C 135.5,167.5 167.5,167.5 199.5,167.5C 199.5,188.833 199.5,210.167 199.5,231.5C 167.5,231.5 135.5,231.5 103.5,231.5C 103.5,210.167 103.5,188.833 103.5,167.5 Z M 119.5,183.5 C 119.5,194.167 119.5,204.833 119.5,215.5C 140.833,215.5 162.167,215.5 183.5,215.5C 183.5,204.833 183.5,194.167 183.5,183.5C 162.167,183.5 140.833,183.5 119.5,183.5 Z"/></g>
<g><path style="opacity:1" fill="#000000" d="M 311.5,167.5 C 343.5,167.5 375.5,167.5 407.5,167.5C 407.5,188.833 407.5,210.167 407.5,231.5C 375.5,231.5 343.5,231.5 311.5,231.5C 311.5,210.167 311.5,188.833 311.5,167.5 Z M 327.5,183.5 C 327.5,194.167 327.5,204.833 327.5,215.5C 348.833,215.5 370.167,215.5 391.5,215.5C 391.5,204.833 391.5,194.167 391.5,183.5C 370.167,183.5 348.833,183.5 327.5,183.5 Z"/></g>
<g><path style="opacity:1" fill="#000000" d="M 39.5,327.5 C 66.1667,327.5 92.8333,327.5 119.5,327.5C 119.5,348.833 119.5,370.167 119.5,391.5C 92.8333,391.5 66.1667,391.5 39.5,391.5C 39.5,370.167 39.5,348.833 39.5,327.5 Z M 55.5,343.5 C 55.5,354.167 55.5,364.833 55.5,375.5C 71.5,375.5 87.5,375.5 103.5,375.5C 103.5,364.833 103.5,354.167 103.5,343.5C 87.5,343.5 71.5,343.5 55.5,343.5 Z"/></g>
<g><path style="opacity:1" fill="#000000" d="M 135.5,327.5 C 162.167,327.5 188.833,327.5 215.5,327.5C 215.5,348.833 215.5,370.167 215.5,391.5C 188.833,391.5 162.167,391.5 135.5,391.5C 135.5,370.167 135.5,348.833 135.5,327.5 Z M 151.5,343.5 C 151.5,354.167 151.5,364.833 151.5,375.5C 167.5,375.5 183.5,375.5 199.5,375.5C 199.5,364.833 199.5,354.167 199.5,343.5C 183.5,343.5 167.5,343.5 151.5,343.5 Z"/></g>
<g><path style="opacity:1" fill="#000000" d="M 295.5,327.5 C 322.167,327.5 348.833,327.5 375.5,327.5C 375.5,348.833 375.5,370.167 375.5,391.5C 348.833,391.5 322.167,391.5 295.5,391.5C 295.5,370.167 295.5,348.833 295.5,327.5 Z M 311.5,343.5 C 311.5,354.167 311.5,364.833 311.5,375.5C 327.5,375.5 343.5,375.5 359.5,375.5C 359.5,364.833 359.5,354.167 359.5,343.5C 343.5,343.5 327.5,343.5 311.5,343.5 Z"/></g>
<g><path style="opacity:1" fill="#000000" d="M 391.5,327.5 C 418.167,327.5 444.833,327.5 471.5,327.5C 471.5,348.833 471.5,370.167 471.5,391.5C 444.833,391.5 418.167,391.5 391.5,391.5C 391.5,370.167 391.5,348.833 391.5,327.5 Z M 407.5,343.5 C 407.5,354.167 407.5,364.833 407.5,375.5C 423.5,375.5 439.5,375.5 455.5,375.5C 455.5,364.833 455.5,354.167 455.5,343.5C 439.5,343.5 423.5,343.5 407.5,343.5 Z"/></g>
</svg>
