<?xml version="1.0" encoding="UTF-8"?>
<!DOCTYPE svg PUBLIC "-//W3C//DTD SVG 1.1//EN" "http://www.w3.org/Graphics/SVG/1.1/DTD/svg11.dtd">
<svg xmlns="http://www.w3.org/2000/svg" version="1.1" width="512px" height="512px" style="shape-rendering:geometricPrecision; text-rendering:geometricPrecision; image-rendering:optimizeQuality; fill-rule:evenodd; clip-rule:evenodd" xmlns:xlink="http://www.w3.org/1999/xlink">
<g><path style="opacity:0.951" fill="#000000" d="M 57.5,12.5 C 138.891,12.0084 220.224,12.5084 301.5,14C 336.333,48.8333 371.167,83.6667 406,118.5C 407.311,149.772 407.978,181.106 408,212.5C 428.971,191.937 452.138,189.104 477.5,204C 499.464,223.266 503.964,246.099 491,272.5C 464.059,301.443 436.392,329.776 408,357.5C 407.667,389.833 407.333,422.167 407,454.5C 402.375,479.458 387.542,493.958 362.5,498C 260.833,498.667 159.167,498.667 57.5,498C 32.4579,493.958 17.6246,479.458 13,454.5C 12.3333,321.833 12.3333,189.167 13,56.5C 17.8022,31.5303 32.6356,16.8636 57.5,12.5 Z M 60.5,33.5 C 135.5,33.5 210.5,33.5 285.5,33.5C 271.5,114.833 305.167,148.5 386.5,134.5C 386.667,167.835 386.5,201.168 386,234.5C 341.667,278.833 297.333,323.167 253,367.5C 244.661,395.684 236.828,424.018 229.5,452.5C 230.101,458.934 233.601,462.601 240,463.5C 269.144,456.34 297.977,448.173 326.5,439C 346.333,419.167 366.167,399.333 386,379.5C 386.667,403.5 386.667,427.5 386,451.5C 382.715,465.786 373.881,474.286 359.5,477C 258.131,477.989 156.798,477.655 55.5,476C 43.2657,471.766 36.099,463.266 34,450.5C 33.3333,320.5 33.3333,190.5 34,60.5C 37.0137,45.6539 45.847,36.6539 60.5,33.5 Z M 306.5,49.5 C 327.965,70.465 349.299,91.6317 370.5,113C 318.178,123.178 296.844,102.011 306.5,49.5 Z M 74.5,94.5 C 87.5,94.5 100.5,94.5 113.5,94.5C 113.5,107.5 113.5,120.5 113.5,133.5C 100.5,133.5 87.5,133.5 74.5,133.5C 74.5,120.5 74.5,107.5 74.5,94.5 Z M 74.5,205.5 C 87.5,205.5 100.5,205.5 113.5,205.5C 113.5,218.833 113.5,232.167 113.5,245.5C 100.5,245.5 87.5,245.5 74.5,245.5C 74.5,232.167 74.5,218.833 74.5,205.5 Z M 439.5,216.5 C 461.432,214.124 474.099,223.791 477.5,245.5C 476.535,257.098 471.201,266.098 461.5,272.5C 447.347,258.847 433.347,245.014 419.5,231C 425.251,224.726 431.918,219.892 439.5,216.5 Z M 404.5,246.5 C 417.771,260.272 431.271,273.938 445,287.5C 445.667,288.167 445.667,288.833 445,289.5C 403.167,331.333 361.333,373.167 319.5,415C 318.833,415.667 318.167,415.667 317.5,415C 304.333,401.833 291.167,388.667 278,375.5C 277.333,374.833 277.333,374.167 278,373.5C 320.368,331.299 362.535,288.965 404.5,246.5 Z M 74.5,316.5 C 87.5,316.5 100.5,316.5 113.5,316.5C 113.5,329.833 113.5,343.167 113.5,356.5C 100.5,356.5 87.5,356.5 74.5,356.5C 74.5,343.167 74.5,329.833 74.5,316.5 Z M 266.5,395.5 C 277.246,404.743 287.58,414.576 297.5,425C 283.814,429.561 269.98,433.728 256,437.5C 259.481,423.576 262.981,409.576 266.5,395.5 Z"/></g>
<g><path style="opacity:0.954" fill="#000000" d="M 59.5,73.5 C 82.5024,73.3334 105.502,73.5 128.5,74C 130.286,74.7845 131.786,75.9512 133,77.5C 134.646,101.079 134.979,124.745 134,148.5C 133.215,150.286 132.049,151.786 130.5,153C 106.921,154.646 83.2546,154.979 59.5,154C 57.3762,152.878 55.5429,151.378 54,149.5C 52.3887,127.542 52.0554,105.542 53,83.5C 53.4352,78.9448 55.6018,75.6115 59.5,73.5 Z M 74.5,94.5 C 74.5,107.5 74.5,120.5 74.5,133.5C 87.5,133.5 100.5,133.5 113.5,133.5C 113.5,120.5 113.5,107.5 113.5,94.5C 100.5,94.5 87.5,94.5 74.5,94.5 Z"/></g>
<g><path style="opacity:0.949" fill="#000000" d="M 160.5,83.5 C 193.502,83.3334 226.502,83.5 259.5,84C 266.224,88.0634 267.724,93.5634 264,100.5C 262.681,102.487 260.848,103.654 258.5,104C 226.167,104.667 193.833,104.667 161.5,104C 156.464,102.604 154.131,99.271 154.5,94C 154.324,89.1769 156.324,85.6769 160.5,83.5 Z"/></g>
<g><path style="opacity:0.946" fill="#000000" d="M 161.5,123.5 C 183.503,123.333 205.503,123.5 227.5,124C 234.321,126.472 236.821,131.306 235,138.5C 233.833,141 232,142.833 229.5,144C 206.5,144.667 183.5,144.667 160.5,144C 156.198,142.065 154.198,138.732 154.5,134C 154.292,128.723 156.625,125.223 161.5,123.5 Z"/></g>
<g><path style="opacity:0.948" fill="#000000" d="M 59.5,184.5 C 82.1691,184.333 104.836,184.5 127.5,185C 129.848,185.346 131.681,186.513 133,188.5C 134.646,212.079 134.979,235.745 134,259.5C 132.878,261.624 131.378,263.457 129.5,265C 106.884,266.624 84.2171,266.958 61.5,266C 55.7407,264.904 52.9074,261.404 53,255.5C 52.3333,235.167 52.3333,214.833 53,194.5C 53.4352,189.945 55.6018,186.611 59.5,184.5 Z M 74.5,205.5 C 74.5,218.833 74.5,232.167 74.5,245.5C 87.5,245.5 100.5,245.5 113.5,245.5C 113.5,232.167 113.5,218.833 113.5,205.5C 100.5,205.5 87.5,205.5 74.5,205.5 Z"/></g>
<g><path style="opacity:0.952" fill="#000000" d="M 161.5,194.5 C 193.835,194.333 226.168,194.5 258.5,195C 265.926,198.612 267.759,204.112 264,211.5C 262.786,213.049 261.286,214.215 259.5,215C 226.5,215.667 193.5,215.667 160.5,215C 156.198,213.065 154.198,209.732 154.5,205C 154.324,199.699 156.658,196.199 161.5,194.5 Z"/></g>
<g><path style="opacity:0.948" fill="#000000" d="M 162.5,234.5 C 184.169,234.333 205.836,234.5 227.5,235C 234.34,237.513 236.84,242.346 235,249.5C 233.833,252 232,253.833 229.5,255C 206.167,255.667 182.833,255.667 159.5,255C 154.725,251.345 153.225,246.512 155,240.5C 156.707,237.41 159.207,235.41 162.5,234.5 Z"/></g>
<g><path style="opacity:0.948" fill="#000000" d="M 60.5,295.5 C 82.8358,295.333 105.169,295.5 127.5,296C 130.583,296.786 132.749,298.619 134,301.5C 134.667,324.5 134.667,347.5 134,370.5C 132.612,373.945 130.112,376.111 126.5,377C 104.5,377.667 82.5,377.667 60.5,377C 55.7723,375.604 53.2723,372.438 53,367.5C 52.3333,346.833 52.3333,326.167 53,305.5C 53.4713,300.542 55.9713,297.209 60.5,295.5 Z M 74.5,316.5 C 74.5,329.833 74.5,343.167 74.5,356.5C 87.5,356.5 100.5,356.5 113.5,356.5C 113.5,343.167 113.5,329.833 113.5,316.5C 100.5,316.5 87.5,316.5 74.5,316.5 Z"/></g>
<g><path style="opacity:0.951" fill="#000000" d="M 161.5,305.5 C 193.835,305.333 226.168,305.5 258.5,306C 265.268,309.236 267.434,314.403 265,321.5C 263.833,323.333 262.333,324.833 260.5,326C 227.167,326.667 193.833,326.667 160.5,326C 156.207,324.22 154.207,321.054 154.5,316.5C 154.083,310.986 156.416,307.32 161.5,305.5 Z"/></g>
<g><path style="opacity:0.949" fill="#000000" d="M 159.5,346.5 C 182.836,346.333 206.169,346.5 229.5,347C 235.025,349.919 236.858,354.419 235,360.5C 233.413,363.756 230.913,365.923 227.5,367C 205.833,367.667 184.167,367.667 162.5,367C 154.921,364.517 152.421,359.35 155,351.5C 156.707,349.963 158.207,348.296 159.5,346.5 Z"/></g>
</svg>
