<?xml version="1.0" encoding="UTF-8"?>
<!DOCTYPE svg PUBLIC "-//W3C//DTD SVG 1.1//EN" "http://www.w3.org/Graphics/SVG/1.1/DTD/svg11.dtd">
<svg xmlns="http://www.w3.org/2000/svg" version="1.1" width="512px" height="512px" style="shape-rendering:geometricPrecision; text-rendering:geometricPrecision; image-rendering:optimizeQuality; fill-rule:evenodd; clip-rule:evenodd" xmlns:xlink="http://www.w3.org/1999/xlink">
<g><path style="opacity:0.977" fill="#000000" d="M 58.5,20.5 C 131.167,20.5 203.833,20.5 276.5,20.5C 276.333,44.169 276.5,67.8357 277,91.5C 282.7,118.408 298.866,135.241 325.5,142C 349.802,143.418 374.136,143.918 398.5,143.5C 398.979,166.591 398.479,189.591 397,212.5C 349.333,260.167 301.667,307.833 254,355.5C 241.122,392.965 228.956,430.632 217.5,468.5C 217.718,474.553 220.885,477.887 227,478.5C 259.852,470.079 292.686,461.579 325.5,453C 349.652,429.681 373.652,406.181 397.5,382.5C 398.666,407.16 398.833,431.827 398,456.5C 393.296,475.204 381.462,486.371 362.5,490C 260.833,490.667 159.167,490.667 57.5,490C 36.6667,486.5 24.5,474.333 21,453.5C 20.3333,321.5 20.3333,189.5 21,57.5C 24.8046,36.1944 37.3046,23.8611 58.5,20.5 Z M 59.5,72.5 C 81.5025,72.3334 103.503,72.5 125.5,73C 128.583,73.786 130.749,75.6193 132,78.5C 132.667,101.5 132.667,124.5 132,147.5C 130.125,150.187 127.625,152.021 124.5,153C 103.167,153.667 81.8333,153.667 60.5,153C 57.804,152.31 55.6374,150.81 54,148.5C 52.3546,125.588 52.0212,102.588 53,79.5C 54.6941,76.6424 56.8607,74.309 59.5,72.5 Z M 162.5,82.5 C 193.835,82.3334 225.168,82.5 256.5,83C 264.536,85.7841 266.702,90.9508 263,98.5C 261.421,100.041 259.587,101.208 257.5,102C 225.833,102.667 194.167,102.667 162.5,102C 154.419,99.1974 152.419,94.0307 156.5,86.5C 158.29,84.6843 160.29,83.3509 162.5,82.5 Z M 161.5,123.5 C 183.503,123.333 205.503,123.5 227.5,124C 233.943,127.056 235.776,131.889 233,138.5C 231.786,140.049 230.286,141.215 228.5,142C 205.833,142.667 183.167,142.667 160.5,142C 154.533,138.608 153.033,133.774 156,127.5C 157.812,126.023 159.645,124.69 161.5,123.5 Z M 60.5,184.5 C 81.8359,184.333 103.169,184.5 124.5,185C 127.625,185.979 130.125,187.813 132,190.5C 132.667,213.5 132.667,236.5 132,259.5C 130.749,262.381 128.583,264.214 125.5,265C 103.833,265.667 82.1667,265.667 60.5,265C 57.804,264.31 55.6374,262.81 54,260.5C 52.3546,237.588 52.0212,214.588 53,191.5C 54.7668,188.228 57.2668,185.895 60.5,184.5 Z M 164.5,194.5 C 194.835,194.333 225.168,194.5 255.5,195C 264.333,197.181 266.833,202.348 263,210.5C 261.681,212.487 259.848,213.654 257.5,214C 225.5,214.667 193.5,214.667 161.5,214C 152.98,209.011 152.313,203.011 159.5,196C 161.382,195.802 163.048,195.302 164.5,194.5 Z M 161.5,235.5 C 183.503,235.333 205.503,235.5 227.5,236C 235.416,240.496 236.416,246.163 230.5,253C 228.608,253.973 226.608,254.64 224.5,255C 204.5,255.667 184.5,255.667 164.5,255C 156.669,253.829 153.502,249.329 155,241.5C 156.494,238.686 158.66,236.686 161.5,235.5 Z M 58.5,297.5 C 81.1691,297.333 103.836,297.5 126.5,298C 128.286,298.785 129.786,299.951 131,301.5C 132.646,324.745 132.979,348.079 132,371.5C 130.749,374.381 128.583,376.214 125.5,377C 103.5,377.667 81.5,377.667 59.5,377C 56,376.167 53.8333,374 53,370.5C 52.3333,348.167 52.3333,325.833 53,303.5C 54.3597,300.977 56.193,298.977 58.5,297.5 Z M 160.5,307.5 C 193.502,307.333 226.502,307.5 259.5,308C 267.684,314.456 267.35,320.456 258.5,326C 226.167,326.667 193.833,326.667 161.5,326C 154.608,323.149 152.775,318.316 156,311.5C 157.397,309.93 158.897,308.596 160.5,307.5 Z M 162.5,347.5 C 183.836,347.333 205.169,347.5 226.5,348C 235.822,352.596 236.822,358.596 229.5,366C 228.167,366.333 226.833,366.667 225.5,367C 204.5,367.667 183.5,367.667 162.5,367C 154.148,363.754 152.314,358.254 157,350.5C 158.876,349.391 160.709,348.391 162.5,347.5 Z"/></g>
<g><path style="opacity:0.967" fill="#000000" d="M 295.5,20.5 C 329.965,54.4652 364.299,88.6319 398.5,123C 375.5,123.667 352.5,123.667 329.5,123C 310.311,118.822 299.145,106.989 296,87.5C 295.5,65.1692 295.333,42.8358 295.5,20.5 Z"/></g>
<g><path style="opacity:0.963" fill="#000000" d="M 71.5,92.5 C 85.5,92.5 99.5,92.5 113.5,92.5C 113.5,106.167 113.5,119.833 113.5,133.5C 99.5,133.5 85.5,133.5 71.5,133.5C 71.5,119.833 71.5,106.167 71.5,92.5 Z"/></g>
<g><path style="opacity:0.963" fill="#000000" d="M 71.5,204.5 C 85.5,204.5 99.5,204.5 113.5,204.5C 113.5,218.167 113.5,231.833 113.5,245.5C 99.5,245.5 85.5,245.5 71.5,245.5C 71.5,231.833 71.5,218.167 71.5,204.5 Z"/></g>
<g><path style="opacity:0.961" fill="#000000" d="M 440.5,204.5 C 463.014,202.001 478.847,211.001 488,231.5C 492.057,245.437 490.057,258.437 482,270.5C 475.957,276.878 469.624,282.878 463,288.5C 443.167,270 424,250.833 405.5,231C 414.389,218.251 426.056,209.418 440.5,204.5 Z"/></g>
<g><path style="opacity:0.978" fill="#000000" d="M 389.5,245.5 C 390.552,245.351 391.552,245.517 392.5,246C 411.5,265 430.5,284 449.5,303C 410.986,341.68 372.32,380.18 333.5,418.5C 313.833,399.5 294.5,380.167 275.5,360.5C 313.521,322.146 351.521,283.812 389.5,245.5 Z"/></g>
<g><path style="opacity:0.941" fill="#000000" d="M 71.5,316.5 C 85.5,316.5 99.5,316.5 113.5,316.5C 113.5,330.5 113.5,344.5 113.5,358.5C 99.8293,358.667 86.1626,358.5 72.5,358C 71.5101,344.246 71.1767,330.412 71.5,316.5 Z"/></g>
<g><path style="opacity:0.955" fill="#000000" d="M 261.5,374.5 C 281.146,393.479 300.479,412.812 319.5,432.5C 293.616,440.139 267.616,447.472 241.5,454.5C 240.833,454.167 240.167,453.833 239.5,453.5C 246.995,427.182 254.329,400.849 261.5,374.5 Z"/></g>
</svg>
