<?xml version="1.0" encoding="UTF-8"?>
<!DOCTYPE svg PUBLIC "-//W3C//DTD SVG 1.1//EN" "http://www.w3.org/Graphics/SVG/1.1/DTD/svg11.dtd">
<svg xmlns="http://www.w3.org/2000/svg" version="1.1" width="512px" height="512px" style="shape-rendering:geometricPrecision; text-rendering:geometricPrecision; image-rendering:optimizeQuality; fill-rule:evenodd; clip-rule:evenodd" xmlns:xlink="http://www.w3.org/1999/xlink">
<g><path style="opacity:0.96" fill="#000000" d="M -0.5,346.5 C -0.5,265.5 -0.5,184.5 -0.5,103.5C 8.83579,73.0009 29.1691,54.5009 60.5,48C 168.167,47.3333 275.833,47.3333 383.5,48C 405.063,53.7278 417.729,67.5611 421.5,89.5C 445.419,93.0868 459.419,106.753 463.5,130.5C 487.541,130.261 503.041,141.594 510,164.5C 510.667,253.167 510.667,341.833 510,430.5C 505.155,449.68 492.988,460.847 473.5,464C 356.833,464.667 240.167,464.667 123.5,464C 100.954,459.289 88.9541,445.456 87.5,422.5C 61.8544,420.271 46.3544,406.604 41,381.5C 20.5504,377.541 6.71704,365.875 -0.5,346.5 Z M 71.5,67.5 C 174.526,67.0155 277.526,67.5155 380.5,69C 390.5,72.3333 397.167,79 400.5,89C 362.833,89.3333 325.167,89.6667 287.5,90C 281.12,95.3506 280.453,101.184 285.5,107.5C 287.22,108.934 289.22,109.767 291.5,110C 335.167,110.333 378.833,110.667 422.5,111C 432.5,113.497 439.166,119.664 442.5,129.5C 337.835,130.333 233.168,130.833 128.5,131C 107.461,133.038 93.9613,144.204 88,164.5C 87.5,243.499 87.3333,322.499 87.5,401.5C 74.0389,399.861 65.5389,392.528 62,379.5C 61.3333,297.833 61.3333,216.167 62,134.5C 64.2838,122.216 71.4505,114.382 83.5,111C 126.833,110.667 170.167,110.333 213.5,110C 221.3,108.18 224.133,103.347 222,95.5C 221.215,93.714 220.049,92.214 218.5,91C 172.583,89.3438 126.583,89.0104 80.5,90C 58.4712,95.3629 45.3045,109.196 41,131.5C 40.5,207.166 40.3333,282.833 40.5,358.5C 27.0185,355.176 19.8518,346.509 19,332.5C 18.3333,261.833 18.3333,191.167 19,120.5C 20.2754,97.8973 31.1087,81.7307 51.5,72C 58.1448,69.7743 64.8115,68.2743 71.5,67.5 Z M 129.5,151.5 C 242.5,151.333 355.5,151.5 468.5,152C 481.447,153.948 488.614,161.448 490,174.5C 490.667,228.5 490.667,282.5 490,336.5C 475.256,325.212 460.423,314.045 445.5,303C 433.666,296.124 421.666,295.791 409.5,302C 390.36,315.64 371.36,329.473 352.5,343.5C 316.394,306.805 280.394,269.972 244.5,233C 230.147,223.144 215.814,223.144 201.5,233C 170.948,260.52 140.115,287.686 109,314.5C 108.333,265.833 108.333,217.167 109,168.5C 112.429,158.558 119.263,152.892 129.5,151.5 Z M 383.5,212.5 C 398.832,212.334 407.499,219.834 409.5,235C 405.987,253.188 395.32,259.855 377.5,255C 364.026,245.932 361.526,234.432 370,220.5C 373.897,216.641 378.397,213.975 383.5,212.5 Z M 221.5,246.5 C 224.625,246.865 227.625,247.698 230.5,249C 268.667,288.5 306.833,328 345,367.5C 355.529,378.363 366.363,388.863 377.5,399C 388.498,400.333 392.998,395.5 391,384.5C 383.698,376.197 376.031,368.197 368,360.5C 367.333,359.833 367.333,359.167 368,358.5C 384.589,346.455 401.089,334.289 417.5,322C 422.958,317.811 428.624,317.478 434.5,321C 452.91,335.288 471.41,349.455 490,363.5C 490.667,382.833 490.667,402.167 490,421.5C 489.26,432.814 483.427,439.98 472.5,443C 356.833,443.667 241.167,443.667 125.5,443C 117.073,440.905 111.573,435.739 109,427.5C 108.333,399.5 108.333,371.5 109,343.5C 144.5,312 180,280.5 215.5,249C 217.611,248.155 219.611,247.322 221.5,246.5 Z"/></g>
<g><path style="opacity:0.908" fill="#000000" d="M 247.5,89.5 C 258.989,88.1551 263.823,93.1551 262,104.5C 255.667,112.5 249.333,112.5 243,104.5C 241.029,98.5586 242.529,93.5586 247.5,89.5 Z"/></g>
<g><path style="opacity:0.944" fill="#000000" d="M 383.5,191.5 C 411.839,192.34 427.505,206.84 430.5,235C 427.999,261.501 413.499,276.001 387,278.5C 360.266,275.933 345.766,261.266 343.5,234.5C 345.89,209.782 359.223,195.449 383.5,191.5 Z M 383.5,212.5 C 378.397,213.975 373.897,216.641 370,220.5C 361.526,234.432 364.026,245.932 377.5,255C 395.32,259.855 405.987,253.188 409.5,235C 407.499,219.834 398.832,212.334 383.5,212.5 Z"/></g>
</svg>
