<?xml version="1.0" standalone="no"?>
<!DOCTYPE svg PUBLIC "-//W3C//DTD SVG 20010904//EN"
 "http://www.w3.org/TR/2001/REC-SVG-20010904/DTD/svg10.dtd">
<svg version="1.0" xmlns="http://www.w3.org/2000/svg"
 width="512.000000pt" height="512.000000pt" viewBox="0 0 512.000000 512.000000"
 preserveAspectRatio="xMidYMid meet">

<g transform="translate(0.000000,512.000000) scale(0.100000,-0.100000)"
fill="#000000" stroke="none">
<path d="M2600 4259 c-87 -8 -143 -24 -215 -62 -33 -18 -386 -257 -784 -531
-771 -532 -763 -526 -746 -594 11 -43 59 -82 102 -82 46 0 -35 -53 820 537
370 255 699 476 730 490 81 37 187 43 280 15 60 -19 158 -83 803 -529 827
-570 787 -548 856 -479 33 33 36 40 31 77 -3 22 -13 49 -23 60 -28 31 -1452
1010 -1514 1040 -99 50 -216 70 -340 58z"/>
<path d="M1971 2974 c-132 -36 -159 -70 -348 -448 l-157 -315 -67 64 c-39 36
-80 66 -98 70 -69 15 -141 -58 -126 -127 5 -19 36 -61 86 -113 l78 -81 -50
-50 c-28 -27 -64 -78 -82 -114 l-32 -65 0 -240 c0 -239 0 -240 27 -297 30 -65
93 -130 149 -155 l40 -17 -3 -116 -3 -115 -236 -5 c-213 -5 -239 -7 -258 -24
-33 -30 -45 -78 -27 -119 30 -73 -119 -67 1815 -65 l1739 3 26 24 c51 48 40
142 -20 170 -16 7 -105 11 -249 11 l-225 0 0 118 0 117 50 27 c27 15 67 51 90
79 65 82 72 123 68 386 -4 267 -8 283 -107 387 l-60 62 70 70 c103 101 118
138 80 200 -24 40 -76 59 -117 44 -16 -6 -57 -38 -91 -72 l-61 -61 -161 321
c-176 350 -200 384 -299 430 l-57 27 -665 2 c-560 2 -674 0 -719 -13z m1373
-225 c18 -14 77 -122 172 -310 79 -159 144 -293 144 -299 0 -7 -334 -10 -995
-10 -547 0 -995 2 -995 5 0 3 67 140 150 304 89 178 158 306 172 315 20 14 96
16 674 16 648 0 651 0 678 -21z m518 -896 c37 -38 72 -81 77 -96 17 -44 14
-370 -3 -412 -29 -69 55 -65 -1271 -65 -1099 0 -1199 1 -1225 17 -16 9 -33 27
-39 40 -7 15 -11 103 -11 228 l0 205 71 75 72 75 1131 0 1132 0 66 -67z
m-1837 -893 l0 -105 -212 -3 -213 -2 0 110 0 110 213 -2 212 -3 0 -105z m1065
0 l0 -110 -425 0 -425 0 0 110 0 110 425 0 425 0 0 -110z m640 0 l0 -110 -210
0 -210 0 0 110 0 110 210 0 210 0 0 -110z"/>
<path d="M1663 1695 c-33 -14 -63 -59 -63 -95 0 -37 30 -81 65 -96 50 -20 256
-19 300 2 31 14 65 64 65 94 0 30 -34 80 -65 94 -44 21 -255 22 -302 1z"/>
<path d="M3374 1696 c-41 -18 -64 -52 -64 -96 0 -82 53 -110 210 -110 157 0
210 28 210 110 0 45 -23 78 -66 96 -45 19 -247 18 -290 0z"/>
</g>
</svg>
