<?xml version="1.0" encoding="UTF-8"?>
<!DOCTYPE svg PUBLIC "-//W3C//DTD SVG 1.1//EN" "http://www.w3.org/Graphics/SVG/1.1/DTD/svg11.dtd">
<svg xmlns="http://www.w3.org/2000/svg" version="1.1" width="512px" height="512px" style="shape-rendering:geometricPrecision; text-rendering:geometricPrecision; image-rendering:optimizeQuality; fill-rule:evenodd; clip-rule:evenodd" xmlns:xlink="http://www.w3.org/1999/xlink">
<g><path style="opacity:0.967" fill="#000000" d="M 315.5,15.5 C 345.588,15.0158 375.588,15.5158 405.5,17C 406.126,17.7504 406.626,18.5838 407,19.5C 407.667,32.8333 407.667,46.1667 407,59.5C 405.461,62.5208 402.961,63.8541 399.5,63.5C 399.333,92.5019 399.5,121.502 400,150.5C 424.279,167.459 447.946,185.126 471,203.5C 471.817,206.964 471.483,210.298 470,213.5C 460.025,220.641 450.192,227.974 440.5,235.5C 439.5,284.829 439.167,334.162 439.5,383.5C 460.31,384.644 470.977,395.644 471.5,416.5C 481.374,418.693 488.541,424.36 493,433.5C 499.086,450.226 495.252,464.059 481.5,475C 478.326,476.725 474.993,478.058 471.5,479C 327.5,479.667 183.5,479.667 39.5,479C 18.9903,471.486 11.4903,456.986 17,435.5C 21.1042,425.046 28.6042,418.713 39.5,416.5C 40.0232,395.644 50.6898,384.644 71.5,383.5C 71.8333,334.162 71.4999,284.829 70.5,235.5C 60.8078,227.974 50.9745,220.641 41,213.5C 39,209.5 39,205.5 41,201.5C 111.078,150.211 181.245,99.0444 251.5,48C 254.964,47.1834 258.298,47.5167 261.5,49C 280.934,62.8007 300.1,76.9674 319,91.5C 319.5,82.1726 319.666,72.8393 319.5,63.5C 316.039,63.8541 313.539,62.5208 312,59.5C 311.333,46.1667 311.333,32.8333 312,19.5C 312.69,17.6498 313.856,16.3164 315.5,15.5 Z M 327.5,31.5 C 348.833,31.5 370.167,31.5 391.5,31.5C 391.5,36.8333 391.5,42.1667 391.5,47.5C 370.167,47.5 348.833,47.5 327.5,47.5C 327.5,42.1667 327.5,36.8333 327.5,31.5 Z M 335.5,63.5 C 351.5,63.5 367.5,63.5 383.5,63.5C 383.833,88.1757 383.5,112.842 382.5,137.5C 366.86,126.36 351.36,115.027 336,103.5C 335.5,90.1708 335.333,76.8375 335.5,63.5 Z M 254.5,66.5 C 319.69,112.677 384.357,159.677 448.5,207.5C 443.092,212.778 437.092,216.944 430.5,220C 374.886,180.053 319.553,139.72 264.5,99C 258.5,94.3333 252.5,94.3333 246.5,99C 191.188,139.989 135.521,180.489 79.5,220.5C 74.0272,216.86 68.6938,213.027 63.5,209C 62.2888,208.107 62.2888,207.274 63.5,206.5C 127.412,160.056 191.078,113.39 254.5,66.5 Z M 254.5,114.5 C 311.227,154.291 367.394,194.958 423,236.5C 423.5,312.166 423.667,387.833 423.5,463.5C 412.833,463.5 402.167,463.5 391.5,463.5C 391.667,400.832 391.5,338.166 391,275.5C 390.5,273.667 389.333,272.5 387.5,272C 347.5,271.333 307.5,271.333 267.5,272C 265.667,272.5 264.5,273.667 264,275.5C 263.5,338.166 263.333,400.832 263.5,463.5C 204.833,463.5 146.167,463.5 87.5,463.5C 87.3333,387.833 87.5,312.166 88,236.5C 143.402,195.584 198.902,154.917 254.5,114.5 Z M 135.5,287.5 C 146.167,287.5 156.833,287.5 167.5,287.5C 167.5,300.833 167.5,314.167 167.5,327.5C 156.833,327.5 146.167,327.5 135.5,327.5C 135.5,314.167 135.5,300.833 135.5,287.5 Z M 183.5,287.5 C 194.167,287.5 204.833,287.5 215.5,287.5C 215.5,300.833 215.5,314.167 215.5,327.5C 204.833,327.5 194.167,327.5 183.5,327.5C 183.5,314.167 183.5,300.833 183.5,287.5 Z M 279.5,287.5 C 311.5,287.5 343.5,287.5 375.5,287.5C 375.5,346.167 375.5,404.833 375.5,463.5C 343.5,463.5 311.5,463.5 279.5,463.5C 279.5,404.833 279.5,346.167 279.5,287.5 Z M 135.5,343.5 C 146.167,343.5 156.833,343.5 167.5,343.5C 167.5,356.833 167.5,370.167 167.5,383.5C 156.833,383.5 146.167,383.5 135.5,383.5C 135.5,370.167 135.5,356.833 135.5,343.5 Z M 183.5,343.5 C 194.167,343.5 204.833,343.5 215.5,343.5C 215.5,356.833 215.5,370.167 215.5,383.5C 204.833,383.5 194.167,383.5 183.5,383.5C 183.5,370.167 183.5,356.833 183.5,343.5 Z M 66.5,400.5 C 68.1667,400.5 69.8333,400.5 71.5,400.5C 71.5,421.5 71.5,442.5 71.5,463.5C 61.7761,463.859 52.1094,463.359 42.5,462C 34.1294,458.091 30.9627,451.591 33,442.5C 34.0608,439.438 35.8941,436.938 38.5,435C 43.3239,433.102 48.3239,431.769 53.5,431C 56.0184,429.13 57.3518,426.63 57.5,423.5C 54.1751,413.175 57.1751,405.508 66.5,400.5 Z M 439.5,400.5 C 446.621,400.48 451.454,403.813 454,410.5C 454.631,414.857 454.465,419.191 453.5,423.5C 453.648,426.63 454.982,429.13 457.5,431C 469.519,430.488 476.852,435.988 479.5,447.5C 478.678,454.489 475.011,459.323 468.5,462C 458.891,463.359 449.224,463.859 439.5,463.5C 439.5,442.5 439.5,421.5 439.5,400.5 Z"/></g>
<g><path style="opacity:0.997" fill="#000000" d="M 123.5,271.5 C 158.168,271.333 192.835,271.5 227.5,272C 228.416,272.374 229.25,272.874 230,273.5C 231.156,294.08 231.656,314.747 231.5,335.5C 231.333,355.5 231.167,375.5 231,395.5C 230.626,396.416 230.126,397.25 229.5,398C 211.588,399.154 193.588,399.654 175.5,399.5C 158.167,399.333 140.833,399.167 123.5,399C 122.584,398.626 121.75,398.126 121,397.5C 119.345,356.917 119.012,316.251 120,275.5C 120.69,273.65 121.856,272.316 123.5,271.5 Z M 135.5,287.5 C 135.5,300.833 135.5,314.167 135.5,327.5C 146.167,327.5 156.833,327.5 167.5,327.5C 167.5,314.167 167.5,300.833 167.5,287.5C 156.833,287.5 146.167,287.5 135.5,287.5 Z M 183.5,287.5 C 183.5,300.833 183.5,314.167 183.5,327.5C 194.167,327.5 204.833,327.5 215.5,327.5C 215.5,314.167 215.5,300.833 215.5,287.5C 204.833,287.5 194.167,287.5 183.5,287.5 Z M 135.5,343.5 C 135.5,356.833 135.5,370.167 135.5,383.5C 146.167,383.5 156.833,383.5 167.5,383.5C 167.5,370.167 167.5,356.833 167.5,343.5C 156.833,343.5 146.167,343.5 135.5,343.5 Z M 183.5,343.5 C 183.5,356.833 183.5,370.167 183.5,383.5C 194.167,383.5 204.833,383.5 215.5,383.5C 215.5,370.167 215.5,356.833 215.5,343.5C 204.833,343.5 194.167,343.5 183.5,343.5 Z"/></g>
<g><path style="opacity:0.892" fill="#000000" d="M 299.5,359.5 C 310.86,358.71 314.193,363.543 309.5,374C 298.964,377.997 294.464,374.497 296,363.5C 296.69,361.65 297.856,360.316 299.5,359.5 Z"/></g>
</svg>
