<?xml version="1.0" encoding="UTF-8"?>
<!DOCTYPE svg PUBLIC "-//W3C//DTD SVG 1.1//EN" "http://www.w3.org/Graphics/SVG/1.1/DTD/svg11.dtd">
<svg xmlns="http://www.w3.org/2000/svg" version="1.1" width="512px" height="512px" style="shape-rendering:geometricPrecision; text-rendering:geometricPrecision; image-rendering:optimizeQuality; fill-rule:evenodd; clip-rule:evenodd" xmlns:xlink="http://www.w3.org/1999/xlink">
<g><path style="opacity:1" fill="#FFFF" d="M 327.5,31.5 C 348.833,31.5 370.167,31.5 391.5,31.5C 391.5,36.8333 391.5,42.1667 391.5,47.5C 370.167,47.5 348.833,47.5 327.5,47.5C 327.5,42.1667 327.5,36.8333 327.5,31.5 Z"/></g>
<g><path style="opacity:0.986" fill="#FFFF" d="M 335.5,63.5 C 351.5,63.5 367.5,63.5 383.5,63.5C 383.667,88.8355 383.5,114.169 383,139.5C 366.567,128.033 350.4,116.2 334.5,104C 335.49,90.5792 335.823,77.0792 335.5,63.5 Z"/></g>
<g><path style="opacity:0.943" fill="#FFFF" d="M 254.5,64.5 C 319.441,111.648 384.441,158.815 449.5,206C 450.451,206.718 450.617,207.551 450,208.5C 443.667,213.167 437.333,217.833 431,222.5C 374.255,180.878 317.422,139.378 260.5,98C 257.167,96 253.833,96 250.5,98C 193.578,139.378 136.745,180.878 80,222.5C 73.922,217.878 67.7553,213.378 61.5,209C 60.2888,208.107 60.2888,207.274 61.5,206.5C 126.079,159.39 190.412,112.056 254.5,64.5 Z"/></g>
<g><path style="opacity:0.994" fill="#FFFF" d="M 254.5,112.5 C 310.77,152.924 366.937,193.59 423,234.5C 423.5,310.833 423.667,387.166 423.5,463.5C 412.833,463.5 402.167,463.5 391.5,463.5C 391.989,401.108 391.489,338.775 390,276.5C 388.661,273.906 386.494,272.406 383.5,272C 346.167,271.333 308.833,271.333 271.5,272C 268.506,272.406 266.339,273.906 265,276.5C 263.511,338.775 263.011,401.108 263.5,463.5C 204.833,463.5 146.167,463.5 87.5,463.5C 87.3333,387.166 87.5,310.833 88,234.5C 143.963,194.356 199.463,153.69 254.5,112.5 Z M 127.5,271.5 C 159.502,271.333 191.502,271.5 223.5,272C 228,272.5 230.5,275 231,279.5C 231.667,316.833 231.667,354.167 231,391.5C 230.5,396 228,398.5 223.5,399C 191.5,399.667 159.5,399.667 127.5,399C 123,398.5 120.5,396 120,391.5C 119.333,354.167 119.333,316.833 120,279.5C 120.68,274.989 123.18,272.323 127.5,271.5 Z M 300.5,360.5 C 309.85,360.365 312.517,364.532 308.5,373C 299.956,376.322 296.123,373.489 297,364.5C 297.69,362.65 298.856,361.316 300.5,360.5 Z"/></g>
<g><path style="opacity:1" fill="#FFFF" d="M 135.5,287.5 C 146.167,287.5 156.833,287.5 167.5,287.5C 167.5,300.833 167.5,314.167 167.5,327.5C 156.833,327.5 146.167,327.5 135.5,327.5C 135.5,314.167 135.5,300.833 135.5,287.5 Z"/></g>
<g><path style="opacity:1" fill="#FFFF" d="M 183.5,287.5 C 194.167,287.5 204.833,287.5 215.5,287.5C 215.5,300.833 215.5,314.167 215.5,327.5C 204.833,327.5 194.167,327.5 183.5,327.5C 183.5,314.167 183.5,300.833 183.5,287.5 Z"/></g>
<g><path style="opacity:0.998" fill="#FFFF" d="M 279.5,287.5 C 311.5,287.5 343.5,287.5 375.5,287.5C 375.5,346.167 375.5,404.833 375.5,463.5C 343.5,463.5 311.5,463.5 279.5,463.5C 279.5,404.833 279.5,346.167 279.5,287.5 Z M 300.5,360.5 C 298.856,361.316 297.69,362.65 297,364.5C 296.123,373.489 299.956,376.322 308.5,373C 312.517,364.532 309.85,360.365 300.5,360.5 Z"/></g>
<g><path style="opacity:1" fill="#FFFF" d="M 135.5,343.5 C 146.167,343.5 156.833,343.5 167.5,343.5C 167.5,356.833 167.5,370.167 167.5,383.5C 156.833,383.5 146.167,383.5 135.5,383.5C 135.5,370.167 135.5,356.833 135.5,343.5 Z"/></g>
<g><path style="opacity:1" fill="#FFFF" d="M 183.5,343.5 C 194.167,343.5 204.833,343.5 215.5,343.5C 215.5,356.833 215.5,370.167 215.5,383.5C 204.833,383.5 194.167,383.5 183.5,383.5C 183.5,370.167 183.5,356.833 183.5,343.5 Z"/></g>
<g><path style="opacity:0.967" fill="#FFFF" d="M 65.5,399.5 C 67.5,399.5 69.5,399.5 71.5,399.5C 71.5,420.833 71.5,442.167 71.5,463.5C 61.4944,463.666 51.4944,463.5 41.5,463C 32.5178,458.527 29.3511,451.36 32,441.5C 35.6668,433.746 41.8335,430.246 50.5,431C 53.8015,429.533 55.8015,427.033 56.5,423.5C 52.8674,412.799 55.8674,404.799 65.5,399.5 Z"/></g>
<g><path style="opacity:0.969" fill="#FFFF" d="M 439.5,399.5 C 447.019,399.177 452.186,402.51 455,409.5C 455.384,415.194 455.384,420.86 455,426.5C 458.803,430.829 463.636,432.662 469.5,432C 480.147,438.085 482.647,446.585 477,457.5C 475.062,460.106 472.562,461.939 469.5,463C 459.506,463.5 449.506,463.666 439.5,463.5C 439.5,442.167 439.5,420.833 439.5,399.5 Z"/></g>
</svg>
