<?xml version="1.0" standalone="no"?>
<!DOCTYPE svg PUBLIC "-//W3C//DTD SVG 20010904//EN"
 "http://www.w3.org/TR/2001/REC-SVG-20010904/DTD/svg10.dtd">
<svg version="1.0" xmlns="http://www.w3.org/2000/svg"
 width="512.000000pt" height="512.000000pt" viewBox="0 0 512.000000 512.000000"
 preserveAspectRatio="xMidYMid meet">

<g transform="translate(0.000000,512.000000) scale(0.100000,-0.100000)"
fill="#000000" stroke="none">
<path d="M2220 5095 c-86 -16 -230 -65 -305 -103 -222 -112 -423 -325 -522
-553 -70 -163 -85 -246 -92 -517 l-6 -243 -59 103 c-80 141 -212 348 -263 413
-48 61 -96 82 -157 71 -53 -10 -87 -44 -179 -184 -291 -439 -496 -884 -581
-1262 -38 -171 -50 -302 -43 -485 25 -640 260 -1172 590 -1335 l87 -43 0 -323
0 -323 -293 -3 -294 -3 -37 -29 c-89 -67 -85 -190 7 -246 31 -20 71 -20 2488
-20 l2456 0 34 23 c91 60 89 181 -4 251 -19 14 -47 20 -107 24 l-80 5 0 664 0
664 30 -16 c64 -33 157 -10 195 49 24 37 30 96 12 138 -11 25 -81 94 -245 239
l-230 204 -1 405 c-1 451 -1 451 -70 497 -66 44 -166 21 -206 -47 -18 -32 -20
-57 -25 -309 l-5 -273 -285 253 c-157 140 -332 294 -388 344 l-102 90 0 400
c0 220 -5 441 -10 490 -54 481 -384 859 -851 976 -111 27 -350 35 -459 14z
m450 -324 c123 -42 214 -96 307 -185 120 -113 191 -232 234 -391 20 -72 23
-111 27 -393 l4 -312 -48 25 c-53 28 -81 31 -128 11 -18 -7 -137 -106 -264
-220 -127 -113 -234 -206 -236 -206 -3 0 -7 189 -8 419 -3 406 -4 420 -24 447
-37 50 -72 69 -124 69 -52 0 -87 -19 -124 -69 -20 -26 -21 -43 -24 -278 l-3
-250 -63 60 c-86 83 -143 96 -225 52 -37 -19 -61 -70 -61 -127 0 -64 21 -91
214 -283 l136 -135 0 -90 0 -90 -231 -205 c-127 -113 -235 -206 -239 -208 -9
-3 -75 90 -103 143 -8 17 -20 66 -27 110 -6 44 -22 126 -36 183 -24 103 -24
105 -24 662 0 592 2 630 49 764 63 179 207 345 381 439 141 76 239 98 415 93
115 -3 141 -7 225 -35z m-1689 -1146 c217 -378 361 -771 390 -1067 13 -132 3
-358 -22 -493 -11 -59 -14 -62 -105 -143 -71 -63 -96 -92 -105 -122 -18 -59
-4 -108 42 -152 l40 -38 -20 -46 c-54 -122 -178 -266 -263 -304 -82 -37 -170
-23 -261 44 -47 34 -130 147 -180 244 -160 310 -230 832 -157 1177 65 304 233
691 458 1053 l45 74 37 -59 c21 -32 66 -107 101 -168z m2868 -1082 l709 -628
1 -802 1 -803 -845 0 -845 0 0 653 c0 636 -1 653 -20 685 -12 19 -38 41 -63
52 -39 18 -68 20 -362 20 -294 0 -323 -2 -362 -20 -25 -11 -51 -33 -63 -52
-19 -32 -20 -49 -20 -685 l0 -653 -150 0 -150 0 0 800 0 800 358 317 c196 175
518 461 716 636 220 196 364 316 372 313 8 -3 333 -288 723 -633z m-1279
-1678 l0 -555 -145 0 -145 0 0 555 0 555 145 0 145 0 0 -555z m-1190 -80 l0
-475 -195 0 -195 0 0 323 0 323 63 27 c88 38 186 116 258 203 34 41 63 74 65
74 2 0 4 -214 4 -475z"/>
<path d="M3280 1698 c-26 -14 -53 -37 -65 -58 -19 -34 -20 -52 -20 -435 0
-384 1 -401 20 -435 12 -19 36 -43 55 -55 34 -19 51 -20 435 -20 444 0 438 -1
487 67 l23 33 0 412 c0 400 -1 412 -21 439 -11 15 -33 37 -48 48 -26 20 -41
21 -424 24 -396 3 -397 3 -442 -20z m638 -490 l-3 -213 -210 0 -210 0 -3 200
c-1 110 0 205 2 212 4 10 54 13 216 13 l210 0 -2 -212z"/>
<path d="M4270 5087 c-212 -64 -374 -219 -445 -427 -25 -75 -29 -99 -28 -205
0 -103 4 -132 26 -201 71 -214 255 -385 477 -440 91 -23 271 -15 360 15 158
54 309 187 380 335 92 192 91 394 -3 586 -59 121 -169 231 -287 288 -114 56
-183 72 -305 71 -73 0 -120 -6 -175 -22z m348 -317 c232 -124 258 -444 48
-601 -84 -63 -210 -87 -313 -60 -110 30 -208 126 -243 240 -24 76 -25 130 -4
202 33 111 103 190 212 236 49 20 70 23 147 20 80 -3 97 -7 153 -37z"/>
</g>
</svg>
