<?xml version="1.0" standalone="no"?>
<!DOCTYPE svg PUBLIC "-//W3C//DTD SVG 20010904//EN"
 "http://www.w3.org/TR/2001/REC-SVG-20010904/DTD/svg10.dtd">
<svg version="1.0" xmlns="http://www.w3.org/2000/svg"
 width="512.000000pt" height="512.000000pt" viewBox="0 0 512.000000 512.000000"
 preserveAspectRatio="xMidYMid meet">

<g transform="translate(0.000000,512.000000) scale(0.100000,-0.100000)"
fill="#000000" stroke="none">
<path d="M2250 5105 c-358 -56 -667 -281 -830 -605 -41 -83 -89 -217 -91 -258
-1 -18 34 -87 108 -208 121 -201 245 -443 322 -633 53 -128 135 -371 146 -435
4 -20 10 -36 14 -36 3 0 209 180 456 401 248 220 469 413 491 429 134 94 334
104 472 24 24 -14 76 -54 117 -90 40 -35 76 -64 79 -64 10 0 7 373 -4 479 -14
136 -49 254 -115 386 -65 131 -126 215 -232 316 -251 239 -593 347 -933 294z"/>
<path d="M4311 5105 c-252 -57 -454 -264 -505 -517 -31 -150 -12 -280 58 -424
78 -157 208 -270 381 -331 72 -25 92 -28 210 -27 114 0 139 4 203 27 200 70
345 216 416 416 28 78 30 97 30 211 0 111 -3 134 -28 205 -94 270 -321 440
-601 451 -65 2 -123 -1 -164 -11z"/>
<path d="M767 4252 c-74 -50 -317 -443 -468 -757 -215 -448 -300 -791 -286
-1160 14 -349 81 -640 207 -900 104 -216 240 -369 390 -442 l79 -38 1 -327 0
-328 -285 0 c-315 0 -334 -3 -375 -59 -53 -75 -27 -181 54 -220 l42 -21 2434
0 2434 0 42 21 c81 39 107 145 54 220 -35 48 -73 59 -210 59 l-120 0 0 710 c0
391 3 710 6 710 3 0 29 -20 57 -44 68 -57 87 -66 139 -66 76 0 135 52 145 127
10 73 -10 97 -255 314 l-230 204 -1 405 c-1 365 -3 408 -19 440 -50 100 -197
108 -259 13 -16 -24 -19 -59 -23 -305 l-5 -278 -480 427 c-674 599 -642 572
-681 579 -82 15 -46 44 -1053 -851 -842 -748 -951 -849 -962 -884 -30 -100 38
-191 141 -191 50 0 69 10 137 66 28 24 54 44 57 44 3 0 6 -319 6 -710 l0 -710
-245 0 -245 0 0 326 0 325 55 24 c30 14 73 37 95 51 l40 27 0 131 0 131 -52
19 c-279 99 -386 451 -210 685 20 26 188 182 372 346 184 163 343 305 352 314
16 15 16 22 -7 126 -54 249 -135 465 -287 770 -126 250 -336 591 -407 659 -40
39 -130 48 -174 18z m1930 -2554 c17 -10 41 -33 52 -51 21 -34 21 -42 21 -691
l0 -657 -147 3 -148 3 -3 558 -2 557 -145 0 -145 0 -2 -557 -3 -558 -147 -3
-148 -3 0 658 c0 623 1 659 19 686 21 33 52 56 89 67 15 5 173 8 352 7 287 -2
329 -4 357 -19z m1529 3 c23 -10 52 -34 65 -52 l24 -34 0 -412 c0 -400 -1
-412 -21 -439 -11 -15 -33 -37 -48 -48 -27 -20 -39 -21 -441 -21 -405 0 -414
0 -442 21 -15 12 -37 36 -48 55 -19 32 -20 52 -20 434 0 383 1 401 20 435 12
21 39 44 65 58 44 22 50 22 425 22 349 0 383 -2 421 -19z"/>
<path d="M3597 1413 c-4 -3 -7 -100 -7 -215 l0 -208 215 0 215 0 0 215 0 215
-208 0 c-115 0 -212 -3 -215 -7z"/>
</g>
</svg>
