<?xml version="1.0" encoding="UTF-8"?>
<!DOCTYPE svg PUBLIC "-//W3C//DTD SVG 1.1//EN" "http://www.w3.org/Graphics/SVG/1.1/DTD/svg11.dtd">
<svg xmlns="http://www.w3.org/2000/svg" version="1.1" width="512px" height="512px" style="shape-rendering:geometricPrecision; text-rendering:geometricPrecision; image-rendering:optimizeQuality; fill-rule:evenodd; clip-rule:evenodd" xmlns:xlink="http://www.w3.org/1999/xlink">
<g><path style="opacity:0.98" fill="#000000" d="M 233.5,-0.5 C 248.167,-0.5 262.833,-0.5 277.5,-0.5C 371.886,11.0786 441.386,58.7453 486,142.5C 499.666,171.509 508.166,201.843 511.5,233.5C 511.5,248.167 511.5,262.833 511.5,277.5C 499.921,371.886 452.255,441.386 368.5,486C 339.491,499.666 309.157,508.166 277.5,511.5C 262.833,511.5 248.167,511.5 233.5,511.5C 139.114,499.921 69.6135,452.255 25,368.5C 11.3344,339.491 2.83436,309.157 -0.5,277.5C -0.5,262.833 -0.5,248.167 -0.5,233.5C 11.0786,139.114 58.7453,69.6135 142.5,25C 171.509,11.3344 201.843,2.83436 233.5,-0.5 Z M 239.5,32.5 C 240.498,61.3285 240.831,90.3285 240.5,119.5C 217.824,119.833 195.157,119.5 172.5,118.5C 182.695,89.2567 199.029,64.0901 221.5,43C 227.431,39.2074 233.431,35.7074 239.5,32.5 Z M 270.5,32.5 C 277.096,35.466 283.429,38.966 289.5,43C 311.971,64.0901 328.305,89.2567 338.5,118.5C 315.843,119.5 293.176,119.833 270.5,119.5C 270.5,90.5 270.5,61.5 270.5,32.5 Z M 175.5,45.5 C 160.093,67.9948 148.093,92.3281 139.5,118.5C 118.508,119.666 97.5079,119.833 76.5,119C 102.314,84.7657 135.314,60.2657 175.5,45.5 Z M 335.5,45.5 C 375.686,60.2657 408.686,84.7657 434.5,119C 413.492,119.833 392.492,119.666 371.5,118.5C 362.907,92.3281 350.907,67.9948 335.5,45.5 Z M 56.5,149.5 C 81.1667,149.5 105.833,149.5 130.5,149.5C 123.983,179.481 120.317,209.815 119.5,240.5C 89.8333,240.5 60.1667,240.5 30.5,240.5C 32.7972,208.306 41.4638,177.973 56.5,149.5 Z M 162.5,149.5 C 188.5,149.5 214.5,149.5 240.5,149.5C 240.5,179.833 240.5,210.167 240.5,240.5C 210.5,240.5 180.5,240.5 150.5,240.5C 151.349,209.743 155.349,179.409 162.5,149.5 Z M 270.5,149.5 C 296.5,149.5 322.5,149.5 348.5,149.5C 355.651,179.409 359.651,209.743 360.5,240.5C 330.5,240.5 300.5,240.5 270.5,240.5C 270.5,210.167 270.5,179.833 270.5,149.5 Z M 380.5,149.5 C 405.169,149.333 429.836,149.5 454.5,150C 469.614,178.285 478.281,208.452 480.5,240.5C 450.833,240.5 421.167,240.5 391.5,240.5C 390.683,209.815 387.017,179.481 380.5,149.5 Z M 30.5,270.5 C 60.1667,270.5 89.8333,270.5 119.5,270.5C 120.317,301.185 123.983,331.519 130.5,361.5C 105.831,361.667 81.1644,361.5 56.5,361C 41.386,332.715 32.7193,302.548 30.5,270.5 Z M 150.5,270.5 C 180.5,270.5 210.5,270.5 240.5,270.5C 240.5,300.833 240.5,331.167 240.5,361.5C 214.5,361.5 188.5,361.5 162.5,361.5C 155.349,331.591 151.349,301.257 150.5,270.5 Z M 270.5,270.5 C 300.5,270.5 330.5,270.5 360.5,270.5C 359.651,301.257 355.651,331.591 348.5,361.5C 322.5,361.5 296.5,361.5 270.5,361.5C 270.5,331.167 270.5,300.833 270.5,270.5 Z M 391.5,270.5 C 421.167,270.5 450.833,270.5 480.5,270.5C 478.281,302.548 469.614,332.715 454.5,361C 429.836,361.5 405.169,361.667 380.5,361.5C 387.017,331.519 390.683,301.185 391.5,270.5 Z M 175.5,465.5 C 135.314,450.734 102.314,426.234 76.5,392C 97.5079,391.167 118.508,391.334 139.5,392.5C 148.093,418.672 160.093,443.005 175.5,465.5 Z M 172.5,391.5 C 195.167,391.5 217.833,391.5 240.5,391.5C 240.667,420.502 240.5,449.502 240,478.5C 224.357,471.203 211.357,460.537 201,446.5C 188.877,429.59 179.377,411.256 172.5,391.5 Z M 270.5,391.5 C 293.176,391.167 315.843,391.5 338.5,392.5C 329.578,416.358 317.078,438.025 301,457.5C 292.361,466.476 282.361,473.476 271,478.5C 270.5,449.502 270.333,420.502 270.5,391.5 Z M 335.5,465.5 C 350.907,443.005 362.907,418.672 371.5,392.5C 392.492,391.334 413.492,391.167 434.5,392C 408.686,426.234 375.686,450.734 335.5,465.5 Z"/></g>
</svg>
