<?xml version="1.0" encoding="UTF-8"?>
<!DOCTYPE svg PUBLIC "-//W3C//DTD SVG 1.1//EN" "http://www.w3.org/Graphics/SVG/1.1/DTD/svg11.dtd">
<svg xmlns="http://www.w3.org/2000/svg" version="1.1" width="512px" height="512px" style="shape-rendering:geometricPrecision; text-rendering:geometricPrecision; image-rendering:optimizeQuality; fill-rule:evenodd; clip-rule:evenodd" xmlns:xlink="http://www.w3.org/1999/xlink">
<g><path style="opacity:0.959" fill="#000000" d="M 277.5,-0.5 C 350.833,-0.5 424.167,-0.5 497.5,-0.5C 503.833,2.5 508.5,7.16667 511.5,13.5C 511.5,62.5 511.5,111.5 511.5,160.5C 508.205,167.834 502.539,172.334 494.5,174C 423.167,174.667 351.833,174.667 280.5,174C 272.002,172.512 266.502,167.678 264,159.5C 263.333,110.833 263.333,62.1667 264,13.5C 266.713,6.95583 271.213,2.28917 277.5,-0.5 Z M 284.5,14.5 C 316.167,14.5 347.833,14.5 379.5,14.5C 379.5,62.5 379.5,110.5 379.5,158.5C 347.165,158.667 314.832,158.5 282.5,158C 281.667,157.167 280.833,156.333 280,155.5C 279.333,109.5 279.333,63.5 280,17.5C 281.409,16.2189 282.909,15.2189 284.5,14.5 Z M 395.5,14.5 C 428.229,14.0215 460.896,14.5215 493.5,16C 494.893,17.1711 495.727,18.6711 496,20.5C 496.667,64.8333 496.667,109.167 496,153.5C 495.691,154.766 495.191,155.933 494.5,157C 461.587,158.486 428.587,158.986 395.5,158.5C 395.5,110.5 395.5,62.5 395.5,14.5 Z"/></g>
<g><path style="opacity:0.935" fill="#000000" d="M -0.5,84.5 C -0.5,76.5 -0.5,68.5 -0.5,60.5C 1.6467,56.189 4.98004,53.0223 9.5,51C 14.8229,50.5006 20.1563,50.334 25.5,50.5C 28.3955,35.7698 37.0621,26.2698 51.5,22C 98.5,21.3333 145.5,21.3333 192.5,22C 207.118,25.8948 216.118,35.2281 219.5,50C 237.809,46.8249 246.475,54.3249 245.5,72.5C 247.577,82.8496 243.91,90.0163 234.5,94C 159.5,94.6667 84.5,94.6667 9.5,94C 4.98004,91.9777 1.6467,88.811 -0.5,84.5 Z M 54.5,37.5 C 99.5012,37.3333 144.501,37.5 189.5,38C 195.462,39.9827 199.795,43.816 202.5,49.5C 165.505,50.3333 128.505,50.8333 91.5,51C 84.5994,56.4201 84.9327,61.4201 92.5,66C 138.165,66.5 183.832,66.6667 229.5,66.5C 229.5,70.5 229.5,74.5 229.5,78.5C 157.833,78.5 86.1667,78.5 14.5,78.5C 14.5,74.5 14.5,70.5 14.5,66.5C 31.8365,66.6666 49.1699,66.4999 66.5,66C 73.0396,62.5091 74.0396,57.8424 69.5,52C 60.6079,50.5568 51.6079,50.0568 42.5,50.5C 44.4044,44.2612 48.4044,39.9279 54.5,37.5 Z"/></g>
<g><path style="opacity:0.917" fill="#000000" d="M 353.5,62.5 C 358.742,61.2706 362.575,62.9372 365,67.5C 365.667,80.5 365.667,93.5 365,106.5C 362.567,112.448 358.4,113.948 352.5,111C 351.299,110.097 350.465,108.931 350,107.5C 349.333,93.8333 349.333,80.1667 350,66.5C 350.69,64.6498 351.856,63.3164 353.5,62.5 Z"/></g>
<g><path style="opacity:0.917" fill="#000000" d="M 413.5,62.5 C 416.187,62.3359 418.854,62.5026 421.5,63C 423.333,63.5 424.5,64.6667 425,66.5C 425.667,80.5 425.667,94.5 425,108.5C 418.994,114.33 413.994,113.663 410,106.5C 409.333,93.5 409.333,80.5 410,67.5C 410.997,65.6769 412.164,64.0103 413.5,62.5 Z"/></g>
<g><path style="opacity:0.939" fill="#000000" d="M 511.5,244.5 C 511.5,254.5 511.5,264.5 511.5,274.5C 506.2,282.836 498.533,286.169 488.5,284.5C 488.667,353.834 488.5,423.167 488,492.5C 485.759,502.238 479.925,508.571 470.5,511.5C 327.167,511.5 183.833,511.5 40.5,511.5C 31.1022,508.597 25.2689,502.264 23,492.5C 22.5,423.167 22.3333,353.834 22.5,284.5C 12.4667,286.169 4.80007,282.836 -0.5,274.5C -0.5,264.5 -0.5,254.5 -0.5,244.5C 1.6467,240.189 4.98004,237.022 9.5,235C 26.4967,234.5 43.4967,234.333 60.5,234.5C 60.5,230.5 60.5,226.5 60.5,222.5C 48.5145,220.385 43.1812,213.218 44.5,201C 44.4067,197.05 44.9067,193.216 46,189.5C 51.6951,185.281 56.3618,186.281 60,192.5C 60.4992,197.155 60.6658,201.821 60.5,206.5C 98.5015,206.667 136.501,206.5 174.5,206C 175.305,201.251 175.805,196.418 176,191.5C 181.37,184.582 186.37,184.916 191,192.5C 192.072,200.029 191.405,207.362 189,214.5C 185.77,219.363 181.27,222.03 175.5,222.5C 175.5,226.5 175.5,230.5 175.5,234.5C 256.834,234.333 338.167,234.5 419.5,235C 423.753,238.42 424.587,242.587 422,247.5C 420.581,248.46 419.081,249.293 417.5,250C 283.167,250.5 148.834,250.667 14.5,250.5C 14.1918,256.425 14.5251,262.259 15.5,268C 175.5,268.667 335.5,268.667 495.5,268C 496.475,262.259 496.808,256.425 496.5,250.5C 479.163,250.667 461.83,250.5 444.5,250C 436.589,246.445 435.589,241.445 441.5,235C 461.5,234.333 481.5,234.333 501.5,235C 506.02,237.022 509.353,240.189 511.5,244.5 Z M 76.5,222.5 C 104.167,222.5 131.833,222.5 159.5,222.5C 159.5,226.5 159.5,230.5 159.5,234.5C 131.833,234.5 104.167,234.5 76.5,234.5C 76.5,230.5 76.5,226.5 76.5,222.5 Z M 38.5,284.5 C 108.167,284.5 177.833,284.5 247.5,284.5C 247.5,354.833 247.5,425.167 247.5,495.5C 179.499,495.667 111.499,495.5 43.5,495C 42.0692,494.535 40.9025,493.701 40,492.5C 38.5067,423.249 38.0067,353.916 38.5,284.5 Z M 263.5,284.5 C 333.167,284.5 402.833,284.5 472.5,284.5C 472.5,317.167 472.5,349.833 472.5,382.5C 402.833,382.5 333.167,382.5 263.5,382.5C 263.5,349.833 263.5,317.167 263.5,284.5 Z M 78.5,310.5 C 86.4897,311.322 89.6563,315.655 88,323.5C 84.5888,328.612 80.0888,329.778 74.5,327C 68.9146,319.91 70.2479,314.41 78.5,310.5 Z M 143.5,310.5 C 149.597,310.764 152.931,313.931 153.5,320C 151.501,327.666 146.834,330 139.5,327C 133.56,319.719 134.893,314.219 143.5,310.5 Z M 70.5,371.5 C 119.833,371.5 169.167,371.5 218.5,371.5C 218.5,402.833 218.5,434.167 218.5,465.5C 169.167,465.5 119.833,465.5 70.5,465.5C 70.5,434.167 70.5,402.833 70.5,371.5 Z M 263.5,398.5 C 333.167,398.5 402.833,398.5 472.5,398.5C 472.667,429.168 472.5,459.835 472,490.5C 471.167,492.667 469.667,494.167 467.5,495C 399.501,495.5 331.501,495.667 263.5,495.5C 263.5,463.167 263.5,430.833 263.5,398.5 Z"/></g>
<g><path style="opacity:0.927" fill="#000000" d="M 76.5,294.5 C 96.9531,295.454 106.12,306.12 104,326.5C 96.9627,343.26 84.796,348.427 67.5,342C 54.3582,332.265 51.5248,320.098 59,305.5C 63.5938,299.632 69.4271,295.965 76.5,294.5 Z M 78.5,310.5 C 70.2479,314.41 68.9146,319.91 74.5,327C 80.0888,329.778 84.5888,328.612 88,323.5C 89.6563,315.655 86.4897,311.322 78.5,310.5 Z"/></g>
<g><path style="opacity:0.924" fill="#000000" d="M 141.5,294.5 C 161.475,295.306 170.642,305.64 169,325.5C 161.622,343.963 148.789,349.13 130.5,341C 118.08,330.051 116.247,317.551 125,303.5C 129.804,299.018 135.304,296.018 141.5,294.5 Z M 143.5,310.5 C 134.893,314.219 133.56,319.719 139.5,327C 146.834,330 151.501,327.666 153.5,320C 152.931,313.931 149.597,310.764 143.5,310.5 Z"/></g>
<g><path style="opacity:0.917" fill="#000000" d="M 345.5,294.5 C 360.504,294.333 375.504,294.5 390.5,295C 397.527,299.138 398.194,304.138 392.5,310C 376.167,310.667 359.833,310.667 343.5,310C 339.247,306.58 338.413,302.413 341,297.5C 342.409,296.219 343.909,295.219 345.5,294.5 Z"/></g>
<g><path style="opacity:0.936" fill="#000000" d="M 65.5,355.5 C 118.168,355.333 170.834,355.5 223.5,356C 229,357.5 232.5,361 234,366.5C 234.667,400.833 234.667,435.167 234,469.5C 232.232,476.476 227.732,480.31 220.5,481C 169.833,481.667 119.167,481.667 68.5,481C 61.2683,480.31 56.7683,476.476 55,469.5C 54.3333,435.167 54.3333,400.833 55,366.5C 56.6844,360.984 60.1844,357.318 65.5,355.5 Z M 70.5,371.5 C 70.5,402.833 70.5,434.167 70.5,465.5C 119.833,465.5 169.167,465.5 218.5,465.5C 218.5,434.167 218.5,402.833 218.5,371.5C 169.167,371.5 119.833,371.5 70.5,371.5 Z"/></g>
<g><path style="opacity:0.917" fill="#000000" d="M 343.5,413.5 C 359.837,413.333 376.17,413.5 392.5,414C 398.194,419.862 397.527,424.862 390.5,429C 375.5,429.667 360.5,429.667 345.5,429C 340.094,427.02 338.261,423.186 340,417.5C 341.376,416.295 342.542,414.962 343.5,413.5 Z"/></g>
</svg>
