<?xml version="1.0" standalone="no"?>
<!DOCTYPE svg PUBLIC "-//W3C//DTD SVG 20010904//EN"
 "http://www.w3.org/TR/2001/REC-SVG-20010904/DTD/svg10.dtd">
<svg version="1.0" xmlns="http://www.w3.org/2000/svg"
 width="512.000000pt" height="512.000000pt" viewBox="0 0 512.000000 512.000000"
 preserveAspectRatio="xMidYMid meet">

<g transform="translate(0.000000,512.000000) scale(0.100000,-0.100000)"
fill="#000000" stroke="none">
<path d="M835 4155 c-14 -13 -25 -29 -25 -34 0 -6 -34 -283 -75 -617 -41 -334
-73 -616 -70 -625 4 -10 18 -28 32 -39 25 -20 37 -20 859 -20 l833 0 28 24 28
24 6 379 c4 208 7 492 8 631 l1 253 -25 24 -24 25 -776 0 -776 0 -24 -25z
m1457 -540 c-1 -220 -5 -451 -9 -512 l-5 -113 -719 0 c-613 0 -719 2 -719 14
0 25 120 991 125 1004 3 10 142 12 667 10 l663 -3 -3 -400z"/>
<path d="M2743 4168 c-44 -21 -45 -30 -34 -675 6 -335 13 -617 17 -626 10 -27
58 -47 112 -47 l49 0 -24 -81 c-12 -45 -23 -94 -23 -110 0 -28 -1 -29 -55 -29
-47 0 -60 -4 -82 -26 l-26 -26 7 -351 c3 -194 9 -543 12 -777 l7 -425 28 -27
27 -28 931 0 c670 0 937 3 955 11 53 25 54 8 -47 833 -108 871 -95 816 -188
816 -48 0 -48 0 -55 38 -6 34 -24 109 -39 158 -6 21 -3 22 70 26 66 3 80 7 96
27 10 13 19 36 19 51 0 15 -34 300 -75 631 -73 596 -75 604 -100 627 l-26 22
-767 -1 c-515 0 -774 -4 -789 -11z m1461 -185 c3 -21 31 -243 61 -493 31 -250
58 -465 60 -477 5 -22 2 -23 -52 -23 l-56 0 -66 68 c-78 80 -135 121 -234 167
-298 141 -652 71 -879 -174 -55 -59 -59 -61 -106 -61 l-49 0 -6 272 c-4 149
-7 381 -7 515 l0 243 664 0 664 0 6 -37z m-459 -868 c106 -27 183 -73 271
-160 122 -121 179 -255 177 -415 -2 -138 -89 -341 -268 -628 -81 -129 -288
-428 -319 -460 -10 -10 -33 17 -120 137 -211 296 -365 556 -437 741 -51 128
-62 234 -35 340 43 175 162 324 317 399 46 22 102 44 124 50 64 15 225 13 290
-4z m690 -1350 c41 -341 75 -630 75 -642 l0 -23 -819 0 c-451 0 -822 3 -824 8
-3 4 -8 295 -11 647 l-6 640 34 -93 c86 -232 273 -545 543 -908 165 -222 173
-222 326 -19 301 400 549 829 583 1011 6 32 8 35 15 19 4 -11 42 -299 84 -640z"/>
<path d="M3499 2917 c-108 -31 -210 -123 -250 -225 -17 -42 -22 -78 -22 -137
0 -113 28 -181 107 -261 81 -81 148 -108 266 -108 74 -1 93 3 150 30 212 100
284 359 154 551 -42 61 -83 95 -161 130 -67 31 -174 40 -244 20z m158 -162
c82 -24 153 -117 153 -201 0 -46 -33 -114 -71 -149 -50 -45 -76 -55 -145 -55
-118 0 -204 86 -204 205 0 102 63 181 165 206 44 10 47 10 102 -6z"/>
<path d="M660 2597 c-13 -7 -30 -28 -37 -47 -6 -19 -53 -374 -104 -788 l-92
-754 20 -26 c11 -14 34 -30 51 -34 17 -5 446 -7 953 -6 l921 3 22 26 c23 27
23 29 30 460 3 239 9 588 13 776 l6 342 -31 30 -30 31 -849 0 c-657 0 -854 -3
-873 -13z m1609 -549 c-4 -216 -7 -516 -8 -665 l-1 -273 -825 0 -825 0 0 22
c0 22 146 1219 155 1276 l6 32 752 0 752 0 -6 -392z"/>
</g>
</svg>
