<?xml version="1.0" standalone="no"?>
<!DOCTYPE svg PUBLIC "-//W3C//DTD SVG 20010904//EN"
 "http://www.w3.org/TR/2001/REC-SVG-20010904/DTD/svg10.dtd">
<svg version="1.0" xmlns="http://www.w3.org/2000/svg"
 width="512.000000pt" height="512.000000pt" viewBox="0 0 512.000000 512.000000"
 preserveAspectRatio="xMidYMid meet">

<g transform="translate(0.000000,512.000000) scale(0.100000,-0.100000)"
fill="#000000" stroke="none">
<path d="M889 4088 c0 -7 -33 -275 -73 -596 -39 -320 -70 -585 -67 -587 2 -3
365 -5 807 -5 l802 0 6 83 c3 45 8 315 11 600 l6 517 -745 0 c-590 0 -746 -3
-747 -12z"/>
<path d="M2785 3828 c3 -150 8 -420 11 -600 l6 -328 48 0 48 0 55 78 c110 157
256 261 443 314 103 29 285 31 389 4 190 -50 364 -174 467 -333 l41 -63 65 0
65 0 -6 38 c-3 20 -36 280 -72 577 -36 297 -68 550 -70 563 l-5 22 -745 0
-745 0 5 -272z"/>
<path d="M3499 3210 c-263 -41 -466 -217 -555 -480 -29 -85 -27 -283 4 -370
80 -224 269 -545 535 -903 92 -124 112 -146 124 -135 50 41 354 482 463 672
229 398 259 589 133 846 -38 77 -61 109 -127 176 -123 123 -265 186 -443 198
-43 2 -103 1 -134 -4z m213 -388 c62 -27 115 -77 146 -136 35 -67 38 -177 6
-247 -86 -187 -323 -234 -470 -91 -128 124 -111 345 36 447 81 56 192 67 282
27z"/>
<path d="M695 2508 c-2 -13 -43 -338 -90 -723 -46 -385 -87 -712 -90 -727 l-4
-28 913 0 914 0 7 588 c4 323 8 659 8 747 l2 160 -827 3 -828 2 -5 -22z"/>
<path d="M2764 2308 c3 -117 9 -455 12 -750 l7 -538 914 0 913 0 -6 38 c-3 20
-45 357 -93 747 -83 677 -88 710 -108 713 -18 3 -21 -4 -27 -48 -33 -250 -294
-709 -699 -1227 l-80 -103 -76 98 c-264 334 -513 722 -621 968 -35 80 -66 184
-85 287 -4 21 -11 27 -32 27 l-26 0 7 -212z"/>
</g>
</svg>
