<?xml version="1.0" encoding="UTF-8"?>
<!DOCTYPE svg PUBLIC "-//W3C//DTD SVG 1.1//EN" "http://www.w3.org/Graphics/SVG/1.1/DTD/svg11.dtd">
<svg xmlns="http://www.w3.org/2000/svg" version="1.1" width="512px" height="512px" style="shape-rendering:geometricPrecision; text-rendering:geometricPrecision; image-rendering:optimizeQuality; fill-rule:evenodd; clip-rule:evenodd" xmlns:xlink="http://www.w3.org/1999/xlink">
<g><path style="opacity:0.968" fill="#000000" d="M 245.5,52.5 C 262.625,50.958 278.625,54.458 293.5,63C 350.833,94.6667 408.167,126.333 465.5,158C 486.434,171.904 490.601,189.737 478,211.5C 474.749,215.422 470.916,218.588 466.5,221C 451.586,229.04 436.753,237.206 422,245.5C 421.667,277.833 421.333,310.167 421,342.5C 414.441,385.559 389.608,409.893 346.5,415.5C 346.667,426.172 346.5,436.839 346,447.5C 340.361,458.691 331.861,461.525 320.5,456C 317.894,454.062 316.061,451.562 315,448.5C 313.569,437.578 313.069,426.578 313.5,415.5C 261.499,415.667 209.499,415.5 157.5,415C 118.096,406.595 95.5959,382.429 90,342.5C 89.6667,310.167 89.3333,277.833 89,245.5C 71.9236,236.38 55.0902,226.88 38.5,217C 20.6302,197.69 21.2969,179.023 40.5,161C 104.211,125.478 168.211,90.4776 232.5,56C 236.999,54.961 241.332,53.7943 245.5,52.5 Z M 248.5,85.5 C 258.132,84.3284 267.132,86.1618 275.5,91C 334.662,123.747 393.662,156.747 452.5,190C 414.081,211.627 375.581,233.127 337,254.5C 313.5,231 290,207.5 266.5,184C 255.444,177.676 246.611,179.842 240,190.5C 238.909,196.097 239.576,201.43 242,206.5C 263.5,228 285,249.5 306.5,271C 293.279,279.111 279.612,286.445 265.5,293C 254.492,295.666 244.158,294 234.5,288C 175.833,255.333 117.167,222.667 58.5,190C 117.338,156.747 176.338,123.747 235.5,91C 239.741,88.6512 244.075,86.8179 248.5,85.5 Z M 122.5,264.5 C 157.926,283.409 193.259,302.576 228.5,322C 244.59,328.368 260.923,329.035 277.5,324C 289.853,318.741 301.686,312.574 313,305.5C 313.5,331.498 313.667,357.498 313.5,383.5C 265.499,383.667 217.499,383.5 169.5,383C 153.452,382.061 140.619,375.228 131,362.5C 128.092,357.449 125.758,352.116 124,346.5C 122.553,319.204 122.053,291.871 122.5,264.5 Z M 386.5,264.5 C 387.832,276.815 388.499,289.482 388.5,302.5C 388.333,315.167 388.167,327.833 388,340.5C 384.053,364.28 370.22,378.28 346.5,382.5C 346.167,350.493 346.5,318.493 347.5,286.5C 360.724,279.392 373.724,272.059 386.5,264.5 Z"/></g>
</svg>
