<?xml version="1.0" encoding="UTF-8"?>
<!DOCTYPE svg PUBLIC "-//W3C//DTD SVG 1.1//EN" "http://www.w3.org/Graphics/SVG/1.1/DTD/svg11.dtd">
<svg xmlns="http://www.w3.org/2000/svg" version="1.1" width="512px" height="512px" style="shape-rendering:geometricPrecision; text-rendering:geometricPrecision; image-rendering:optimizeQuality; fill-rule:evenodd; clip-rule:evenodd" xmlns:xlink="http://www.w3.org/1999/xlink">
<g><path style="opacity:0.979" fill="#000000" d="M 143.5,71.5 C 180.833,71.5 218.167,71.5 255.5,71.5C 258.62,106.156 261.62,140.823 264.5,175.5C 245.5,175.5 226.5,175.5 207.5,175.5C 207.167,216.172 207.5,256.839 208.5,297.5C 209.795,296.902 211.128,296.402 212.5,296C 218.825,295.5 225.158,295.334 231.5,295.5C 231.333,275.831 231.5,256.164 232,236.5C 237.5,212.333 252.333,197.5 276.5,192C 318.5,191.333 360.5,191.333 402.5,192C 426.667,197.5 441.5,212.333 447,236.5C 447.5,256.164 447.667,275.831 447.5,295.5C 466.52,291.922 479.686,298.922 487,316.5C 487.667,350.5 487.667,384.5 487,418.5C 480.811,434.85 468.978,441.85 451.5,439.5C 441.49,441.226 432.656,438.892 425,432.5C 422.222,435.807 418.722,437.974 414.5,439C 364.5,439.667 314.5,439.667 264.5,439C 260.278,437.974 256.778,435.807 254,432.5C 250.703,435.567 246.869,437.733 242.5,439C 231.427,439.931 220.427,439.597 209.5,438C 200.849,434.016 195.015,427.516 192,418.5C 191.5,337.501 191.333,256.501 191.5,175.5C 172.5,175.5 153.5,175.5 134.5,175.5C 137.38,140.823 140.38,106.156 143.5,71.5 Z M 159.5,87.5 C 186.167,87.5 212.833,87.5 239.5,87.5C 241.654,111.193 243.987,134.86 246.5,158.5C 215.167,159.833 183.833,159.833 152.5,158.5C 155.013,134.86 157.346,111.193 159.5,87.5 Z M 287.5,207.5 C 322.168,207.333 356.835,207.5 391.5,208C 415.333,210.5 428.5,223.667 431,247.5C 431.833,264.51 431.666,281.51 430.5,298.5C 419.87,304.755 414.704,314.089 415,326.5C 410.735,323.118 405.902,320.952 400.5,320C 359.833,319.333 319.167,319.333 278.5,320C 273.098,320.952 268.265,323.118 264,326.5C 264.296,314.089 259.13,304.755 248.5,298.5C 247.105,278.811 247.272,259.145 249,239.5C 254.48,219.844 267.313,209.177 287.5,207.5 Z M 220.5,311.5 C 226.419,312.291 232.419,312.791 238.5,313C 243.626,315.066 246.459,318.9 247,324.5C 247.667,353.167 247.667,381.833 247,410.5C 246.167,418 242,422.167 234.5,423C 228.109,423.758 221.776,423.424 215.5,422C 211.114,419.393 208.614,415.56 208,410.5C 207.333,381.833 207.333,353.167 208,324.5C 209.012,316.99 213.179,312.656 220.5,311.5 Z M 443.5,311.5 C 450.23,311.226 456.897,311.726 463.5,313C 467.886,315.607 470.386,319.44 471,324.5C 471.667,353.167 471.667,381.833 471,410.5C 470.167,418 466,422.167 458.5,423C 452.109,423.758 445.776,423.424 439.5,422C 435.114,419.393 432.614,415.56 432,410.5C 431.333,381.833 431.333,353.167 432,324.5C 432.936,317.407 436.769,313.074 443.5,311.5 Z M 287.5,335.5 C 324.531,335.045 361.531,335.545 398.5,337C 411.27,343.028 416.937,353.195 415.5,367.5C 364.833,367.5 314.167,367.5 263.5,367.5C 262.229,349.482 270.229,338.816 287.5,335.5 Z M 263.5,383.5 C 314.167,383.5 364.833,383.5 415.5,383.5C 415.667,394.172 415.5,404.839 415,415.5C 414.5,420 412,422.5 407.5,423C 362.167,423.667 316.833,423.667 271.5,423C 267,422.5 264.5,420 264,415.5C 263.5,404.839 263.333,394.172 263.5,383.5 Z"/></g>
<g><path style="opacity:0.974" fill="#000000" d="M 98.5,159.5 C 103.77,162.935 108.27,167.269 112,172.5C 117.345,180.207 121.345,188.541 124,197.5C 135.205,192.106 147.039,190.106 159.5,191.5C 161.829,213.354 155.162,231.854 139.5,247C 141.81,247.497 144.143,247.663 146.5,247.5C 141.553,266.122 136.22,284.622 130.5,303C 145.496,303.5 160.496,303.667 175.5,303.5C 175.5,348.833 175.5,394.167 175.5,439.5C 170.167,439.5 164.833,439.5 159.5,439.5C 159.5,426.167 159.5,412.833 159.5,399.5C 119.5,399.5 79.5,399.5 39.5,399.5C 39.5,412.833 39.5,426.167 39.5,439.5C 34.1667,439.5 28.8333,439.5 23.5,439.5C 23.5,394.167 23.5,348.833 23.5,303.5C 38.5037,303.667 53.5037,303.5 68.5,303C 62.7801,284.622 57.4467,266.122 52.5,247.5C 54.8568,247.663 57.1902,247.497 59.5,247C 44.2266,231.685 37.5599,213.185 39.5,191.5C 52.29,190.075 64.4567,192.075 76,197.5C 79.6613,182.503 87.1613,169.837 98.5,159.5 Z M 98.5,185.5 C 101.027,187.51 102.861,190.177 104,193.5C 109.731,208.944 108.231,223.611 99.5,237.5C 89.2969,220.38 88.9635,203.047 98.5,185.5 Z M 80.5,240.5 C 67.8486,233.665 59.8486,223.165 56.5,209C 62.5841,209.865 68.2508,212.031 73.5,215.5C 75.3682,223.974 77.7016,232.308 80.5,240.5 Z M 118.5,240.5 C 121.597,232.78 123.764,224.78 125,216.5C 130.312,212.24 136.145,209.906 142.5,209.5C 139.856,219.973 134.522,228.806 126.5,236C 124.183,238.157 121.516,239.657 118.5,240.5 Z M 74.5,264.5 C 91.033,263.988 107.7,263.821 124.5,264C 120.327,277.02 116.66,290.186 113.5,303.5C 104.167,303.5 94.8333,303.5 85.5,303.5C 82.591,290.185 78.9243,277.185 74.5,264.5 Z M 39.5,319.5 C 79.5,319.5 119.5,319.5 159.5,319.5C 159.5,340.833 159.5,362.167 159.5,383.5C 119.5,383.5 79.5,383.5 39.5,383.5C 39.5,362.167 39.5,340.833 39.5,319.5 Z"/></g>
<g><path style="opacity:1" fill="#000000" d="M 79.5,343.5 C 92.8333,343.5 106.167,343.5 119.5,343.5C 119.5,348.833 119.5,354.167 119.5,359.5C 106.167,359.5 92.8333,359.5 79.5,359.5C 79.5,354.167 79.5,348.833 79.5,343.5 Z"/></g>
</svg>
