<?xml version="1.0" encoding="UTF-8"?>
<!DOCTYPE svg PUBLIC "-//W3C//DTD SVG 1.1//EN" "http://www.w3.org/Graphics/SVG/1.1/DTD/svg11.dtd">
<svg xmlns="http://www.w3.org/2000/svg" version="1.1" width="512px" height="512px" style="shape-rendering:geometricPrecision; text-rendering:geometricPrecision; image-rendering:optimizeQuality; fill-rule:evenodd; clip-rule:evenodd" xmlns:xlink="http://www.w3.org/1999/xlink">
<g><path style="opacity:0.955" fill="#000000" d="M 272.5,-0.5 C 278.833,-0.5 285.167,-0.5 291.5,-0.5C 300.755,1.63098 308.755,6.13098 315.5,13C 322.154,16.4587 327.821,15.1253 332.5,9C 345.905,4.12196 355.071,8.28863 360,21.5C 360.667,24.1667 360.667,26.8333 360,29.5C 353.333,48.8333 346.667,68.1667 340,87.5C 339.333,88.8333 339.333,90.1667 340,91.5C 359,110.5 378,129.5 397,148.5C 401.134,159.759 397.301,165.259 385.5,165C 384.167,164.333 382.833,163.667 381.5,163C 361.5,143 341.5,123 321.5,103C 295.5,102.333 269.5,102.333 243.5,103C 217.667,128.833 191.833,154.667 166,180.5C 128.346,226.108 118.679,277.108 137,333.5C 160.286,323.658 184.453,320.825 209.5,325C 219.063,326.854 228.396,329.521 237.5,333C 258.379,343.273 279.379,353.273 300.5,363C 308.653,366.574 316.32,370.907 323.5,376C 332.965,386.396 336.799,398.563 335,412.5C 341.782,408.052 348.282,403.219 354.5,398C 379.333,375.833 404.167,353.667 429,331.5C 439.078,297.298 438.911,263.131 428.5,229C 429.9,219.295 435.234,216.295 444.5,220C 447.982,223.418 450.148,227.585 451,232.5C 457.404,257.478 459.237,282.811 456.5,308.5C 477.455,301.32 494.288,306.653 507,324.5C 508.822,328.157 510.322,331.824 511.5,335.5C 511.5,341.5 511.5,347.5 511.5,353.5C 509.489,359.184 506.656,364.517 503,369.5C 465.5,405.667 428,441.833 390.5,478C 366.449,496.361 339.449,507.527 309.5,511.5C 213.167,511.5 116.833,511.5 20.5,511.5C 15.935,509.546 11.6017,507.046 7.5,504C 4.1637,499.817 1.49703,495.317 -0.5,490.5C -0.5,445.833 -0.5,401.167 -0.5,356.5C 2.65172,345.849 9.65172,339.016 20.5,336C 42.5,335.333 64.5,335.333 86.5,336C 92.663,337.909 97.9963,341.076 102.5,345.5C 107.204,344.322 111.704,342.655 116,340.5C 96.7505,276.988 107.75,219.321 149,167.5C 174.874,141.96 200.374,116.126 225.5,90C 218.667,70.1667 211.833,50.3333 205,30.5C 203.587,12.5798 211.754,5.07977 229.5,8C 233.52,11.3514 238.02,13.8514 243,15.5C 245.245,14.8629 247.412,14.0296 249.5,13C 256.023,6.41027 263.69,1.91027 272.5,-0.5 Z M 281.5,19.5 C 291.004,20.7522 299.004,24.9189 305.5,32C 315.618,37.7063 325.785,37.873 336,32.5C 331.102,48.5262 325.769,64.5262 320,80.5C 294.908,81.4946 269.741,81.8279 244.5,81.5C 239.573,65.7196 234.24,50.0529 228.5,34.5C 229,34.1667 229.5,33.8333 230,33.5C 239.236,37.6171 248.403,37.4505 257.5,33C 262.118,30.0496 266.452,26.7162 270.5,23C 274.161,21.4075 277.828,20.2408 281.5,19.5 Z M 469.5,326.5 C 481.846,326.018 488.846,331.852 490.5,344C 490.643,348.219 489.476,352.052 487,355.5C 451.862,388.97 417.029,422.803 382.5,457C 360.823,475.334 335.823,486.334 307.5,490C 240.514,491.613 173.514,491.946 106.5,491C 107.282,488.26 107.782,485.426 108,482.5C 108.5,443.501 108.667,404.501 108.5,365.5C 125.244,359.974 141.911,354.14 158.5,348C 180.018,342.846 201.351,343.513 222.5,350C 250.774,362.804 278.774,376.137 306.5,390C 317.753,401.487 316.753,411.821 303.5,421C 299.903,422.277 296.236,422.61 292.5,422C 259.97,411.323 227.304,401.156 194.5,391.5C 184.945,392.936 181.778,398.269 185,407.5C 186.167,408.667 187.333,409.833 188.5,411C 220.833,421.333 253.167,431.667 285.5,442C 311.52,445.245 335.187,439.245 356.5,424C 391.833,392.667 427.167,361.333 462.5,330C 464.925,328.787 467.259,327.621 469.5,326.5 Z M 28.5,355.5 C 45.17,355.333 61.8367,355.5 78.5,356C 81.738,356.232 84.238,357.732 86,360.5C 87.6437,401.12 87.977,441.787 87,482.5C 86.768,485.738 85.268,488.238 82.5,490C 64.5526,491.612 46.5526,491.946 28.5,491C 25.262,490.768 22.762,489.268 21,486.5C 19.3563,445.88 19.023,405.213 20,364.5C 21.0152,359.654 23.8486,356.654 28.5,355.5 Z"/></g>
<g><path style="opacity:0.899" fill="#000000" d="M 413.5,178.5 C 424.49,176.992 429.324,181.658 428,192.5C 424.723,198.109 419.89,199.942 413.5,198C 405.556,191.465 405.556,184.965 413.5,178.5 Z"/></g>
<g><path style="opacity:0.94" fill="#000000" d="M 277.5,186.5 C 286.67,184.679 292.004,188.346 293.5,197.5C 307.259,202.49 314.925,212.324 316.5,227C 314.802,236.018 309.468,239.351 300.5,237C 296.265,233.574 294.099,229.074 294,223.5C 288.199,216.342 281.366,215.175 273.5,220C 267.617,227.262 268.95,232.929 277.5,237C 294.464,236.397 306.631,243.564 314,258.5C 318.895,278.043 312.062,291.709 293.5,299.5C 291.493,310.5 285.493,313.5 275.5,308.5C 273.319,305.629 271.652,302.463 270.5,299C 253.265,292.355 246.765,280.188 251,262.5C 254.681,259.64 258.848,258.807 263.5,260C 265.286,260.785 266.786,261.951 268,263.5C 268.912,267.639 270.246,271.639 272,275.5C 279.897,281.927 287.23,281.26 294,273.5C 295.653,268.109 294.153,263.942 289.5,261C 284.339,259.203 279.005,258.203 273.5,258C 250.708,249.579 243.874,234.079 253,211.5C 257.329,204.671 263.329,200.004 271,197.5C 272,194.833 273,192.167 274,189.5C 275.518,188.837 276.685,187.837 277.5,186.5 Z"/></g>
</svg>
