<?xml version="1.0" encoding="UTF-8"?>
<!DOCTYPE svg PUBLIC "-//W3C//DTD SVG 1.1//EN" "http://www.w3.org/Graphics/SVG/1.1/DTD/svg11.dtd">
<svg xmlns="http://www.w3.org/2000/svg" version="1.1" width="512px" height="512px" style="shape-rendering:geometricPrecision; text-rendering:geometricPrecision; image-rendering:optimizeQuality; fill-rule:evenodd; clip-rule:evenodd" xmlns:xlink="http://www.w3.org/1999/xlink">
<g><path style="opacity:0.921" fill="#000000" d="M 203.5,9.5 C 232.169,9.33336 260.835,9.50002 289.5,10C 296.526,11.8779 299.026,16.3779 297,23.5C 293.435,29.4632 290.268,35.6298 287.5,42C 294.833,42.3333 302.167,42.6667 309.5,43C 310.333,43.8333 311.167,44.6667 312,45.5C 313.776,59.5117 309.276,71.0117 298.5,80C 309.85,86.0376 313.35,95.2043 309,107.5C 308.215,109.286 307.049,110.786 305.5,112C 312.14,121.828 312.14,131.662 305.5,141.5C 313.235,153.431 311.902,164.264 301.5,174C 303.265,177.63 304.432,181.463 305,185.5C 312,195.167 319,204.833 326,214.5C 346.689,253.649 343.022,290.316 315,324.5C 282.815,356.005 244.982,365.505 201.5,353C 153.95,334.792 131.45,300.292 134,249.5C 135.763,236.542 140.096,224.542 147,213.5C 153.468,204.066 160.301,194.899 167.5,186C 162.519,185.252 157.519,184.752 152.5,184.5C 152.665,188.182 152.499,191.848 152,195.5C 151.705,197.931 150.538,199.764 148.5,201C 128.744,201.975 109.077,201.642 89.5,200C 88.8742,199.25 88.3742,198.416 88,197.5C 87.3333,152.167 87.3333,106.833 88,61.5C 88.4652,60.0692 89.2986,58.9025 90.5,58C 109.833,57.3333 129.167,57.3333 148.5,58C 150.887,58.9761 152.054,60.8094 152,63.5C 152.499,67.8206 152.666,72.1539 152.5,76.5C 160.29,76.4797 167.624,74.6463 174.5,71C 176.914,64.6694 179.748,58.5027 183,52.5C 190.34,44.4386 199.507,40.7719 210.5,41.5C 206.212,33.9228 202.212,26.2561 198.5,18.5C 198.921,14.7603 200.588,11.7603 203.5,9.5 Z M 215.5,23.5 C 216.946,22.3871 218.613,22.2204 220.5,23C 230.46,29.4179 235.293,38.5846 235,50.5C 237.053,54.2916 240.219,55.4582 244.5,54C 247.013,51.6041 248.013,48.6041 247.5,45C 247.597,36.6199 244.93,29.2866 239.5,23C 245.196,22.1701 250.863,22.3368 256.5,23.5C 253.664,31.4707 253.331,39.4707 255.5,47.5C 259.563,51.2516 263.397,50.9183 267,46.5C 266.206,38.5919 267.373,30.9252 270.5,23.5C 274.459,22.3401 278.459,22.1735 282.5,23C 272.789,40.6331 266.789,59.4664 264.5,79.5C 255.249,79.8178 246.083,79.4845 237,78.5C 232.852,58.8706 225.685,40.5372 215.5,23.5 Z M 205.5,54.5 C 209.167,54.5 212.833,54.5 216.5,54.5C 219.451,63.3043 221.618,72.3043 223,81.5C 225.232,86.7306 229.065,90.2306 234.5,92C 254.169,92.1413 273.836,92.1413 293.5,92C 298.833,96.3333 298.833,100.667 293.5,105C 284.833,105.333 276.167,105.667 267.5,106C 263.708,108.053 262.542,111.219 264,115.5C 264.903,116.701 266.069,117.535 267.5,118C 276.601,118.055 285.601,118.722 294.5,120C 299.491,126.769 298.157,131.769 290.5,135C 282.5,135.333 274.5,135.667 266.5,136C 263.136,139.026 262.636,142.526 265,146.5C 266.067,147.191 267.234,147.691 268.5,148C 276.833,148.333 285.167,148.667 293.5,149C 298.833,153.667 298.833,158.333 293.5,163C 282.167,163.333 270.833,163.667 259.5,164C 256.05,164.712 254.384,166.878 254.5,170.5C 254.406,172.912 255.406,174.745 257.5,176C 267.573,176.076 277.573,176.742 287.5,178C 293.22,183.523 292.553,188.19 285.5,192C 266.167,192.667 246.833,192.667 227.5,192C 215.376,191.106 204.376,187.106 194.5,180C 181.098,174.266 167.098,171.433 152.5,171.5C 152.5,143.833 152.5,116.167 152.5,88.5C 163.747,89.8072 174.08,87.3072 183.5,81C 185.617,79.2691 187.117,77.1024 188,74.5C 189.217,67.5624 192.384,61.7291 197.5,57C 200.31,56.2177 202.977,55.3844 205.5,54.5 Z M 283.5,54.5 C 288.5,54.5 293.5,54.5 298.5,54.5C 297.536,66.1547 291.203,71.488 279.5,70.5C 280.211,64.9886 281.545,59.6553 283.5,54.5 Z M 100.5,70.5 C 113.5,70.5 126.5,70.5 139.5,70.5C 139.5,109.833 139.5,149.167 139.5,188.5C 126.5,188.5 113.5,188.5 100.5,188.5C 100.5,149.167 100.5,109.833 100.5,70.5 Z M 271.5,207.5 C 277.371,211.228 281.204,216.562 283,223.5C 283.848,228.259 285.014,232.925 286.5,237.5C 292.11,241.009 296.11,239.676 298.5,233.5C 297.645,223.099 294.311,213.599 288.5,205C 292.283,203.942 295.617,202.109 298.5,199.5C 307.509,210.181 315.009,221.847 321,234.5C 333.146,277.731 319.979,310.898 281.5,334C 236.266,354.753 196.766,346.92 163,310.5C 143.314,282.42 141.314,253.087 157,222.5C 164.642,210.874 172.975,199.874 182,189.5C 186.343,190.921 190.509,192.754 194.5,195C 182.742,207.542 179.575,222.042 185,238.5C 188.618,242.305 192.284,242.305 196,238.5C 196.426,233.66 196.26,228.827 195.5,224C 195.587,213.986 199.921,206.486 208.5,201.5C 214.987,203.631 221.654,204.797 228.5,205C 237.5,205.333 246.5,205.667 255.5,206C 262.025,217.621 264.859,230.121 264,243.5C 266.053,247.292 269.219,248.458 273.5,247C 274.333,246.167 275.167,245.333 276,244.5C 277.582,231.764 276.082,219.431 271.5,207.5 Z"/></g>
<g><path style="opacity:0.906" fill="#000000" d="M 235.5,246.5 C 242.062,245.234 245.562,247.901 246,254.5C 256.158,259.153 260.158,266.82 258,277.5C 254.94,280.936 251.607,281.269 248,278.5C 247.023,274.732 245.523,271.232 243.5,268C 235.831,265.668 232.331,268.502 233,276.5C 233.374,277.416 233.874,278.25 234.5,279C 239.957,280.291 245.29,281.957 250.5,284C 262.032,294.704 262.366,305.704 251.5,317C 249.783,318.559 247.783,319.392 245.5,319.5C 246.092,327.34 242.758,330.173 235.5,328C 233.374,325.567 232.041,322.734 231.5,319.5C 222.133,315.1 218.3,307.767 220,297.5C 222.612,294.424 225.779,293.757 229.5,295.5C 231.717,298.068 232.884,301.068 233,304.5C 239.029,309.304 243.529,308.138 246.5,301C 245.888,298.942 244.888,297.109 243.5,295.5C 239.274,294.013 234.941,292.846 230.5,292C 221.011,286.563 217.511,278.397 220,267.5C 222.273,261.56 226.273,257.227 232,254.5C 232.368,251.435 233.535,248.768 235.5,246.5 Z"/></g>
<g><path style="opacity:0.921" fill="#000000" d="M 189.5,365.5 C 194.913,365.229 200.246,365.729 205.5,367C 213.324,370.745 220.991,374.745 228.5,379C 239.167,379.667 249.833,379.667 260.5,379C 269.863,374.82 279.53,371.487 289.5,369C 305.128,366.526 319.795,369.193 333.5,377C 340.382,382.883 347.548,388.383 355,393.5C 357,388.167 359,382.833 361,377.5C 362.067,376.809 363.234,376.309 364.5,376C 383.257,375.026 401.924,375.36 420.5,377C 422.833,378.333 423.833,380.333 423.5,383C 418.79,421.517 413.956,460.017 409,498.5C 408.167,499.333 407.333,500.167 406.5,501C 380.167,501.667 353.833,501.667 327.5,501C 325.848,499.53 324.848,497.697 324.5,495.5C 326.967,486.767 329.633,478.101 332.5,469.5C 324.344,463.252 315.677,457.752 306.5,453C 303.833,452.333 301.167,452.333 298.5,453C 277.758,457.096 256.925,460.596 236,463.5C 224.119,463.405 212.952,460.571 202.5,455C 172.833,434.667 143.167,414.333 113.5,394C 112.282,392.562 111.615,390.895 111.5,389C 115.888,378.202 124.055,372.702 136,372.5C 140.304,372.409 144.304,373.409 148,375.5C 156.8,368.239 166.633,366.573 177.5,370.5C 181.594,368.778 185.594,367.111 189.5,365.5 Z M 191.5,379.5 C 196.679,377.736 201.346,378.736 205.5,382.5C 204.672,383.415 203.672,384.081 202.5,384.5C 198.931,382.547 195.264,380.881 191.5,379.5 Z M 162.5,381.5 C 164.857,381.337 167.19,381.503 169.5,382C 177.329,386.08 184.996,390.413 192.5,395C 191.687,396.885 190.353,397.551 188.5,397C 180.167,392.5 171.833,388 163.5,383.5C 162.702,383.043 162.369,382.376 162.5,381.5 Z M 291.5,381.5 C 305.732,379.808 318.732,382.975 330.5,391C 336.327,397.681 343.327,402.514 351.5,405.5C 347.028,422.415 341.861,439.082 336,455.5C 328.418,450.291 320.584,445.457 312.5,441C 309.425,439.993 306.258,439.493 303,439.5C 282.443,442.611 261.943,446.111 241.5,450C 225.638,451.489 211.638,447.156 199.5,437C 175.833,420.667 152.167,404.333 128.5,388C 132.94,385.13 137.606,384.797 142.5,387C 157.167,395 171.833,403 186.5,411C 187.574,414.159 189.574,416.493 192.5,418C 204.814,417.743 217.148,417.243 229.5,416.5C 236.392,416.673 243.226,417.339 250,418.5C 257.063,415.94 258.23,411.773 253.5,406C 245.741,404.567 237.907,403.734 230,403.5C 220.841,404.368 211.674,404.535 202.5,404C 205.592,398.44 210.259,394.773 216.5,393C 231.5,392.667 246.5,392.333 261.5,392C 271.835,389.168 281.835,385.668 291.5,381.5 Z M 370.5,388.5 C 383.5,388.5 396.5,388.5 409.5,388.5C 405.354,422.147 401.354,455.814 397.5,489.5C 378.5,489.5 359.5,489.5 340.5,489.5C 350.5,455.833 360.5,422.167 370.5,388.5 Z"/></g>
</svg>
