<?xml version="1.0" encoding="UTF-8"?>
<!DOCTYPE svg PUBLIC "-//W3C//DTD SVG 1.1//EN" "http://www.w3.org/Graphics/SVG/1.1/DTD/svg11.dtd">
<svg xmlns="http://www.w3.org/2000/svg" version="1.1" width="512px" height="512px" style="shape-rendering:geometricPrecision; text-rendering:geometricPrecision; image-rendering:optimizeQuality; fill-rule:evenodd; clip-rule:evenodd" xmlns:xlink="http://www.w3.org/1999/xlink">
<g><path style="opacity:0.98" fill="#000000" d="M 105.5,7.5 C 135.42,5.36945 164.42,9.53612 192.5,20C 200.164,22.998 204.997,28.498 207,36.5C 207.333,57.8333 207.667,79.1667 208,100.5C 217.056,107.607 222.223,116.94 223.5,128.5C 304.857,140.432 386.191,152.599 467.5,165C 477.075,166.87 483.575,172.37 487,181.5C 487.5,275.499 487.667,369.499 487.5,463.5C 500.866,467.545 506.033,476.545 503,490.5C 500.833,496.667 496.667,500.833 490.5,503C 333.833,503.667 177.167,503.667 20.5,503C 9.24773,497.657 5.08107,488.824 8,476.5C 10.7257,469.225 15.8924,464.892 23.5,463.5C 23.3333,350.166 23.5,236.833 24,123.5C 26.2492,113.992 31.2492,106.326 39,100.5C 39.3333,78.8333 39.6667,57.1667 40,35.5C 44.4446,25.1763 52.2779,19.0096 63.5,17C 77.3494,12.5344 91.3494,9.36772 105.5,7.5 Z M 106.5,24.5 C 134.525,22.2107 161.525,26.3774 187.5,37C 189.768,38.5577 190.934,40.7244 191,43.5C 191.5,59.4965 191.667,75.4965 191.5,91.5C 146.172,75.5003 100.839,75.5003 55.5,91.5C 55.0565,74.1106 55.5565,56.7772 57,39.5C 58.214,37.9512 59.714,36.7845 61.5,36C 76.2019,30.4338 91.2019,26.6004 106.5,24.5 Z M 108.5,96.5 C 122.897,96.1241 137.23,96.7908 151.5,98.5C 151.5,119.5 151.5,140.5 151.5,161.5C 132.838,158.855 114.171,158.855 95.5,161.5C 95.5,140.5 95.5,119.5 95.5,98.5C 100.01,98.1156 104.343,97.4489 108.5,96.5 Z M 76.5,102.5 C 77.5,102.5 78.5,102.5 79.5,102.5C 79.833,123.511 79.4997,144.511 78.5,165.5C 64.9582,170.021 52.1249,176.021 40,183.5C 39.3333,166.5 39.3333,149.5 40,132.5C 40.482,124.369 43.982,117.869 50.5,113C 59.0665,108.984 67.7332,105.484 76.5,102.5 Z M 167.5,102.5 C 177.551,104.906 187.218,108.406 196.5,113C 203.018,117.869 206.518,124.369 207,132.5C 207.667,149.5 207.667,166.5 207,183.5C 195.147,175.491 182.314,169.491 168.5,165.5C 167.5,144.511 167.167,123.511 167.5,102.5 Z M 223.5,145.5 C 304.173,157.556 384.84,169.723 465.5,182C 467.286,182.785 468.786,183.951 470,185.5C 471.49,278.123 471.99,370.789 471.5,463.5C 450.167,463.5 428.833,463.5 407.5,463.5C 407.5,426.167 407.5,388.833 407.5,351.5C 425.977,351.917 433.81,342.917 431,324.5C 428.833,318.333 424.667,314.167 418.5,312C 368.5,311.333 318.5,311.333 268.5,312C 257.248,317.343 253.081,326.176 256,338.5C 260.51,348.675 268.343,353.008 279.5,351.5C 279.5,388.833 279.5,426.167 279.5,463.5C 260.833,463.5 242.167,463.5 223.5,463.5C 223.5,357.5 223.5,251.5 223.5,145.5 Z M 108.5,176.5 C 122.895,176.124 137.229,176.791 151.5,178.5C 151.5,199.5 151.5,220.5 151.5,241.5C 132.838,238.855 114.171,238.855 95.5,241.5C 95.5,220.5 95.5,199.5 95.5,178.5C 100.049,178.376 104.382,177.709 108.5,176.5 Z M 78.5,183.5 C 79.8281,204.004 79.8281,224.671 78.5,245.5C 64.9582,250.021 52.1249,256.021 40,263.5C 39.3333,243.833 39.3333,224.167 40,204.5C 51.7901,195.523 64.6235,188.523 78.5,183.5 Z M 167.5,183.5 C 181.866,188.266 195.033,195.266 207,204.5C 207.667,224.167 207.667,243.833 207,263.5C 195.147,255.491 182.314,249.491 168.5,245.5C 167.5,224.844 167.167,204.177 167.5,183.5 Z M 334.5,207.5 C 335.496,207.414 336.329,207.748 337,208.5C 338.328,213.478 339.495,218.478 340.5,223.5C 337.167,223.5 333.833,223.5 330.5,223.5C 331.525,218.067 332.858,212.733 334.5,207.5 Z M 108.5,256.5 C 122.895,256.124 137.229,256.791 151.5,258.5C 151.5,279.5 151.5,300.5 151.5,321.5C 132.838,318.855 114.171,318.855 95.5,321.5C 95.5,300.5 95.5,279.5 95.5,258.5C 100.049,258.376 104.382,257.709 108.5,256.5 Z M 78.5,263.5 C 79.8281,284.004 79.8281,304.671 78.5,325.5C 64.9582,330.021 52.1249,336.021 40,343.5C 39.3333,323.833 39.3333,304.167 40,284.5C 51.7901,275.523 64.6235,268.523 78.5,263.5 Z M 167.5,263.5 C 181.448,268.307 194.448,274.974 206.5,283.5C 207.666,303.492 207.833,323.492 207,343.5C 195.147,335.491 182.314,329.491 168.5,325.5C 167.5,304.844 167.167,284.177 167.5,263.5 Z M 275.5,327.5 C 320.835,327.333 366.168,327.5 411.5,328C 415.5,330.333 415.5,332.667 411.5,335C 366.167,335.667 320.833,335.667 275.5,335C 271.581,332.507 271.581,330.007 275.5,327.5 Z M 108.5,336.5 C 122.895,336.124 137.229,336.791 151.5,338.5C 151.5,362.167 151.5,385.833 151.5,409.5C 132.838,406.855 114.171,406.855 95.5,409.5C 95.5,385.833 95.5,362.167 95.5,338.5C 100.049,338.376 104.382,337.709 108.5,336.5 Z M 78.5,343.5 C 79.8287,366.67 79.8287,390.003 78.5,413.5C 64.9582,418.021 52.1249,424.021 40,431.5C 39.3333,409.167 39.3333,386.833 40,364.5C 51.7901,355.523 64.6235,348.523 78.5,343.5 Z M 167.5,343.5 C 181.866,348.266 195.033,355.266 207,364.5C 207.667,386.833 207.667,409.167 207,431.5C 195.147,423.491 182.314,417.491 168.5,413.5C 167.5,390.176 167.167,366.843 167.5,343.5 Z M 295.5,351.5 C 308.833,351.5 322.167,351.5 335.5,351.5C 335.5,388.833 335.5,426.167 335.5,463.5C 322.167,463.5 308.833,463.5 295.5,463.5C 295.5,426.167 295.5,388.833 295.5,351.5 Z M 351.5,351.5 C 364.833,351.5 378.167,351.5 391.5,351.5C 391.5,388.833 391.5,426.167 391.5,463.5C 378.167,463.5 364.833,463.5 351.5,463.5C 351.5,426.167 351.5,388.833 351.5,351.5 Z M 108.5,424.5 C 122.895,424.124 137.229,424.791 151.5,426.5C 151.5,438.833 151.5,451.167 151.5,463.5C 132.833,463.5 114.167,463.5 95.5,463.5C 95.5,451.167 95.5,438.833 95.5,426.5C 100.049,426.376 104.382,425.709 108.5,424.5 Z M 78.5,431.5 C 79.4944,441.987 79.8278,452.654 79.5,463.5C 66.1667,463.5 52.8333,463.5 39.5,463.5C 39.3347,459.818 39.5014,456.152 40,452.5C 51.7901,443.523 64.6235,436.523 78.5,431.5 Z M 167.5,431.5 C 181.866,436.266 195.033,443.266 207,452.5C 207.499,456.152 207.665,459.818 207.5,463.5C 194.167,463.5 180.833,463.5 167.5,463.5C 167.5,452.833 167.5,442.167 167.5,431.5 Z M 27.5,479.5 C 179.5,479.333 331.5,479.5 483.5,480C 487.5,482.333 487.5,484.667 483.5,487C 331.5,487.667 179.5,487.667 27.5,487C 23.5808,484.507 23.5808,482.007 27.5,479.5 Z"/></g>
<g><path style="opacity:0.977" fill="#000000" d="M 235.5,191.5 C 241.621,191.09 247.621,191.59 253.5,193C 256.929,200.451 260.262,207.951 263.5,215.5C 266.738,207.951 270.071,200.451 273.5,193C 279.388,191.424 285.388,191.091 291.5,192C 292.416,192.374 293.25,192.874 294,193.5C 295.48,216.743 295.98,240.076 295.5,263.5C 290.167,263.5 284.833,263.5 279.5,263.5C 279.667,250.163 279.5,236.829 279,223.5C 276.195,230.914 273.195,238.247 270,245.5C 265.667,248.167 261.333,248.167 257,245.5C 253.805,238.247 250.805,230.914 248,223.5C 247.5,236.829 247.333,250.163 247.5,263.5C 242.167,263.5 236.833,263.5 231.5,263.5C 231.333,240.831 231.5,218.164 232,195.5C 232.69,193.65 233.856,192.316 235.5,191.5 Z"/></g>
<g><path style="opacity:0.951" fill="#000000" d="M 323.5,191.5 C 331.507,191.334 339.507,191.5 347.5,192C 348.416,192.374 349.25,192.874 350,193.5C 356.617,216.302 362.45,239.302 367.5,262.5C 362.172,263.67 356.839,264.503 351.5,265C 349.106,256.927 346.94,248.76 345,240.5C 338.667,239.167 332.333,239.167 326,240.5C 324.06,248.76 321.894,256.927 319.5,265C 314.161,264.503 308.828,263.67 303.5,262.5C 308.55,239.302 314.383,216.302 321,193.5C 321.995,192.934 322.828,192.267 323.5,191.5 Z M 334.5,207.5 C 332.858,212.733 331.525,218.067 330.5,223.5C 333.833,223.5 337.167,223.5 340.5,223.5C 339.495,218.478 338.328,213.478 337,208.5C 336.329,207.748 335.496,207.414 334.5,207.5 Z"/></g>
<g><path style="opacity:0.996" fill="#000000" d="M 375.5,191.5 C 380.833,191.5 386.167,191.5 391.5,191.5C 391.5,210.167 391.5,228.833 391.5,247.5C 399.5,247.5 407.5,247.5 415.5,247.5C 415.5,252.833 415.5,258.167 415.5,263.5C 403.495,263.667 391.495,263.5 379.5,263C 378.584,262.626 377.75,262.126 377,261.5C 375.52,238.257 375.02,214.924 375.5,191.5 Z"/></g>
<g><path style="opacity:0.996" fill="#000000" d="M 423.5,191.5 C 428.833,191.5 434.167,191.5 439.5,191.5C 439.5,210.167 439.5,228.833 439.5,247.5C 447.5,247.5 455.5,247.5 463.5,247.5C 463.5,252.833 463.5,258.167 463.5,263.5C 451.495,263.667 439.495,263.5 427.5,263C 426.584,262.626 425.75,262.126 425,261.5C 423.52,238.257 423.02,214.924 423.5,191.5 Z"/></g>
</svg>
