<?xml version="1.0" encoding="UTF-8"?>
<!DOCTYPE svg PUBLIC "-//W3C//DTD SVG 1.1//EN" "http://www.w3.org/Graphics/SVG/1.1/DTD/svg11.dtd">
<svg xmlns="http://www.w3.org/2000/svg" version="1.1" width="512px" height="512px" style="shape-rendering:geometricPrecision; text-rendering:geometricPrecision; image-rendering:optimizeQuality; fill-rule:evenodd; clip-rule:evenodd" xmlns:xlink="http://www.w3.org/1999/xlink">
<g><path style="opacity:0.907" fill="#000000" d="M 303.5,63.5 C 305.655,63.372 307.655,63.872 309.5,65C 362.819,96.5725 416.319,127.739 470,158.5C 470.667,197.5 470.667,236.5 470,275.5C 458.92,283.293 447.42,290.459 435.5,297C 426.69,297.517 424.356,293.85 428.5,286C 437.964,280.699 447.297,275.199 456.5,269.5C 457.665,262.189 457.831,254.856 457,247.5C 442.915,255.793 428.748,263.96 414.5,272C 406.83,273.326 403.997,270.159 406,262.5C 423,252.5 440,242.5 457,232.5C 457.831,225.476 457.664,218.476 456.5,211.5C 428.121,228.356 399.455,244.689 370.5,260.5C 368.303,260.152 366.47,259.152 365,257.5C 361.83,260.607 358.163,261.274 354,259.5C 352.892,251.248 352.058,242.915 351.5,234.5C 337.331,243.086 322.997,251.419 308.5,259.5C 306.962,265.435 303.296,267.435 297.5,265.5C 259.833,287.333 222.167,309.167 184.5,331C 179.037,335.466 173.037,336.466 166.5,334C 118.664,305.914 70.6637,278.081 22.5,250.5C 21.1667,258.167 21.1667,265.833 22.5,273.5C 72.9966,302.247 123.33,331.247 173.5,360.5C 201.137,344.1 228.97,328.1 257,312.5C 263.561,314.27 265.061,318.104 261.5,324C 232.292,341.102 202.959,357.936 173.5,374.5C 122.63,346.148 72.1297,317.148 22,287.5C 21.1868,295.08 21.3534,302.58 22.5,310C 72.3301,338.414 121.997,367.081 171.5,396C 172.833,396.667 174.167,396.667 175.5,396C 201.669,380.414 228.003,365.081 254.5,350C 260.016,348.075 263.349,349.909 264.5,355.5C 264.152,357.697 263.152,359.53 261.5,361C 234.336,376.414 207.336,392.081 180.5,408C 177.119,410.245 173.452,410.912 169.5,410C 120.5,381.5 71.5,353 22.5,324.5C 21.3356,331.476 21.1689,338.476 22,345.5C 72.4181,374.96 122.918,404.293 173.5,433.5C 201.709,417.23 230.042,401.23 258.5,385.5C 264.091,386.651 265.925,389.984 264,395.5C 234.367,413.734 204.2,431.067 173.5,447.5C 118.63,416.815 64.1295,385.481 10,353.5C 8.34567,314.584 8.01234,275.584 9,236.5C 9.46524,235.069 10.2986,233.903 11.5,233C 109.092,176.712 206.426,120.212 303.5,63.5 Z M 304.5,77.5 C 352.806,105.655 401.139,133.822 449.5,162C 419.581,180.211 389.414,198.045 359,215.5C 354.749,212.958 350.582,210.291 346.5,207.5C 364.202,196.634 382.036,185.968 400,175.5C 402.532,170.815 401.532,167.148 397,164.5C 395.625,160.102 396.958,156.768 401,154.5C 402.291,149.438 400.458,145.938 395.5,144C 368.297,128.233 340.964,112.733 313.5,97.5C 311.283,98.5723 308.95,99.2389 306.5,99.5C 303.49,98.6522 300.49,98.1522 297.5,98C 273.833,111.5 250.167,125 226.5,138.5C 222.833,136.5 219.167,134.5 215.5,132.5C 214.289,131.726 214.289,130.893 215.5,130C 245.559,112.978 275.226,95.4778 304.5,77.5 Z M 298.5,111.5 C 303.828,112.568 309.162,112.735 314.5,112C 338.332,125.748 361.998,139.748 385.5,154C 382.833,159 382.833,164 385.5,169C 368.23,179.552 350.73,189.719 333,199.5C 301.768,181.8 270.601,163.967 239.5,146C 259.558,134.978 279.225,123.478 298.5,111.5 Z M 198.5,139.5 C 200.655,139.372 202.655,139.872 204.5,141C 251.664,168.081 298.664,195.414 345.5,223C 331.082,231.626 316.582,240.126 302,248.5C 253.248,220.54 204.415,192.707 155.5,165C 169.897,156.474 184.23,147.974 198.5,139.5 Z M 303.5,145.5 C 310.373,144.965 317.04,145.799 323.5,148C 324.5,149 325.5,150 326.5,151C 319.509,157.132 311.509,158.799 302.5,156C 299.6,155.057 297.267,153.39 295.5,151C 297.746,148.391 300.413,146.557 303.5,145.5 Z M 140.5,172.5 C 146.193,174.179 151.526,176.679 156.5,180C 129.74,195.101 103.24,210.601 77,226.5C 76.3333,228.833 76.3333,231.167 77,233.5C 78.892,235.054 80.392,236.888 81.5,239C 80.392,241.112 78.892,242.946 77,244.5C 76.3333,246.833 76.3333,249.167 77,251.5C 106.136,269.137 135.636,286.137 165.5,302.5C 170.312,299.882 175.145,299.882 180,302.5C 211.526,285.32 242.692,267.486 273.5,249C 278.577,250.205 283.244,252.538 287.5,256C 249.669,277.748 212.003,299.748 174.5,322C 173.5,322.667 172.5,322.667 171.5,322C 123.833,294.167 76.1667,266.333 28.5,238.5C 65.8965,216.474 103.23,194.474 140.5,172.5 Z M 455.5,173.5 C 456.823,176.938 457.49,180.771 457.5,185C 457.167,188.833 456.833,192.667 456.5,196.5C 425.609,213.902 395.109,231.902 365,250.5C 364.168,242.479 364.335,234.479 365.5,226.5C 395.892,209.311 425.892,191.644 455.5,173.5 Z M 168.5,187.5 C 199.473,205.322 230.473,223.155 261.5,241C 234.664,256.919 207.664,272.586 180.5,288C 176.004,287.316 171.504,287.483 167,288.5C 141.819,274.824 116.986,260.491 92.5,245.5C 95.0476,240.987 95.0476,236.487 92.5,232C 117.732,216.888 143.065,202.055 168.5,187.5 Z M 165.5,231.5 C 170.335,231.977 175.002,233.144 179.5,235C 182.341,238.159 181.674,240.492 177.5,242C 168.085,245.706 159.419,244.54 151.5,238.5C 151.919,237.328 152.585,236.328 153.5,235.5C 157.359,233.351 161.359,232.018 165.5,231.5 Z"/></g>
<g><path style="opacity:0.915" fill="#000000" d="M 303.5,132.5 C 316.611,130.61 327.778,134.276 337,143.5C 340.195,157.351 334.695,165.851 320.5,169C 308.983,171.11 298.316,169.11 288.5,163C 280.608,152.273 282.275,143.273 293.5,136C 296.98,134.897 300.313,133.731 303.5,132.5 Z M 303.5,145.5 C 300.413,146.557 297.746,148.391 295.5,151C 297.267,153.39 299.6,155.057 302.5,156C 311.509,158.799 319.509,157.132 326.5,151C 325.5,150 324.5,149 323.5,148C 317.04,145.799 310.373,144.965 303.5,145.5 Z"/></g>
<g><path style="opacity:0.908" fill="#000000" d="M 158.5,219.5 C 168.788,218.243 178.455,220.076 187.5,225C 197.366,235.37 196.366,244.704 184.5,253C 171.196,258.159 158.196,257.492 145.5,251C 136.167,242.333 136.167,233.667 145.5,225C 149.741,222.651 154.075,220.818 158.5,219.5 Z M 165.5,231.5 C 161.359,232.018 157.359,233.351 153.5,235.5C 152.585,236.328 151.919,237.328 151.5,238.5C 159.419,244.54 168.085,245.706 177.5,242C 181.674,240.492 182.341,238.159 179.5,235C 175.002,233.144 170.335,231.977 165.5,231.5 Z"/></g>
<g><path style="opacity:0.939" fill="#000000" d="M 342.5,270.5 C 364.183,269.87 384.85,274.037 404.5,283C 415.17,289.18 419.17,298.347 416.5,310.5C 441.466,307.634 465.466,311.134 488.5,321C 495.149,324.314 499.649,329.481 502,336.5C 502.667,364.5 502.667,392.5 502,420.5C 500.657,424.51 498.491,428.01 495.5,431C 487.614,436.609 478.947,440.609 469.5,443C 442.537,449.304 415.704,448.804 389,441.5C 355.168,450.765 322.001,448.931 289.5,436C 282.851,432.686 278.351,427.519 276,420.5C 275.333,379.5 275.333,338.5 276,297.5C 277.617,293.103 280.117,289.269 283.5,286C 292.692,280.046 302.692,276.046 313.5,274C 323.264,272.378 332.931,271.211 342.5,270.5 Z M 333.5,283.5 C 350.058,282.649 366.392,284.149 382.5,288C 387.739,289.413 392.739,291.413 397.5,294C 406.038,298.326 406.371,302.992 398.5,308C 382.041,315.725 364.707,319.559 346.5,319.5C 334.726,319.031 323.06,317.531 311.5,315C 302.796,313.398 295.296,309.565 289,303.5C 288.333,302.167 288.333,300.833 289,299.5C 293.043,295.123 297.876,291.956 303.5,290C 313.432,286.851 323.432,284.685 333.5,283.5 Z M 288.5,319.5 C 306.783,328.217 326.116,332.217 346.5,331.5C 366.717,332.272 385.884,328.272 404,319.5C 404.667,326.833 404.667,334.167 404,341.5C 396.04,349.052 386.54,353.552 375.5,355C 350.825,359.355 326.492,358.022 302.5,351C 297.919,349.129 293.752,346.629 290,343.5C 288.565,335.611 288.065,327.611 288.5,319.5 Z M 419.5,322.5 C 436.074,321.551 452.408,323.051 468.5,327C 476.685,328.67 483.518,332.503 489,338.5C 489.52,340.289 489.187,341.956 488,343.5C 483.363,347.236 478.196,350.07 472.5,352C 454.458,357.271 436.125,358.771 417.5,356.5C 416.501,345.52 416.168,334.52 416.5,323.5C 417.791,323.737 418.791,323.404 419.5,322.5 Z M 288.5,358.5 C 306.841,366.969 326.174,370.969 346.5,370.5C 362.911,370.56 378.911,368.06 394.5,363C 397.754,361.973 400.754,360.473 403.5,358.5C 404.664,365.476 404.831,372.476 404,379.5C 400.394,384.566 395.56,388.066 389.5,390C 358.918,399.225 328.585,398.558 298.5,388C 295.582,386.291 292.748,384.458 290,382.5C 288.565,374.611 288.065,366.611 288.5,358.5 Z M 488.5,358.5 C 489.655,365.655 489.822,372.988 489,380.5C 483.446,386.529 476.613,390.362 468.5,392C 451.685,396.282 434.685,397.449 417.5,395.5C 416.502,386.859 416.169,378.192 416.5,369.5C 439.046,371.812 461.046,369.312 482.5,362C 484.727,361.059 486.727,359.892 488.5,358.5 Z M 288.5,397.5 C 306.891,405.712 326.224,409.712 346.5,409.5C 366.426,409.681 385.426,405.681 403.5,397.5C 404.664,404.142 404.831,410.808 404,417.5C 400.734,421.755 396.568,424.922 391.5,427C 361.17,437 330.837,437 300.5,427C 296.916,424.959 293.416,422.792 290,420.5C 288.568,412.946 288.068,405.279 288.5,397.5 Z M 487.5,397.5 C 488.821,400.598 489.488,404.098 489.5,408C 489.333,411.5 489.167,415 489,418.5C 483.446,424.529 476.613,428.362 468.5,430C 448.534,435.012 428.534,435.678 408.5,432C 415.946,425.906 418.613,418.073 416.5,408.5C 438.708,410.651 460.375,408.151 481.5,401C 483.727,400.059 485.727,398.892 487.5,397.5 Z"/></g>
</svg>
