<?xml version="1.0" encoding="UTF-8"?>
<!DOCTYPE svg PUBLIC "-//W3C//DTD SVG 1.1//EN" "http://www.w3.org/Graphics/SVG/1.1/DTD/svg11.dtd">
<svg xmlns="http://www.w3.org/2000/svg" version="1.1" width="512px" height="512px" style="shape-rendering:geometricPrecision; text-rendering:geometricPrecision; image-rendering:optimizeQuality; fill-rule:evenodd; clip-rule:evenodd" xmlns:xlink="http://www.w3.org/1999/xlink">
<g><path style="opacity:0.925" fill="#000000" d="M 323.5,-0.5 C 329.5,-0.5 335.5,-0.5 341.5,-0.5C 370.696,10.571 379.863,30.9044 369,60.5C 357.456,78.18 341.29,84.68 320.5,80C 298.467,71.281 288.967,55.1144 292,31.5C 296.683,14.9848 307.183,4.31811 323.5,-0.5 Z M 325.5,15.5 C 341.205,13.3976 351.705,19.7309 357,34.5C 358.167,56 348,66.1667 326.5,65C 309.486,58.1327 303.986,45.966 310,28.5C 313.869,22.4518 319.035,18.1185 325.5,15.5 Z"/></g>
<g><path style="opacity:0.941" fill="#000000" d="M 511.5,177.5 C 511.5,180.167 511.5,182.833 511.5,185.5C 510.684,187.144 509.35,188.31 507.5,189C 479.641,192.198 462.475,207.365 456,234.5C 455.5,265.165 455.333,295.832 455.5,326.5C 460.511,326.334 465.511,326.501 470.5,327C 471.416,327.374 472.25,327.874 473,328.5C 474.445,337.726 474.945,347.06 474.5,356.5C 480.176,356.334 485.843,356.501 491.5,357C 492.333,357.833 493.167,358.667 494,359.5C 494.5,368.16 494.666,376.827 494.5,385.5C 498.514,385.334 502.514,385.501 506.5,386C 508.687,387.025 510.354,388.525 511.5,390.5C 511.5,392.833 511.5,395.167 511.5,397.5C 510.684,399.144 509.35,400.31 507.5,401C 339.5,401.667 171.5,401.667 3.5,401C 1.64977,400.31 0.316435,399.144 -0.5,397.5C -0.5,395.167 -0.5,392.833 -0.5,390.5C 0.646381,388.525 2.31305,387.025 4.5,386C 25.164,385.5 45.8306,385.333 66.5,385.5C 66.5,346.167 66.5,306.833 66.5,267.5C 30.4736,262.138 8.14022,241.804 -0.5,206.5C -0.5,162.5 -0.5,118.5 -0.5,74.5C 2.158,60.1828 8.32466,47.5161 18,36.5C 23.8169,30.9939 28.8169,31.6605 33,38.5C 33.6667,40.1667 33.6667,41.8333 33,43.5C 24.4396,52.9528 18.7729,63.9528 16,76.5C 14.9026,97.8114 14.4026,119.145 14.5,140.5C 14.4026,161.855 14.9026,183.189 16,204.5C 22.7303,231.065 39.5636,246.732 66.5,251.5C 66.6666,236.496 66.4999,221.496 66,206.5C 56,196.5 46,186.5 36,176.5C 33.4247,169.574 35.7581,165.24 43,163.5C 44.5,164 46,164.5 47.5,165C 53.6667,171.167 59.8333,177.333 66,183.5C 66.3333,148.167 66.6667,112.833 67,77.5C 70.2572,74.5715 74.0906,73.7382 78.5,75C 80.4875,76.3189 81.6541,78.1523 82,80.5C 82.3333,97.1667 82.6667,113.833 83,130.5C 89.2362,123.593 96.0695,117.427 103.5,112C 113.362,112.886 115.862,117.719 111,126.5C 101.667,135.833 92.3333,145.167 83,154.5C 82.1668,186.838 82.3334,219.172 83.5,251.5C 113.186,243.982 129.353,224.982 132,194.5C 132.667,158.167 132.667,121.833 132,85.5C 128.102,50.4352 108.602,31.4352 73.5,28.5C 68.228,28.4127 63.0613,29.0793 58,30.5C 50.3874,27.995 48.5541,23.1616 52.5,16C 89.6232,6.92614 118.457,18.4261 139,50.5C 144.66,61.4746 147.66,73.1412 148,85.5C 148.5,114.831 148.667,144.165 148.5,173.5C 161.847,169.565 175.18,169.565 188.5,173.5C 199.675,148.375 218.675,139.208 245.5,146C 258.546,151.598 267.379,161.098 272,174.5C 286.583,171.48 299.249,175.146 310,185.5C 323.6,175.643 338.767,172.143 355.5,175C 377.225,179.344 391.891,191.844 399.5,212.5C 405.461,211.338 411.461,210.338 417.5,209.5C 425.076,210.228 432.409,211.895 439.5,214.5C 439.833,198.153 439.499,181.82 438.5,165.5C 427.186,161.351 420.353,153.351 418,141.5C 417.5,129.505 417.333,117.505 417.5,105.5C 407.508,107.014 403.675,103.014 406,93.5C 414.833,84.6667 423.667,75.8333 432.5,67C 442.5,61 452.5,61 462.5,67C 471.333,75.8333 480.167,84.6667 489,93.5C 491.325,103.014 487.492,107.014 477.5,105.5C 477.903,118.885 477.403,132.218 476,145.5C 472.7,155.3 466.2,161.967 456.5,165.5C 455.334,176.151 455.168,186.818 456,197.5C 468.415,183.042 484.248,175.042 503.5,173.5C 506.731,173.782 509.398,175.115 511.5,177.5 Z M 445.5,78.5 C 447.927,78.523 450.26,79.023 452.5,80C 455.5,83 458.5,86 461.5,89C 452.167,89.6667 442.833,89.6667 433.5,89C 437.124,84.8628 441.124,81.3628 445.5,78.5 Z M 433.5,105.5 C 442.833,105.5 452.167,105.5 461.5,105.5C 461.667,116.838 461.5,128.172 461,139.5C 456.861,149.986 449.695,152.819 439.5,148C 436.533,145.9 434.7,143.066 434,139.5C 433.5,128.172 433.333,116.838 433.5,105.5 Z M 225.5,159.5 C 245.254,159.748 256.421,169.748 259,189.5C 259.903,190.701 261.069,191.535 262.5,192C 270.312,190.083 278.312,189.417 286.5,190C 294.243,192.408 300.243,197.074 304.5,204C 307.167,204.667 309.833,204.667 312.5,204C 334.126,184.721 355.626,184.888 377,204.5C 379.583,207.997 381.916,211.664 384,215.5C 385.338,220.883 387.171,226.049 389.5,231C 392.366,232.457 395.366,232.79 398.5,232C 412.612,223.071 426.112,223.905 439,234.5C 439.5,265.165 439.667,295.832 439.5,326.5C 434.489,326.334 429.489,326.501 424.5,327C 423.584,327.374 422.75,327.874 422,328.5C 420.555,337.726 420.055,347.06 420.5,356.5C 414.824,356.334 409.157,356.501 403.5,357C 402.667,357.833 401.833,358.667 401,359.5C 400.5,368.16 400.334,376.827 400.5,385.5C 383.833,385.5 367.167,385.5 350.5,385.5C 350.5,378.833 350.5,372.167 350.5,365.5C 359.506,365.666 368.506,365.5 377.5,365C 379.848,364.654 381.681,363.487 383,361.5C 383.962,348.072 383.629,334.739 382,321.5C 380.829,320.107 379.329,319.273 377.5,319C 355.503,318.5 333.503,318.333 311.5,318.5C 311.5,313.833 311.5,309.167 311.5,304.5C 326.17,304.667 340.837,304.5 355.5,304C 357.286,303.215 358.786,302.049 360,300.5C 361.108,291.558 361.608,282.558 361.5,273.5C 361.623,264.761 361.123,256.095 360,247.5C 358.786,245.951 357.286,244.785 355.5,244C 288.833,243.333 222.167,243.333 155.5,244C 153.714,244.785 152.214,245.951 151,247.5C 149.877,256.095 149.377,264.761 149.5,273.5C 149.392,282.558 149.892,291.558 151,300.5C 152.214,302.049 153.714,303.215 155.5,304C 170.163,304.5 184.83,304.667 199.5,304.5C 199.5,309.167 199.5,313.833 199.5,318.5C 177.497,318.333 155.497,318.5 133.5,319C 131.152,319.346 129.319,320.513 128,322.5C 127.333,335.5 127.333,348.5 128,361.5C 129.319,363.487 131.152,364.654 133.5,365C 142.494,365.5 151.494,365.666 160.5,365.5C 160.5,372.167 160.5,378.833 160.5,385.5C 134.5,385.5 108.5,385.5 82.5,385.5C 82.5,346.167 82.5,306.833 82.5,267.5C 112.207,262.729 132.707,246.396 144,218.5C 146.339,209.569 148.172,200.569 149.5,191.5C 164.079,184.473 178.413,184.973 192.5,193C 195.257,193.782 197.757,193.282 200,191.5C 202.416,186.754 204.083,181.754 205,176.5C 209.262,167.634 216.095,161.967 225.5,159.5 Z M 165.5,259.5 C 225.5,259.5 285.5,259.5 345.5,259.5C 345.5,269.167 345.5,278.833 345.5,288.5C 285.5,288.5 225.5,288.5 165.5,288.5C 165.5,278.833 165.5,269.167 165.5,259.5 Z M 215.5,304.5 C 242.167,304.5 268.833,304.5 295.5,304.5C 295.5,309.167 295.5,313.833 295.5,318.5C 268.833,318.5 242.167,318.5 215.5,318.5C 215.5,313.833 215.5,309.167 215.5,304.5 Z M 143.5,334.5 C 218.167,334.5 292.833,334.5 367.5,334.5C 367.5,339.5 367.5,344.5 367.5,349.5C 347.497,349.333 327.497,349.5 307.5,350C 302.731,354.391 302.397,359.057 306.5,364C 315.752,365.417 325.085,365.917 334.5,365.5C 334.5,372.167 334.5,378.833 334.5,385.5C 281.833,385.5 229.167,385.5 176.5,385.5C 176.5,378.833 176.5,372.167 176.5,365.5C 208.835,365.667 241.168,365.5 273.5,365C 280.606,360.899 281.273,355.899 275.5,350C 231.501,349.5 187.501,349.333 143.5,349.5C 143.5,344.5 143.5,339.5 143.5,334.5 Z M 435.5,342.5 C 443.5,342.5 451.5,342.5 459.5,342.5C 459.5,347.167 459.5,351.833 459.5,356.5C 451.5,356.5 443.5,356.5 435.5,356.5C 435.5,351.833 435.5,347.167 435.5,342.5 Z M 415.5,371.5 C 436.833,371.5 458.167,371.5 479.5,371.5C 479.5,376.167 479.5,380.833 479.5,385.5C 458.167,385.5 436.833,385.5 415.5,385.5C 415.5,380.833 415.5,376.167 415.5,371.5 Z"/></g>
<g><path style="opacity:0.935" fill="#000000" d="M -0.5,449.5 C -0.5,447.167 -0.5,444.833 -0.5,442.5C 0.646381,440.525 2.31305,439.025 4.5,438C 146.833,437.333 289.167,437.333 431.5,438C 436.738,441.274 437.904,445.774 435,451.5C 434.25,452.126 433.416,452.626 432.5,453C 289.5,453.667 146.5,453.667 3.5,453C 1.64977,452.31 0.316435,451.144 -0.5,449.5 Z"/></g>
<g><path style="opacity:0.912" fill="#000000" d="M 511.5,441.5 C 511.5,444.167 511.5,446.833 511.5,449.5C 510.684,451.144 509.35,452.31 507.5,453C 493.833,453.667 480.167,453.667 466.5,453C 462.393,449.534 461.56,445.367 464,440.5C 464.903,439.299 466.069,438.465 467.5,438C 480.5,437.333 493.5,437.333 506.5,438C 508.323,438.997 509.99,440.164 511.5,441.5 Z"/></g>
<g><path style="opacity:0.86" fill="#000000" d="M 21.5,466.5 C 28.9775,467.104 31.8108,471.104 30,478.5C 29.5,480.333 28.3333,481.5 26.5,482C 17.1617,483.659 13.6617,479.825 16,470.5C 17.4998,468.531 19.3331,467.198 21.5,466.5 Z"/></g>
<g><path style="opacity:0.864" fill="#000000" d="M 114.5,466.5 C 121.978,467.104 124.811,471.104 123,478.5C 122.5,480.333 121.333,481.5 119.5,482C 110.237,483.698 106.737,479.865 109,470.5C 110.5,468.531 112.333,467.198 114.5,466.5 Z"/></g>
<g><path style="opacity:0.864" fill="#000000" d="M 207.5,466.5 C 214.978,467.104 217.811,471.104 216,478.5C 215.5,480.333 214.333,481.5 212.5,482C 203.237,483.698 199.737,479.865 202,470.5C 203.5,468.531 205.333,467.198 207.5,466.5 Z"/></g>
<g><path style="opacity:0.868" fill="#000000" d="M 300.5,466.5 C 308.197,467.033 311.03,471.033 309,478.5C 306.487,482.212 302.987,483.378 298.5,482C 294.788,479.487 293.622,475.987 295,471.5C 296.107,468.887 297.94,467.22 300.5,466.5 Z"/></g>
<g><path style="opacity:0.864" fill="#000000" d="M 393.5,466.5 C 401.197,467.033 404.03,471.033 402,478.5C 401.535,479.931 400.701,481.097 399.5,482C 390.211,484.29 386.378,480.79 388,471.5C 389.107,468.887 390.94,467.22 393.5,466.5 Z"/></g>
<g><path style="opacity:0.86" fill="#000000" d="M 486.5,466.5 C 494.691,467.207 497.524,471.541 495,479.5C 492.091,482.394 488.591,483.227 484.5,482C 480.788,479.487 479.622,475.987 481,471.5C 482.107,468.887 483.94,467.22 486.5,466.5 Z"/></g>
<g><path style="opacity:0.873" fill="#000000" d="M 73.5,511.5 C 70.8333,511.5 68.1667,511.5 65.5,511.5C 61.1751,507.684 60.5084,503.184 63.5,498C 70.7359,494.458 75.4025,496.458 77.5,504C 77.0063,507.008 75.6729,509.508 73.5,511.5 Z"/></g>
<g><path style="opacity:0.882" fill="#000000" d="M 166.5,511.5 C 163.833,511.5 161.167,511.5 158.5,511.5C 153.709,507.195 153.376,502.528 157.5,497.5C 164.511,494.562 168.845,496.729 170.5,504C 170.006,507.008 168.673,509.508 166.5,511.5 Z"/></g>
<g><path style="opacity:0.868" fill="#000000" d="M 259.5,511.5 C 256.833,511.5 254.167,511.5 251.5,511.5C 246.709,507.195 246.376,502.528 250.5,497.5C 259.341,494.321 263.507,497.321 263,506.5C 262.003,508.323 260.836,509.99 259.5,511.5 Z"/></g>
<g><path style="opacity:0.877" fill="#000000" d="M 352.5,511.5 C 349.833,511.5 347.167,511.5 344.5,511.5C 339.397,506.619 339.397,501.786 344.5,497C 352.943,494.784 356.776,497.951 356,506.5C 355.303,508.584 354.136,510.251 352.5,511.5 Z"/></g>
<g><path style="opacity:0.881" fill="#000000" d="M 445.5,511.5 C 442.833,511.5 440.167,511.5 437.5,511.5C 432.272,506.656 432.272,501.823 437.5,497C 445.943,494.784 449.776,497.951 449,506.5C 448.303,508.584 447.136,510.251 445.5,511.5 Z"/></g>
</svg>
