<?xml version="1.0" encoding="UTF-8"?>
<!DOCTYPE svg PUBLIC "-//W3C//DTD SVG 1.1//EN" "http://www.w3.org/Graphics/SVG/1.1/DTD/svg11.dtd">
<svg xmlns="http://www.w3.org/2000/svg" version="1.1" width="512px" height="512px" style="shape-rendering:geometricPrecision; text-rendering:geometricPrecision; image-rendering:optimizeQuality; fill-rule:evenodd; clip-rule:evenodd" xmlns:xlink="http://www.w3.org/1999/xlink">
<g><path style="opacity:0.947" fill="#000000" d="M 163.5,-0.5 C 171.833,-0.5 180.167,-0.5 188.5,-0.5C 228.086,8.08903 251.42,32.4224 258.5,72.5C 302.063,70.2282 326.73,90.7282 332.5,134C 331.292,156.76 321.292,174.427 302.5,187C 311.999,204.157 313.499,221.99 307,240.5C 304.996,245.833 302.163,250.666 298.5,255C 362.833,255.333 427.167,255.667 491.5,256C 497.74,257.908 501.573,262.075 503,268.5C 503.667,288.5 503.667,308.5 503,328.5C 500.762,335.07 496.262,339.237 489.5,341C 471.503,341.5 453.503,341.667 435.5,341.5C 435.5,352.5 435.5,363.5 435.5,374.5C 453.836,374.333 472.17,374.5 490.5,375C 496.667,377.167 500.833,381.333 503,387.5C 503.667,396.167 503.667,404.833 503,413.5C 501.5,420.333 497.333,424.5 490.5,426C 483.508,426.5 476.508,426.666 469.5,426.5C 469.5,437.5 469.5,448.5 469.5,459.5C 477.893,459.17 486.227,459.67 494.5,461C 502.994,464.207 508.661,470.04 511.5,478.5C 511.5,483.5 511.5,488.5 511.5,493.5C 507.833,501.833 501.833,507.833 493.5,511.5C 334.833,511.5 176.167,511.5 17.5,511.5C 9.16667,507.833 3.16667,501.833 -0.5,493.5C -0.5,488.5 -0.5,483.5 -0.5,478.5C 2.22189,469.943 7.88855,464.109 16.5,461C 33.1222,459.741 49.7889,459.075 66.5,459C 78.6825,454.811 85.8492,446.311 88,433.5C 89.3873,427.564 90.3873,421.564 91,415.5C 92.1157,387.854 92.6157,360.187 92.5,332.5C 92.3333,308.5 92.1667,284.5 92,260.5C 87.9215,255.343 84.0882,250.01 80.5,244.5C 49.4695,253.061 24.9695,244.061 7,217.5C 3.77518,210.979 1.27518,204.312 -0.5,197.5C -0.5,190.167 -0.5,182.833 -0.5,175.5C 1.89448,163.713 7.22781,153.379 15.5,144.5C 7.22557,135.616 1.89224,125.283 -0.5,113.5C -0.5,106.167 -0.5,98.8333 -0.5,91.5C 9.80084,55.4888 33.8008,38.9888 71.5,42C 81.377,43.5241 90.2104,47.3574 98,53.5C 110.381,23.9452 132.215,5.94521 163.5,-0.5 Z M 165.5,17.5 C 203.092,15.1951 227.592,31.8618 239,67.5C 240.081,74.7908 240.747,82.1242 241,89.5C 242.584,93.248 245.417,95.248 249.5,95.5C 276.951,84.9248 297.451,92.5915 311,118.5C 317.903,145.86 308.403,165.027 282.5,176C 279.903,179.088 279.069,182.588 280,186.5C 295.581,205.069 296.914,224.402 284,244.5C 280.466,248.369 276.633,251.869 272.5,255C 227.833,255.333 183.167,255.667 138.5,256C 134.045,258.291 130.378,261.458 127.5,265.5C 119.346,261.515 112.179,256.182 106,249.5C 100.271,241.878 95.4381,233.712 91.5,225C 88.634,223.543 85.634,223.21 82.5,224C 56.0529,235.738 35.5529,229.238 21,204.5C 13.1603,182.351 18.4936,164.018 37,149.5C 39,146.167 39,142.833 37,139.5C 15.6328,122.157 11.6328,101.49 25,77.5C 39.2986,60.1314 57.1319,55.2981 78.5,63C 82.3359,65.0836 86.0026,67.417 89.5,70C 92.8092,75.3151 97.3092,79.1484 103,81.5C 107.554,81.0672 110.554,78.7339 112,74.5C 117.338,43.6646 135.172,24.6646 165.5,17.5 Z M 145.5,273.5 C 258.833,273.5 372.167,273.5 485.5,273.5C 485.5,290.167 485.5,306.833 485.5,323.5C 372.167,323.5 258.833,323.5 145.5,323.5C 145.5,306.833 145.5,290.167 145.5,273.5 Z M 110.5,277.5 C 115.928,280.297 121.428,282.964 127,285.5C 127.046,301.234 127.713,316.9 129,332.5C 134.844,340.287 142.677,343.287 152.5,341.5C 152.5,352.5 152.5,363.5 152.5,374.5C 143.707,372.932 136.207,375.266 130,381.5C 129.333,382.833 128.667,384.167 128,385.5C 127.333,395.5 127.333,405.5 128,415.5C 130.256,420.757 134.09,424.257 139.5,426C 146.826,426.5 154.159,426.666 161.5,426.5C 161.5,437.5 161.5,448.5 161.5,459.5C 139.831,459.667 118.164,459.5 96.5,459C 99.5673,454.145 102.067,448.978 104,443.5C 107.297,431.718 109.297,419.718 110,407.5C 110.5,364.168 110.667,320.835 110.5,277.5 Z M 170.5,341.5 C 178.833,341.5 187.167,341.5 195.5,341.5C 195.5,352.5 195.5,363.5 195.5,374.5C 187.167,374.5 178.833,374.5 170.5,374.5C 170.5,363.5 170.5,352.5 170.5,341.5 Z M 213.5,341.5 C 218.833,341.5 224.167,341.5 229.5,341.5C 229.5,352.5 229.5,363.5 229.5,374.5C 224.167,374.5 218.833,374.5 213.5,374.5C 213.5,363.5 213.5,352.5 213.5,341.5 Z M 247.5,341.5 C 292.833,341.5 338.167,341.5 383.5,341.5C 383.5,352.5 383.5,363.5 383.5,374.5C 338.167,374.5 292.833,374.5 247.5,374.5C 247.5,363.5 247.5,352.5 247.5,341.5 Z M 401.5,341.5 C 406.833,341.5 412.167,341.5 417.5,341.5C 417.5,352.5 417.5,363.5 417.5,374.5C 412.167,374.5 406.833,374.5 401.5,374.5C 401.5,363.5 401.5,352.5 401.5,341.5 Z M 145.5,392.5 C 258.833,392.5 372.167,392.5 485.5,392.5C 485.5,397.833 485.5,403.167 485.5,408.5C 372.167,408.5 258.833,408.5 145.5,408.5C 145.5,403.167 145.5,397.833 145.5,392.5 Z M 179.5,426.5 C 184.833,426.5 190.167,426.5 195.5,426.5C 195.5,437.5 195.5,448.5 195.5,459.5C 190.167,459.5 184.833,459.5 179.5,459.5C 179.5,448.5 179.5,437.5 179.5,426.5 Z M 213.5,426.5 C 281.5,426.5 349.5,426.5 417.5,426.5C 417.5,437.5 417.5,448.5 417.5,459.5C 349.5,459.5 281.5,459.5 213.5,459.5C 213.5,448.5 213.5,437.5 213.5,426.5 Z M 435.5,426.5 C 440.833,426.5 446.167,426.5 451.5,426.5C 451.5,437.5 451.5,448.5 451.5,459.5C 446.167,459.5 440.833,459.5 435.5,459.5C 435.5,448.5 435.5,437.5 435.5,426.5 Z M 23.5,477.5 C 178.167,477.333 332.834,477.5 487.5,478C 492.924,480.017 494.758,483.85 493,489.5C 491.833,490.667 490.667,491.833 489.5,493C 333.5,493.667 177.5,493.667 21.5,493C 17.2468,489.58 16.4135,485.413 19,480.5C 20.6516,479.601 22.1516,478.601 23.5,477.5 Z"/></g>
<g><path style="opacity:0.917" fill="#000000" d="M 234.5,144.5 C 245.138,143.307 249.305,147.974 247,158.5C 242.144,178.68 229.311,188.18 208.5,187C 202.398,181.958 202.065,176.625 207.5,171C 221.697,170.678 229.197,163.511 230,149.5C 231.025,147.313 232.525,145.646 234.5,144.5 Z"/></g>
<g><path style="opacity:0.92" fill="#000000" d="M 89.5,161.5 C 99.2229,160.223 103.723,164.557 103,174.5C 104.211,177.759 106.044,180.592 108.5,183C 114.26,185.348 120.094,187.515 126,189.5C 130.37,199.105 127.37,204.105 117,204.5C 94.7691,201.601 84.1024,188.934 85,166.5C 86.025,164.313 87.525,162.646 89.5,161.5 Z"/></g>
</svg>
