<?xml version="1.0" encoding="UTF-8"?>
<!DOCTYPE svg PUBLIC "-//W3C//DTD SVG 1.1//EN" "http://www.w3.org/Graphics/SVG/1.1/DTD/svg11.dtd">
<svg xmlns="http://www.w3.org/2000/svg" version="1.1" width="512px" height="512px" style="shape-rendering:geometricPrecision; text-rendering:geometricPrecision; image-rendering:optimizeQuality; fill-rule:evenodd; clip-rule:evenodd" xmlns:xlink="http://www.w3.org/1999/xlink">
<g><path style="opacity:0.935" fill="#000000" d="M 248.5,30.5 C 299.457,28.7703 345.79,42.2703 387.5,71C 392.451,74.554 393.618,79.054 391,84.5C 389.177,86.167 387.01,87.167 384.5,87.5C 371.911,79.4386 358.911,71.9386 345.5,65C 337.808,61.1408 329.808,58.4742 321.5,57C 346.527,82.5373 363.693,112.704 373,147.5C 391.76,148.659 410.593,148.825 429.5,148C 421.77,132.029 411.937,117.529 400,104.5C 397.5,94.3333 401.333,90.5 411.5,93C 429.039,111.406 441.705,132.739 449.5,157C 445.581,187.589 428.248,202.256 397.5,201C 384.774,198.919 374.607,192.752 367,182.5C 350.621,201.778 330.788,206.278 307.5,196C 301.702,192.368 296.702,187.868 292.5,182.5C 289.148,186.686 285.314,190.353 281,193.5C 280.5,225.498 280.333,257.498 280.5,289.5C 323.835,289.333 367.168,289.5 410.5,290C 429.946,293.71 437.113,305.21 432,324.5C 429.108,330.392 424.608,334.559 418.5,337C 387.894,338.311 357.228,338.977 326.5,339C 312.972,357.695 299.639,376.528 286.5,395.5C 302.754,419.009 319.254,442.342 336,465.5C 340.264,472.206 338.764,477.039 331.5,480C 324.333,480.167 317.167,480.333 310,480.5C 301.441,480.604 292.941,480.104 284.5,479C 274.711,465.922 265.045,452.756 255.5,439.5C 245.955,452.756 236.289,465.922 226.5,479C 218.059,480.104 209.559,480.604 201,480.5C 192.76,480.62 184.594,480.12 176.5,479C 171.834,474.994 171.334,470.494 175,465.5C 190.333,444.167 205.667,422.833 221,401.5C 222.874,399.431 223.874,397.098 224,394.5C 210.833,376 197.667,357.5 184.5,339C 154.833,338.667 125.167,338.333 95.5,338C 80.8482,332.992 75.0148,322.825 78,307.5C 81.7046,296.796 89.2046,290.963 100.5,290C 115.222,289.068 129.888,289.401 144.5,291C 149.996,296.149 149.663,300.816 143.5,305C 128.113,305.064 112.78,305.731 97.5,307C 93.2468,310.42 92.4135,314.587 95,319.5C 95.9025,320.701 97.0692,321.535 98.5,322C 203.167,322.667 307.833,322.667 412.5,322C 417.069,319.459 418.569,315.625 417,310.5C 415.238,307.732 412.738,306.232 409.5,306C 328.5,305.667 247.5,305.333 166.5,305C 162.788,302.487 161.622,298.987 163,294.5C 164.339,291.906 166.506,290.406 169.5,290C 189.831,289.5 210.164,289.333 230.5,289.5C 230.667,257.498 230.5,225.498 230,193.5C 225.686,190.353 221.852,186.686 218.5,182.5C 203.911,200.525 185.578,205.692 163.5,198C 155.799,194.294 149.299,189.127 144,182.5C 129.195,200.43 110.695,205.597 88.5,198C 71.5334,189.68 62.5334,176.013 61.5,157C 79.5013,106.992 112.835,70.9918 161.5,49C 189.526,37.6297 218.526,31.4631 248.5,30.5 Z M 234.5,49.5 C 235.239,49.369 235.906,49.5357 236.5,50C 222.415,73.149 214.248,98.3157 212,125.5C 211.113,133.145 210.613,140.811 210.5,148.5C 191.821,148.833 173.155,148.5 154.5,147.5C 162.418,122.659 174.252,99.9921 190,79.5C 202.078,65.2278 216.912,55.2278 234.5,49.5 Z M 274.5,50.5 C 274.735,49.9033 275.235,49.5699 276,49.5C 293.919,55.0789 308.919,65.0789 321,79.5C 336.894,100.118 348.727,122.951 356.5,148C 337.836,148.5 319.17,148.667 300.5,148.5C 300.355,119.287 294.521,91.2873 283,64.5C 280.894,59.2697 278.061,54.603 274.5,50.5 Z M 254.5,51.5 C 257.422,53.594 259.922,56.2607 262,59.5C 276.858,87.2657 284.358,116.932 284.5,148.5C 265.167,148.5 245.833,148.5 226.5,148.5C 226.382,113.283 235.716,80.9494 254.5,51.5 Z M 189.5,56.5 C 164.571,82.5081 147.237,113.008 137.5,148C 118.833,148.667 100.167,148.667 81.5,148C 104.236,101.805 140.236,71.3049 189.5,56.5 Z M 79.5,164.5 C 97.8454,164.167 116.179,164.5 134.5,165.5C 127.296,181.769 114.963,187.935 97.5,184C 88.1489,180.486 82.1489,173.986 79.5,164.5 Z M 153.5,164.5 C 171.833,164.5 190.167,164.5 208.5,164.5C 204.275,177.465 195.275,184.465 181.5,185.5C 167.536,184.521 158.203,177.521 153.5,164.5 Z M 227.5,165.5 C 245.995,164.338 264.662,164.171 283.5,165C 277.342,179.582 266.342,186.248 250.5,185C 239.55,182.205 231.883,175.705 227.5,165.5 Z M 302.5,164.5 C 320.845,164.167 339.179,164.5 357.5,165.5C 350.296,181.769 337.963,187.935 320.5,184C 311.149,180.486 305.149,173.986 302.5,164.5 Z M 376.5,164.5 C 394.833,164.5 413.167,164.5 431.5,164.5C 427.275,177.465 418.275,184.465 404.5,185.5C 390.536,184.521 381.203,177.521 376.5,164.5 Z M 246.5,200.5 C 252.5,201.833 258.5,201.833 264.5,200.5C 264.5,230.167 264.5,259.833 264.5,289.5C 258.5,289.5 252.5,289.5 246.5,289.5C 246.5,259.833 246.5,230.167 246.5,200.5 Z M 204.5,339.5 C 211.321,338.345 218.321,338.179 225.5,339C 255.167,380.667 284.833,422.333 314.5,464C 307.5,464.667 300.5,464.667 293.5,464C 263.934,422.345 234.268,380.845 204.5,339.5 Z M 245.5,339.5 C 251.987,338.346 258.654,338.179 265.5,339C 262.276,343.297 258.943,347.464 255.5,351.5C 252.159,347.469 248.825,343.469 245.5,339.5 Z M 285.5,338.5 C 292.508,338.334 299.508,338.5 306.5,339C 296.333,353.167 286.167,367.333 276,381.5C 272.305,376.638 268.805,371.638 265.5,366.5C 272.176,357.137 278.843,347.804 285.5,338.5 Z M 233.5,410.5 C 235.017,410.511 236.184,411.177 237,412.5C 239.833,416.667 242.667,420.833 245.5,425C 236.167,438 226.833,451 217.5,464C 210.5,464.667 203.5,464.667 196.5,464C 209.079,446.268 221.412,428.435 233.5,410.5 Z"/></g>
<g><path style="opacity:0.936" fill="#000000" d="M -0.5,289.5 C -0.5,285.167 -0.5,280.833 -0.5,276.5C 1.59151,272.572 4.59151,269.406 8.5,267C 15.9054,264.786 23.4054,262.952 31,261.5C 39.9958,262.165 45.6624,266.832 48,275.5C 55.6062,307.091 63.4395,338.591 71.5,370C 97.1667,370.333 122.833,370.667 148.5,371C 153.026,372.859 156.192,376.026 158,380.5C 158.667,390.5 158.667,400.5 158,410.5C 155.857,416.321 151.69,419.321 145.5,419.5C 150.241,436.962 154.907,454.462 159.5,472C 159.205,474.923 157.871,477.257 155.5,479C 149.244,480.103 142.911,480.603 136.5,480.5C 131.167,480.333 125.833,480.167 120.5,480C 118.754,479.529 117.087,478.862 115.5,478C 109.465,459.365 103.965,440.532 99,421.5C 96.3583,419.941 94.025,420.275 92,422.5C 87.1776,439.456 82.511,456.456 78,473.5C 77.2078,475.587 76.0412,477.421 74.5,479C 68.077,480.105 61.577,480.605 55,480.5C 48.423,480.605 41.923,480.105 35.5,479C 34.6667,478.167 33.8333,477.333 33,476.5C 32.3333,473.167 32.3333,469.833 33,466.5C 37.1667,451.333 41.3333,436.167 45.5,421C 45.3552,420.228 45.0219,419.561 44.5,419C 37.4808,416.649 32.3141,412.149 29,405.5C 19.4513,366.637 9.61797,327.97 -0.5,289.5 Z M 30.5,277.5 C 31.1174,277.611 31.6174,277.944 32,278.5C 40.4907,312.129 48.824,345.796 57,379.5C 57.3459,381.848 58.5125,383.681 60.5,385C 88.0781,386.483 115.745,386.983 143.5,386.5C 143.5,392.5 143.5,398.5 143.5,404.5C 112.832,404.667 82.1649,404.5 51.5,404C 47.1037,403.27 44.2704,400.77 43,396.5C 33.3556,358.257 24.189,319.924 15.5,281.5C 20.7285,280.611 25.7285,279.278 30.5,277.5 Z M 62.5,420.5 C 66.8333,420.5 71.1667,420.5 75.5,420.5C 71.7756,434.843 67.9423,449.177 64,463.5C 59.5503,464.8 55.0503,464.8 50.5,463.5C 54.5048,449.154 58.5048,434.821 62.5,420.5 Z M 115.5,420.5 C 120.099,420.2 124.599,420.533 129,421.5C 132.994,435.809 136.827,450.142 140.5,464.5C 136.116,464.826 131.783,464.492 127.5,463.5C 123.342,449.198 119.342,434.865 115.5,420.5 Z"/></g>
<g><path style="opacity:0.936" fill="#000000" d="M 511.5,276.5 C 511.5,280.833 511.5,285.167 511.5,289.5C 501.382,327.97 491.549,366.637 482,405.5C 478.686,412.149 473.519,416.649 466.5,419C 465.941,419.725 465.608,420.558 465.5,421.5C 469.768,436.471 473.935,451.471 478,466.5C 478.667,469.833 478.667,473.167 478,476.5C 477.167,477.333 476.333,478.167 475.5,479C 469.077,480.105 462.577,480.605 456,480.5C 449.423,480.605 442.923,480.105 436.5,479C 434.959,477.421 433.792,475.587 433,473.5C 428.489,456.456 423.822,439.456 419,422.5C 416.975,420.275 414.642,419.941 412,421.5C 407.035,440.532 401.535,459.365 395.5,478C 393.913,478.862 392.246,479.529 390.5,480C 385.167,480.167 379.833,480.333 374.5,480.5C 368.089,480.603 361.756,480.103 355.5,479C 353.129,477.257 351.795,474.923 351.5,472C 356.093,454.462 360.759,436.962 365.5,419.5C 359.31,419.321 355.143,416.321 353,410.5C 352.333,400.5 352.333,390.5 353,380.5C 354.808,376.026 357.974,372.859 362.5,371C 388.167,370.667 413.833,370.333 439.5,370C 447.56,338.591 455.394,307.091 463,275.5C 465.338,266.832 471.004,262.165 480,261.5C 487.595,262.952 495.095,264.786 502.5,267C 506.408,269.406 509.408,272.572 511.5,276.5 Z M 479.5,277.5 C 484.733,279.142 490.067,280.475 495.5,281.5C 486.811,319.924 477.644,358.257 468,396.5C 466.73,400.77 463.896,403.27 459.5,404C 428.835,404.5 398.168,404.667 367.5,404.5C 367.5,398.5 367.5,392.5 367.5,386.5C 395.255,386.983 422.922,386.483 450.5,385C 452.487,383.681 453.654,381.848 454,379.5C 462.195,345.386 470.695,311.386 479.5,277.5 Z M 382.5,420.5 C 386.884,420.174 391.217,420.508 395.5,421.5C 391.5,435.5 387.5,449.5 383.5,463.5C 379.217,464.492 374.884,464.826 370.5,464.5C 373.897,449.647 377.897,434.98 382.5,420.5 Z M 435.5,420.5 C 439.884,420.174 444.217,420.508 448.5,421.5C 452.703,435.442 456.703,449.442 460.5,463.5C 455.95,464.8 451.45,464.8 447,463.5C 443.058,449.177 439.224,434.843 435.5,420.5 Z"/></g>
</svg>
