<?xml version="1.0" encoding="UTF-8"?>
<!DOCTYPE svg PUBLIC "-//W3C//DTD SVG 1.1//EN" "http://www.w3.org/Graphics/SVG/1.1/DTD/svg11.dtd">
<svg xmlns="http://www.w3.org/2000/svg" version="1.1" width="512px" height="512px" style="shape-rendering:geometricPrecision; text-rendering:geometricPrecision; image-rendering:optimizeQuality; fill-rule:evenodd; clip-rule:evenodd" xmlns:xlink="http://www.w3.org/1999/xlink">
<g><path style="opacity:0.969" fill="#000000" d="M 122.5,-0.5 C 131.833,-0.5 141.167,-0.5 150.5,-0.5C 196.582,8.9173 223.249,36.9173 230.5,83.5C 240.833,83.5 251.167,83.5 261.5,83.5C 267.101,44.7994 288.101,18.2994 324.5,4C 330.253,2.31369 335.919,0.813694 341.5,-0.5C 350.833,-0.5 360.167,-0.5 369.5,-0.5C 403.824,6.26059 428.324,25.5939 443,57.5C 446.422,65.8553 448.589,74.522 449.5,83.5C 468.503,83.3334 487.503,83.5001 506.5,84C 508.362,85.3657 510.028,86.8657 511.5,88.5C 511.5,91.8333 511.5,95.1667 511.5,98.5C 510.028,100.134 508.362,101.634 506.5,103C 487.503,103.5 468.503,103.667 449.5,103.5C 449.333,174.834 449.5,246.167 450,317.5C 460.698,330.015 473.531,332.848 488.5,326C 491.128,324.374 493.461,322.374 495.5,320C 502.189,317.179 507.522,318.679 511.5,324.5C 511.5,327.5 511.5,330.5 511.5,333.5C 495.643,350.379 476.643,354.879 454.5,347C 446.943,342.776 439.943,337.776 433.5,332C 424.167,327.333 414.833,327.333 405.5,332C 385.584,352.403 362.918,356.069 337.5,343C 331.671,336.585 324.671,331.918 316.5,329C 303.9,327.133 293.566,331.133 285.5,341C 269.111,351.654 251.778,353.321 233.5,346C 227.264,342.433 221.597,338.1 216.5,333C 206.151,327.053 195.818,327.053 185.5,333C 165.065,352.83 142.398,355.83 117.5,342C 100.167,324 82.8333,324 65.5,342C 47.0688,352.951 28.4021,353.284 9.5,343C 5.63932,340.304 2.30598,337.137 -0.5,333.5C -0.5,330.5 -0.5,327.5 -0.5,324.5C 3.47783,318.679 8.81116,317.179 15.5,320C 26.5652,330.598 38.8985,332.264 52.5,325C 73.4453,304.836 96.4453,302.169 121.5,317C 131.481,329.106 143.814,332.439 158.5,327C 162.916,324.588 166.749,321.422 170,317.5C 170.5,246.167 170.667,174.834 170.5,103.5C 115.166,103.667 59.8323,103.5 4.5,103C 2.63834,101.634 0.971672,100.134 -0.5,98.5C -0.5,95.1667 -0.5,91.8333 -0.5,88.5C 0.971672,86.8657 2.63834,85.3657 4.5,84C 17.1667,83.6667 29.8333,83.3333 42.5,83C 50.6533,37.3481 77.32,9.51481 122.5,-0.5 Z M 135.5,19.5 C 170.505,21.5765 194.338,38.9098 207,71.5C 208.476,76.4057 209.476,81.4057 210,86.5C 210.667,160.5 210.667,234.5 210,308.5C 204,307.167 198,307.167 192,308.5C 191.667,234.833 191.333,161.167 191,87.5C 186.963,62.1277 172.463,46.2943 147.5,40C 118.701,36.1461 98.2013,47.3128 86,73.5C 84.8497,76.7679 84.0164,80.1012 83.5,83.5C 77.1667,83.5 70.8333,83.5 64.5,83.5C 72.3976,44.5996 96.0643,23.2662 135.5,19.5 Z M 354.5,19.5 C 382.559,20.607 404.059,32.9404 419,56.5C 425.389,68.0011 428.722,80.3344 429,93.5C 429.833,165.169 429.667,236.836 428.5,308.5C 422.5,307.167 416.5,307.167 410.5,308.5C 409.667,233.169 409.167,157.836 409,82.5C 403.5,59.6667 389.333,45.5 366.5,40C 332.946,36.5973 311.279,50.9306 301.5,83C 295.141,83.8306 288.807,83.6639 282.5,82.5C 291.672,44.3166 315.672,23.3166 354.5,19.5 Z M 136.5,59.5 C 151.758,60.7942 162.424,68.4609 168.5,82.5C 147.511,83.4997 126.511,83.833 105.5,83.5C 110.828,69.0059 121.161,61.0059 136.5,59.5 Z M 347.5,60.5 C 366.57,58.1163 379.904,65.6163 387.5,83C 366.167,83.6667 344.833,83.6667 323.5,83C 327.955,71.6243 335.955,64.1243 347.5,60.5 Z M 231.5,103.5 C 284.167,103.5 336.833,103.5 389.5,103.5C 389.5,112.833 389.5,122.167 389.5,131.5C 336.833,131.5 284.167,131.5 231.5,131.5C 231.5,122.167 231.5,112.833 231.5,103.5 Z M 231.5,151.5 C 284.167,151.5 336.833,151.5 389.5,151.5C 389.5,158.167 389.5,164.833 389.5,171.5C 336.833,171.5 284.167,171.5 231.5,171.5C 231.5,164.833 231.5,158.167 231.5,151.5 Z M 231.5,191.5 C 284.167,191.5 336.833,191.5 389.5,191.5C 389.5,200.833 389.5,210.167 389.5,219.5C 336.833,219.5 284.167,219.5 231.5,219.5C 231.5,210.167 231.5,200.833 231.5,191.5 Z M 231.5,239.5 C 284.167,239.5 336.833,239.5 389.5,239.5C 389.5,246.167 389.5,252.833 389.5,259.5C 376.496,259.333 363.496,259.5 350.5,260C 344.136,264.34 342.969,269.84 347,276.5C 347.903,277.701 349.069,278.535 350.5,279C 363.496,279.5 376.496,279.667 389.5,279.5C 389.667,292.171 389.5,304.838 389,317.5C 378.302,330.015 365.469,332.848 350.5,326C 330.017,305.285 307.017,301.952 281.5,316C 276.243,321.926 269.91,326.26 262.5,329C 256.747,329.851 251.08,329.517 245.5,328C 240.446,325.611 235.946,322.445 232,318.5C 231.5,305.504 231.333,292.504 231.5,279.5C 244.171,279.667 256.838,279.5 269.5,279C 275.542,275.252 277.042,270.085 274,263.5C 272.786,261.951 271.286,260.785 269.5,260C 256.838,259.5 244.171,259.333 231.5,259.5C 231.5,252.833 231.5,246.167 231.5,239.5 Z"/></g>
<g><path style="opacity:0.897" fill="#000000" d="M 305.5,259.5 C 316.49,257.992 321.324,262.658 320,273.5C 316.723,279.109 311.89,280.942 305.5,279C 297.555,272.503 297.555,266.003 305.5,259.5 Z"/></g>
<g><path style="opacity:0.943" fill="#000000" d="M 511.5,404.5 C 511.5,407.833 511.5,411.167 511.5,414.5C 492.635,433.099 471.302,436.266 447.5,424C 442.789,419.62 437.789,415.62 432.5,412C 423.833,407.333 415.167,407.333 406.5,412C 401.211,415.62 396.211,419.62 391.5,424C 367.395,436.311 345.728,432.978 326.5,414C 316.351,407.139 306.017,406.805 295.5,413C 268.833,437.667 242.167,437.667 215.5,413C 204.965,406.81 194.631,407.144 184.5,414C 165.272,432.978 143.605,436.311 119.5,424C 114.789,419.62 109.789,415.62 104.5,412C 95.8333,407.333 87.1667,407.333 78.5,412C 73.2114,415.62 68.2114,419.62 63.5,424C 39.6979,436.266 18.3645,433.099 -0.5,414.5C -0.5,411.167 -0.5,407.833 -0.5,404.5C 3.12734,399.954 7.79401,398.454 13.5,400C 30.7791,414.747 47.1124,413.747 62.5,397C 81.8333,384.333 101.167,384.333 120.5,397C 136.867,414.562 153.534,414.895 170.5,398C 195.861,382.479 219.194,385.146 240.5,406C 250.488,411.998 260.488,411.998 270.5,406C 296.833,381.333 323.167,381.333 349.5,406C 359.004,411.502 368.671,411.835 378.5,407C 405.833,381 433.167,381 460.5,407C 468.683,411.169 477.016,411.502 485.5,408C 489.5,405.333 493.5,402.667 497.5,400C 503.206,398.454 507.873,399.954 511.5,404.5 Z"/></g>
<g><path style="opacity:0.943" fill="#000000" d="M 511.5,485.5 C 511.5,488.5 511.5,491.5 511.5,494.5C 504.248,502.958 495.248,508.625 484.5,511.5C 477.833,511.5 471.167,511.5 464.5,511.5C 459.077,509.852 453.744,507.685 448.5,505C 442.833,500.667 437.167,496.333 431.5,492C 423.5,488.667 415.5,488.667 407.5,492C 401.833,496.333 396.167,500.667 390.5,505C 385.24,507.689 379.906,509.856 374.5,511.5C 367.833,511.5 361.167,511.5 354.5,511.5C 344.518,508.67 335.851,503.504 328.5,496C 319.242,489.158 309.242,487.825 298.5,492C 291.989,496.423 285.655,501.089 279.5,506C 274.841,508.158 270.175,509.991 265.5,511.5C 258.833,511.5 252.167,511.5 245.5,511.5C 240.825,509.991 236.159,508.158 231.5,506C 225.345,501.089 219.011,496.423 212.5,492C 198.191,486.911 186.191,490.245 176.5,502C 170.26,506.237 163.593,509.404 156.5,511.5C 149.833,511.5 143.167,511.5 136.5,511.5C 131.077,509.852 125.744,507.685 120.5,505C 114.833,500.667 109.167,496.333 103.5,492C 95.5,488.667 87.5,488.667 79.5,492C 73.8333,496.333 68.1667,500.667 62.5,505C 57.2397,507.689 51.9064,509.856 46.5,511.5C 39.8333,511.5 33.1667,511.5 26.5,511.5C 15.7182,508.612 6.71824,502.945 -0.5,494.5C -0.5,491.5 -0.5,488.5 -0.5,485.5C 4.02692,479.188 9.69359,478.021 16.5,482C 26.2961,491.158 37.2961,493.158 49.5,488C 54.7886,484.38 59.7886,480.38 64.5,476C 82.5,466 100.5,466 118.5,476C 136.379,495.693 154.379,496.027 172.5,477C 197.124,463.262 219.458,466.262 239.5,486C 250.167,492 260.833,492 271.5,486C 291.542,466.262 313.876,463.262 338.5,477C 356.621,496.027 374.621,495.693 392.5,476C 410.5,466 428.5,466 446.5,476C 453.878,484.437 463.045,489.603 474,491.5C 482.02,490.907 488.854,487.74 494.5,482C 501.306,478.021 506.973,479.188 511.5,485.5 Z"/></g>
</svg>
