<?xml version="1.0" encoding="UTF-8"?>
<!DOCTYPE svg PUBLIC "-//W3C//DTD SVG 1.1//EN" "http://www.w3.org/Graphics/SVG/1.1/DTD/svg11.dtd">
<svg xmlns="http://www.w3.org/2000/svg" version="1.1" width="512px" height="512px" style="shape-rendering:geometricPrecision; text-rendering:geometricPrecision; image-rendering:optimizeQuality; fill-rule:evenodd; clip-rule:evenodd" xmlns:xlink="http://www.w3.org/1999/xlink">
<g><path style="opacity:0.945" fill="#000000" d="M 199.5,-0.5 C 202.5,-0.5 205.5,-0.5 208.5,-0.5C 210.696,0.854084 212.196,2.85408 213,5.5C 213.5,14.8274 213.666,24.1607 213.5,33.5C 241.5,33.5 269.5,33.5 297.5,33.5C 297.334,24.1607 297.5,14.8274 298,5.5C 298.804,2.85408 300.304,0.854084 302.5,-0.5C 305.5,-0.5 308.5,-0.5 311.5,-0.5C 312.836,1.01027 314.003,2.67694 315,4.5C 315.5,28.1643 315.667,51.831 315.5,75.5C 347.168,75.3334 378.835,75.5 410.5,76C 420.839,77.336 428.006,82.836 432,92.5C 458.535,221.287 485.035,349.954 511.5,478.5C 511.5,483.5 511.5,488.5 511.5,493.5C 507.833,501.833 501.833,507.833 493.5,511.5C 334.833,511.5 176.167,511.5 17.5,511.5C 9.16667,507.833 3.16667,501.833 -0.5,493.5C -0.5,488.5 -0.5,483.5 -0.5,478.5C 25.9645,349.954 52.4645,221.287 79,92.5C 82.9944,82.836 90.1611,77.336 100.5,76C 132.165,75.5 163.832,75.3334 195.5,75.5C 195.333,51.831 195.5,28.1643 196,4.5C 196.997,2.67694 198.164,1.01027 199.5,-0.5 Z M 213.5,51.5 C 241.5,51.5 269.5,51.5 297.5,51.5C 297.5,59.5 297.5,67.5 297.5,75.5C 269.5,75.5 241.5,75.5 213.5,75.5C 213.5,67.5 213.5,59.5 213.5,51.5 Z M 102.5,93.5 C 133.5,93.5 164.5,93.5 195.5,93.5C 195.333,117.502 195.5,141.502 196,165.5C 198.541,170.069 202.375,171.569 207.5,170C 209.286,169.215 210.786,168.049 212,166.5C 213.449,156.605 213.949,146.605 213.5,136.5C 241.5,136.5 269.5,136.5 297.5,136.5C 297.051,146.605 297.551,156.605 299,166.5C 302.854,170.671 307.354,171.504 312.5,169C 313.701,168.097 314.535,166.931 315,165.5C 315.5,141.502 315.667,117.502 315.5,93.5C 346.502,93.3334 377.502,93.5 408.5,94C 411.573,94.7386 413.74,96.5719 415,99.5C 440.961,225.639 466.795,351.806 492.5,478C 494.683,483.796 493.683,488.796 489.5,493C 333.5,493.667 177.5,493.667 21.5,493C 17.6729,489.692 16.5063,485.526 18,480.5C 43.8261,352.702 70.1595,225.035 97,97.5C 98.4998,95.5313 100.333,94.198 102.5,93.5 Z M 213.5,93.5 C 241.5,93.5 269.5,93.5 297.5,93.5C 297.5,101.833 297.5,110.167 297.5,118.5C 269.5,118.5 241.5,118.5 213.5,118.5C 213.5,110.167 213.5,101.833 213.5,93.5 Z"/></g>
<g><path style="opacity:0.941" fill="#000000" d="M 123.5,109.5 C 139.17,109.333 154.837,109.5 170.5,110C 179.1,112.373 181.266,117.539 177,125.5C 176.25,126.126 175.416,126.626 174.5,127C 157.837,127.5 141.17,127.667 124.5,127.5C 102.167,238.163 79.8341,348.829 57.5,459.5C 189.5,459.5 321.5,459.5 453.5,459.5C 431.166,348.829 408.833,238.163 386.5,127.5C 369.83,127.667 353.163,127.5 336.5,127C 329.833,121.667 329.833,116.333 336.5,111C 345.609,109.89 354.776,109.39 364,109.5C 373.548,109.405 383.048,109.905 392.5,111C 397.573,112.406 401.073,115.572 403,120.5C 426.231,233.822 449.398,347.156 472.5,460.5C 471.761,468.401 467.761,473.901 460.5,477C 323.833,477.667 187.167,477.667 50.5,477C 40.2854,471.735 36.7854,463.569 40,452.5C 62.6206,341.063 85.6206,229.729 109,118.5C 112.47,113.177 117.304,110.177 123.5,109.5 Z"/></g>
<g><path style="opacity:0.924" fill="#000000" d="M 259.5,187.5 C 262.518,187.335 265.518,187.502 268.5,188C 271.934,192.19 275.6,196.19 279.5,200C 284.176,202.614 289.176,204.281 294.5,205C 298.671,208.854 299.504,213.354 297,218.5C 296.097,219.701 294.931,220.535 293.5,221C 282.328,222.054 272.495,218.887 264,211.5C 254.986,220.044 244.486,222.878 232.5,220C 228.301,214.719 228.634,209.719 233.5,205C 241.067,204.482 247.567,201.649 253,196.5C 254.686,193.117 256.853,190.117 259.5,187.5 Z"/></g>
<g><path style="opacity:0.922" fill="#000000" d="M 158.5,195.5 C 162.131,195.16 165.464,195.994 168.5,198C 173.46,207.818 181.46,213.152 192.5,214C 198.138,220.116 197.471,225.449 190.5,230C 179.79,230.43 170.29,227.263 162,220.5C 154.579,226.041 146.246,229.374 137,230.5C 127.841,229.19 125.174,224.19 129,215.5C 135.767,213.46 142.267,210.627 148.5,207C 151.507,202.774 154.84,198.94 158.5,195.5 Z"/></g>
<g><path style="opacity:0.928" fill="#000000" d="M 354.5,221.5 C 361.748,220.578 366.582,223.578 369,230.5C 370.558,232.359 372.391,233.859 374.5,235C 379.5,236.667 384.5,238.333 389.5,240C 392.803,243.795 393.303,247.962 391,252.5C 390.097,253.701 388.931,254.535 387.5,255C 376.171,256.446 366.337,253.279 358,245.5C 349.34,253.409 339.174,256.575 327.5,255C 322.167,249.667 322.167,244.333 327.5,239C 333.687,238.368 339.354,236.368 344.5,233C 347.507,228.774 350.84,224.94 354.5,221.5 Z"/></g>
<g><path style="opacity:0.924" fill="#000000" d="M 203.5,263.5 C 209.234,264.067 213.067,267.067 215,272.5C 216.873,274.709 219.04,276.542 221.5,278C 226.547,279.562 231.547,281.228 236.5,283C 238.942,287.052 239.109,291.219 237,295.5C 234.867,297.853 232.2,298.853 229,298.5C 219.728,297.8 211.561,294.467 204.5,288.5C 197.301,294.182 189.135,297.515 180,298.5C 170.943,297.719 167.943,293.052 171,284.5C 172.214,282.951 173.714,281.785 175.5,281C 179.653,280.616 183.653,279.616 187.5,278C 191.947,274.13 195.947,269.796 199.5,265C 201.058,264.79 202.391,264.29 203.5,263.5 Z"/></g>
<g><path style="opacity:0.923" fill="#000000" d="M 302.5,281.5 C 305.518,281.335 308.518,281.502 311.5,282C 314.855,286.352 318.521,290.352 322.5,294C 327.176,296.614 332.176,298.281 337.5,299C 343.102,304.672 342.768,310.005 336.5,315C 325.179,315.948 315.179,312.782 306.5,305.5C 297.571,313.758 287.237,316.592 275.5,314C 272.171,309.863 271.671,305.363 274,300.5C 279.815,298.385 285.648,296.219 291.5,294C 295.547,290.002 299.214,285.835 302.5,281.5 Z"/></g>
<g><path style="opacity:0.92" fill="#000000" d="M 133.5,306.5 C 136.32,306.248 138.986,306.748 141.5,308C 147.146,318.164 155.812,323.831 167.5,325C 172.157,331.403 171.157,336.737 164.5,341C 153.51,341.59 144.01,338.09 136,330.5C 127.355,338.94 117.188,342.106 105.5,340C 101.329,336.146 100.496,331.646 103,326.5C 103.903,325.299 105.069,324.465 106.5,324C 117.497,323.168 125.497,317.834 130.5,308C 131.737,307.768 132.737,307.268 133.5,306.5 Z"/></g>
<g><path style="opacity:0.926" fill="#000000" d="M 234.5,332.5 C 237.978,332.184 241.312,332.684 244.5,334C 249.448,343.814 257.448,349.147 268.5,350C 273.833,355.333 273.833,360.667 268.5,366C 257.068,367.356 247.068,364.189 238.5,356.5C 229.159,365.169 218.492,367.836 206.5,364.5C 202.704,360.337 202.538,356.004 206,351.5C 211.855,349.459 217.688,347.292 223.5,345C 227.076,340.627 230.743,336.46 234.5,332.5 Z"/></g>
<g><path style="opacity:0.926" fill="#000000" d="M 362.5,332.5 C 365.978,332.184 369.312,332.684 372.5,334C 377.448,343.814 385.448,349.147 396.5,350C 401.833,355.333 401.833,360.667 396.5,366C 385.068,367.356 375.068,364.189 366.5,356.5C 357.159,365.169 346.492,367.836 334.5,364.5C 330.704,360.337 330.538,356.004 334,351.5C 339.855,349.459 345.688,347.292 351.5,345C 355.076,340.627 358.743,336.46 362.5,332.5 Z"/></g>
<g><path style="opacity:0.924" fill="#000000" d="M 132.5,383.5 C 139.748,382.578 144.582,385.578 147,392.5C 152.74,397.953 159.574,401.119 167.5,402C 172.757,409.886 170.923,415.386 162,418.5C 152.055,417.744 143.389,414.077 136,407.5C 127.227,415.538 117.061,418.704 105.5,417C 101.329,413.146 100.496,408.646 103,403.5C 103.903,402.299 105.069,401.465 106.5,401C 111.846,400.332 116.846,398.666 121.5,396C 125.061,391.614 128.727,387.448 132.5,383.5 Z"/></g>
<g><path style="opacity:0.921" fill="#000000" d="M 279.5,391.5 C 282.311,391.826 284.978,392.659 287.5,394C 292.467,403.821 300.467,409.154 311.5,410C 315.788,413.771 316.621,418.271 314,423.5C 313.097,424.701 311.931,425.535 310.5,426C 299.3,427.044 289.466,423.878 281,416.5C 273.936,422.446 265.769,425.779 256.5,426.5C 247.83,425.504 244.996,420.838 248,412.5C 249.214,410.951 250.714,409.785 252.5,409C 262.196,408.497 269.196,403.997 273.5,395.5C 275.29,393.684 277.29,392.351 279.5,391.5 Z"/></g>
<g><path style="opacity:0.924" fill="#000000" d="M 382.5,391.5 C 388.201,392.027 392.034,395.027 394,400.5C 399.685,405.959 406.519,409.126 414.5,410C 419.811,416.086 419.145,421.42 412.5,426C 401.544,426.737 391.877,423.57 383.5,416.5C 374.456,424.352 364.123,427.186 352.5,425C 348.027,420.94 347.527,416.44 351,411.5C 355.969,409.299 361.135,407.466 366.5,406C 371.412,402.509 375.412,398.176 378.5,393C 380.058,392.79 381.391,392.29 382.5,391.5 Z"/></g>
</svg>
