<?xml version="1.0" encoding="UTF-8"?>
<!DOCTYPE svg PUBLIC "-//W3C//DTD SVG 1.1//EN" "http://www.w3.org/Graphics/SVG/1.1/DTD/svg11.dtd">
<svg xmlns="http://www.w3.org/2000/svg" version="1.1" width="512px" height="512px" style="shape-rendering:geometricPrecision; text-rendering:geometricPrecision; image-rendering:optimizeQuality; fill-rule:evenodd; clip-rule:evenodd" xmlns:xlink="http://www.w3.org/1999/xlink">
<g><path style="opacity:0.988" fill="#FFFF" d="M 241.5,31.5 C 285.174,27.9232 319.008,44.2565 343,80.5C 359.437,111.873 360.771,143.873 347,176.5C 324.909,216.803 290.743,235.637 244.5,233C 194.217,224.716 164.383,195.55 155,145.5C 151.245,102.181 167.412,68.6814 203.5,45C 215.477,38.1767 228.144,33.6767 241.5,31.5 Z"/></g>
<g><path style="opacity:0.958" fill="#FFFF" d="M 222.5,247.5 C 244.5,247.5 266.5,247.5 288.5,247.5C 288.666,255.507 288.5,263.507 288,271.5C 281.681,292.082 267.847,300.582 246.5,297C 234.236,293.07 226.403,284.903 223,272.5C 222.5,264.173 222.334,255.84 222.5,247.5 Z"/></g>
<g><path style="opacity:0.988" fill="#FFFF" d="M 196.5,250.5 C 197.833,250.5 199.167,250.5 200.5,250.5C 198.491,268.002 202.325,284.002 212,298.5C 215.7,302.535 219.7,306.202 224,309.5C 219.86,366.208 215.027,422.875 209.5,479.5C 174.498,479.667 139.498,479.5 104.5,479C 85.5548,473.389 75.5548,460.722 74.5,441C 78.8577,411.353 84.0244,381.853 90,352.5C 107.124,299.207 142.624,265.207 196.5,250.5 Z"/></g>
<g><path style="opacity:0.988" fill="#FFFF" d="M 310.5,251.5 C 365.064,265.064 400.897,298.73 418,352.5C 424.679,382.563 430.846,412.729 436.5,443C 435.145,459.683 426.812,471.35 411.5,478C 374.882,479.475 338.215,479.975 301.5,479.5C 295.973,422.875 291.14,366.208 287,309.5C 305.648,294.757 313.481,275.424 310.5,251.5 Z"/></g>
<g><path style="opacity:0.966" fill="#FFFF" d="M 246.5,319.5 C 252.5,319.5 258.5,319.5 264.5,319.5C 270.028,372.776 275.028,426.109 279.5,479.5C 263.5,479.5 247.5,479.5 231.5,479.5C 235.972,426.109 240.972,372.776 246.5,319.5 Z"/></g>
</svg>
