<?xml version="1.0" encoding="UTF-8"?>
<!DOCTYPE svg PUBLIC "-//W3C//DTD SVG 1.1//EN" "http://www.w3.org/Graphics/SVG/1.1/DTD/svg11.dtd">
<svg xmlns="http://www.w3.org/2000/svg" version="1.1" width="512px" height="512px" style="shape-rendering:geometricPrecision; text-rendering:geometricPrecision; image-rendering:optimizeQuality; fill-rule:evenodd; clip-rule:evenodd" xmlns:xlink="http://www.w3.org/1999/xlink">
<g><path style="opacity:0.952" fill="#FFFF" d="M 240.5,19.5 C 284.413,15.6136 319.246,31.2803 345,66.5C 368.584,106.386 368.251,146.053 344,185.5C 316.561,222.211 280.061,237.044 234.5,230C 188.139,218.972 159.973,190.139 150,143.5C 144.53,96.5253 161.364,60.0253 200.5,34C 213.197,27.0486 226.531,22.2153 240.5,19.5 Z M 254.5,43.5 C 295.899,46.0824 322.733,67.0824 335,106.5C 342.26,150.149 326.093,181.649 286.5,201C 245.079,214.415 211.579,203.581 186,168.5C 167.776,135.524 169.776,103.858 192,73.5C 208.84,54.9953 229.673,44.9953 254.5,43.5 Z"/></g>
<g><path style="opacity:0.965" fill="#FFFF" d="M 211.5,247.5 C 239.835,247.333 268.169,247.5 296.5,248C 357.383,256.892 399.55,289.726 423,346.5C 425.405,353.047 427.405,359.714 429,366.5C 434.461,392.806 439.795,419.139 445,445.5C 448.387,469.588 438.553,485.088 415.5,492C 309.5,492.667 203.5,492.667 97.5,492C 75.4927,485.974 64.9927,471.474 66,448.5C 70.0088,421.447 74.3421,394.447 79,367.5C 92.7593,312.405 126.259,274.905 179.5,255C 190.104,251.65 200.771,249.15 211.5,247.5 Z M 279.5,271.5 C 282.473,272.084 285.473,272.751 288.5,273.5C 278.281,298.444 260.948,305.278 236.5,294C 229.473,288.781 224.807,281.947 222.5,273.5C 241.662,272.833 260.662,272.167 279.5,271.5 Z M 195.5,275.5 C 196.497,275.47 197.164,275.97 197.5,277C 201.056,292.557 209.39,304.891 222.5,314C 216.436,364.745 210.769,415.578 205.5,466.5C 169.832,466.667 134.165,466.5 98.5,466C 93.2852,462.786 90.6186,458.119 90.5,452C 94.2938,425.444 98.4604,398.944 103,372.5C 116.338,323.331 147.172,290.998 195.5,275.5 Z M 312.5,277.5 C 359.169,291.336 389.336,321.67 403,368.5C 408.834,397.003 414.667,425.503 420.5,454C 418.655,461.838 413.655,466.171 405.5,467C 372.168,467.5 338.835,467.667 305.5,467.5C 300.231,416.578 294.564,365.745 288.5,315C 301.168,305.499 309.168,292.999 312.5,277.5 Z M 245.5,323.5 C 252.167,323.5 258.833,323.5 265.5,323.5C 270.5,371.501 275.5,419.501 280.5,467.5C 263.833,467.5 247.167,467.5 230.5,467.5C 235.5,419.501 240.5,371.501 245.5,323.5 Z"/></g>
</svg>
