<?xml version="1.0" encoding="UTF-8"?>
<!DOCTYPE svg PUBLIC "-//W3C//DTD SVG 1.1//EN" "http://www.w3.org/Graphics/SVG/1.1/DTD/svg11.dtd">
<svg xmlns="http://www.w3.org/2000/svg" version="1.1" width="512px" height="512px" style="shape-rendering:geometricPrecision; text-rendering:geometricPrecision; image-rendering:optimizeQuality; fill-rule:evenodd; clip-rule:evenodd" xmlns:xlink="http://www.w3.org/1999/xlink">
<g><path style="opacity:0.972" fill="#000000" d="M 378.5,14.5 C 401.479,12.2982 413.479,22.6315 414.5,45.5C 443.402,44.8831 454.902,58.5498 449,86.5C 445.381,93.4509 439.881,98.2842 432.5,101C 417.21,102.126 401.876,102.626 386.5,102.5C 371.124,102.626 355.79,102.126 340.5,101C 320.891,91.5067 316.058,77.0067 326,57.5C 334.506,47.5085 345.339,43.5085 358.5,45.5C 357.89,30.3704 364.556,20.037 378.5,14.5 Z"/></g>
<g><path style="opacity:0.978" fill="#000000" d="M 122.5,67.5 C 144.013,67.347 155.013,78.0137 155.5,99.5C 177.292,97.0346 189.625,106.535 192.5,128C 191.515,141.655 184.515,150.655 171.5,155C 141.833,155.667 112.167,155.667 82.5,155C 65.3997,148.639 58.8997,136.472 63,118.5C 69.7959,103.18 81.6292,96.8469 98.5,99.5C 98.3194,82.4718 106.319,71.8051 122.5,67.5 Z"/></g>
<g><path style="opacity:0.955" fill="#000000" d="M 93.5,205.5 C 119.912,221.884 145.912,239.051 171.5,257C 120.168,257.5 68.8344,257.667 17.5,257.5C 17.5,246.167 17.5,234.833 17.5,223.5C 27.8333,223.5 38.1667,223.5 48.5,223.5C 48.1758,227.555 48.5091,231.555 49.5,235.5C 64.4817,225.832 79.1484,215.832 93.5,205.5 Z"/></g>
<g><path style="opacity:0.957" fill="#000000" d="M 254.5,205.5 C 280.957,221.901 306.957,239.067 332.5,257C 281.168,257.5 229.834,257.667 178.5,257.5C 178.5,246.167 178.5,234.833 178.5,223.5C 188.833,223.5 199.167,223.5 209.5,223.5C 209.176,227.555 209.509,231.555 210.5,235.5C 225.482,225.832 240.148,215.832 254.5,205.5 Z"/></g>
<g><path style="opacity:0.954" fill="#000000" d="M 414.5,205.5 C 441.114,221.592 467.114,238.758 492.5,257C 441.168,257.5 389.834,257.667 338.5,257.5C 338.5,246.167 338.5,234.833 338.5,223.5C 348.833,223.5 359.167,223.5 369.5,223.5C 369.334,227.846 369.501,232.179 370,236.5C 385.013,226.304 399.846,215.97 414.5,205.5 Z"/></g>
<g><path style="opacity:0.979" fill="#000000" d="M -0.5,286.5 C 170.167,286.5 340.833,286.5 511.5,286.5C 511.5,329.833 511.5,373.167 511.5,416.5C 493.167,416.5 474.833,416.5 456.5,416.5C 456.667,405.495 456.5,394.495 456,383.5C 449.32,356.401 432.153,345.234 404.5,350C 390.064,355.435 380.898,365.601 377,380.5C 376.5,392.495 376.333,404.495 376.5,416.5C 349.5,416.5 322.5,416.5 295.5,416.5C 295.667,404.495 295.5,392.495 295,380.5C 289.483,360.645 276.483,349.978 256,348.5C 234.09,349.743 220.757,361.076 216,382.5C 215.5,393.828 215.333,405.162 215.5,416.5C 188.5,416.5 161.5,416.5 134.5,416.5C 134.667,404.495 134.5,392.495 134,380.5C 126.224,355.399 109.391,345.232 83.5,350C 67.1581,355.342 57.6581,366.509 55,383.5C 54.5002,394.495 54.3335,405.495 54.5,416.5C 36.1667,416.5 17.8333,416.5 -0.5,416.5C -0.5,373.167 -0.5,329.833 -0.5,286.5 Z M 54.5,305.5 C 81.1667,305.5 107.833,305.5 134.5,305.5C 134.5,315.167 134.5,324.833 134.5,334.5C 107.833,334.5 81.1667,334.5 54.5,334.5C 54.5,324.833 54.5,315.167 54.5,305.5 Z M 215.5,305.5 C 242.167,305.5 268.833,305.5 295.5,305.5C 295.5,315.167 295.5,324.833 295.5,334.5C 268.833,334.5 242.167,334.5 215.5,334.5C 215.5,324.833 215.5,315.167 215.5,305.5 Z M 376.5,305.5 C 403.167,305.5 429.833,305.5 456.5,305.5C 456.5,315.167 456.5,324.833 456.5,334.5C 429.833,334.5 403.167,334.5 376.5,334.5C 376.5,324.833 376.5,315.167 376.5,305.5 Z"/></g>
<g><path style="opacity:0.945" fill="#000000" d="M 90.5,377.5 C 96.7342,376.373 101.568,378.373 105,383.5C 105.5,394.495 105.667,405.495 105.5,416.5C 98.1667,416.5 90.8333,416.5 83.5,416.5C 83.3335,406.161 83.5002,395.828 84,385.5C 85.3046,382.039 87.4713,379.372 90.5,377.5 Z"/></g>
<g><path style="opacity:0.946" fill="#000000" d="M 251.5,377.5 C 258.204,376.27 263.038,378.603 266,384.5C 266.5,395.161 266.667,405.828 266.5,416.5C 259.167,416.5 251.833,416.5 244.5,416.5C 244.334,406.161 244.5,395.828 245,385.5C 246.277,382.062 248.443,379.395 251.5,377.5 Z"/></g>
<g><path style="opacity:0.945" fill="#000000" d="M 412.5,377.5 C 419.617,376.14 424.451,378.807 427,385.5C 427.5,395.828 427.666,406.161 427.5,416.5C 420.167,416.5 412.833,416.5 405.5,416.5C 405.333,405.495 405.5,394.495 406,383.5C 407.494,380.686 409.66,378.686 412.5,377.5 Z"/></g>
<g><path style="opacity:0.982" fill="#000000" d="M -0.5,446.5 C 170.167,446.5 340.833,446.5 511.5,446.5C 511.5,463.167 511.5,479.833 511.5,496.5C 340.833,496.5 170.167,496.5 -0.5,496.5C -0.5,479.833 -0.5,463.167 -0.5,446.5 Z"/></g>
</svg>
