<?xml version="1.0" encoding="UTF-8"?>
<!DOCTYPE svg PUBLIC "-//W3C//DTD SVG 1.1//EN" "http://www.w3.org/Graphics/SVG/1.1/DTD/svg11.dtd">
<svg xmlns="http://www.w3.org/2000/svg" version="1.1" width="512px" height="512px" style="shape-rendering:geometricPrecision; text-rendering:geometricPrecision; image-rendering:optimizeQuality; fill-rule:evenodd; clip-rule:evenodd" xmlns:xlink="http://www.w3.org/1999/xlink">
<g><path style="opacity:0.965" fill="#000000" d="M 376.5,7.5 C 402.229,4.51722 419.562,15.0172 428.5,39C 456.003,45.1542 468.503,62.3208 466,90.5C 460.826,110.009 448.326,121.509 428.5,125C 400.167,125.667 371.833,125.667 343.5,125C 319.895,120.392 307.228,106.059 305.5,82C 307.573,57.6795 320.573,43.1795 344.5,38.5C 349.978,22.6869 360.645,12.3536 376.5,7.5 Z M 381.5,38.5 C 388.063,37.1192 393.23,39.1192 397,44.5C 398.406,52.7492 398.906,61.0826 398.5,69.5C 408.557,69.1355 418.557,69.6355 428.5,71C 436.958,77.2164 437.625,84.2164 430.5,92C 428.913,92.8624 427.246,93.5291 425.5,94C 399.167,94.6667 372.833,94.6667 346.5,94C 338.666,90.8304 335.833,85.3304 338,77.5C 339.5,74.6667 341.667,72.5 344.5,71C 354.434,69.6048 364.434,69.1048 374.5,69.5C 374.334,61.8261 374.5,54.1594 375,46.5C 376.305,43.0386 378.471,40.372 381.5,38.5 Z"/></g>
<g><path style="opacity:0.965" fill="#000000" d="M 121.5,60.5 C 145.224,59.6885 161.224,70.3552 169.5,92.5C 197.86,99.5534 210.027,117.553 206,146.5C 201.399,163.435 190.565,173.935 173.5,178C 142.5,178.667 111.5,178.667 80.5,178C 63.8484,174.015 53.015,163.848 48,147.5C 43.5697,118.105 55.7363,99.7715 84.5,92.5C 90.7423,74.5788 103.076,63.9121 121.5,60.5 Z M 124.5,91.5 C 130.855,91.0197 135.355,93.6864 138,99.5C 139.363,107.429 139.863,115.429 139.5,123.5C 148.506,123.334 157.506,123.5 166.5,124C 175.66,127.481 178.16,133.648 174,142.5C 172.457,144.378 170.624,145.878 168.5,147C 140.833,147.667 113.167,147.667 85.5,147C 76.2033,141.183 75.2033,134.183 82.5,126C 84.087,125.138 85.7536,124.471 87.5,124C 96.4938,123.5 105.494,123.334 114.5,123.5C 114.13,115.097 114.63,106.764 116,98.5C 118.217,95.3227 121.05,92.9893 124.5,91.5 Z"/></g>
<g><path style="opacity:0.971" fill="#000000" d="M 511.5,276.5 C 511.5,352.5 511.5,428.5 511.5,504.5C 340.833,504.5 170.167,504.5 -0.5,504.5C -0.5,428.833 -0.5,353.167 -0.5,277.5C 5.39132,273.633 11.2247,269.633 17,265.5C 17.4999,254.172 17.6665,242.838 17.5,231.5C 27.8333,231.5 38.1667,231.5 48.5,231.5C 48.3343,235.846 48.501,240.179 49,244.5C 64.1775,233.913 79.5108,223.58 95,213.5C 121.941,231.05 148.775,248.717 175.5,266.5C 176.442,266.392 177.275,266.059 178,265.5C 178.5,254.172 178.667,242.838 178.5,231.5C 188.833,231.5 199.167,231.5 209.5,231.5C 209.176,235.555 209.509,239.555 210.5,243.5C 225.5,233.5 240.5,223.5 255.5,213.5C 282.592,231.128 309.425,249.128 336,267.5C 336.667,266.833 337.333,266.167 338,265.5C 338.5,254.172 338.667,242.838 338.5,231.5C 348.833,231.5 359.167,231.5 369.5,231.5C 369.334,235.846 369.501,240.179 370,244.5C 385.177,233.913 400.511,223.58 416,213.5C 447.788,234.639 479.621,255.639 511.5,276.5 Z M 93.5,251.5 C 95.3084,251.491 96.9751,251.991 98.5,253C 106.833,258.667 115.167,264.333 123.5,270C 104.5,270.667 85.5,270.667 66.5,270C 75.9134,264.305 84.9134,258.138 93.5,251.5 Z M 254.5,251.5 C 264.834,256.976 274.834,263.142 284.5,270C 265.5,270.667 246.5,270.667 227.5,270C 236.566,263.811 245.566,257.644 254.5,251.5 Z M 414.5,251.5 C 416.308,251.491 417.975,251.991 419.5,253C 427.833,258.667 436.167,264.333 444.5,270C 425.5,270.667 406.5,270.667 387.5,270C 396.913,264.305 405.913,258.138 414.5,251.5 Z M 30.5,301.5 C 73.5,301.5 116.5,301.5 159.5,301.5C 159.5,342.5 159.5,383.5 159.5,424.5C 151.833,424.5 144.167,424.5 136.5,424.5C 136.667,413.495 136.5,402.495 136,391.5C 130.344,365.532 114.178,353.698 87.5,356C 70.4346,360.065 59.6013,370.565 55,387.5C 54.5001,399.829 54.3335,412.162 54.5,424.5C 46.5,424.5 38.5,424.5 30.5,424.5C 30.5,383.5 30.5,342.5 30.5,301.5 Z M 190.5,301.5 C 233.833,301.5 277.167,301.5 320.5,301.5C 320.5,342.5 320.5,383.5 320.5,424.5C 312.5,424.5 304.5,424.5 296.5,424.5C 296.667,412.495 296.5,400.495 296,388.5C 290.796,367.629 277.463,356.629 256,355.5C 233.144,356.425 219.477,368.092 215,390.5C 214.5,401.828 214.333,413.162 214.5,424.5C 206.5,424.5 198.5,424.5 190.5,424.5C 190.5,383.5 190.5,342.5 190.5,301.5 Z M 351.5,301.5 C 394.5,301.5 437.5,301.5 480.5,301.5C 480.5,342.5 480.5,383.5 480.5,424.5C 472.833,424.5 465.167,424.5 457.5,424.5C 457.667,413.495 457.5,402.495 457,391.5C 451.344,365.532 435.178,353.698 408.5,356C 391.435,360.065 380.601,370.565 376,387.5C 375.5,399.829 375.333,412.162 375.5,424.5C 367.5,424.5 359.5,424.5 351.5,424.5C 351.5,383.5 351.5,342.5 351.5,301.5 Z M 92.5,386.5 C 97.3473,385.84 101.181,387.507 104,391.5C 105.431,402.422 105.931,413.422 105.5,424.5C 98.8333,424.5 92.1667,424.5 85.5,424.5C 85.3335,413.828 85.5002,403.161 86,392.5C 87.4361,389.558 89.6028,387.558 92.5,386.5 Z M 252.5,386.5 C 257.948,385.975 262.115,387.975 265,392.5C 265.5,403.161 265.667,413.828 265.5,424.5C 258.833,424.5 252.167,424.5 245.5,424.5C 245.334,414.494 245.5,404.494 246,394.5C 247.277,391.062 249.443,388.395 252.5,386.5 Z M 413.5,386.5 C 418.347,385.84 422.181,387.507 425,391.5C 426.431,402.422 426.931,413.422 426.5,424.5C 419.833,424.5 413.167,424.5 406.5,424.5C 406.333,413.828 406.5,403.161 407,392.5C 408.436,389.558 410.603,387.558 413.5,386.5 Z M 30.5,455.5 C 180.5,455.5 330.5,455.5 480.5,455.5C 480.5,461.5 480.5,467.5 480.5,473.5C 330.5,473.5 180.5,473.5 30.5,473.5C 30.5,467.5 30.5,461.5 30.5,455.5 Z"/></g>
<g><path style="opacity:0.961" fill="#000000" d="M 54.5,312.5 C 81.8333,312.5 109.167,312.5 136.5,312.5C 136.5,322.833 136.5,333.167 136.5,343.5C 109.167,343.5 81.8333,343.5 54.5,343.5C 54.5,333.167 54.5,322.833 54.5,312.5 Z"/></g>
<g><path style="opacity:0.961" fill="#000000" d="M 214.5,312.5 C 241.833,312.5 269.167,312.5 296.5,312.5C 296.5,322.833 296.5,333.167 296.5,343.5C 269.167,343.5 241.833,343.5 214.5,343.5C 214.5,333.167 214.5,322.833 214.5,312.5 Z"/></g>
<g><path style="opacity:0.961" fill="#000000" d="M 375.5,312.5 C 402.833,312.5 430.167,312.5 457.5,312.5C 457.5,322.833 457.5,333.167 457.5,343.5C 430.167,343.5 402.833,343.5 375.5,343.5C 375.5,333.167 375.5,322.833 375.5,312.5 Z"/></g>
</svg>
