<?xml version="1.0" encoding="UTF-8"?>
<!DOCTYPE svg PUBLIC "-//W3C//DTD SVG 1.1//EN" "http://www.w3.org/Graphics/SVG/1.1/DTD/svg11.dtd">
<svg xmlns="http://www.w3.org/2000/svg" version="1.1" width="512px" height="512px" style="shape-rendering:geometricPrecision; text-rendering:geometricPrecision; image-rendering:optimizeQuality; fill-rule:evenodd; clip-rule:evenodd" xmlns:xlink="http://www.w3.org/1999/xlink">
<g><path style="opacity:0.94" fill="#000000" d="M 237.5,-0.5 C 249.5,-0.5 261.5,-0.5 273.5,-0.5C 313.555,4.77818 348.055,21.4448 377,49.5C 402.847,79.1293 398.513,103.129 364,121.5C 363.333,134.5 363.333,147.5 364,160.5C 368.216,164.264 370.883,168.931 372,174.5C 372.667,183.5 372.667,192.5 372,201.5C 368.835,212.354 361.668,219.02 350.5,221.5C 346.519,249.817 332.685,271.817 309,287.5C 308.333,293.167 308.333,298.833 309,304.5C 309.748,306.332 310.748,307.999 312,309.5C 316.079,308.371 320.245,308.204 324.5,309C 345.833,313 367.167,317 388.5,321C 423.316,332.152 444.483,355.652 452,391.5C 453.591,424.477 453.925,457.477 453,490.5C 450.921,500.737 445.088,507.737 435.5,511.5C 315.5,511.5 195.5,511.5 75.5,511.5C 65.9124,507.737 60.0791,500.737 58,490.5C 57.3333,476.5 57.3333,462.5 58,448.5C 60.3913,442.532 64.558,440.698 70.5,443C 71.7014,443.903 72.5348,445.069 73,446.5C 73.0484,461.568 73.7151,476.568 75,491.5C 76.9522,493.894 79.4522,495.394 82.5,496C 92.4944,496.5 102.494,496.666 112.5,496.5C 112.333,474.831 112.5,453.164 113,431.5C 118.862,425.806 123.862,426.473 128,433.5C 128.5,454.497 128.667,475.497 128.5,496.5C 159.5,496.5 190.5,496.5 221.5,496.5C 226.613,461.88 231.113,427.213 235,392.5C 232.537,389.035 229.704,385.869 226.5,383C 216.39,386.179 207.89,383.679 201,375.5C 190,359.833 179,344.167 168,328.5C 151.733,331.487 135.566,334.987 119.5,339C 126.845,348.792 127.345,358.959 121,369.5C 116.882,375.618 112.049,381.118 106.5,386C 96.5279,392.15 86.6946,391.984 77,385.5C 74.4259,396.332 73.0926,407.332 73,418.5C 70.0046,422.723 66.1712,423.889 61.5,422C 58.1087,418.385 56.7753,414.052 57.5,409C 58.6313,366.366 78.9646,337.366 118.5,322C 141.14,317.539 163.807,313.205 186.5,309C 190.755,308.204 194.921,308.371 199,309.5C 200.252,307.999 201.252,306.332 202,304.5C 202.667,298.833 202.667,293.167 202,287.5C 178.315,271.817 164.481,249.817 160.5,221.5C 151.142,219.299 144.309,213.966 140,205.5C 138.434,195.227 138.101,184.893 139,174.5C 140.117,168.931 142.784,164.264 147,160.5C 147.667,147.5 147.667,134.5 147,121.5C 112.487,103.129 108.153,79.1293 134,49.5C 162.945,21.4448 197.445,4.77818 237.5,-0.5 Z M 254.5,14.5 C 294.999,15.4932 330.333,29.3265 360.5,56C 367.014,62.1953 372.181,69.3619 376,77.5C 378.731,88.7113 374.898,97.0447 364.5,102.5C 363.669,96.1928 363.169,89.8594 363,83.5C 360.096,74.9304 354.263,69.4304 345.5,67C 292.201,52.3936 238.534,50.727 184.5,62C 175.249,63.8951 166.249,66.5617 157.5,70C 153.908,72.921 151.075,76.421 149,80.5C 147.94,87.7807 147.106,95.1141 146.5,102.5C 130.824,92.0923 129.324,79.759 142,65.5C 172.341,32.916 209.841,15.916 254.5,14.5 Z M 248.5,69.5 C 280.327,70.4991 311.66,74.9991 342.5,83C 344.286,83.7845 345.786,84.9512 347,86.5C 347.5,93.8258 347.666,101.159 347.5,108.5C 340.159,108.334 332.826,108.5 325.5,109C 320.931,111.541 319.431,115.375 321,120.5C 322.167,121.667 323.333,122.833 324.5,124C 330.833,124.333 337.167,124.667 343.5,125C 328.799,135.239 312.465,141.573 294.5,144C 262.236,149.083 230.236,147.749 198.5,140C 187.162,136.898 176.829,131.898 167.5,125C 210.167,124.667 252.833,124.333 295.5,124C 302.321,118.606 301.987,113.606 294.5,109C 250.835,108.5 207.168,108.333 163.5,108.5C 163.334,101.159 163.5,93.8258 164,86.5C 165.167,85.3333 166.333,84.1667 167.5,83C 194.116,75.2727 221.116,70.7727 248.5,69.5 Z M 163.5,142.5 C 166.312,144.408 169.312,146.075 172.5,147.5C 173.492,151.783 173.826,156.116 173.5,160.5C 170.211,159.626 166.877,158.959 163.5,158.5C 163.5,153.167 163.5,147.833 163.5,142.5 Z M 346.5,142.5 C 347.488,147.64 347.821,152.974 347.5,158.5C 344.123,158.959 340.789,159.626 337.5,160.5C 337.174,156.116 337.508,151.783 338.5,147.5C 341.568,146.309 344.235,144.642 346.5,142.5 Z M 189.5,154.5 C 233.5,166.5 277.5,166.5 321.5,154.5C 321.334,161.508 321.5,168.508 322,175.5C 325.587,181.691 330.753,183.524 337.5,181C 342.208,175.966 347.875,173.8 354.5,174.5C 355,175.5 355.5,176.5 356,177.5C 356.667,184.5 356.667,191.5 356,198.5C 355.167,201.333 353.333,203.167 350.5,204C 346.833,204.333 343.167,204.667 339.5,205C 338.069,205.465 336.903,206.299 336,207.5C 331.304,256.362 304.471,283.029 255.5,287.5C 206.529,283.029 179.696,256.362 175,207.5C 174.097,206.299 172.931,205.465 171.5,205C 166.647,204.971 161.98,204.138 157.5,202.5C 156.416,201.335 155.583,200.002 155,198.5C 154.333,191.5 154.333,184.5 155,177.5C 157.052,173.058 160.219,172.224 164.5,175C 168.532,177.347 172.532,179.68 176.5,182C 182.328,183.056 186.495,180.889 189,175.5C 189.5,168.508 189.666,161.508 189.5,154.5 Z M 218.5,296.5 C 235.391,302.543 252.724,304.377 270.5,302C 277.98,300.672 285.313,298.838 292.5,296.5C 292.335,300.182 292.501,303.848 293,307.5C 294.967,311.401 296.3,315.401 297,319.5C 283.308,330.026 269.475,340.359 255.5,350.5C 241.525,340.359 227.692,330.026 214,319.5C 214.7,315.401 216.033,311.401 218,307.5C 218.499,303.848 218.665,300.182 218.5,296.5 Z M 188.5,324.5 C 190.989,324.298 193.323,324.798 195.5,326C 210.167,337 224.833,348 239.5,359C 231.927,362.038 224.427,365.204 217,368.5C 206.756,355.011 196.756,341.344 187,327.5C 186.761,326.212 187.261,325.212 188.5,324.5 Z M 317.5,324.5 C 319.199,324.34 320.866,324.506 322.5,325C 323.956,325.423 324.456,326.256 324,327.5C 314.244,341.344 304.244,355.011 294,368.5C 286.573,365.204 279.073,362.038 271.5,359C 287.017,347.637 302.35,336.137 317.5,324.5 Z M 342.5,328.5 C 358.943,331.422 375.277,334.922 391.5,339C 384.255,348.807 383.755,358.974 390,369.5C 394.848,376.679 400.681,382.846 407.5,388C 416.857,391.947 425.69,391.114 434,385.5C 435.726,391.032 436.726,396.699 437,402.5C 437.667,431.167 437.667,459.833 437,488.5C 435.755,492.742 432.922,495.242 428.5,496C 418.506,496.5 408.506,496.666 398.5,496.5C 398.667,474.831 398.5,453.164 398,431.5C 392.138,425.806 387.138,426.473 383,433.5C 382.5,454.497 382.333,475.497 382.5,496.5C 351.5,496.5 320.5,496.5 289.5,496.5C 284.387,461.88 279.887,427.213 276,392.5C 278.463,389.035 281.296,385.869 284.5,383C 294.61,386.179 303.11,383.679 310,375.5C 321.079,359.935 331.912,344.268 342.5,328.5 Z M 103.5,347.5 C 107.338,348.684 109.338,351.351 109.5,355.5C 108.863,358.107 107.696,360.44 106,362.5C 102.833,367 99,370.833 94.5,374C 90.1523,374.664 86.4856,373.331 83.5,370C 88.9471,361.388 95.6138,353.888 103.5,347.5 Z M 405.5,347.5 C 414.647,353.148 421.981,360.648 427.5,370C 420.481,376.468 414.315,375.635 409,367.5C 405.734,363.966 403.234,359.966 401.5,355.5C 401.892,352.299 403.226,349.633 405.5,347.5 Z M 254.5,369.5 C 259.386,370.942 264.053,372.942 268.5,375.5C 266.712,377.576 265.046,379.743 263.5,382C 258.167,382.667 252.833,382.667 247.5,382C 246.12,380.075 244.62,378.241 243,376.5C 242.409,375.517 242.743,374.85 244,374.5C 247.818,373.294 251.318,371.628 254.5,369.5 Z M 251.5,398.5 C 254.711,398.012 257.544,398.679 260,400.5C 264.256,432.221 268.756,463.887 273.5,495.5C 261.5,496.833 249.5,496.833 237.5,495.5C 242.249,463.175 246.916,430.842 251.5,398.5 Z M 156.5,443.5 C 167.5,443.5 178.5,443.5 189.5,443.5C 189.5,448.5 189.5,453.5 189.5,458.5C 178.5,458.5 167.5,458.5 156.5,458.5C 156.5,453.5 156.5,448.5 156.5,443.5 Z M 321.5,443.5 C 332.5,443.5 343.5,443.5 354.5,443.5C 354.5,448.5 354.5,453.5 354.5,458.5C 343.5,458.5 332.5,458.5 321.5,458.5C 321.5,453.5 321.5,448.5 321.5,443.5 Z"/></g>
<g><path style="opacity:0.932" fill="#000000" d="M 149.5,427.5 C 164.837,427.333 180.17,427.5 195.5,428C 200.667,429.167 203.833,432.333 205,437.5C 205.667,446.5 205.667,455.5 205,464.5C 203.715,470.118 200.215,473.285 194.5,474C 179.833,474.667 165.167,474.667 150.5,474C 145.765,472.932 142.598,470.099 141,465.5C 140.072,454.76 140.405,444.093 142,433.5C 144.114,430.879 146.614,428.879 149.5,427.5 Z M 156.5,443.5 C 156.5,448.5 156.5,453.5 156.5,458.5C 167.5,458.5 178.5,458.5 189.5,458.5C 189.5,453.5 189.5,448.5 189.5,443.5C 178.5,443.5 167.5,443.5 156.5,443.5 Z"/></g>
<g><path style="opacity:0.932" fill="#000000" d="M 315.5,427.5 C 330.837,427.333 346.17,427.5 361.5,428C 365.693,429.526 368.526,432.359 370,436.5C 370.667,446.167 370.667,455.833 370,465.5C 368.402,470.099 365.235,472.932 360.5,474C 345.833,474.667 331.167,474.667 316.5,474C 310.785,473.285 307.285,470.118 306,464.5C 305.333,455.5 305.333,446.5 306,437.5C 307.35,432.319 310.517,428.986 315.5,427.5 Z M 321.5,443.5 C 321.5,448.5 321.5,453.5 321.5,458.5C 332.5,458.5 343.5,458.5 354.5,458.5C 354.5,453.5 354.5,448.5 354.5,443.5C 343.5,443.5 332.5,443.5 321.5,443.5 Z"/></g>
</svg>
