<?xml version="1.0" encoding="UTF-8"?>
<!DOCTYPE svg PUBLIC "-//W3C//DTD SVG 1.1//EN" "http://www.w3.org/Graphics/SVG/1.1/DTD/svg11.dtd">
<svg xmlns="http://www.w3.org/2000/svg" version="1.1" width="512px" height="512px" style="shape-rendering:geometricPrecision; text-rendering:geometricPrecision; image-rendering:optimizeQuality; fill-rule:evenodd; clip-rule:evenodd" xmlns:xlink="http://www.w3.org/1999/xlink">
<g><path style="opacity:0.953" fill="#000000" d="M 153.5,52.5 C 166.108,52.8188 178.108,55.6521 189.5,61C 205.58,73.0223 211.08,88.8557 206,108.5C 204.266,114.536 202.432,120.536 200.5,126.5C 204.407,134.728 208.407,142.894 212.5,151C 217.489,151.499 222.489,151.666 227.5,151.5C 234.196,126.384 241.363,101.384 249,76.5C 256.549,61.6325 268.715,53.6325 285.5,52.5C 296.711,53.3741 307.378,56.2075 317.5,61C 333.58,73.0223 339.08,88.8557 334,108.5C 332.266,114.536 330.432,120.536 328.5,126.5C 372.394,219.954 416.56,313.288 461,406.5C 471.09,407.321 481.256,407.821 491.5,408C 492.416,408.374 493.25,408.874 494,409.5C 495.631,423.406 495.964,437.406 495,451.5C 494.5,453.333 493.333,454.5 491.5,455C 426.751,455.993 362.085,455.659 297.5,454C 268.538,393.243 239.705,332.409 211,271.5C 193.667,331.5 176.333,391.5 159,451.5C 157.471,454.516 154.971,455.849 151.5,455.5C 148.029,455.849 145.529,454.516 144,451.5C 143.333,448.5 143.333,445.5 144,442.5C 147.64,430.939 150.806,419.273 153.5,407.5C 116.833,407.5 80.1667,407.5 43.5,407.5C 39.6205,423.018 35.1205,438.352 30,453.5C 18.7438,458.206 14.0771,454.539 16,442.5C 50.8694,319.354 86.2028,196.354 122,73.5C 129.205,61.4462 139.705,54.4462 153.5,52.5 Z M 154.5,69.5 C 163.614,69.9552 172.28,72.1218 180.5,76C 187.157,80.8145 190.49,87.3145 190.5,95.5C 189.247,103.59 187.581,111.59 185.5,119.5C 165.489,119.833 145.489,119.5 125.5,118.5C 129.361,105.72 133.527,93.0537 138,80.5C 142.352,74.9209 147.852,71.2542 154.5,69.5 Z M 283.5,69.5 C 296.005,69.2374 306.505,73.5708 315,82.5C 317.493,86.478 318.659,90.8113 318.5,95.5C 317.247,103.59 315.581,111.59 313.5,119.5C 293.833,119.5 274.167,119.5 254.5,119.5C 257.689,107.098 261.189,94.7642 265,82.5C 269.278,75.2935 275.445,70.9601 283.5,69.5 Z M 120.5,135.5 C 142.409,135.173 164.242,135.506 186,136.5C 231,231.5 276,326.5 321,421.5C 321.75,422.126 322.584,422.626 323.5,423C 332.827,423.5 342.161,423.666 351.5,423.5C 351.5,428.833 351.5,434.167 351.5,439.5C 337.255,439.824 323.088,439.49 309,438.5C 264,343.5 219,248.5 174,153.5C 173.25,152.874 172.416,152.374 171.5,152C 153.158,151.833 134.824,151.333 116.5,150.5C 118.245,145.6 119.578,140.6 120.5,135.5 Z M 249.5,135.5 C 271.075,135.173 292.575,135.506 314,136.5C 359,231.5 404,326.5 449,421.5C 449.75,422.126 450.584,422.626 451.5,423C 460.827,423.5 470.161,423.666 479.5,423.5C 479.5,428.833 479.5,434.167 479.5,439.5C 465.255,439.824 451.088,439.49 437,438.5C 392,343.5 347,248.5 302,153.5C 301.25,152.874 300.416,152.374 299.5,152C 281.503,151.5 263.503,151.333 245.5,151.5C 246.629,146.112 247.963,140.779 249.5,135.5 Z M 111.5,167.5 C 128.17,167.333 144.837,167.5 161.5,168C 166.9,177.967 171.9,188.133 176.5,198.5C 151.84,199.666 127.173,199.833 102.5,199C 105.887,188.621 108.887,178.121 111.5,167.5 Z M 220.5,167.5 C 243.742,167.173 266.908,167.506 290,168.5C 333.064,258.624 375.564,348.958 417.5,439.5C 400.833,439.5 384.167,439.5 367.5,439.5C 367.666,430.161 367.5,420.827 367,411.5C 366.626,410.584 366.126,409.75 365.5,409C 354.688,407.867 343.854,407.034 333,406.5C 294.942,327.053 257.442,247.386 220.5,167.5 Z M 98.5,215.5 C 127.169,215.333 155.835,215.5 184.5,216C 189.5,226.333 194.5,236.667 199.5,247C 162.835,247.5 126.168,247.667 89.5,247.5C 92.1001,236.702 95.1001,226.036 98.5,215.5 Z M 84.5,263.5 C 121.502,263.333 158.502,263.5 195.5,264C 191.997,274.345 188.997,284.845 186.5,295.5C 149.494,295.833 112.494,295.5 75.5,294.5C 78.7072,284.213 81.7072,273.88 84.5,263.5 Z M 70.5,311.5 C 107.506,311.167 144.506,311.5 181.5,312.5C 178.5,322.5 175.5,332.5 172.5,342.5C 135.839,343.5 99.1727,343.833 62.5,343.5C 65.1651,332.84 67.8317,322.173 70.5,311.5 Z M 57.5,359.5 C 94.1667,359.5 130.833,359.5 167.5,359.5C 164.887,370.121 161.887,380.621 158.5,391C 121.829,391.833 85.1621,391.667 48.5,390.5C 51.3508,380.092 54.3508,369.759 57.5,359.5 Z"/></g>
</svg>
