<?xml version="1.0" encoding="UTF-8"?>
<!DOCTYPE svg PUBLIC "-//W3C//DTD SVG 1.1//EN" "http://www.w3.org/Graphics/SVG/1.1/DTD/svg11.dtd">
<svg xmlns="http://www.w3.org/2000/svg" version="1.1" width="512px" height="512px" style="shape-rendering:geometricPrecision; text-rendering:geometricPrecision; image-rendering:optimizeQuality; fill-rule:evenodd; clip-rule:evenodd" xmlns:xlink="http://www.w3.org/1999/xlink">
<g><path style="opacity:0.995" fill="#000000" d="M 166.5,55.5 C 225.834,55.3333 285.168,55.5 344.5,56C 350.841,57.6748 355.341,61.5082 358,67.5C 359.377,74.0764 359.877,80.7431 359.5,87.5C 400.168,87.3333 440.835,87.5 481.5,88C 486.864,90.0275 491.031,93.5275 494,98.5C 495.642,127.438 495.975,156.438 495,185.5C 492.301,192.365 487.468,197.032 480.5,199.5C 479.667,279.831 479.167,360.165 479,440.5C 476.833,448 472,452.833 464.5,455C 325.167,455.667 185.833,455.667 46.5,455C 39,452.833 34.1667,448 32,440.5C 31.8333,360.165 31.3333,279.831 30.5,199.5C 23.5323,197.032 18.699,192.365 16,185.5C 15.0246,156.438 15.3579,127.438 17,98.5C 19.969,93.5275 24.1357,90.0275 29.5,88C 70.1653,87.5 110.832,87.3333 151.5,87.5C 148.128,72.5103 153.128,61.8436 166.5,55.5 Z M 173.5,71.5 C 229.226,71.0124 284.892,71.5124 340.5,73C 341.893,74.1711 342.727,75.6711 343,77.5C 343.982,117.226 343.649,156.893 342,196.5C 340.829,197.893 339.329,198.727 337.5,199C 281.775,199.987 226.109,199.654 170.5,198C 169.107,196.829 168.273,195.329 168,193.5C 167.333,154.833 167.333,116.167 168,77.5C 168.683,74.3212 170.516,72.3212 173.5,71.5 Z M 228.5,95.5 C 229.5,95.5 230.5,95.5 231.5,95.5C 231.051,105.605 231.551,115.605 233,125.5C 233.75,126.126 234.584,126.626 235.5,127C 248.833,127.667 262.167,127.667 275.5,127C 276.416,126.626 277.25,126.126 278,125.5C 279.449,115.605 279.949,105.605 279.5,95.5C 284.01,95.2627 286.844,97.2627 288,101.5C 290.863,125.122 292.863,148.788 294,172.5C 292.829,173.893 291.329,174.727 289.5,175C 266.833,175.667 244.167,175.667 221.5,175C 219.671,174.727 218.171,173.893 217,172.5C 218.012,147.713 220.345,123.047 224,98.5C 225.409,97.2189 226.909,96.2189 228.5,95.5 Z M 247.5,95.5 C 252.833,95.5 258.167,95.5 263.5,95.5C 263.5,100.833 263.5,106.167 263.5,111.5C 258.167,111.5 252.833,111.5 247.5,111.5C 247.5,106.167 247.5,100.833 247.5,95.5 Z M 36.5,103.5 C 74.8333,103.5 113.167,103.5 151.5,103.5C 151.5,108.833 151.5,114.167 151.5,119.5C 111.5,119.5 71.5,119.5 31.5,119.5C 31.1908,114.733 31.6908,110.066 33,105.5C 34.3024,104.915 35.469,104.249 36.5,103.5 Z M 359.5,103.5 C 397.835,103.333 436.168,103.5 474.5,104C 477.333,104.167 478.833,105.667 479,108.5C 479.499,112.152 479.665,115.818 479.5,119.5C 439.5,119.5 399.5,119.5 359.5,119.5C 359.5,114.167 359.5,108.833 359.5,103.5 Z M 31.5,135.5 C 71.5,135.5 111.5,135.5 151.5,135.5C 151.5,140.833 151.5,146.167 151.5,151.5C 111.5,151.5 71.5,151.5 31.5,151.5C 31.5,146.167 31.5,140.833 31.5,135.5 Z M 359.5,135.5 C 399.5,135.5 439.5,135.5 479.5,135.5C 479.5,140.833 479.5,146.167 479.5,151.5C 439.5,151.5 399.5,151.5 359.5,151.5C 359.5,146.167 359.5,140.833 359.5,135.5 Z M 31.5,167.5 C 71.5,167.5 111.5,167.5 151.5,167.5C 151.5,172.833 151.5,178.167 151.5,183.5C 113.165,183.667 74.8319,183.5 36.5,183C 33.6667,182.833 32.1667,181.333 32,178.5C 31.5014,174.848 31.3347,171.182 31.5,167.5 Z M 359.5,167.5 C 399.5,167.5 439.5,167.5 479.5,167.5C 479.809,172.267 479.309,176.934 478,181.5C 476.933,182.191 475.766,182.691 474.5,183C 436.168,183.5 397.835,183.667 359.5,183.5C 359.5,178.167 359.5,172.833 359.5,167.5 Z M 47.5,199.5 C 82.1683,199.333 116.835,199.5 151.5,200C 153.833,207.667 158.833,212.667 166.5,215C 225.833,215.667 285.167,215.667 344.5,215C 352.167,212.667 357.167,207.667 359.5,200C 394.165,199.5 428.832,199.333 463.5,199.5C 463.667,277.501 463.5,355.501 463,433.5C 462.727,435.329 461.893,436.829 460.5,438C 456.27,439.29 451.936,439.79 447.5,439.5C 447.667,378.166 447.5,316.832 447,255.5C 444.5,247.667 439.333,242.5 431.5,240C 404.833,239.333 378.167,239.333 351.5,240C 343.667,242.5 338.5,247.667 336,255.5C 335.5,316.832 335.333,378.166 335.5,439.5C 240.443,439.993 145.443,439.493 50.5,438C 49.1068,436.829 48.2735,435.329 48,433.5C 47.5,355.501 47.3333,277.501 47.5,199.5 Z M 82.5,255.5 C 109.835,255.333 137.169,255.5 164.5,256C 165,256.5 165.5,257 166,257.5C 167.156,278.08 167.656,298.747 167.5,319.5C 167.333,339.5 167.167,359.5 167,379.5C 166.626,380.416 166.126,381.25 165.5,382C 138.253,383.649 110.92,383.982 83.5,383C 82.0692,382.535 80.9025,381.701 80,380.5C 79.3333,339.833 79.3333,299.167 80,258.5C 80.6979,257.309 81.5313,256.309 82.5,255.5 Z M 218.5,255.5 C 245.835,255.333 273.169,255.5 300.5,256C 301,256.5 301.5,257 302,257.5C 303.156,278.08 303.656,298.747 303.5,319.5C 303.333,339.5 303.167,359.5 303,379.5C 302.626,380.416 302.126,381.25 301.5,382C 274.253,383.649 246.92,383.982 219.5,383C 218.069,382.535 216.903,381.701 216,380.5C 215.333,339.833 215.333,299.167 216,258.5C 216.698,257.309 217.531,256.309 218.5,255.5 Z M 358.5,255.5 C 366.833,255.5 375.167,255.5 383.5,255.5C 383.5,316.833 383.5,378.167 383.5,439.5C 372.833,439.5 362.167,439.5 351.5,439.5C 351.333,380.499 351.5,321.499 352,262.5C 353.018,258.985 355.185,256.652 358.5,255.5 Z M 399.5,255.5 C 408.915,255.083 418.248,255.583 427.5,257C 429.487,258.319 430.654,260.152 431,262.5C 431.5,321.499 431.667,380.499 431.5,439.5C 420.833,439.5 410.167,439.5 399.5,439.5C 399.5,378.167 399.5,316.833 399.5,255.5 Z"/></g>
<g><path style="opacity:0.964" fill="#000000" d="M 221.5,79.5 C 244.169,79.3334 266.836,79.5 289.5,80C 298.392,83.5564 303.558,90.0564 305,99.5C 307.27,122.704 309.77,145.87 312.5,169C 311.817,179.687 306.484,187.02 296.5,191C 269.167,191.667 241.833,191.667 214.5,191C 204.692,187.237 199.359,180.07 198.5,169.5C 201.131,146.521 203.631,123.521 206,100.5C 207.178,90.4975 212.344,83.4975 221.5,79.5 Z M 228.5,95.5 C 226.909,96.2189 225.409,97.2189 224,98.5C 220.345,123.047 218.012,147.713 217,172.5C 218.171,173.893 219.671,174.727 221.5,175C 244.167,175.667 266.833,175.667 289.5,175C 291.329,174.727 292.829,173.893 294,172.5C 292.863,148.788 290.863,125.122 288,101.5C 286.844,97.2627 284.01,95.2627 279.5,95.5C 279.949,105.605 279.449,115.605 278,125.5C 277.25,126.126 276.416,126.626 275.5,127C 262.167,127.667 248.833,127.667 235.5,127C 234.584,126.626 233.75,126.126 233,125.5C 231.551,115.605 231.051,105.605 231.5,95.5C 230.5,95.5 229.5,95.5 228.5,95.5 Z M 247.5,95.5 C 247.5,100.833 247.5,106.167 247.5,111.5C 252.833,111.5 258.167,111.5 263.5,111.5C 263.5,106.167 263.5,100.833 263.5,95.5C 258.167,95.5 252.833,95.5 247.5,95.5 Z"/></g>
<g><path style="opacity:0.98" fill="#000000" d="M 76.5,239.5 C 107.502,239.333 138.502,239.5 169.5,240C 176.237,241.736 180.737,245.903 183,252.5C 183.667,296.833 183.667,341.167 183,385.5C 181.167,392.667 176.667,397.167 169.5,399C 138.833,399.667 108.167,399.667 77.5,399C 70.7634,397.264 66.2634,393.097 64,386.5C 63.3333,341.833 63.3333,297.167 64,252.5C 66.3531,246.315 70.5198,241.982 76.5,239.5 Z M 82.5,255.5 C 81.5313,256.309 80.6979,257.309 80,258.5C 79.3333,299.167 79.3333,339.833 80,380.5C 80.9025,381.701 82.0692,382.535 83.5,383C 110.92,383.982 138.253,383.649 165.5,382C 166.126,381.25 166.626,380.416 167,379.5C 167.167,359.5 167.333,339.5 167.5,319.5C 167.656,298.747 167.156,278.08 166,257.5C 165.5,257 165,256.5 164.5,256C 137.169,255.5 109.835,255.333 82.5,255.5 Z"/></g>
<g><path style="opacity:0.98" fill="#000000" d="M 212.5,239.5 C 243.502,239.333 274.502,239.5 305.5,240C 312.237,241.736 316.737,245.903 319,252.5C 319.667,296.833 319.667,341.167 319,385.5C 317.167,392.667 312.667,397.167 305.5,399C 274.833,399.667 244.167,399.667 213.5,399C 206.763,397.264 202.263,393.097 200,386.5C 199.333,341.833 199.333,297.167 200,252.5C 202.353,246.315 206.52,241.982 212.5,239.5 Z M 218.5,255.5 C 217.531,256.309 216.698,257.309 216,258.5C 215.333,299.167 215.333,339.833 216,380.5C 216.903,381.701 218.069,382.535 219.5,383C 246.92,383.982 274.253,383.649 301.5,382C 302.126,381.25 302.626,380.416 303,379.5C 303.167,359.5 303.333,339.5 303.5,319.5C 303.656,298.747 303.156,278.08 302,257.5C 301.5,257 301,256.5 300.5,256C 273.169,255.5 245.835,255.333 218.5,255.5 Z"/></g>
</svg>
