<?xml version="1.0" encoding="UTF-8"?>
<!DOCTYPE svg PUBLIC "-//W3C//DTD SVG 1.1//EN" "http://www.w3.org/Graphics/SVG/1.1/DTD/svg11.dtd">
<svg xmlns="http://www.w3.org/2000/svg" version="1.1" width="512px" height="512px" style="shape-rendering:geometricPrecision; text-rendering:geometricPrecision; image-rendering:optimizeQuality; fill-rule:evenodd; clip-rule:evenodd" xmlns:xlink="http://www.w3.org/1999/xlink">
<g><path style="opacity:0.893" fill="#000000" d="M 51.5,17.5 C 187.5,17.3333 323.5,17.5 459.5,18C 477.443,22.9429 488.61,34.4429 493,52.5C 493.667,198.833 493.667,345.167 493,491.5C 492.5,492 492,492.5 491.5,493C 476.5,493.667 461.5,493.667 446.5,493C 445.299,492.097 444.465,490.931 444,489.5C 443.5,348.834 443.333,208.167 443.5,67.5C 428.167,67.5 412.833,67.5 397.5,67.5C 397.333,170.834 397.5,274.167 398,377.5C 415.323,383.472 421.657,395.472 417,413.5C 413.575,422.63 407.075,428.13 397.5,430C 358.453,430.976 319.453,430.643 280.5,429C 269.353,424.501 263.687,416.167 263.5,404C 263.35,389.998 270.017,381.498 283.5,378.5C 283.5,274.833 283.5,171.167 283.5,67.5C 261.833,67.5 240.167,67.5 218.5,67.5C 218.167,155.169 218.5,242.836 219.5,330.5C 237.813,338.464 242.647,351.464 234,369.5C 229.654,375.425 223.821,378.925 216.5,380C 181.128,380.967 145.794,380.633 110.5,379C 95.7893,372.405 90.6227,361.239 95,345.5C 97.9257,337.737 103.426,333.07 111.5,331.5C 111.5,243.5 111.5,155.5 111.5,67.5C 96.8333,67.5 82.1667,67.5 67.5,67.5C 67.6667,208.167 67.5,348.834 67,489.5C 66.5348,490.931 65.7014,492.097 64.5,493C 49.5,493.667 34.5,493.667 19.5,493C 18.1068,491.829 17.2735,490.329 17,488.5C 16.3333,346.167 16.3333,203.833 17,61.5C 18.7047,38.9806 30.2047,24.3139 51.5,17.5 Z M 54.5,29.5 C 188.5,29.3333 322.5,29.5 456.5,30C 469.333,33.5 477.5,41.6667 481,54.5C 481.5,196.833 481.667,339.166 481.5,481.5C 473.167,481.5 464.833,481.5 456.5,481.5C 456.995,340.111 456.495,198.777 455,57.5C 453.829,56.1068 452.329,55.2735 450.5,55C 320.5,54.3333 190.5,54.3333 60.5,55C 58.6711,55.2735 57.1711,56.1068 56,57.5C 54.5048,198.777 54.0048,340.111 54.5,481.5C 46.1667,481.5 37.8333,481.5 29.5,481.5C 29.3333,339.166 29.5,196.833 30,54.5C 33.6829,41.6514 41.8496,33.3181 54.5,29.5 Z M 124.5,67.5 C 151.833,67.5 179.167,67.5 206.5,67.5C 206.5,155.167 206.5,242.833 206.5,330.5C 179.167,330.5 151.833,330.5 124.5,330.5C 124.5,242.833 124.5,155.167 124.5,67.5 Z M 296.5,67.5 C 326.167,67.5 355.833,67.5 385.5,67.5C 385.5,170.833 385.5,274.167 385.5,377.5C 355.833,377.5 326.167,377.5 296.5,377.5C 296.5,274.167 296.5,170.833 296.5,67.5 Z M 114.5,342.5 C 148.835,342.333 183.168,342.5 217.5,343C 226.527,348.886 227.86,356.219 221.5,365C 218.754,366.75 215.754,367.75 212.5,368C 181.167,368.667 149.833,368.667 118.5,368C 106.895,365.289 103.395,358.456 108,347.5C 109.965,345.45 112.132,343.783 114.5,342.5 Z M 285.5,389.5 C 322.168,389.333 358.835,389.5 395.5,390C 405.089,393.609 408.256,400.442 405,410.5C 402.889,414.944 399.389,417.444 394.5,418C 358.833,418.667 323.167,418.667 287.5,418C 279.943,416.439 275.943,411.773 275.5,404C 275.94,397.077 279.273,392.243 285.5,389.5 Z"/></g>
</svg>
