<?xml version="1.0" encoding="UTF-8"?>
<!DOCTYPE svg PUBLIC "-//W3C//DTD SVG 1.1//EN" "http://www.w3.org/Graphics/SVG/1.1/DTD/svg11.dtd">
<svg xmlns="http://www.w3.org/2000/svg" version="1.1" width="512px" height="512px" style="shape-rendering:geometricPrecision; text-rendering:geometricPrecision; image-rendering:optimizeQuality; fill-rule:evenodd; clip-rule:evenodd" xmlns:xlink="http://www.w3.org/1999/xlink">
<g><path style="opacity:0.942" fill="#000000" d="M 56.5,-0.5 C 103.833,-0.5 151.167,-0.5 198.5,-0.5C 212.569,7.37408 226.569,15.5407 240.5,24C 269.506,24.8332 298.506,24.6665 327.5,23.5C 335.773,9.79067 347.773,4.95734 363.5,9C 365.936,9.92995 368.269,11.0966 370.5,12.5C 375.399,6.59531 381.399,2.26197 388.5,-0.5C 393.833,-0.5 399.167,-0.5 404.5,-0.5C 414.665,2.68075 421.498,9.34742 425,19.5C 444.564,12.239 458.898,17.9056 468,36.5C 488.995,29.2498 503.495,35.9165 511.5,56.5C 511.5,103.833 511.5,151.167 511.5,198.5C 503.626,212.569 495.459,226.569 487,240.5C 486.167,269.506 486.333,298.506 487.5,327.5C 501.209,335.773 506.043,347.773 502,363.5C 500.833,365.833 499.667,368.167 498.5,370.5C 504.405,375.399 508.738,381.399 511.5,388.5C 511.5,393.833 511.5,399.167 511.5,404.5C 508.319,414.665 501.653,421.498 491.5,425C 498.761,444.564 493.094,458.898 474.5,468C 481.75,488.995 475.084,503.495 454.5,511.5C 407.167,511.5 359.833,511.5 312.5,511.5C 298.431,503.626 284.431,495.459 270.5,487C 241.494,486.167 212.494,486.333 183.5,487.5C 175.227,501.209 163.227,506.043 147.5,502C 145.167,500.833 142.833,499.667 140.5,498.5C 135.601,504.405 129.601,508.738 122.5,511.5C 117.167,511.5 111.833,511.5 106.5,511.5C 96.3351,508.319 89.5017,501.653 86,491.5C 66.4358,498.761 52.1025,493.094 43,474.5C 22.0047,481.75 7.50469,475.084 -0.5,454.5C -0.5,407.167 -0.5,359.833 -0.5,312.5C 7.37408,298.431 15.5407,284.431 24,270.5C 24.8332,241.494 24.6665,212.494 23.5,183.5C 9.79067,175.227 4.95734,163.227 9,147.5C 10.1667,145.167 11.3333,142.833 12.5,140.5C 6.59531,135.601 2.26197,129.601 -0.5,122.5C -0.5,117.167 -0.5,111.833 -0.5,106.5C 2.68075,96.3351 9.34742,89.5017 19.5,86C 12.239,66.4358 17.9056,52.1025 36.5,43C 29.2562,21.9926 35.9228,7.49255 56.5,-0.5 Z M 59.5,17.5 C 104.501,17.3333 149.501,17.5 194.5,18C 205.666,24.4154 216.666,31.0821 227.5,38C 230.618,39.893 233.951,41.2264 237.5,42C 266.165,42.5 294.831,42.6666 323.5,42.5C 323.667,67.1689 323.5,91.8356 323,116.5C 316.782,111.281 310.282,106.448 303.5,102C 283.421,95.7882 270.254,102.621 264,122.5C 263.371,126.871 263.537,131.204 264.5,135.5C 253.495,135.333 242.495,135.5 231.5,136C 228.756,136.803 226.089,137.803 223.5,139C 193.167,168.667 162.833,198.333 132.5,228C 126.046,230.514 121.212,228.681 118,222.5C 117.333,220.5 117.333,218.5 118,216.5C 126.286,205.213 134.952,194.213 144,183.5C 145.909,178.867 145.076,174.701 141.5,171C 105.893,169.686 70.2268,169.019 34.5,169C 26.1522,164.955 23.9855,158.788 28,150.5C 29.5429,148.622 31.3762,147.122 33.5,146C 50.8333,145.667 68.1667,145.333 85.5,145C 93.0298,143.44 95.5298,138.94 93,131.5C 91.8333,130.333 90.6667,129.167 89.5,128C 69.8333,127.667 50.1667,127.333 30.5,127C 19.4172,125.334 15.5839,119.167 19,108.5C 20.8749,105.813 23.3749,103.979 26.5,103C 46.8333,102.667 67.1667,102.333 87.5,102C 93.0949,99.646 94.9282,95.4793 93,89.5C 92.1667,87.3333 90.6667,85.8333 88.5,85C 73.5,84.6667 58.5,84.3333 43.5,84C 34.2536,79.8985 32.0869,73.3985 37,64.5C 39.2583,62.5704 41.7583,61.0704 44.5,60C 64.8333,59.6667 85.1667,59.3333 105.5,59C 110.155,56.1034 111.655,51.9367 110,46.5C 108.891,44.1853 107.057,42.6853 104.5,42C 88.7412,41.9696 73.0745,41.303 57.5,40C 49.0596,31.6902 49.7262,24.1902 59.5,17.5 Z M 392.5,17.5 C 400.231,16.2769 405.398,19.2769 408,26.5C 408.333,46.8333 408.667,67.1667 409,87.5C 411.354,93.0949 415.521,94.9282 421.5,93C 423.667,92.1667 425.167,90.6667 426,88.5C 426.333,73.5 426.667,58.5 427,43.5C 431.102,34.2536 437.602,32.0869 446.5,37C 448.43,39.2583 449.93,41.7583 451,44.5C 451.333,64.8333 451.667,85.1667 452,105.5C 454.897,110.155 459.063,111.655 464.5,110C 466.815,108.891 468.315,107.057 469,104.5C 469.03,88.7412 469.697,73.0745 471,57.5C 479.153,49.0189 486.486,49.6855 493,59.5C 493.667,104.5 493.667,149.5 493,194.5C 486.585,205.666 479.918,216.666 473,227.5C 471.107,230.618 469.774,233.951 469,237.5C 468.5,266.165 468.333,294.831 468.5,323.5C 443.831,323.667 419.164,323.5 394.5,323C 400.441,316.392 405.608,309.225 410,301.5C 414.268,279.704 405.435,267.037 383.5,263.5C 380.885,264.269 378.219,264.603 375.5,264.5C 375.667,253.495 375.5,242.495 375,231.5C 374.101,227.462 372.434,223.795 370,220.5C 340.639,191.472 311.639,162.139 283,132.5C 280.483,122.681 284.316,117.847 294.5,118C 305.787,126.286 316.787,134.952 327.5,144C 331.295,144.837 334.961,144.504 338.5,143C 339.46,141.581 340.293,140.081 341,138.5C 341.333,103.833 341.667,69.1667 342,34.5C 348.055,24.0219 355.388,23.0219 364,31.5C 365.026,50.7948 366.026,70.1282 367,89.5C 372.333,94.8333 377.667,94.8333 383,89.5C 383.333,69.8333 383.667,50.1667 384,30.5C 384.368,24.4019 387.201,20.0686 392.5,17.5 Z M 234.5,153.5 C 249.17,153.333 263.837,153.5 278.5,154C 304.667,180.833 330.833,207.667 357,234.5C 357.667,249.167 357.667,263.833 357,278.5C 330.167,304.667 303.333,330.833 276.5,357C 261.833,357.667 247.167,357.667 232.5,357C 206.333,330.167 180.167,303.333 154,276.5C 153.333,261.833 153.333,247.167 154,232.5C 181.033,206.299 207.867,179.966 234.5,153.5 Z M 42.5,187.5 C 67.1689,187.333 91.8356,187.5 116.5,188C 109.373,195.117 103.873,203.284 100,212.5C 98.3188,237.914 110.152,249.247 135.5,246.5C 135.333,257.505 135.5,268.505 136,279.5C 136.803,282.244 137.803,284.911 139,287.5C 168.667,317.833 198.333,348.167 228,378.5C 230.514,384.954 228.681,389.788 222.5,393C 220.5,393.667 218.5,393.667 216.5,393C 205.213,384.714 194.213,376.048 183.5,367C 178.751,364.727 174.585,365.561 171,369.5C 169.686,405.107 169.019,440.773 169,476.5C 161.812,487.938 154.145,488.271 146,477.5C 145.667,460.167 145.333,442.833 145,425.5C 143.44,417.97 138.94,415.47 131.5,418C 130.333,419.167 129.167,420.333 128,421.5C 127.667,441.167 127.333,460.833 127,480.5C 125.592,490.117 120.092,494.283 110.5,493C 107.829,491.75 105.663,489.917 104,487.5C 102.7,466.231 102.033,444.897 102,423.5C 99.646,417.905 95.4793,416.072 89.5,418C 87.3333,418.833 85.8333,420.333 85,422.5C 84.6667,437.5 84.3333,452.5 84,467.5C 79.8985,476.746 73.3985,478.913 64.5,474C 62.5704,471.742 61.0704,469.242 60,466.5C 59.6667,446.167 59.3333,425.833 59,405.5C 56.1034,400.845 51.9367,399.345 46.5,401C 44.1853,402.109 42.6853,403.943 42,406.5C 41.9538,422.234 41.2872,437.9 40,453.5C 31.8473,461.981 24.514,461.314 18,451.5C 17.3333,406.5 17.3333,361.5 18,316.5C 24.4154,305.334 31.0821,294.334 38,283.5C 39.893,280.382 41.2264,277.049 42,273.5C 42.5,244.835 42.6666,216.169 42.5,187.5 Z M 381.5,281.5 C 389.815,281.977 393.648,286.31 393,294.5C 384.714,305.787 376.048,316.787 367,327.5C 364.724,333.67 366.557,338.17 372.5,341C 407.167,341.333 441.833,341.667 476.5,342C 484.848,346.045 487.014,352.212 483,360.5C 481.457,362.378 479.624,363.878 477.5,365C 460.167,365.333 442.833,365.667 425.5,366C 417.97,367.56 415.47,372.06 418,379.5C 419.167,380.667 420.333,381.833 421.5,383C 441.167,383.333 460.833,383.667 480.5,384C 491.583,385.666 495.416,391.833 492,402.5C 490.125,405.187 487.625,407.021 484.5,408C 464.167,408.333 443.833,408.667 423.5,409C 417.905,411.354 416.072,415.521 418,421.5C 418.833,423.667 420.333,425.167 422.5,426C 437.5,426.333 452.5,426.667 467.5,427C 476.746,431.102 478.913,437.602 474,446.5C 471.742,448.43 469.242,449.93 466.5,451C 446.167,451.333 425.833,451.667 405.5,452C 400.845,454.897 399.345,459.063 401,464.5C 402.109,466.815 403.943,468.315 406.5,469C 422.259,469.03 437.925,469.697 453.5,471C 461.5,478 461.5,485 453.5,492C 407.917,493.656 362.25,493.989 316.5,493C 305.334,486.585 294.334,479.918 283.5,473C 280.382,471.107 277.049,469.774 273.5,469C 244.835,468.5 216.169,468.333 187.5,468.5C 187.333,443.831 187.5,419.164 188,394.5C 194.218,399.719 200.718,404.552 207.5,409C 227.579,415.212 240.746,408.379 247,388.5C 247.629,384.129 247.463,379.796 246.5,375.5C 257.505,375.667 268.505,375.5 279.5,375C 283.538,374.101 287.205,372.434 290.5,370C 320.144,339.519 350.478,310.019 381.5,281.5 Z"/></g>
</svg>
