<?xml version="1.0" encoding="UTF-8"?>
<!DOCTYPE svg PUBLIC "-//W3C//DTD SVG 1.1//EN" "http://www.w3.org/Graphics/SVG/1.1/DTD/svg11.dtd">
<svg xmlns="http://www.w3.org/2000/svg" version="1.1" width="512px" height="512px" style="shape-rendering:geometricPrecision; text-rendering:geometricPrecision; image-rendering:optimizeQuality; fill-rule:evenodd; clip-rule:evenodd" xmlns:xlink="http://www.w3.org/1999/xlink">
<g><path style="opacity:0.983" fill="#FFFF" d="M 44.5,-0.5 C 93.1667,-0.5 141.833,-0.5 190.5,-0.5C 202.77,6.97441 215.103,14.4744 227.5,22C 230.948,23.9272 234.615,25.2606 238.5,26C 268.832,26.5 299.165,26.6666 329.5,26.5C 329.833,53.8415 329.5,81.1748 328.5,108.5C 321.308,102.808 313.975,97.3076 306.5,92C 286.891,86.0558 273.391,92.5558 266,111.5C 265.324,116.871 265.491,122.204 266.5,127.5C 256.161,127.334 245.828,127.5 235.5,128C 230.481,128.118 225.815,129.451 221.5,132C 189.861,162.639 158.528,193.639 127.5,225C 118.938,230.783 112.105,229.283 107,220.5C 105.973,215.684 106.973,211.35 110,207.5C 118.71,197.792 127.043,187.792 135,177.5C 137.058,171.686 135.225,167.52 129.5,165C 92.5,164.667 55.5,164.333 18.5,164C 9.89893,160.631 6.73226,154.465 9,145.5C 10.5,141.333 13.3333,138.5 17.5,137C 36.1667,136.667 54.8333,136.333 73.5,136C 81.4529,133.094 83.1196,128.094 78.5,121C 76.913,120.138 75.2464,119.471 73.5,119C 51.8333,118.667 30.1667,118.333 8.5,118C 4.31481,116.312 1.31481,113.479 -0.5,109.5C -0.5,106.167 -0.5,102.833 -0.5,99.5C 1.41184,95.0947 4.74518,92.2613 9.5,91C 31.1667,90.6667 52.8333,90.3333 74.5,90C 82.8236,85.6793 83.4902,80.346 76.5,74C 60.8333,73.6667 45.1667,73.3333 29.5,73C 17.9832,69.1252 14.8165,61.6252 20,50.5C 21.5578,48.6411 23.3911,47.1411 25.5,46C 48.45,44.708 71.45,44.0414 94.5,44C 101.394,38.1586 101.061,32.8253 93.5,28C 77.8333,27.6667 62.1667,27.3333 46.5,27C 36.2131,22.8089 33.3797,15.6422 38,5.5C 40.0627,3.26589 42.2294,1.26589 44.5,-0.5 Z"/></g>
<g><path style="opacity:0.983" fill="#FFFF" d="M 401.5,-0.5 C 404.833,-0.5 408.167,-0.5 411.5,-0.5C 415.905,1.41184 418.739,4.74518 420,9.5C 420.333,31.1667 420.667,52.8333 421,74.5C 425.321,82.8236 430.654,83.4902 437,76.5C 437.333,60.8333 437.667,45.1667 438,29.5C 441.875,17.9832 449.375,14.8165 460.5,20C 462.359,21.5578 463.859,23.3911 465,25.5C 466.292,48.45 466.959,71.45 467,94.5C 472.841,101.394 478.175,101.061 483,93.5C 483.333,77.8333 483.667,62.1667 484,46.5C 488.191,36.2131 495.358,33.3797 505.5,38C 507.734,40.0627 509.734,42.2294 511.5,44.5C 511.5,93.1667 511.5,141.833 511.5,190.5C 504.026,202.77 496.526,215.103 489,227.5C 487.073,230.948 485.739,234.615 485,238.5C 484.5,268.832 484.333,299.165 484.5,329.5C 457.159,329.833 429.825,329.5 402.5,328.5C 408.192,321.308 413.692,313.975 419,306.5C 424.913,289.51 420.08,276.676 404.5,268C 397.645,265.381 390.645,264.881 383.5,266.5C 383.666,256.161 383.5,245.828 383,235.5C 382.882,230.481 381.549,225.815 379,221.5C 347.333,189.167 315.667,156.833 284,124.5C 280.476,112.361 284.976,106.528 297.5,107C 310.05,115.541 322.05,124.874 333.5,135C 339.314,137.058 343.48,135.225 346,129.5C 346.333,92.5 346.667,55.5 347,18.5C 350.369,9.89893 356.535,6.73226 365.5,9C 369.667,10.5 372.5,13.3333 374,17.5C 374.333,36.1667 374.667,54.8333 375,73.5C 377.906,81.4529 382.906,83.1196 390,78.5C 390.862,76.913 391.529,75.2464 392,73.5C 392.333,51.8333 392.667,30.1667 393,8.5C 394.688,4.31481 397.521,1.31481 401.5,-0.5 Z"/></g>
<g><path style="opacity:0.982" fill="#FFFF" d="M 109.5,511.5 C 106.167,511.5 102.833,511.5 99.5,511.5C 95.0947,509.588 92.2613,506.255 91,501.5C 90.6667,479.833 90.3333,458.167 90,436.5C 85.6466,428.247 80.3133,427.58 74,434.5C 73.6667,450.167 73.3333,465.833 73,481.5C 69.2497,493.201 61.7497,496.368 50.5,491C 48.6411,489.442 47.1411,487.609 46,485.5C 44.708,462.55 44.0414,439.55 44,416.5C 38.1586,409.606 32.8253,409.939 28,417.5C 27.6667,433.167 27.3333,448.833 27,464.5C 22.8089,474.787 15.6422,477.62 5.5,473C 3.26589,470.937 1.26589,468.771 -0.5,466.5C -0.5,417.5 -0.5,368.5 -0.5,319.5C 7.22538,307.732 14.7254,295.732 22,283.5C 23.9272,280.052 25.2606,276.385 26,272.5C 26.5,242.168 26.6666,211.835 26.5,181.5C 53.8415,181.167 81.1748,181.5 108.5,182.5C 102.087,190.08 96.2534,198.08 91,206.5C 86.1535,225.644 92.9868,238.477 111.5,245C 116.871,245.676 122.204,245.509 127.5,244.5C 127.334,254.839 127.5,265.172 128,275.5C 128.118,280.519 129.451,285.185 132,289.5C 162.639,321.139 193.639,352.472 225,383.5C 229.775,389.801 229.608,395.967 224.5,402C 217.992,405.692 211.992,405.025 206.5,400C 197.018,391.761 187.351,383.761 177.5,376C 171.608,373.862 167.441,375.695 165,381.5C 164.667,418.5 164.333,455.5 164,492.5C 160.631,501.101 154.465,504.268 145.5,502C 141.333,500.5 138.5,497.667 137,493.5C 136.667,474.833 136.333,456.167 136,437.5C 133.094,429.547 128.094,427.88 121,432.5C 120.138,434.087 119.471,435.754 119,437.5C 118.667,459.167 118.333,480.833 118,502.5C 116.312,506.685 113.479,509.685 109.5,511.5 Z"/></g>
<g><path style="opacity:0.983" fill="#FFFF" d="M 511.5,401.5 C 511.5,404.833 511.5,408.167 511.5,411.5C 509.588,415.905 506.255,418.739 501.5,420C 479.833,420.333 458.167,420.667 436.5,421C 428.176,425.321 427.51,430.654 434.5,437C 450.167,437.333 465.833,437.667 481.5,438C 493.017,441.875 496.184,449.375 491,460.5C 489.442,462.359 487.609,463.859 485.5,465C 462.55,466.292 439.55,466.959 416.5,467C 409.606,472.841 409.939,478.175 417.5,483C 433.167,483.333 448.833,483.667 464.5,484C 474.986,488.139 477.819,495.305 473,505.5C 470.937,507.734 468.771,509.734 466.5,511.5C 417.833,511.5 369.167,511.5 320.5,511.5C 308.23,504.026 295.897,496.526 283.5,489C 280.052,487.073 276.385,485.739 272.5,485C 242.168,484.5 211.835,484.333 181.5,484.5C 181.167,457.159 181.5,429.825 182.5,402.5C 189.31,407.475 195.976,412.642 202.5,418C 222.768,425.584 236.934,419.418 245,399.5C 245.676,394.129 245.509,388.796 244.5,383.5C 254.839,383.666 265.172,383.5 275.5,383C 280.519,382.882 285.185,381.549 289.5,379C 320.806,348.695 351.806,318.028 382.5,287C 388.895,281.321 395.395,281.155 402,286.5C 405.446,292.383 405.112,298.05 401,303.5C 392.29,313.208 383.957,323.208 376,333.5C 373.942,339.314 375.775,343.48 381.5,346C 418.5,346.333 455.5,346.667 492.5,347C 501.101,350.369 504.268,356.535 502,365.5C 500.5,369.667 497.667,372.5 493.5,374C 474.833,374.333 456.167,374.667 437.5,375C 429.547,377.906 427.88,382.906 432.5,390C 434.087,390.862 435.754,391.529 437.5,392C 459.167,392.333 480.833,392.667 502.5,393C 506.685,394.688 509.685,397.521 511.5,401.5 Z"/></g>
</svg>
