<?xml version="1.0" encoding="UTF-8"?>
<!DOCTYPE svg PUBLIC "-//W3C//DTD SVG 1.1//EN" "http://www.w3.org/Graphics/SVG/1.1/DTD/svg11.dtd">
<svg xmlns="http://www.w3.org/2000/svg" version="1.1" width="512px" height="512px" style="shape-rendering:geometricPrecision; text-rendering:geometricPrecision; image-rendering:optimizeQuality; fill-rule:evenodd; clip-rule:evenodd" xmlns:xlink="http://www.w3.org/1999/xlink">
<g><path style="opacity:0.985" fill="#000000" d="M 511.5,138.5 C 511.5,161.5 511.5,184.5 511.5,207.5C 510.373,208.122 509.373,208.955 508.5,210C 404.501,210.5 300.501,210.667 196.5,210.5C 196.333,275.501 196.5,340.501 197,405.5C 218.078,411.664 227.744,425.664 226,447.5C 225.167,448.333 224.333,449.167 223.5,450C 149.833,450.667 76.1667,450.667 2.5,450C 1.62656,448.955 0.626561,448.122 -0.5,447.5C -0.5,443.167 -0.5,438.833 -0.5,434.5C 4.15093,419.683 13.9843,410.017 29,405.5C 29.3333,300.167 29.6667,194.833 30,89.5C 34.1667,74.6667 43.6667,65.1667 58.5,61C 94.8333,60.3333 131.167,60.3333 167.5,61C 180.736,64.5683 189.903,72.7349 195,85.5C 196.441,102.11 196.941,118.777 196.5,135.5C 300.501,135.333 404.501,135.5 508.5,136C 509.373,137.045 510.373,137.878 511.5,138.5 Z M 67.5,75.5 C 97.8352,75.3334 128.168,75.5 158.5,76C 168.339,76.4188 175.339,81.0855 179.5,90C 135.167,90.6667 90.8333,90.6667 46.5,90C 50.8736,81.1618 57.8736,76.3285 67.5,75.5 Z M 44.5,105.5 C 90.1667,105.5 135.833,105.5 181.5,105.5C 181.5,115.5 181.5,125.5 181.5,135.5C 171.494,135.666 161.494,135.5 151.5,135C 136.513,121.587 119.18,117.253 99.5,122C 75.0232,130.15 62.3565,147.15 61.5,173C 62.3565,198.85 75.0232,215.85 99.5,224C 119.18,228.747 136.513,224.413 151.5,211C 161.494,210.5 171.494,210.334 181.5,210.5C 181.5,275.5 181.5,340.5 181.5,405.5C 141.832,405.333 102.165,405.5 62.5,406C 58.5,410.667 58.5,415.333 62.5,420C 104.5,420.333 146.5,420.667 188.5,421C 198.339,421.419 205.339,426.086 209.5,435C 145.167,435.667 80.8333,435.667 16.5,435C 21.8384,425.158 30.1717,420.158 41.5,420C 42.3333,419.167 43.1667,418.333 44,417.5C 44.5,313.501 44.6667,209.501 44.5,105.5 Z M 113.5,135.5 C 136.112,137.945 148.445,150.445 150.5,173C 148.514,195.321 136.347,207.821 114,210.5C 91.6531,207.821 79.4865,195.321 77.5,173C 79.4986,150.836 91.4986,138.336 113.5,135.5 Z M 162.5,150.5 C 178.833,150.5 195.167,150.5 211.5,150.5C 211.5,165.5 211.5,180.5 211.5,195.5C 195.153,195.833 178.82,195.499 162.5,194.5C 167.802,179.834 167.802,165.167 162.5,150.5 Z M 226.5,150.5 C 253.167,150.5 279.833,150.5 306.5,150.5C 306.5,165.5 306.5,180.5 306.5,195.5C 279.833,195.5 253.167,195.5 226.5,195.5C 226.5,180.5 226.5,165.5 226.5,150.5 Z M 321.5,150.5 C 348.167,150.5 374.833,150.5 401.5,150.5C 401.5,165.5 401.5,180.5 401.5,195.5C 374.833,195.5 348.167,195.5 321.5,195.5C 321.5,180.5 321.5,165.5 321.5,150.5 Z M 416.5,150.5 C 443.167,150.5 469.833,150.5 496.5,150.5C 496.5,165.5 496.5,180.5 496.5,195.5C 469.833,195.5 443.167,195.5 416.5,195.5C 416.5,180.5 416.5,165.5 416.5,150.5 Z M 74.5,255.5 C 100.167,255.5 125.833,255.5 151.5,255.5C 151.5,295.5 151.5,335.5 151.5,375.5C 125.833,375.5 100.167,375.5 74.5,375.5C 74.5,335.5 74.5,295.5 74.5,255.5 Z"/></g>
<g><path style="opacity:0.996" fill="#000000" d="M 62.5,240.5 C 96.1683,240.333 129.835,240.5 163.5,241C 164.333,241.833 165.167,242.667 166,243.5C 166.667,291.5 166.667,339.5 166,387.5C 165.167,388.333 164.333,389.167 163.5,390C 129.833,390.667 96.1667,390.667 62.5,390C 61.6667,389.167 60.8333,388.333 60,387.5C 59.3333,339.5 59.3333,291.5 60,243.5C 61.045,242.627 61.8783,241.627 62.5,240.5 Z M 74.5,255.5 C 74.5,295.5 74.5,335.5 74.5,375.5C 100.167,375.5 125.833,375.5 151.5,375.5C 151.5,335.5 151.5,295.5 151.5,255.5C 125.833,255.5 100.167,255.5 74.5,255.5 Z"/></g>
</svg>
